<svg width="38" height="36" viewBox="0 0 38 36" fill="none" xmlns="http://www.w3.org/2000/svg">
<path opacity="0.804766" fill-rule="evenodd" clip-rule="evenodd" d="M19.7603 29.7366C19.5021 29.5861 19.1828 29.5861 18.9246 29.7366L8.77865 35.6513C8.15514 36.0148 7.39693 35.4639 7.54995 34.7586L10.0399 23.2815C10.1033 22.9894 10.0046 22.6858 9.78164 22.4867L1.02117 14.6651C0.482802 14.1844 0.77241 13.2931 1.49049 13.2207L13.1753 12.0421C13.4727 12.0121 13.731 11.8245 13.8514 11.5509L18.5831 0.802195C18.8738 0.141642 19.811 0.141642 20.1018 0.802195L24.8335 11.5509C24.9539 11.8245 25.2122 12.0121 25.5096 12.0421L37.1944 13.2207C37.9124 13.2931 38.2021 14.1844 37.6637 14.6651L28.9032 22.4867C28.6802 22.6858 28.5816 22.9894 28.645 23.2815L31.1349 34.7586C31.2879 35.4639 30.5297 36.0148 29.9062 35.6513L19.7603 29.7366Z" fill="#984100"/>
</svg>
