<svg width="39" height="36" viewBox="0 0 39 36" fill="none" xmlns="http://www.w3.org/2000/svg">
<path opacity="0.804766" fill-rule="evenodd" clip-rule="evenodd" d="M19.8391 29.7366C19.5809 29.5861 19.2616 29.5861 19.0034 29.7366L8.85746 35.6513C8.23395 36.0148 7.47574 35.4639 7.62876 34.7586L10.1187 23.2815C10.1821 22.9894 10.0834 22.6858 9.86046 22.4867L1.09998 14.6651C0.561613 14.1844 0.851222 13.2931 1.5693 13.2207L13.2541 12.0421C13.5515 12.0121 13.8098 11.8245 13.9302 11.5509L18.6619 0.802195C18.9526 0.141642 19.8898 0.141642 20.1806 0.802195L24.9123 11.5509C25.0327 11.8245 25.291 12.0121 25.5884 12.0421L37.2732 13.2207C37.9913 13.2931 38.2809 14.1844 37.7425 14.6651L28.982 22.4867C28.7591 22.6858 28.6604 22.9894 28.7238 23.2815L31.2137 34.7586C31.3667 35.4639 30.6085 36.0148 29.985 35.6513L19.8391 29.7366Z" fill="#984100"/>
</svg>
