<svg width="41" height="40" viewBox="0 0 41 40" fill="none" xmlns="http://www.w3.org/2000/svg">
<path opacity="0.804766" fill-rule="evenodd" clip-rule="evenodd" d="M20.9336 32.9699C20.6676 32.8068 20.3325 32.8068 20.0664 32.9699L9.3138 39.5608C8.69445 39.9405 7.92082 39.3973 8.06762 38.6858L10.7328 25.769C10.7911 25.4865 10.6984 25.1939 10.488 24.9964L1.07747 16.162C0.559898 15.6761 0.851901 14.8069 1.55784 14.732L14.0333 13.409C14.3344 13.3771 14.5942 13.1836 14.7111 12.9043L19.7347 0.905194C20.019 0.226151 20.9811 0.22615 21.2654 0.905193L26.2889 12.9043C26.4059 13.1836 26.6657 13.3771 26.9668 13.409L39.4422 14.732C40.1481 14.8069 40.4401 15.6761 39.9226 16.162L30.512 24.9964C30.3017 25.1939 30.209 25.4865 30.2673 25.769L32.9324 38.6858C33.0792 39.3973 32.3056 39.9405 31.6862 39.5608L20.9336 32.9699Z" fill="#984100"/>
</svg>
