<svg width="39" height="36" viewBox="0 0 39 36" fill="none" xmlns="http://www.w3.org/2000/svg">
<path opacity="0.804766" fill-rule="evenodd" clip-rule="evenodd" d="M19.9967 29.7366C19.7385 29.5861 19.4192 29.5861 19.161 29.7366L9.01506 35.6513C8.39156 36.0148 7.63335 35.4639 7.78637 34.7586L10.2763 23.2815C10.3397 22.9894 10.241 22.6858 10.0181 22.4867L1.25759 14.6651C0.719221 14.1844 1.00883 13.2931 1.72691 13.2207L13.4117 12.0421C13.7091 12.0121 13.9674 11.8245 14.0878 11.5509L18.8195 0.802195C19.1103 0.141642 20.0474 0.141642 20.3382 0.802195L25.0699 11.5509C25.1903 11.8245 25.4486 12.0121 25.746 12.0421L37.4308 13.2207C38.1489 13.2931 38.4385 14.1844 37.9001 14.6651L29.1396 22.4867C28.9167 22.6858 28.818 22.9894 28.8814 23.2815L31.3713 34.7586C31.5243 35.4639 30.7661 36.0148 30.1426 35.6513L19.9967 29.7366Z" fill="#984100"/>
</svg>
