<svg width="38" height="36" viewBox="0 0 38 36" fill="none" xmlns="http://www.w3.org/2000/svg">
<path opacity="0.804766" fill-rule="evenodd" clip-rule="evenodd" d="M19.0753 29.7366C18.8171 29.5861 18.4978 29.5861 18.2396 29.7366L8.09368 35.6513C7.47017 36.0148 6.71196 35.4639 6.86498 34.7586L9.35493 23.2815C9.4183 22.9894 9.31965 22.6858 9.09668 22.4867L0.336202 14.6651C-0.202165 14.1844 0.0874429 13.2931 0.805522 13.2207L12.4903 12.0421C12.7877 12.0121 13.046 11.8245 13.1664 11.5509L17.8981 0.802195C18.1889 0.141642 19.1261 0.141642 19.4168 0.802195L24.1485 11.5509C24.2689 11.8245 24.5272 12.0121 24.8246 12.0421L36.5094 13.2207C37.2275 13.2931 37.5171 14.1844 36.9787 14.6651L28.2182 22.4867C27.9953 22.6858 27.8966 22.9894 27.96 23.2815L30.4499 34.7586C30.603 35.4639 29.8448 36.0148 29.2212 35.6513L19.0753 29.7366Z" fill="#FFA867"/>
</svg>
