<svg width="46" height="46" viewBox="0 0 46 46" fill="none" xmlns="http://www.w3.org/2000/svg">
<path d="M14.9671 13.8737H15.9726C16.4315 15.4977 17.4081 16.9276 18.754 17.9458C20.0998 18.9641 21.7413 19.5151 23.4289 19.5151C25.1166 19.5151 26.7581 18.9641 28.1039 17.9458C29.4498 16.9276 30.4263 15.4977 30.8852 13.8737H31.8908C32.4518 13.8737 32.9899 13.6508 33.3866 13.2541C33.7834 12.8573 34.0062 12.3193 34.0062 11.7582C34.0062 11.1972 33.7834 10.6591 33.3866 10.2624C32.9899 9.86563 32.4518 9.64275 31.8908 9.64275H30.8852C30.4263 8.01869 29.4498 6.58887 28.1039 5.57061C26.7581 4.55235 25.1166 4.00134 23.4289 4.00134C21.7413 4.00134 20.0998 4.55235 18.754 5.57061C17.4081 6.58887 16.4315 8.01869 15.9726 9.64275H14.9671C14.406 9.64275 13.868 9.86563 13.4712 10.2624C13.0745 10.6591 12.8516 11.1972 12.8516 11.7582C12.8516 12.3193 13.0745 12.8573 13.4712 13.2541C13.868 13.6508 14.406 13.8737 14.9671 13.8737ZM31.8908 11.0531C32.0778 11.0531 32.2572 11.1274 32.3894 11.2596C32.5216 11.3918 32.5959 11.5712 32.5959 11.7582C32.5959 11.9452 32.5216 12.1246 32.3894 12.2568C32.2572 12.3891 32.0778 12.4634 31.8908 12.4634H31.1497C31.1708 12.2307 31.1856 11.9966 31.1856 11.7582C31.1856 11.5199 31.1708 11.2858 31.1497 11.0531H31.8908ZM23.4289 5.41183C23.6646 5.4125 23.9 5.42639 24.1341 5.45343V6.82213C24.1341 7.00915 24.0598 7.18851 23.9276 7.32075C23.7953 7.45299 23.616 7.52729 23.4289 7.52729C23.2419 7.52729 23.0626 7.45299 22.9303 7.32075C22.7981 7.18851 22.7238 7.00915 22.7238 6.82213H21.3135C21.3135 7.38319 21.5364 7.92126 21.9331 8.31799C22.3298 8.71472 22.8679 8.9376 23.4289 8.9376C23.99 8.9376 24.5281 8.71472 24.9248 8.31799C25.3215 7.92126 25.5444 7.38319 25.5444 6.82213V5.78203C27.0369 6.31627 28.2745 7.39114 29.0125 8.79407C29.7506 10.197 29.9352 11.8258 29.53 13.3583C29.1248 14.8909 28.1592 16.2156 26.8242 17.0704C25.4892 17.9252 23.8821 18.2478 22.3206 17.9746C20.7591 17.7013 19.357 16.852 18.3917 15.5947C17.4263 14.3373 16.9679 12.7634 17.1073 11.1844C17.2466 9.60529 17.9734 8.13599 19.144 7.06707C20.3146 5.99816 21.8437 5.40747 23.4289 5.41183V5.41183ZM14.9671 11.0531H15.7082C15.687 11.2858 15.6722 11.5199 15.6722 11.7582C15.6722 11.9966 15.687 12.2307 15.7082 12.4634H14.9671C14.7801 12.4634 14.6007 12.3891 14.4685 12.2568C14.3362 12.1246 14.2619 11.9452 14.2619 11.7582C14.2619 11.5712 14.3362 11.3918 14.4685 11.2596C14.6007 11.1274 14.7801 11.0531 14.9671 11.0531Z" fill="#FCFCFC"/>
<path d="M19.9032 11.3458C20.093 11.1642 20.3456 11.0629 20.6083 11.0629C20.871 11.0629 21.1236 11.1642 21.3135 11.3458L21.5201 11.5524L22.5172 10.5553L22.3106 10.348C21.8516 9.91083 21.2421 9.66699 20.6083 9.66699C19.9745 9.66699 19.365 9.91083 18.9061 10.348L18.6995 10.5546L19.6966 11.5517L19.9032 11.3458ZM25.5444 11.3458C25.7343 11.1642 25.9868 11.0629 26.2495 11.0629C26.5122 11.0629 26.7648 11.1642 26.9547 11.3458L27.1613 11.5524L28.1584 10.5553L27.9518 10.348C27.4929 9.91083 26.8834 9.66699 26.2495 9.66699C25.6157 9.66699 25.0062 9.91083 24.5473 10.348L24.3407 10.5546L25.3378 11.5517L25.5444 11.3458ZM22.0186 14.4139L21.9446 14.2644L20.6824 14.8941L20.7571 15.0436C21.0052 15.5396 21.3866 15.9568 21.8584 16.2484C22.3302 16.5399 22.8739 16.6944 23.4286 16.6944C23.9832 16.6944 24.5269 16.5399 24.9988 16.2484C25.4706 15.9568 25.8519 15.5396 26.1001 15.0436L26.1748 14.8948L24.9126 14.2644L24.8421 14.4132C24.7111 14.6751 24.5098 14.8954 24.2607 15.0494C24.0116 15.2033 23.7246 15.2849 23.4318 15.2849C23.1389 15.2849 22.8519 15.2033 22.6028 15.0494C22.3537 14.8954 22.1524 14.6751 22.0214 14.4132L22.0186 14.4139Z" fill="#FCFCFC"/>
<path d="M36.8269 11.639C36.827 10.2656 36.5566 8.90548 36.0311 7.63651C35.5055 6.36754 34.7351 5.21454 33.7639 4.24336C32.7927 3.27219 31.6396 2.50187 30.3706 1.97641C29.1016 1.45094 27.7415 1.18063 26.368 1.18091H20.4891C19.1157 1.18082 17.7558 1.45126 16.4869 1.9768C15.218 2.50234 14.0651 3.27267 13.0939 4.24382C12.1228 5.21497 11.3524 6.3679 10.8269 7.63678C10.3014 8.90566 10.0309 10.2656 10.031 11.639V31.5025C10.031 35.0559 11.4426 38.4637 13.9552 40.9763C16.4678 43.4889 19.8756 44.9005 23.4289 44.9005C26.9823 44.9005 30.3901 43.4889 32.9027 40.9763C35.4153 38.4637 36.8269 35.0559 36.8269 31.5025V11.639ZM12.731 6.98503C13.5383 5.64834 14.6761 4.54198 16.0349 3.77244C17.3936 3.00291 18.9276 2.59611 20.4891 2.59122H26.368C27.5563 2.59094 28.733 2.82477 29.8309 3.27936C30.9288 3.73395 31.9264 4.40039 32.7667 5.2406C33.6069 6.08082 34.2735 7.07835 34.7281 8.17621C35.1828 9.27407 35.4167 10.4508 35.4166 11.639V16.3149L23.4994 21.9082L11.4413 16.1795V11.639C11.4415 9.99914 11.887 8.39007 12.7303 6.98362L12.731 6.98503ZM35.4166 17.8726V27.5664L25.153 22.6916L35.4166 17.8726ZM23.4289 43.4902C20.2507 43.4866 17.2037 42.2225 14.9563 39.9751C12.709 37.7278 11.4449 34.6808 11.4413 31.5025V17.7407L35.4166 29.1276V31.5025C35.4128 34.6807 34.1486 37.7276 31.9013 39.9749C29.654 42.2222 26.6071 43.4864 23.4289 43.4902V43.4902Z" fill="#FCFCFC"/>
</svg>
