<svg width="140" height="116" viewBox="0 0 140 116" fill="none" xmlns="http://www.w3.org/2000/svg">
<path d="M85.3278 55.2653C85.3278 55.2653 84.5332 54.9987 84.162 54.4649C83.7909 53.9317 82.4137 53.3446 81.248 53.3446C80.0822 53.3446 78.705 53.9312 78.3339 54.4649C77.9633 54.9987 77.1682 55.2653 77.1682 55.2653M76.7803 54.0787C76.7803 54.0787 78.3204 52.7583 79.0284 52.3581C79.7358 51.958 81.7015 51.7579 82.5087 52.1182C83.3158 52.4786 84.8145 54.0787 84.8145 54.0787M76.1138 61.4383C76.1138 61.4383 77.0713 62.2387 76.8631 63.3187C76.655 64.3987 75.5312 64.2788 74.7399 64.3191C73.9491 64.3589 73.5327 65.3195 72.6586 65.2792C71.7844 65.319 71.368 64.3589 70.5772 64.3191C69.7864 64.2788 68.6621 64.3993 68.4539 63.3187C68.2457 62.2382 69.2033 61.4383 69.2033 61.4383M71.7 63.5988C71.7 63.5988 70.8673 63.2385 71.2002 61.7988C71.5332 60.3586 71.991 60.6786 71.991 58.3989C71.991 56.1187 71.991 53.3452 71.991 53.3452M77.3626 68.417C77.3626 68.417 76.3233 68.5335 75.6556 68.5036C74.9886 68.4736 74.6937 68.2968 74.194 68.3167C73.195 68.3566 73.2413 68.6773 72.6582 68.6978C72.0756 68.6778 72.1219 68.3571 71.1224 68.3167C70.6226 68.2968 70.3278 68.4736 69.6607 68.5036C68.9937 68.5335 67.9538 68.417 67.9538 68.417M75.1978 67.7187C75.1978 67.7187 74.1574 67.1986 73.8659 67.2788C73.5743 67.3589 72.6587 67.999 72.6587 67.999C72.6587 67.999 71.7431 67.3589 71.4515 67.2788C71.16 67.1986 70.1196 67.7187 70.1196 67.7187M75.8238 69.0788C75.8238 69.0788 73.9506 70.2793 72.6601 70.2793C71.3695 70.2793 69.4964 69.0788 69.4964 69.0788M75.8213 49.8778C75.8213 49.8778 79.3599 46.5173 85.6873 49.8778M60.6125 55.2653C60.6125 55.2653 61.4071 54.9987 61.7783 54.4649C62.1488 53.9317 63.5266 53.3446 64.6923 53.3446C65.858 53.3446 67.2352 53.9312 67.6064 54.4649C67.9775 54.9987 68.7721 55.2653 68.7721 55.2653M69.1622 54.0787C69.1622 54.0787 67.622 52.7583 66.9141 52.3581C66.2061 51.958 64.2409 51.7579 63.4338 52.1182C62.6266 52.4786 61.1279 54.0787 61.1279 54.0787M70.1193 49.8778C70.1193 49.8778 66.5812 46.5173 60.2533 49.8778M90.7354 47.9253C96.4533 57.3491 93.1386 69.4429 83.3317 74.9375C73.5249 80.4321 60.9395 77.2469 55.2216 67.823C49.5037 58.3992 52.8184 46.3054 62.6253 40.8108C72.4321 35.3162 85.0174 38.5014 90.7354 47.9253ZM75.8094 38.3212C75.5048 30.9082 74.7843 23.5323 73.6502 16.2528L72.97 11.8877L72.2899 16.2528C71.1558 23.5323 70.4353 30.9076 70.1306 38.3212C71.0593 38.1976 72.0059 38.129 72.97 38.129C73.9341 38.129 74.8807 38.1976 75.8094 38.3212ZM70.1342 77.4541C70.4389 84.8672 71.1593 92.243 72.2934 99.5226L72.9736 103.888L73.6537 99.5226C74.7879 92.243 75.5084 84.8677 75.813 77.4541C74.8843 77.5777 73.9377 77.6463 72.9736 77.6463C72.0095 77.6463 71.0629 77.5777 70.1342 77.4541ZM93.334 60.6156C101.048 60.3234 108.724 59.6309 116.299 58.5404L120.842 57.8867L116.299 57.2331C108.724 56.1431 101.049 55.4507 93.334 55.1579C93.4626 56.0504 93.534 56.9602 93.534 57.8867C93.534 58.8133 93.462 59.7231 93.334 60.6156ZM52.6097 55.1607C44.8953 55.4535 37.2202 56.146 29.6443 57.2359L25.1018 57.8896L29.6443 58.5433C37.2197 59.6333 44.8948 60.3257 52.6097 60.6185C52.481 59.726 52.4096 58.8162 52.4096 57.8896C52.4102 56.9636 52.4816 56.0533 52.6097 55.1607ZM64.6964 32.3673C61.7704 31.0198 58.9664 28.0142 58.3353 25.1045C57.7042 22.1948 56.7761 17.9507 52.6135 18.0853C52.6135 18.0853 56.1624 20.3084 56.0398 24.0823C55.9548 26.7092 54.7601 29.9415 56.9336 32.1646C59.1064 34.3877 61.1306 36.4648 61.1306 38.901C61.1306 41.0566 60.2564 42.3633 60.2564 42.3633L60.2722 42.357C63.0664 40.2428 66.4426 38.811 70.1344 38.3203C70.1344 38.3203 68.4013 34.0735 64.6964 32.3673ZM81.2492 32.3672C84.1753 31.0197 86.9793 28.0141 87.6104 25.1044C88.2415 22.1947 89.1701 17.9506 93.3322 18.0852C93.3322 18.0852 89.7832 20.3083 89.9059 24.0821C89.9909 26.7091 91.1855 29.9414 89.0126 32.1645C86.8392 34.3876 84.8157 36.4647 84.8157 38.9009C84.8157 41.0565 85.6898 42.3632 85.6898 42.3632L85.674 42.3569C82.8799 40.2427 79.5036 38.8109 75.8119 38.3201C75.8119 38.3201 77.5444 34.0734 81.2492 32.3672ZM81.248 83.3761C84.1741 84.7236 86.9781 87.7291 87.6092 90.6388C88.2403 93.5485 89.1689 97.7927 93.3316 97.6581C93.3316 97.6581 89.7826 95.4349 89.9052 91.6611C89.9902 89.0342 91.1849 85.8014 89.0114 83.5788C86.838 81.3556 84.8145 79.2786 84.8145 76.8423C84.8145 74.6868 85.6886 73.3801 85.6886 73.3801L85.6728 73.3864C82.8787 75.5006 79.5024 76.9324 75.8107 77.4231C75.8107 77.4231 77.5426 81.6698 81.248 83.3761ZM64.6953 83.3761C61.7692 84.7236 58.9647 87.7291 58.3341 90.6388C57.703 93.5485 56.7744 97.7927 52.6123 97.6581C52.6123 97.6581 56.1613 95.4349 56.0386 91.6611C55.9536 89.0342 54.759 85.8014 56.9324 83.5788C59.1058 81.3556 61.1294 79.2786 61.1294 76.8423C61.1294 74.6868 60.2552 73.3801 60.2552 73.3801L60.271 73.3864C63.0652 75.5006 66.4414 76.9324 70.1332 77.4231C70.1332 77.4231 68.4001 81.6698 64.6953 83.3761ZM60.5774 42.1242C54.9073 37.0887 48.9707 32.3633 42.8118 27.9867L39.1189 25.3624L41.8499 28.9116C46.4044 34.83 51.3224 40.5347 56.5619 45.9833C57.1276 45.2648 57.7467 44.573 58.4285 43.9184C59.1103 43.2627 59.8302 42.6678 60.5774 42.1242ZM85.3595 73.6514C91.0296 78.6863 96.9662 83.4123 103.125 87.7889L106.818 90.4137L104.087 86.8645C99.5325 80.9461 94.6145 75.2414 89.375 69.7928C88.8093 70.5113 88.1902 71.2031 87.5084 71.8577C86.8266 72.5129 86.1067 73.1078 85.3595 73.6514ZM89.3738 45.9804C94.6139 40.5318 99.5314 34.827 104.086 28.9086L106.817 25.36L103.124 27.9843C96.965 32.3609 91.0284 37.0868 85.3583 42.1217C86.106 42.6654 86.826 43.2603 87.5072 43.9154C88.189 44.5701 88.8076 45.2624 89.3738 45.9804ZM56.5643 69.7948C51.3242 75.2434 46.4068 80.9481 41.8523 86.8665L39.1213 90.4152L42.8147 87.7909C48.9737 83.4143 54.9103 78.6884 60.5803 73.6534C59.8326 73.1098 59.1127 72.5149 58.4314 71.8597C57.7491 71.2051 57.13 70.5133 56.5643 69.7948ZM99.5175 49.9186C100.92 47.1068 104.048 44.4123 107.075 43.8059C110.103 43.1994 114.52 42.307 114.38 38.307C114.38 38.307 112.066 41.7174 108.139 41.5995C105.406 41.5178 102.042 40.3699 99.7284 42.4584C97.4149 44.5464 95.2535 46.4915 92.7177 46.4915C90.4745 46.4915 89.1148 45.6514 89.1148 45.6514L89.1213 45.6666C91.3214 48.3517 92.8114 51.596 93.3221 55.1436C93.3221 55.1436 97.7419 53.4793 99.5175 49.9186ZM99.5175 65.8262C100.92 68.638 104.048 71.3324 107.075 71.9389C110.103 72.5453 114.52 73.4377 114.38 77.4373C114.38 77.4373 112.066 74.0269 108.139 74.1447C105.406 74.2264 102.042 75.3744 99.7284 73.2864C97.4149 71.1978 95.2535 69.2533 92.7177 69.2533C90.4745 69.2533 89.1148 70.0933 89.1148 70.0933L89.1213 70.0781C91.3214 67.3936 92.8114 64.1487 93.3221 60.6012C93.3221 60.6012 97.7419 62.2655 99.5175 65.8262ZM46.435 65.8247C45.0327 68.6365 41.905 71.331 38.8771 71.9374C35.8491 72.5439 31.4325 73.4363 31.5725 77.4358C31.5725 77.4358 33.886 74.0255 37.8132 74.1433C40.5469 74.225 43.9106 75.373 46.2241 73.2849C48.5375 71.1964 50.699 69.2519 53.2348 69.2519C55.478 69.2519 56.8378 70.0919 56.8378 70.0919L56.8312 70.0767C54.6311 67.3917 53.1411 64.1473 52.6304 60.5997C52.6304 60.5997 48.21 62.2641 46.435 65.8247ZM46.435 49.9172C45.0327 47.1054 41.905 44.4109 38.8771 43.8045C35.8491 43.198 31.4325 42.3056 31.5725 38.3056C31.5725 38.3056 33.886 41.7159 37.8132 41.5981C40.5469 41.5164 43.9106 40.3684 46.2241 42.457C48.5375 44.5455 50.699 46.49 53.2348 46.49C55.478 46.49 56.8378 45.65 56.8378 45.65L56.8312 45.6652C54.6311 48.3502 53.1411 51.5946 52.6304 55.1422C52.6304 55.1422 48.21 53.4778 46.435 49.9172ZM82.507 54.5561C82.507 55.225 81.9429 55.7676 81.2464 55.7676C80.5504 55.7676 79.9858 55.2255 79.9858 54.5561C79.9858 53.8873 80.5499 53.3452 81.2464 53.3452C81.9429 53.3446 82.507 53.8873 82.507 54.5561ZM63.4337 54.5561C63.4337 55.225 63.9978 55.7676 64.6943 55.7676C65.3902 55.7676 65.9548 55.2255 65.9548 54.5561C65.9548 53.8873 65.3908 53.3452 64.6943 53.3452C63.9983 53.3446 63.4337 53.8873 63.4337 54.5561Z" stroke="#D97122" stroke-width="1.5" stroke-miterlimit="10" stroke-linecap="round" stroke-linejoin="round"/>
</svg>
