<svg width="38" height="37" viewBox="0 0 38 37" fill="none" xmlns="http://www.w3.org/2000/svg">
<g clip-path="url(#clip0_1_22646)">
<path d="M32.9369 21.8052L30.0188 21.17V20.0052C30.6687 19.7315 31.2671 19.3426 31.7843 18.8464C32.5958 18.0674 33.1355 17.097 33.3589 16.0413C34.3197 15.9227 35.0648 15.1331 35.0648 14.1789C35.0648 13.6796 34.8592 13.2066 34.4962 12.8562V8.54977C34.4962 5.87328 32.2281 3.69591 29.4401 3.69591V3.71029C29.107 3.32154 28.6026 3.07276 28.0386 3.07178H28.03C28.0236 3.07178 28.0171 3.07178 28.0106 3.07178C26.1446 3.07178 24.375 3.78236 23.026 5.07385C21.6435 6.3975 20.8821 8.14741 20.8821 10.0013V12.8791C20.5337 13.2271 20.3362 13.6919 20.3362 14.179C20.3362 14.5152 20.4291 14.8306 20.5909 15.1038C20.0827 14.9753 19.5538 14.9091 19.0139 14.9119C18.0077 14.9191 17.0596 15.1714 16.2286 15.6089V14.9107C16.2286 12.7553 14.7911 10.8723 12.6517 10.225L12.4309 10.8976C14.263 11.4518 15.4941 13.0646 15.4941 14.9107V16.0654C14.2402 16.976 13.3648 18.3523 13.1419 19.9239C12.3402 20.4332 11.4099 20.702 10.4407 20.702C9.1303 20.702 7.8979 20.212 6.97055 19.3225C6.04371 18.4321 5.53328 17.2489 5.53328 15.9909V15.0911C5.53328 13.5493 6.46732 12.1348 7.91655 11.4751L7.95761 11.457C9.68914 10.6914 10.808 9.01348 10.808 7.18233V6.57907H10.0734V7.18233C10.0734 8.72401 9.14088 10.1378 7.69318 10.7972L7.64962 10.8165C5.91781 11.5829 4.79874 13.2608 4.79874 15.0911V20.5842C4.79874 21.3343 4.91539 22.0746 5.14449 22.79C4.00457 23.1999 3.06421 23.9985 2.50171 25.0371C1.95932 24.3998 1.65501 23.5954 1.65501 22.7645C1.65501 21.6503 2.18042 20.6179 3.09683 19.9319C3.63186 19.5304 3.93868 18.9292 3.93868 18.2826V11.0604C3.93868 9.38749 4.61732 7.81471 5.84957 6.63175C7.06875 5.46204 8.68877 4.81076 10.4114 4.79792C12.1372 4.78481 13.7705 5.43122 15.0164 6.618C16.2881 7.82917 16.9884 9.43495 16.9884 11.1394V14.2004H17.723V11.1394C17.723 9.24554 16.9455 7.462 15.5338 6.11741C14.1478 4.79729 12.3279 4.07951 10.4056 4.09284C8.48912 4.10723 6.68665 4.83177 5.33018 6.13313C3.95917 7.4493 3.20414 9.19921 3.20414 11.0605V18.2827C3.20414 18.7109 3.00023 19.1094 2.64487 19.3761C1.54901 20.1964 0.920471 21.4314 0.920471 22.7646C0.920471 23.8816 1.37926 24.9595 2.18644 25.7576C2.02551 26.23 1.94368 26.7226 1.94368 27.2253V33.9639H10.9542V33.2588H2.67799V27.2253C2.67799 26.7303 2.77062 26.2469 2.95352 25.7884C3.45579 24.5247 4.57596 23.5917 5.94998 23.2924L9.10437 22.6061V21.2543C9.53679 21.3547 9.98442 21.4071 10.4405 21.4071C10.9116 21.4071 11.3747 21.351 11.8222 21.243V22.6061L13.0845 22.8809V24.5714C13.0845 26.057 14.3435 27.2656 15.891 27.2656H15.9931V26.5605H15.891C14.7485 26.5605 13.8191 25.6682 13.8191 24.5714V20.7149C13.8191 17.9243 16.1519 15.6375 19.0193 15.617C20.43 15.6065 21.7519 16.1255 22.7504 17.077C23.7491 18.0286 24.299 19.2966 24.299 20.6472V24.5714C24.299 25.6682 23.3696 26.5605 22.2271 26.5605V27.2656C23.7746 27.2656 25.0336 26.057 25.0336 24.5714V21.9791L25.4274 21.8932V25.1048C25.4274 25.3073 25.5615 25.4873 25.7612 25.5526C25.8134 25.5697 25.8671 25.578 25.9202 25.578C26.0699 25.578 26.2152 25.5122 26.3104 25.3939L27.7232 23.5058L29.1283 25.3842L29.136 25.3941C29.2648 25.5543 29.4855 25.6179 29.6852 25.5527C29.8847 25.4873 30.0189 25.3073 30.0189 25.1049V21.893L32.7746 22.4928C34.9467 22.9652 36.4638 24.7887 36.4638 26.9271V33.2588H33.3421V27.3667H32.6076V33.2588H26.7051V33.9639H37.1983V26.9271C37.1983 25.7405 36.7735 24.5763 36.0022 23.6493C35.2307 22.7222 34.1421 22.0673 32.9369 21.8052ZM6.45101 19.8211C6.47143 19.8407 6.49288 19.859 6.51367 19.8783V20.565C6.51367 21.1837 6.59417 21.7976 6.75085 22.3953L5.84898 22.5914C5.63957 21.9404 5.53313 21.2668 5.53313 20.5842V18.6646C5.78097 19.0825 6.08734 19.4717 6.45101 19.8211ZM8.36991 22.043L7.46724 22.2394C7.32231 21.6928 7.2482 21.1311 7.2482 20.565V20.457C7.59997 20.6897 7.9759 20.8816 8.36991 21.0308V22.043ZM12.5568 22.043V21.0138C12.7366 20.9438 12.9125 20.8639 13.0846 20.776V22.158L12.5568 22.043ZM33.461 15.3018C33.4696 15.1772 33.4755 15.0521 33.4755 14.9261V14.7792C33.8432 14.6479 34.1455 14.3883 34.3232 14.0564C34.3276 14.0969 34.3302 14.1378 34.3302 14.179C34.3302 14.7082 33.9633 15.1561 33.461 15.3018ZM33.7616 8.54991V13.3733C33.7616 13.6128 33.6504 13.8274 33.4755 13.9734V13.5801C33.4755 12.9886 33.2925 12.4177 32.9458 11.9285C32.8164 11.7467 32.7157 11.5458 32.6469 11.3321C32.5787 11.1191 32.5442 10.8982 32.5442 10.6755V9.94498C32.5442 8.83994 31.6077 7.94094 30.4594 7.94094L29.6141 7.93494C29.7722 7.5017 29.8535 7.04793 29.8535 6.57928V4.8164C29.8535 4.67896 29.8364 4.54541 29.8049 4.41707C32.0175 4.59554 33.7616 6.38029 33.7616 8.54991ZM21.6164 10.0014C21.6164 8.33618 22.3012 6.76354 23.5446 5.57324C24.755 4.41446 26.3402 3.777 28.0115 3.777C28.0173 3.777 28.0231 3.777 28.0289 3.777H28.0378C28.6339 3.77806 29.1189 4.24431 29.1189 4.8164V6.57928C29.1189 7.12275 28.9895 7.64237 28.7345 8.1235C28.1241 9.27269 26.9115 9.98659 25.5697 9.98659C24.5954 9.98659 23.6801 10.3507 22.9925 11.0115C22.3041 11.6724 21.925 12.5508 21.925 13.4849V13.911C21.7327 13.737 21.6164 13.4909 21.6164 13.2218V10.0014ZM21.0861 14.0036C21.2678 14.3294 21.5605 14.5919 21.925 14.7409V14.9261C21.925 15.0517 21.9298 15.1769 21.9385 15.3015C21.437 15.1553 21.0708 14.7077 21.0708 14.179C21.0707 14.1197 21.077 14.0614 21.0861 14.0036ZM22.8381 16.2049C22.7201 15.7915 22.6595 15.362 22.6595 14.9262V13.4849C22.6595 12.7392 22.9622 12.0378 23.5121 11.5099C24.0611 10.9823 24.7918 10.6917 25.5697 10.6917C27.1119 10.6917 28.5123 9.91008 29.2783 8.63777L30.4566 8.64609C31.2026 8.64609 31.8096 9.22876 31.8096 9.94498V10.6755C31.8096 10.9684 31.8551 11.2591 31.945 11.5398C32.0358 11.8216 32.1684 12.0863 32.3389 12.3257C32.6019 12.6968 32.741 13.1306 32.741 13.5801V14.9262C32.741 16.219 32.2167 17.4341 31.265 18.3478C30.3122 19.2617 29.0465 19.765 27.7006 19.765C27.0878 19.765 26.4902 19.6608 25.9236 19.4553C25.4972 19.3015 25.0959 19.0925 24.7286 18.8341C24.4373 17.9919 23.9435 17.2204 23.2678 16.5766C23.13 16.4452 22.9865 16.3216 22.8381 16.2049ZM25.0336 21.2561V20.6473C25.0336 20.3651 25.0121 20.0862 24.9707 19.8119C25.1195 19.8886 25.2718 19.9592 25.4273 20.023V21.1701L25.0336 21.2561ZM26.162 24.3839V22.1759L27.2193 22.9707L26.162 24.3839ZM27.7231 22.4537L26.1618 21.2801V20.2709C26.66 20.4031 27.1756 20.47 27.7006 20.47C28.2439 20.47 28.7754 20.397 29.2843 20.2585V21.2801L27.7231 22.4537ZM29.2843 24.3839L28.227 22.9706L29.2843 22.1758V24.3839Z" fill="#FCFCFC"/>
<path d="M20.5678 23.3389C20.7625 23.3389 20.9203 23.1874 20.9203 23.0006V22.7681C20.9203 22.5812 20.7626 22.4297 20.5678 22.4297C20.3732 22.4297 20.2154 22.5812 20.2154 22.7681V23.0006C20.2154 23.1874 20.3732 23.3389 20.5678 23.3389ZM17.6523 23.3389C17.847 23.3389 18.0048 23.1874 18.0048 23.0006V22.7681C18.0048 22.5812 17.847 22.4297 17.6523 22.4297C17.4577 22.4297 17.2998 22.5812 17.2998 22.7681V23.0006C17.2998 23.1874 17.4576 23.3389 17.6523 23.3389ZM20.7486 24.6226L20.086 24.3184C19.9037 24.6844 19.5131 24.921 19.091 24.921C18.6687 24.921 18.2782 24.6846 18.0963 24.3187L17.4334 24.6224C17.7366 25.2322 18.3872 25.6262 19.091 25.6262C19.7944 25.6262 20.4449 25.2323 20.7486 24.6226Z" fill="#FCFCFC"/>
<path d="M14.6117 19.413L15.9221 20.671L16.4415 20.1724L15.1311 18.9144L14.6117 19.413Z" fill="#FCFCFC"/>
<path d="M17.2314 19.4138L15.9211 18.1558L15.4017 18.6544L16.712 19.9124L17.2314 19.4138Z" fill="#FCFCFC"/>
<path d="M26.033 31.5458C26.033 29.7087 24.7297 28.1421 22.8634 27.7361L20.8252 27.2926V26.7453C22.4972 26.1023 23.7493 24.5719 23.9747 22.6937C24.0269 22.2593 23.8348 21.8246 23.4734 21.5591C23.0979 21.2833 22.4517 20.6904 22.3426 19.8191C22.302 19.4941 22.0816 19.2232 21.7678 19.1123L21.7331 19.1001C21.3695 18.9715 20.9661 19.0817 20.7293 19.3744C19.3793 21.043 16.7895 21.5356 15.3658 21.6808C14.9987 21.7182 14.6638 21.9046 14.447 22.1919C14.2305 22.4789 14.1506 22.8418 14.2279 23.1876C14.47 24.2712 15.0777 25.2557 15.9391 25.9598C16.3474 26.2935 16.8057 26.5565 17.2929 26.7435V27.2926L15.2546 27.7361C13.3884 28.1422 12.085 29.7088 12.085 31.5458V33.9641H26.0331V31.5458H26.033ZM14.9461 23.0397C14.912 22.8868 14.946 22.7327 15.042 22.6056C15.1382 22.478 15.2808 22.3986 15.4435 22.3821C16.9832 22.2249 19.7927 21.6816 21.3094 19.807C21.3379 19.7719 21.3812 19.7525 21.4261 19.7525C21.4438 19.7525 21.4617 19.7555 21.4793 19.7617L21.5139 19.774C21.5677 19.793 21.6058 19.8425 21.6133 19.9032V19.9032C21.7545 21.0314 22.5597 21.7758 23.0271 22.1192C23.1842 22.2346 23.2677 22.4238 23.245 22.613C22.9881 24.7536 21.1885 26.3678 19.0591 26.3678C17.0752 26.3677 15.384 24.9992 14.9461 23.0397ZM19.0591 27.0729C19.4122 27.0729 19.7571 27.0341 20.0907 26.9627V27.4218C19.8042 27.6602 19.4432 27.7906 19.0591 27.7906C18.675 27.7906 18.3139 27.6601 18.0273 27.4217V26.9627C18.3649 27.0352 18.7108 27.0729 19.0591 27.0729ZM17.5512 27.9594C17.9704 28.3065 18.4982 28.4959 19.0591 28.4958C19.62 28.4958 20.1477 28.3064 20.5667 27.9594L21.8598 28.2408V30.2721H16.3602V28.2186L17.5512 27.9594ZM15.417 28.4238L15.6258 28.3783V30.9772H22.5944V28.4005L22.701 28.4237C22.9519 28.4783 23.1899 28.5589 23.4132 28.6615V33.2588H14.7688V28.6328C14.9735 28.544 15.1901 28.4732 15.417 28.4238ZM12.8196 31.5458C12.8196 30.5552 13.2822 29.6607 14.0343 29.0697V33.2589H12.8196V31.5458ZM25.2985 33.2589H24.1478V29.1221C24.8618 29.7128 25.2985 30.5838 25.2985 31.5458V33.2589Z" fill="#FCFCFC"/>
<path d="M10.4633 18.3515C10.1822 18.3515 9.92221 18.1941 9.80116 17.9506L9.13824 18.2543C9.38049 18.7417 9.90069 19.0567 10.4633 19.0567C11.0256 19.0567 11.5456 18.7418 11.7883 18.2546L11.1257 17.9504C11.0043 18.1941 10.7443 18.3515 10.4633 18.3515Z" fill="#FCFCFC"/>
<path d="M12.4522 25.3102H4.17413V26.0153H12.4522V25.3102Z" fill="#FCFCFC"/>
<path d="M13.0962 14.8745C13.3202 14.8745 13.5024 15.0494 13.5024 15.2644H14.237C14.237 14.6606 13.7252 14.1693 13.0962 14.1693C12.4672 14.1693 11.9555 14.6606 11.9555 15.2644H12.69C12.69 15.0494 12.8723 14.8745 13.0962 14.8745ZM6.68982 15.2644H7.42435C7.42435 15.0494 7.60659 14.8745 7.83055 14.8745C8.05459 14.8745 8.23675 15.0494 8.23675 15.2644H8.97129C8.97129 14.6606 8.45954 14.1693 7.83055 14.1693C7.20157 14.1693 6.68982 14.6606 6.68982 15.2644Z" fill="#FCFCFC"/>
<path d="M27.7237 18.0339C28.2966 18.0339 28.8266 17.7131 29.0739 17.2166L28.4113 16.9124C28.2852 17.1653 28.0153 17.3288 27.7238 17.3288C27.4319 17.3288 27.1622 17.1655 27.0366 16.9127L26.3737 17.2164C26.6203 17.7129 27.1504 18.0339 27.7237 18.0339ZM30.3566 13.9672C30.5806 13.9672 30.7628 14.1421 30.7628 14.3572H31.4973C31.4973 13.7534 30.9856 13.2621 30.3566 13.2621C29.7276 13.2621 29.2159 13.7534 29.2159 14.3572H29.9504C29.9503 14.1422 30.1326 13.9672 30.3566 13.9672ZM25.0909 13.9672C25.3149 13.9672 25.4971 14.1421 25.4971 14.3572H26.2316C26.2316 13.7534 25.7199 13.2621 25.0909 13.2621C24.4619 13.2621 23.9501 13.7534 23.9501 14.3572H24.6847C24.6847 14.1422 24.8669 13.9672 25.0909 13.9672Z" fill="#FCFCFC"/>
<path d="M28.0904 25.2257H27.3558V32.4622H28.0904V25.2257Z" fill="#FCFCFC"/>
</g>
<defs>
<clipPath id="clip0_1_22646">
<rect width="37.6082" height="36.1039" fill="white" transform="translate(0.255127 0.465942)"/>
</clipPath>
</defs>
</svg>
