<svg width="1230" height="84" viewBox="0 0 1230 84" fill="none" xmlns="http://www.w3.org/2000/svg">
<g filter="url(#filter0_d_1_22537)">
<path d="M1225.94 30.6735C1226.12 21.482 1225.85 3.27817 1225.85 3.01237C1225.85 2.60961 1225.7 0.668271 1225.7 0.0775649C1169.45 0.0775493 167.737 0.12309 4.54606 0.0771485C4.37078 9.26862 4.19697 18.4774 4.02168 27.6684C4.02246 28.6606 3.973 29.72 4.02096 30.2972C4.22932 32.7463 4.07129 35.7347 4.02168 38.1859C3.96546 41.0748 4.0779 43.3492 4.02168 46.2381C3.98695 48.3381 4.0564 49.4409 4.02168 51.5409C10.5999 51.2799 20.0373 51.7449 25.4414 50.7715C31.8973 49.6083 38.2854 50.3322 43.4745 50.5319C49.4326 50.7611 54.2927 50.6178 59.6522 50.063C61.8367 49.837 64.3056 49.9125 66.6438 49.8512C68.2049 49.1087 70.5564 48.4308 71.1732 47.6107C72.8103 45.433 78.1235 45.1562 83.2201 44.8492C84.8588 44.7507 88.143 45.1792 88.4621 45.5665C90.0447 47.4843 94.0283 47.6714 98.9347 47.5762C102.46 47.5078 106.009 47.574 109.548 47.5795C111.028 47.3196 112.448 46.8901 113.999 46.8293C120.45 46.5766 126.933 46.3615 133.418 46.2811C137.076 46.2357 141.258 46.1706 144.278 46.6969C146.403 47.0673 152 47.0591 150.014 48.8499C147.244 51.2426 149.078 53.0974 155.9 54.3706C159.906 56.8366 166.695 56.7502 173.974 56.8601C181.53 56.9739 188.989 57.7487 196.5 58.2203C199.311 58.3971 202.308 58.872 203.811 57.4286C204.122 57.1299 206.969 56.8322 208.195 56.9712C218.221 58.1071 224.171 55.8178 230.881 54.1425C234.098 52.8638 237.56 51.6426 240.461 50.2895C243.322 48.9545 246.743 48.2333 251.782 48.2596C264.159 48.3242 276.543 48.2815 288.916 48.3849C291.788 48.409 294.631 48.8439 297.487 49.0896C302.44 48.8686 307.323 48.1201 312.395 47.5576C315.616 47.2003 319.15 46.9049 322.49 46.9568C331.122 47.0898 339.718 47.4706 348.347 47.6594C350.371 47.7037 352.697 47.5182 354.492 47.1976C362.292 45.8051 370.188 45.792 378.42 46.6931C379.888 46.854 381.762 46.6351 383.436 46.5613C388.63 46.332 394.055 45.6536 398.957 45.9457C407.802 46.4732 415.614 46.1892 423.399 44.7125C427.576 43.9202 431.858 44.0406 435.858 45.2612C437.785 45.8489 440.923 46.1274 443.647 46.2713C446.933 46.4453 450.385 46.2499 453.713 46.3719C455.224 46.4278 457.62 46.7807 457.885 47.139C459.477 49.291 461.323 51.5135 455.808 53.4285C454.043 55.8332 451.966 58.2647 461.329 59.586C461.776 59.6489 461.976 59.9066 462.28 60.0757C464.523 61.3227 467.445 62.232 471.853 62.6643C477.472 63.2152 480.53 64.6192 481.934 66.4647C483.789 68.9017 490.232 69.8631 496.185 70.3517C507.559 71.2862 520.441 70.6219 529.013 74.1844C529.334 74.3179 530.073 74.3863 530.639 74.4027C536.532 74.5739 542.431 74.8667 548.326 74.8607C562.169 74.8459 576.02 74.7545 589.846 74.546C594.265 74.4793 598.602 73.9185 603.008 73.6372C608.493 73.2871 614.014 73.0009 619.511 72.6716C624.244 72.3881 629.134 72.2503 633.648 71.7469C639.691 71.0734 646.049 69.9577 651.835 71.1308C661.764 73.1443 672.648 72.5107 682.914 72.5911C695.569 72.6907 708.317 71.8333 720.978 71.2692C723.623 71.151 726.051 70.5038 728.591 70.1093C731.062 69.7263 733.592 69.0057 736.019 69.039C746.449 69.1813 756.844 69.7514 767.263 69.787C786.255 69.8516 805.254 69.6316 824.251 69.5725C826.772 69.5649 829.675 69.5802 831.757 69.9654C841.79 71.8235 852.641 71.0903 863.187 71.1587C867.4 71.1861 871.874 70.3063 875.833 70.5486C894.386 71.6856 910.462 69.6453 926.202 66.8034C928.449 66.3974 931.461 66.4182 934.144 66.3301C935.451 66.2875 936.884 66.572 938.145 66.497C945.216 66.0757 952.196 65.406 959.315 65.1669C971.07 64.7719 982.912 64.6619 994.709 64.3911C1006.15 64.1284 1016.89 65.4005 1027.96 65.9099C1043.55 66.6272 1059.46 66.5682 1075.21 66.9501C1084.92 67.1859 1094.57 67.6652 1104.27 67.9628C1118.87 68.4104 1132.36 71.1549 1147.63 70.2505C1148.53 70.1969 1149.55 70.3648 1150.52 70.4179C1161.94 71.0433 1173.37 71.6408 1184.77 72.3017C1190.17 72.6147 1196.11 72.6754 1200.72 73.5103C1207.88 74.8093 1217.86 75.1405 1225.94 75.0677C1225.94 61.0274 1225.94 47.4551 1225.94 33.0136C1225.96 32.264 1225.53 31.4209 1225.94 30.6735Z" fill="#F2D2BA"/>
</g>
<defs>
<filter id="filter0_d_1_22537" x="0" y="0.0771484" width="1230" height="83" filterUnits="userSpaceOnUse" color-interpolation-filters="sRGB">
<feFlood flood-opacity="0" result="BackgroundImageFix"/>
<feColorMatrix in="SourceAlpha" type="matrix" values="0 0 0 0 0 0 0 0 0 0 0 0 0 0 0 0 0 0 127 0" result="hardAlpha"/>
<feOffset dy="4"/>
<feGaussianBlur stdDeviation="2"/>
<feComposite in2="hardAlpha" operator="out"/>
<feColorMatrix type="matrix" values="0 0 0 0 0 0 0 0 0 0 0 0 0 0 0 0 0 0 0.25 0"/>
<feBlend mode="normal" in2="BackgroundImageFix" result="effect1_dropShadow_1_22537"/>
<feBlend mode="normal" in="SourceGraphic" in2="effect1_dropShadow_1_22537" result="shape"/>
</filter>
</defs>
</svg>
