<svg width="267" height="44" viewBox="0 0 267 44" fill="none" xmlns="http://www.w3.org/2000/svg">
<circle cx="19.937" cy="24.4845" r="18.9297" transform="rotate(-1 19.937 24.4845)" fill="#F9F9F9"/>
<g clip-path="url(#clip0_1_22801)">
<path d="M34.2136 24.2355C34.0848 16.8595 27.5886 10.9916 19.7039 11.1292C11.8192 11.2668 5.53174 17.3579 5.66049 24.7339C5.77685 31.4 11.094 36.8341 17.9366 37.7168L17.7737 28.3842L14.1488 28.4475L14.0814 24.5869L17.7063 24.5236L17.655 21.5812C17.5965 18.234 19.6957 16.3479 22.9567 16.291C24.5187 16.2637 26.157 16.4961 26.157 16.4961L26.2144 19.7828L24.4141 19.8142C22.6407 19.8452 22.1056 20.8843 22.124 21.9405L22.1677 24.4458L26.1272 24.3766L25.5617 28.2483L22.2351 28.3063L22.398 37.6389C29.2056 36.5179 34.3299 30.9016 34.2136 24.2355Z" fill="#1877F2"/>
<path d="M25.5617 28.2482L26.1272 24.3766L22.1677 24.4457L22.124 21.9404C22.1056 20.8842 22.6407 19.8451 24.4142 19.8142L26.2144 19.7827L26.157 16.496C26.157 16.496 24.5187 16.2637 22.9567 16.291C19.6957 16.3479 17.5965 18.234 17.655 21.5812L17.7063 24.5236L14.0814 24.5869L14.1488 28.4474L17.7737 28.3841L17.9366 37.7167C19.4185 37.9073 20.9237 37.8811 22.398 37.6389L22.2351 28.3063L25.5617 28.2482Z" fill="#F8F8F8"/>
</g>
<circle cx="80.813" cy="22.3588" r="18.9297" transform="rotate(-1 80.813 22.3588)" fill="#F9F9F9"/>
<g clip-path="url(#clip1_1_22801)">
<path d="M84.6002 11.6974L76.656 11.8361C74.9002 11.8668 73.2285 12.5936 72.0087 13.8568C70.7888 15.12 70.1207 16.8161 70.1514 18.5718L70.29 26.516C70.3207 28.2718 71.0476 29.9435 72.3107 31.1633C73.5739 32.3832 75.27 33.0513 77.0258 33.0206L84.97 32.882C86.7257 32.8513 88.3974 32.1245 89.6173 30.8613C90.8371 29.5981 91.5052 27.902 91.4746 26.1463L91.3359 18.2021C91.3053 16.4463 90.5784 14.7746 89.3152 13.5547C88.052 12.3349 86.356 11.6668 84.6002 11.6974V11.6974ZM89.4885 26.1809C89.5331 28.7363 87.4907 30.8513 84.9353 30.8959L76.9911 31.0346C74.4357 31.0792 72.3207 29.0367 72.2761 26.4814L72.1374 18.5372C72.0928 15.9818 74.1353 13.8668 76.6906 13.8222L84.6348 13.6835C87.1902 13.6389 89.3052 15.6813 89.3499 18.2367L89.4885 26.1809Z" fill="url(#paint0_linear_1_22801)"/>
<path d="M80.7205 17.063C79.3159 17.0875 77.9786 17.669 77.0027 18.6795C76.0268 19.6901 75.4923 21.0469 75.5168 22.4515C75.5414 23.8562 76.1229 25.1935 77.1334 26.1694C78.144 27.1453 79.5008 27.6797 80.9054 27.6552C82.31 27.6307 83.6474 27.0492 84.6233 26.0386C85.5992 25.0281 86.1336 23.6713 86.1091 22.2666C86.0846 20.862 85.5031 19.5247 84.4925 18.5488C83.482 17.5729 82.1251 17.0384 80.7205 17.063ZM80.8707 25.6692C79.9932 25.6834 79.1457 25.349 78.5144 24.7393C77.883 24.1296 77.5193 23.2944 77.5029 22.4169C77.471 20.591 78.9307 19.0808 80.7552 19.049C82.5797 19.0172 84.0912 20.4755 84.1231 22.3013C84.1549 24.1258 82.6953 25.6373 80.8707 25.6692Z" fill="url(#paint1_linear_1_22801)"/>
<path d="M86.4193 17.272C86.809 17.2652 87.1194 16.9438 87.1126 16.554C87.1058 16.1642 86.7844 15.8538 86.3946 15.8606C86.0049 15.8674 85.6944 16.1889 85.7012 16.5786C85.708 16.9684 86.0295 17.2788 86.4193 17.272Z" fill="url(#paint2_linear_1_22801)"/>
</g>
<circle cx="141.696" cy="21.2953" r="18.9297" transform="rotate(-1 141.696 21.2953)" fill="#F9F9F9"/>
<g clip-path="url(#clip2_1_22801)">
<path d="M152.185 15.2041C151.394 15.5656 150.555 15.8113 149.694 15.9336C150.594 15.3784 151.259 14.5124 151.563 13.4998C150.721 14.0196 149.795 14.3914 148.828 14.5992C148.221 13.9737 147.44 13.5452 146.587 13.3692C145.734 13.1932 144.847 13.2779 144.043 13.6123C143.238 13.9467 142.553 14.5153 142.075 15.2443C141.598 15.9733 141.351 16.829 141.367 17.7001C141.373 18.0444 141.408 18.3749 141.485 18.6887C139.755 18.6342 138.057 18.2153 136.501 17.4594C134.945 16.7035 133.566 15.6277 132.454 14.3022C131.913 15.2677 131.76 16.4031 132.027 17.4772C132.294 18.5513 132.96 19.4833 133.89 20.0835C133.202 20.0771 132.526 19.9053 131.918 19.5828L131.919 19.6305C131.937 20.6333 132.301 21.5991 132.948 22.3653C133.596 23.1315 134.487 23.6513 135.473 23.8371C135.103 23.9415 134.721 23.9963 134.337 24C134.061 24.0097 133.785 23.9897 133.513 23.9402C133.809 24.7973 134.363 25.5416 135.099 26.0708C135.835 26.5999 136.718 26.8878 137.624 26.8948C136.108 28.1239 134.223 28.8092 132.272 28.8411C131.915 28.8473 131.574 28.8374 131.231 28.7997C133.239 30.0447 135.565 30.6813 137.928 30.6323C145.92 30.4928 150.173 23.7964 150.073 18.058C150.07 17.8661 150.06 17.6808 150.048 17.4969C150.893 16.8689 151.618 16.092 152.185 15.2041V15.2041Z" fill="#03A9F4"/>
</g>
<circle cx="202.579" cy="20.2328" r="18.9297" transform="rotate(-1 202.579 20.2328)" fill="#F9F9F9"/>
<path fill-rule="evenodd" clip-rule="evenodd" d="M200.125 13.7549C199.558 12.754 198.959 12.5792 197.743 12.5312C196.528 12.4687 193.476 12.4904 190.833 12.5397C188.184 12.5892 185.132 12.6816 183.921 12.7881C182.71 12.8828 182.115 13.0786 181.577 14.1014C181.027 15.1218 180.764 16.8665 180.814 19.9287L180.815 19.9392C180.864 22.9882 181.184 24.7352 181.767 25.7239C182.338 26.7246 182.938 26.8968 184.151 26.9593C185.366 27.01 188.419 26.9962 191.068 26.9467C193.711 26.8973 196.762 26.7971 197.976 26.7023C199.189 26.5945 199.782 26.4 200.316 25.3786C200.871 24.3686 201.131 22.6108 201.081 19.5618L201.081 19.5513C201.031 16.4879 200.714 14.754 200.125 13.7549V13.7549Z" fill="#F44336"/>
<path fill-rule="evenodd" clip-rule="evenodd" d="M188.477 23.7214L188.349 15.8601L194.748 19.6723L188.477 23.7214Z" fill="#FAFAFA"/>
<defs>
<linearGradient id="paint0_linear_1_22801" x1="72.3101" y1="31.164" x2="89.3158" y2="13.5541" gradientUnits="userSpaceOnUse">
<stop stop-color="#FFC107"/>
<stop offset="0.507" stop-color="#F44336"/>
<stop offset="0.99" stop-color="#9C27B0"/>
</linearGradient>
<linearGradient id="paint1_linear_1_22801" x1="77.134" y1="26.1688" x2="84.492" y2="18.5494" gradientUnits="userSpaceOnUse">
<stop stop-color="#FFC107"/>
<stop offset="0.507" stop-color="#F44336"/>
<stop offset="0.99" stop-color="#9C27B0"/>
</linearGradient>
<linearGradient id="paint2_linear_1_22801" x1="85.9165" y1="17.0742" x2="86.8974" y2="16.0584" gradientUnits="userSpaceOnUse">
<stop stop-color="#FFC107"/>
<stop offset="0.507" stop-color="#F44336"/>
<stop offset="0.99" stop-color="#9C27B0"/>
</linearGradient>
<clipPath id="clip0_1_22801">
<rect width="28.5574" height="26.715" fill="white" transform="translate(5.42737 11.3784) rotate(-1)"/>
</clipPath>
<clipPath id="clip1_1_22801">
<rect width="21.1878" height="21.1878" fill="white" transform="translate(70.0358 11.9517) rotate(-1)"/>
</clipPath>
<clipPath id="clip2_1_22801">
<rect width="21.1878" height="21.1878" fill="white" transform="translate(130.919 10.8882) rotate(-1)"/>
</clipPath>
</defs>
</svg>
