<svg width="180" height="177" viewBox="0 0 180 177" fill="none" xmlns="http://www.w3.org/2000/svg">
<path d="M157.527 64.8308C155.724 65.2872 153.106 65.6615 149.81 65.9748C146.551 66.2916 142.609 66.5485 138.248 67.1622C133.909 67.7864 129.126 68.8412 124.39 70.8863C122.13 71.8414 120.047 72.9924 118.111 74.2479C118.119 74.2749 118.124 74.303 118.131 74.33C118.399 74.6855 118.649 75.0645 118.87 75.4799C120.77 74.2925 122.812 73.1895 125.017 72.2579C129.558 70.3301 134.214 69.2038 138.459 68.4341C142.721 67.6585 146.636 67.2161 149.895 66.721C153.189 66.2223 155.831 65.6357 157.582 65.0901C159.373 64.5269 160.277 64.0411 160.277 64.054C160.275 64.0411 159.312 64.4154 157.527 64.8308Z" fill="#A95210"/>
<path d="M111.706 65.4667C113.012 63.6363 114.485 61.8329 116.184 60.1304C119.621 56.6069 123.445 53.8297 127.098 51.5171C130.713 49.222 134.166 47.3353 137.006 45.6352C139.843 43.9503 142.032 42.4297 143.445 41.2282C144.868 40.0372 145.527 39.2476 145.536 39.257C145.529 39.2452 144.806 39.968 143.304 41.0357C141.825 42.1211 139.529 43.4704 136.616 44.9781C133.727 46.4894 130.192 48.2059 126.415 50.4247C122.661 52.6376 118.614 55.4489 115.051 59.0733C113.326 60.8262 111.844 62.6812 110.529 64.575C110.587 64.6172 110.652 64.6571 110.709 64.6994C111.041 64.9411 111.374 65.198 111.706 65.4667Z" fill="#A95210"/>
<path d="M57.8457 95.2889C56.8787 95.3406 55.9117 95.3945 54.9494 95.4192C55.7971 94.7293 56.6375 94.03 57.4732 93.3307C57.3729 92.7076 57.2965 92.0799 57.238 91.4487C57.2165 91.4674 57.195 91.4838 57.1747 91.5026C53.7699 92.2453 50.5466 92.5281 47.6409 92.5164C44.1071 92.5246 41.0533 92.1198 38.6 91.6469C33.6671 90.6719 31.0777 89.5396 31.0598 89.5678C31.0801 89.5408 33.4892 90.8444 38.3636 92.1221C40.7907 92.7546 43.8516 93.3283 47.4809 93.5219C49.8232 93.6428 52.415 93.5689 55.1834 93.2215C54.2725 93.9936 53.3569 94.7316 52.4221 95.4708C49.822 95.4872 47.2302 95.384 44.6432 95.1118C39.6577 94.5697 34.7463 93.36 30.168 91.2762L30.1561 91.268L30.1322 91.2597C27.6466 90.3973 25.2256 89.2522 22.7985 88.161C20.3452 87.0663 17.8955 85.9481 15.2882 85.1843C12.7047 84.4122 9.92191 83.9769 7.21789 84.377C4.51865 84.7619 2.0343 86.0408 1.51049e-05 87.7468C2.13935 86.1593 4.65117 85.0446 7.27998 84.7677C9.91953 84.4944 12.5531 85.027 15.0613 85.8871C17.5636 86.746 19.968 87.8618 22.3664 89.0257C24.7743 90.2131 27.162 91.4029 29.7108 92.372L29.6535 92.3509C31.9683 93.482 34.4013 94.3831 36.8821 95.0895C39.3796 95.7946 41.926 96.2546 44.4808 96.5608C46.4721 96.7791 48.4753 96.914 50.4678 96.9527C49.0269 98.0287 47.5716 99.0694 46.0554 100.022C41.84 102.648 37.2725 104.765 32.4028 105.795L32.3599 105.807L32.3456 105.801C29.8588 106.59 27.2503 107.084 24.6621 107.651C22.0727 108.217 19.4283 108.822 16.9679 109.917C14.5014 110.982 12.22 112.567 10.4926 114.576C8.74479 116.585 7.53902 118.974 6.68902 121.449C7.67751 119.03 9.02056 116.733 10.7958 114.841C12.5758 112.929 14.8214 111.524 17.2556 110.59C19.6838 109.652 22.2613 109.092 24.8734 108.612C27.4521 108.1 30.0856 107.675 32.6715 106.93C35.194 106.464 37.6569 105.712 40.0195 104.765C42.4083 103.791 44.6682 102.587 46.8386 101.242C48.9744 99.9365 51.0134 98.4886 52.9832 96.9773C54.7453 96.9727 56.4978 96.9163 58.248 96.8354C58.1 96.3238 57.9651 95.8087 57.8457 95.2889Z" fill="#A95210"/>
<path d="M57.7167 82.914C56.7187 82.5678 55.7231 82.2158 54.7286 81.8451C55.9212 81.4931 57.1055 81.1211 58.2838 80.7363C58.5226 80.0499 58.8186 79.428 59.1625 78.8695C59.1732 78.8378 59.1804 78.8038 59.1911 78.7721C58.9046 78.8707 58.6181 78.9622 58.3387 79.0596C54.8897 78.4647 51.7751 77.5319 49.0925 76.4325C45.8298 75.0879 43.1604 73.5919 41.0736 72.2156C36.9012 69.4618 34.9517 67.4272 34.9242 67.4683C34.9541 67.4296 36.6779 69.5568 40.6761 72.5723C42.6829 74.0612 45.2687 75.7449 48.5517 77.2902C50.6696 78.2805 53.099 79.1898 55.7851 79.9102C54.651 80.2763 53.5121 80.6225 52.3684 80.9486C49.9652 79.983 47.605 78.9211 45.3296 77.7079C40.9196 75.312 36.8522 72.3329 33.4367 68.7062L33.42 68.6968L33.4009 68.6804C31.4561 66.9298 29.663 64.9891 27.8436 63.0402C26.0099 61.1124 24.1666 59.153 22.0739 57.4645C19.9715 55.7855 17.5886 54.3435 14.9264 53.7076C12.2857 53.0235 9.47303 53.2805 6.94212 54.09C9.51601 53.4201 12.2797 53.3462 14.819 54.0865C17.357 54.814 19.6182 56.3088 21.5748 58.0301C23.5423 59.7642 25.333 61.7131 27.0903 63.6949C28.856 65.6731 30.6216 67.6783 32.5819 69.5404L32.5473 69.4982C34.2425 71.4083 36.1252 73.1695 38.1559 74.7488C40.183 76.3422 42.3534 77.7267 44.6205 78.9657C46.3611 79.929 48.1482 80.7926 49.9688 81.5869C48.2258 82.0328 46.4781 82.4458 44.7172 82.7626C39.7986 83.6004 34.7535 83.828 29.8588 82.9574L29.8099 82.948L29.7979 82.9374C27.1894 82.7344 24.594 82.2123 21.9807 81.7594C19.3663 81.3041 16.6825 80.8782 13.9881 80.958C11.2996 81.0096 8.57646 81.6127 6.19239 82.8224C3.79757 84.0251 1.74778 85.7839 1.37538e-05 87.7434C1.86 85.8836 3.98501 84.2656 6.36072 83.1885C8.75793 82.0973 11.3855 81.6292 13.9881 81.682C16.5942 81.7418 19.2015 82.1853 21.8017 82.7133C24.3779 83.219 26.9745 83.8198 29.657 84.1072C32.1689 84.6223 34.7403 84.857 37.2927 84.8652C39.881 84.8558 42.4405 84.5942 44.9643 84.1835C47.4355 83.7752 49.8804 83.2143 52.2872 82.5549C53.9944 83.2437 55.7147 83.8773 57.435 84.4897C57.515 83.9653 57.6069 83.4408 57.7167 82.914Z" fill="#A95210"/>
<path d="M116.702 61.6779C115.847 62.5989 114.952 63.6091 114.1 64.7719C113.686 65.3187 113.299 65.9112 112.934 66.5342C113.284 66.8593 113.629 67.196 113.964 67.5468C114.301 66.837 114.69 66.1564 115.103 65.5228C115.852 64.3882 116.646 63.3487 117.413 62.3947C118.993 60.5022 120.43 58.9557 121.654 57.7014C124.099 55.1929 125.549 53.8541 125.538 53.8447C125.548 53.8565 124.019 54.9817 121.354 57.2697C120.037 58.4148 118.446 59.8475 116.702 61.6779Z" fill="#A95210"/>
<path d="M147.518 40.0765C145.638 41.8611 143.482 43.3454 141.271 44.7733C139.068 46.2083 136.832 47.5975 134.718 49.2566L134.739 49.2261C132.595 50.6165 130.572 52.2345 128.775 54.0215C126.967 55.8155 125.338 57.782 123.842 59.8447C122.387 61.8487 121.085 63.9384 119.856 66.0656C118.108 66.7814 116.393 67.5499 114.689 68.336C115.049 68.7479 115.395 69.1714 115.718 69.6067C116.688 69.1527 117.657 68.6974 118.638 68.2656C118.044 69.3298 117.488 70.4069 116.941 71.4864C117.271 72.0777 117.562 72.6808 117.793 73.2933C117.889 73.1079 117.985 72.9225 118.075 72.736C120.921 70.7589 123.809 69.2864 126.509 68.1964C129.759 66.8541 132.731 66.0938 135.184 65.5822C140.142 64.6494 142.976 64.7057 142.953 64.6741C142.971 64.7093 140.218 64.4465 135.236 65.0777C132.727 65.4191 129.68 66.0293 126.267 67.1979C124.06 67.9864 121.67 69.0212 119.256 70.3776C119.793 69.3369 120.35 68.3055 120.921 67.2835C123.327 66.2886 125.769 65.3945 128.263 64.6706C133.086 63.2849 138.07 62.5797 143.102 62.7639L143.132 62.7663L143.158 62.7639C145.8 62.6419 148.488 62.7756 151.176 62.8765C153.824 62.988 156.544 63.0819 159.261 62.8214C161.94 62.5457 164.652 61.9179 167.016 60.5182C169.374 59.1548 171.15 57.0252 172.361 54.6691C171.026 56.9466 169.159 58.9353 166.784 60.1673C164.474 61.4216 161.831 61.9074 159.195 62.074C156.54 62.2183 153.863 62.0763 151.211 61.9109C148.54 61.7314 145.859 61.5307 143.131 61.5871L143.173 61.5695C140.58 61.4228 137.996 61.4744 135.422 61.7619C132.85 62.0517 130.319 62.5938 127.836 63.2931C125.903 63.8211 124.017 64.4558 122.148 65.1563C123.059 63.6239 124.007 62.1209 125.03 60.673C127.902 56.6579 131.305 52.9842 135.427 50.2081L135.451 50.1788L135.459 50.1636C137.444 48.5127 139.645 47.0695 141.837 45.5747C144.004 44.067 146.227 42.5158 148.069 40.5916C149.927 38.6708 151.408 36.3758 152.223 33.8356C153.092 31.327 153.258 28.6659 153.078 26.0693C153.093 28.6624 152.744 31.3024 151.841 33.7229C150.937 36.1552 149.416 38.3012 147.518 40.0765Z" fill="#A95210"/>
<path d="M22.206 53.7596C24.6068 54.7874 26.8333 56.186 29.0144 57.6398C31.2122 59.0947 33.4041 60.6247 35.7667 61.9095L35.7094 61.8778C37.8439 63.3022 40.1241 64.4955 42.5142 65.4717C44.8947 66.4315 47.3635 67.1543 49.8777 67.721C52.3238 68.2689 54.7879 68.6679 57.2723 68.9635C58.7395 70.4032 60.2509 71.7924 61.7706 73.1499C62.0464 72.6853 62.3353 72.2289 62.6349 71.7783C61.6763 70.9429 60.7379 70.1028 59.8056 69.2393C61.1809 69.3777 62.5573 69.4821 63.9398 69.5795L63.6115 70.3938C64.2012 69.6042 64.822 68.8368 65.4834 68.1011L65.1241 68.0812C64.8161 68.0624 64.4997 68.0343 64.1929 68.0143C61.2441 66.1734 58.7478 64.1341 56.6992 62.1066C54.2089 59.6438 52.3262 57.2561 50.9342 55.1993C48.1514 51.0821 47.1462 48.4761 47.0961 48.4996C47.1474 48.4784 47.9115 51.0856 50.4221 55.3776C51.7031 57.5095 53.4377 60.0369 55.8659 62.6909C57.4418 64.4087 59.3221 66.1663 61.5283 67.8395C60.3416 67.7515 59.149 67.6424 57.9683 67.5109C56.1178 65.7158 54.3474 63.8502 52.7238 61.8684C49.584 58.0035 46.9898 53.722 45.2397 49.0862L45.2337 49.0651L45.223 49.0416C44.1056 46.6985 43.203 44.224 42.273 41.7447C41.3395 39.2749 40.3975 36.7663 39.1189 34.4197C37.8272 32.0812 36.1905 29.8543 33.9807 28.2632C31.8056 26.637 29.1051 25.8133 26.4465 25.6162C29.092 25.9659 31.6743 26.9327 33.7348 28.5648C35.7977 30.198 37.2984 32.4297 38.4397 34.7506C39.5762 37.0995 40.4799 39.567 41.3287 42.0592C42.1823 44.5443 43.0311 47.0446 44.1091 49.491C44.94 51.8881 45.987 54.2242 47.2489 56.4383C48.5012 58.6793 49.9625 60.7737 51.5765 62.7672C52.8181 64.3136 54.1588 65.7768 55.5364 67.2059C53.7338 66.9642 51.9478 66.6826 50.1762 66.2989C45.3089 65.2441 40.5647 63.5533 36.3779 60.8852L36.323 60.8688C34.013 59.6943 31.8091 58.244 29.5671 56.8396C27.3168 55.4351 25.0234 54.0247 22.5009 53.079C19.9736 52.124 17.254 51.6593 14.5536 51.8846C11.889 52.0829 9.30552 52.9383 6.93458 54.0916C9.3676 53.0814 11.9594 52.3704 14.5894 52.2753C17.217 52.165 19.8195 52.7294 22.206 53.7596Z" fill="#A95210"/>
<path d="M124.423 21.9164C123.373 24.2724 121.973 26.4548 120.476 28.6091C119.003 30.768 117.464 32.8905 116.164 35.2161L116.176 35.1832C114.732 37.2706 113.501 39.5268 112.531 41.8606C111.559 44.199 110.818 46.6173 110.247 49.0965C109.681 51.5006 109.275 53.9247 108.973 56.3652C107.457 57.8601 105.998 59.3995 104.578 60.9529C105.065 61.1993 105.539 61.4633 106.013 61.7262C106.895 60.7558 107.791 59.7972 108.683 58.8503C108.552 60.2055 108.446 61.5631 108.337 62.9218L107.541 62.6097C108.348 63.0978 109.124 63.6023 109.873 64.1221L109.876 64.0881C109.895 63.79 109.908 63.4838 109.925 63.187C111.83 60.2771 113.912 57.8096 115.958 55.8044C118.445 53.3592 120.897 51.5088 122.991 50.1372C127.156 47.4046 129.846 46.4014 129.819 46.3556C129.846 46.4025 127.189 47.1535 122.818 49.621C120.629 50.887 118.057 52.5918 115.35 54.9784C113.596 56.5319 111.817 58.3869 110.101 60.5599C110.202 59.3936 110.306 58.2226 110.433 57.0634C112.277 55.2353 114.184 53.4871 116.205 51.8843C120.127 48.8055 124.483 46.2582 129.199 44.5381L129.242 44.5217L129.241 44.5205C131.625 43.4246 134.17 42.5247 136.663 41.6259C139.189 40.699 141.739 39.7744 144.121 38.5213C146.49 37.2541 148.785 35.6338 150.386 33.4701C152.051 31.3265 152.871 28.683 153.086 26.0735C152.71 28.6759 151.735 31.2045 150.059 33.2367C148.411 35.2607 146.145 36.7296 143.778 37.856C141.389 38.9695 138.867 39.8648 136.343 40.692C133.793 41.545 131.247 42.3745 128.763 43.4387L128.788 43.4328C126.34 44.2483 123.952 45.2773 121.699 46.5187C119.438 47.7413 117.307 49.181 115.28 50.765C113.698 51.9887 112.198 53.3134 110.756 54.671C110.991 52.9016 111.285 51.1475 111.659 49.4074C112.746 44.6203 114.467 39.9457 117.193 35.8297L117.22 35.7863L117.221 35.7781C118.403 33.5065 119.878 31.3394 121.308 29.1359C122.737 26.9312 124.178 24.6632 125.127 22.1886C126.096 19.7141 126.574 17.0377 126.349 14.3837C126.172 11.7425 125.286 9.22691 124.093 6.88965C125.122 9.28206 125.829 11.8458 125.944 14.4306C126.047 17.0154 125.471 19.5698 124.423 21.9164Z" fill="#A95210"/>
<path d="M104.344 53.4746C103.921 54.6456 103.478 55.9069 103.146 57.309C102.94 58.1726 102.758 59.0807 102.674 60.0464C103.156 60.2634 103.632 60.4969 104.106 60.7304C104.078 59.6709 104.191 58.6161 104.369 57.6223C104.621 56.2929 104.954 55.0339 105.283 53.8618C106.009 51.5186 106.749 49.5439 107.386 47.9259C108.674 44.6899 109.483 42.9158 109.47 42.9111C109.483 42.917 108.507 44.5315 106.932 47.642C106.16 49.2002 105.246 51.1244 104.344 53.4746Z" fill="#A95210"/>
<path d="M66.6022 17.0434C67.5644 19.4135 68.147 21.9514 68.6532 24.4999C69.1475 27.0578 69.576 29.6625 70.3413 32.2063L70.3162 32.1547C70.7854 34.6515 71.5649 37.0732 72.5415 39.4023C73.5419 41.7513 74.7596 43.9759 76.1158 46.1055C77.4529 48.2011 78.9129 50.2016 80.4566 52.1352C80.4637 54.2367 80.5413 56.3252 80.6416 58.4125C81.1657 58.2518 81.6958 58.1063 82.2294 57.9725C82.153 56.6772 82.0933 55.3759 82.0575 54.0841C82.9314 55.1307 83.8243 56.1738 84.7352 57.1993L83.6441 57.6628C84.703 57.4492 85.7751 57.2955 86.8567 57.1946L86.6609 56.9893C86.4532 56.7569 86.2538 56.5293 86.0544 56.3052C85.288 52.9472 84.9967 49.7604 85.0086 46.8916C84.9907 43.4245 85.4038 40.4254 85.8706 38.0178C86.8853 33.159 88.0374 30.6153 87.9968 30.6012C88.0397 30.6223 86.7206 32.9807 85.4121 37.7702C84.7675 40.1673 84.1825 43.1722 83.9819 46.7356C83.8733 49.0376 83.9306 51.5955 84.284 54.3082C83.5116 53.4142 82.7559 52.5166 82.0073 51.6002C81.9918 49.0412 82.0897 46.4904 82.3715 43.9501C82.923 39.0503 84.1515 34.2186 86.2514 29.7282L86.2717 29.7071L86.2801 29.6837C87.173 27.2396 88.3311 24.8601 89.4628 22.4665C90.5587 20.0612 91.7 17.6559 92.4915 15.084C93.2615 12.5543 93.6997 9.82747 93.2926 7.16872C92.9297 4.50292 91.5914 2.06946 89.84 0.0771499C91.4768 2.17154 92.6252 4.63081 92.8724 7.23208C93.1708 9.81808 92.6109 12.4123 91.7537 14.8704C90.8811 17.3309 89.7266 19.7022 88.5591 22.0465C87.3605 24.4154 86.1499 26.7621 85.1579 29.266L85.1626 29.2167C84.0213 31.4929 83.0854 33.8865 82.3679 36.3247C81.6599 38.7757 81.1955 41.2796 80.9066 43.7812C80.6595 45.7465 80.5354 47.7048 80.484 49.6595C79.3929 48.248 78.3363 46.8212 77.3634 45.3346C74.6868 41.201 72.5427 36.7025 71.4957 31.9177L71.485 31.8754L71.4897 31.8613C70.6911 29.4091 70.167 26.8653 69.6166 24.2993C69.0376 21.7567 68.4132 19.166 67.303 16.7477C66.2262 14.3213 64.6145 12.0814 62.5587 10.3942C60.5316 8.65298 58.0855 7.47965 55.5593 6.65363C58.0294 7.61458 60.374 8.92049 62.2913 10.6793C64.2205 12.4416 65.6746 14.644 66.6022 17.0434Z" fill="#A95210"/>
<path d="M40.6975 31.055C42.5145 32.9029 44.0211 35.0302 45.4776 37.195C46.9245 39.3504 48.3452 41.5691 50.0105 43.6271C51.4324 45.7532 53.0703 47.7115 54.8957 49.5067C56.727 51.2878 58.7231 52.8847 60.8194 54.3478C62.8585 55.7757 64.9823 57.0629 67.1443 58.2691C67.9812 60.2297 68.8814 62.1621 69.8018 64.0817C70.2435 63.7367 70.6936 63.4012 71.152 63.0785L71.1138 63.0961C70.5169 61.8958 69.9474 60.6873 69.3887 59.474C70.6172 60.1147 71.8516 60.7471 73.0944 61.3572L71.9101 62.5576C72.969 61.8524 74.0685 61.2059 75.2026 60.6239L74.7753 60.4221C74.4911 60.2836 74.213 60.1464 73.93 60.0161C71.9196 57.2037 70.4226 54.376 69.3147 51.7301C67.9502 48.5269 67.1682 45.6007 66.6584 43.2012C65.7046 38.3354 65.7798 35.5464 65.7285 35.5511C65.7846 35.5523 65.4825 38.2322 66.1427 43.1543C66.4794 45.5995 67.1037 48.5962 68.3083 51.9695C69.1034 54.1389 70.1516 56.4727 71.5293 58.8416C70.4691 58.3113 69.4186 57.7704 68.3788 57.206C67.3676 54.85 66.4638 52.4552 65.7296 50.0018C64.3293 45.2674 63.5867 40.3395 63.7801 35.4056L63.7897 35.3751L63.7873 35.3552C63.6631 32.761 63.8004 30.1198 63.9186 27.4904C63.9974 24.8574 64.1108 22.2046 63.8458 19.5329C63.5641 16.8988 62.9086 14.2142 61.5011 11.9086C60.1187 9.58662 57.9435 7.8419 55.5559 6.65332C57.8731 7.97449 59.9002 9.82012 61.1358 12.1292C62.4204 14.3996 62.9158 17.0138 63.0793 19.6056C63.2322 22.2046 63.0794 24.8316 62.9194 27.4446C62.7296 30.0776 62.5314 32.7023 62.5887 35.3892L62.5708 35.3411C62.4048 37.8731 62.4693 40.4298 62.757 42.9583C63.0603 45.488 63.6034 47.9731 64.3078 50.396C64.8474 52.2968 65.4945 54.1577 66.2084 55.9787C64.6528 55.0905 63.1247 54.1683 61.6539 53.1545C57.5698 50.3444 53.8403 47.0063 51.0122 42.9665L50.9931 42.9466L50.9728 42.9231C49.2883 40.9742 47.8199 38.8036 46.2918 36.6564C44.7673 34.5174 43.1914 32.3515 41.224 30.5363C39.2721 28.7048 36.937 27.2452 34.3571 26.4403C31.8142 25.6213 29.0983 25.4406 26.4468 25.6166C29.0923 25.5943 31.7713 25.9134 34.2317 26.811C36.7077 27.7028 38.8924 29.2023 40.6975 31.055Z" fill="#A95210"/>
<path d="M96.0098 13.8226C95.9716 16.3746 95.5215 18.9407 94.9998 21.4856C94.4602 24.0353 93.8358 26.599 93.5517 29.2437L93.5517 29.1791C93.018 31.663 92.7876 34.1963 92.7817 36.7248C92.79 39.2638 93.0574 41.7806 93.4741 44.2599C93.8979 46.6969 94.4769 49.0916 95.1395 51.457C94.3396 53.3789 93.6114 55.3149 92.9082 57.2462C93.1099 57.2697 93.3117 57.2803 93.5135 57.3072C93.8465 57.3518 94.1844 57.4281 94.5211 57.4868C94.9461 56.2653 95.4021 55.0592 95.8629 53.853C96.2664 55.1589 96.6795 56.4578 97.1296 57.7484L95.993 57.7672C97.0424 58.0077 98.0942 58.321 99.1424 58.6742L98.986 58.2764C98.8893 57.9948 98.7962 57.7132 98.7066 57.4398C99.3119 54.029 100.272 50.9537 101.372 48.3243C102.729 45.134 104.269 42.494 105.67 40.4419C108.457 36.3563 110.549 34.4098 110.5 34.3887C110.545 34.4133 108.38 36.1146 105.31 40.0371C103.786 42.0223 102.06 44.5638 100.496 47.7904C99.4874 49.8777 98.5514 52.2631 97.8387 54.8972C97.4686 53.7802 97.1176 52.6597 96.7857 51.5333C97.7635 49.1679 98.8475 46.8459 100.094 44.6083C102.509 40.2882 105.534 36.2977 109.218 32.9338L109.252 32.9021L109.249 32.9009C111.034 30.986 113.036 29.2061 114.982 27.4356C116.957 25.6345 118.955 23.8205 120.665 21.7649C122.365 19.7057 123.861 17.3403 124.488 14.7402C125.195 12.1389 124.924 9.38747 124.09 6.89298C124.769 9.44027 124.857 12.1401 124.087 14.6463C123.369 17.1361 121.841 19.3514 120.084 21.2803C118.318 23.2081 116.338 24.9798 114.328 26.6928C112.305 28.4458 110.264 30.1659 108.385 32.089L108.406 32.0714C106.459 33.7422 104.659 35.5914 103.072 37.586C101.457 39.5642 100.048 41.6962 98.7842 43.9278C97.8148 45.6338 96.9386 47.3868 96.122 49.1773C95.6731 47.4689 95.2469 45.7512 94.9293 44.0158C94.0626 39.1876 93.8358 34.2232 94.73 29.415L94.7395 29.3645L94.7503 29.3539C94.9699 26.7855 95.4713 24.2453 95.9584 21.6652C96.43 19.0979 96.8454 16.4626 96.775 13.8156C96.7141 11.1709 96.0921 8.49692 94.8625 6.15965C93.652 3.79306 91.8624 1.78434 89.8389 0.0771484C91.7526 1.8958 93.418 3.98666 94.5032 6.31923C95.5919 8.67996 96.0897 11.2589 96.0098 13.8226Z" fill="#A95210"/>
<path d="M53.0877 74.5768C48.4628 72.8062 44.3691 70.3798 40.8139 67.9581C37.2432 65.5199 34.1619 63.131 31.4806 61.2126C28.8231 59.2802 26.531 57.8557 24.8692 57.0332C23.2098 56.2084 22.2165 55.9104 22.2225 55.8975C22.2153 55.908 23.1739 56.3011 24.745 57.2374C26.3316 58.1737 28.4745 59.7424 30.9959 61.8075C33.5471 63.8679 36.5018 66.4069 40.0331 68.9836C43.5705 71.5637 47.7238 74.1356 52.5122 76.0036C54.8259 76.8929 57.1634 77.5371 59.4615 78.0041C59.631 77.543 59.8149 77.0877 60.0071 76.636C57.7173 76.1432 55.3953 75.4849 53.0877 74.5768Z" fill="#A95210"/>
<path d="M66.9584 66.569C64.9504 65.2114 62.9746 63.6779 61.1158 61.9003C57.5332 58.5188 54.6907 54.7383 52.3544 51.1691C50.0025 47.5717 48.0912 44.2066 46.3613 41.4199C44.6566 38.6356 43.0891 36.4568 41.8726 35.0758C40.6644 33.6854 39.861 33.0365 39.8717 33.0342C39.861 33.0342 40.5999 33.7569 41.6815 35.213C42.7858 36.6762 44.1575 38.9313 45.6833 41.7895C47.24 44.6477 48.9794 48.1091 51.2357 51.8203C53.4957 55.535 56.3381 59.4739 60.0318 62.9962C61.9026 64.7585 63.901 66.2956 65.9282 67.6261C66.2636 67.2671 66.6063 66.9139 66.9584 66.569Z" fill="#A95210"/>
<path d="M54.3119 73.4902C55.5105 73.9243 56.8046 74.3573 58.2336 74.6882C59.0108 74.8677 59.8453 75.0073 60.7096 75.1024C60.9353 74.6471 61.1716 74.1977 61.4211 73.7554C60.4446 73.753 59.4752 73.6404 58.55 73.4832C57.1974 73.245 55.9128 72.9141 54.7238 72.5856C52.354 71.8874 50.3233 71.1447 48.6806 70.5146C45.3857 69.2557 43.5818 68.4566 43.5818 68.4719C43.583 68.459 45.2364 69.4235 48.3905 70.9629C49.9688 71.7103 51.9374 72.6196 54.3119 73.4902Z" fill="#A95210"/>
<path d="M57.2785 85.665C56.6028 85.8938 55.9163 86.0886 55.2418 86.2329C53.8999 86.5286 52.5808 86.7187 51.3535 86.8501C48.8894 87.0988 46.731 87.1763 44.9701 87.2232C41.4352 87.2889 39.4582 87.2373 39.4558 87.242C39.4606 87.2373 41.3492 87.5036 44.8579 87.7254C46.6319 87.8404 48.7927 87.9237 51.3201 87.8427C52.5915 87.8005 53.9572 87.7019 55.4137 87.4766C55.9772 87.3875 56.5622 87.2701 57.1531 87.1294C57.1818 86.6424 57.2259 86.1543 57.2785 85.665Z" fill="#A95210"/>
<path d="M57.1047 88.7123C55.0119 89.0549 52.8451 89.279 50.609 89.3272C45.6499 89.3976 40.9188 88.703 36.6807 87.8112C32.445 86.9136 28.6605 85.86 25.4492 85.0938C22.2282 84.3077 19.5696 83.8489 17.7024 83.714C15.8639 83.5697 14.8217 83.6647 14.8277 83.6623C14.8217 83.6647 15.8615 83.6729 17.6905 83.9545C19.4991 84.2338 22.085 84.8556 25.2235 85.8095C28.3764 86.754 32.1047 87.9966 36.3822 89.0514C40.6346 90.1133 45.4923 90.9182 50.6401 90.8396C52.8797 90.8067 55.0465 90.5627 57.1369 90.1966C57.113 89.7038 57.1035 89.2086 57.1047 88.7123Z" fill="#A95210"/>
<path d="M115.668 115.468C117.592 117.023 119.168 118.435 120.438 119.635C122.999 122.039 124.334 123.47 124.336 123.463C124.333 123.47 123.188 121.971 120.86 119.35C119.701 118.048 118.239 116.49 116.378 114.771C115.447 113.933 114.431 113.051 113.248 112.207C112.897 111.951 112.52 111.708 112.138 111.468C111.796 111.795 111.444 112.107 111.087 112.412C111.565 112.662 112.03 112.926 112.474 113.2C113.651 113.926 114.685 114.716 115.668 115.468Z" fill="#A95210"/>
<path d="M111.253 147.392C111.76 150.63 112.356 153.226 112.907 154.948C113.503 156.688 113.981 157.596 113.976 157.591C113.981 157.597 113.588 156.646 113.179 154.892C112.706 153.122 112.341 150.551 112.007 147.308C111.697 144.099 111.435 140.239 110.794 135.946C110.167 131.679 109.083 126.987 107.014 122.326C106.131 120.3 105.078 118.418 103.932 116.657C103.46 116.837 102.978 117.002 102.49 117.156C103.634 118.953 104.706 120.884 105.619 122.94C107.584 127.404 108.734 131.974 109.522 136.15C110.285 140.353 110.756 144.193 111.253 147.392Z" fill="#A95210"/>
<path d="M124.336 103.552C126.713 104.267 128.733 104.994 130.375 105.614C133.683 106.882 135.461 107.689 135.46 107.682C135.46 107.69 133.822 106.727 130.655 105.182C129.082 104.413 127.113 103.526 124.742 102.629C123.546 102.218 122.257 101.778 120.844 101.439C120.3 101.319 119.745 101.205 119.17 101.116C118.988 101.554 118.785 101.989 118.577 102.423C119.235 102.469 119.884 102.552 120.511 102.653C121.879 102.883 123.152 103.229 124.336 103.552Z" fill="#A95210"/>
<path d="M132.718 134.722C134.436 137.504 135.962 139.666 137.183 141.064C138.407 142.454 139.207 143.101 139.198 143.11C139.21 143.102 138.452 142.401 137.38 140.928C136.31 139.453 134.912 137.205 133.375 134.345C131.839 131.505 130.103 128.032 127.842 124.315C125.586 120.628 122.721 116.652 119.032 113.148C117.502 111.674 115.877 110.377 114.214 109.22C113.896 109.605 113.579 109.992 113.245 110.356C114.862 111.514 116.437 112.807 117.974 114.25C121.527 117.647 124.357 121.406 126.717 124.985C129.074 128.55 130.977 131.935 132.718 134.722Z" fill="#A95210"/>
<path d="M103 123.21C104.166 125.335 105.084 127.285 105.803 128.875C107.206 132.031 107.915 133.864 107.921 133.864C107.914 133.86 107.434 132.022 106.307 128.761C105.742 127.126 105.009 125.124 103.933 122.841C103.43 121.709 102.809 120.511 102.039 119.279C101.693 118.732 101.318 118.174 100.896 117.626C100.393 117.761 99.9019 117.903 99.4268 118.051C99.9843 118.64 100.495 119.276 100.95 119.923C101.717 121.009 102.387 122.132 103 123.21Z" fill="#A95210"/>
<path d="M90.1967 119.894C90.5477 121.964 90.771 124.12 90.8152 126.33C90.8892 131.196 90.1884 135.846 89.2751 140.01C88.3535 144.185 87.2898 147.894 86.5042 151.048C85.7115 154.224 85.2495 156.85 85.0955 158.64C84.9582 160.479 85.0537 161.495 85.0514 161.489C85.0549 161.496 85.0621 160.481 85.3594 158.699C85.6244 156.885 86.2667 154.369 87.2301 151.251C88.1959 148.165 89.4542 144.504 90.537 140.305C91.6138 136.117 92.4435 131.372 92.3516 126.294C92.317 124.098 92.0818 121.973 91.7129 119.929C91.2211 119.948 90.7173 119.938 90.1967 119.894Z" fill="#A95210"/>
<path d="M119.713 77.6217C119.788 77.9033 119.851 78.1802 119.924 78.4606C120.551 77.8669 121.239 77.3307 121.929 76.8379C123.05 76.0905 124.2 75.4417 125.298 74.8468C127.444 73.6805 129.448 72.797 131.065 72.0965C134.282 70.7167 136.141 70.0197 136.139 70.0068C136.141 70.0209 134.266 70.495 130.92 71.5662C129.274 72.1388 127.239 72.8686 124.898 73.9093C123.765 74.4209 122.551 75.0287 121.291 75.7714C120.7 76.1375 120.096 76.5352 119.504 76.9811C119.577 77.1911 119.652 77.3976 119.713 77.6217Z" fill="#A95210"/>
<path d="M88.9411 121.62C88.8325 120.986 88.7023 120.341 88.5328 119.688C88.2045 119.712 87.8702 119.725 87.5216 119.718C87.3676 119.714 87.216 119.7 87.062 119.694C87.3103 120.389 87.5181 121.094 87.6756 121.789C87.9693 123.085 88.1544 124.375 88.2952 125.6C88.5447 128.013 88.6331 130.144 88.682 131.88C88.7405 135.336 88.6892 137.29 88.6952 137.293C88.6904 137.287 88.9554 135.418 89.1882 131.986C89.3112 130.257 89.3983 128.129 89.298 125.611C89.2646 124.382 89.1655 123.047 88.9411 121.62Z" fill="#A95210"/>
<path d="M138.35 145.067C136.537 143.213 135.046 141.103 133.585 138.918C132.117 136.754 130.722 134.549 129 132.485L129.031 132.509C127.636 130.394 125.995 128.403 124.175 126.636C122.34 124.86 120.364 123.253 118.251 121.789C116.203 120.354 114.077 119.07 111.898 117.858C111.256 116.35 110.576 114.865 109.876 113.392C109.448 113.713 109.016 114.031 108.567 114.323C108.94 115.105 109.319 115.884 109.682 116.672C108.78 116.189 107.871 115.739 106.962 115.288C106.381 115.606 105.782 115.899 105.168 116.171C107.143 118.96 108.655 121.775 109.74 124.414C111.114 127.617 111.89 130.532 112.391 132.957C113.365 137.813 113.298 140.6 113.321 140.583C113.293 140.597 113.578 137.88 112.928 132.984C112.572 130.526 111.967 127.525 110.769 124.174C109.958 122.001 108.897 119.655 107.51 117.276C108.578 117.804 109.633 118.355 110.676 118.918C111.689 121.28 112.602 123.682 113.335 126.143C114.746 130.878 115.471 135.775 115.257 140.736L115.273 140.759L115.274 140.778C115.399 143.375 115.262 146.016 115.169 148.655C115.05 151.259 114.959 153.934 115.233 156.588C115.505 159.239 116.137 161.902 117.569 164.227C118.964 166.542 121.101 168.295 123.505 169.498C121.197 168.169 119.179 166.317 117.908 164.014C116.641 161.729 116.133 159.143 115.986 156.538C115.838 153.931 115.961 151.317 116.148 148.688C116.331 146.068 116.538 143.432 116.474 140.755L116.477 140.804C116.625 138.258 116.569 135.721 116.278 133.194C115.998 130.659 115.448 128.163 114.74 125.72C114.191 123.818 113.549 121.958 112.83 120.129C114.391 121.011 115.927 121.947 117.415 122.959C121.47 125.792 125.229 129.128 128.076 133.173L128.095 133.2L128.098 133.213C129.789 135.156 131.236 137.331 132.776 139.478C134.279 141.617 135.878 143.794 137.87 145.595C139.801 147.427 142.128 148.885 144.699 149.698C147.287 150.536 149.985 150.694 152.613 150.526C149.953 150.552 147.314 150.202 144.851 149.302C142.375 148.411 140.163 146.924 138.35 145.067Z" fill="#A95210"/>
<path d="M172.702 92.9492C170.309 94.0181 167.682 94.5121 165.076 94.4311C162.481 94.3924 159.879 93.9489 157.29 93.4385C154.7 92.8988 152.069 92.2922 149.406 92.0094L149.43 92.0199C146.935 91.4861 144.356 91.2585 141.757 91.2643C139.191 91.2667 136.624 91.5342 134.107 91.9437C131.626 92.3567 129.181 92.9269 126.772 93.5805C124.985 92.8636 123.187 92.2077 121.377 91.58C121.344 92.1185 121.291 92.6535 121.229 93.1862C122.264 93.5453 123.299 93.9125 124.334 94.2903C123.185 94.64 122.035 94.9967 120.898 95.371C120.784 95.967 120.649 96.5595 120.497 97.1497C120.563 97.1286 120.621 97.1075 120.688 97.0875C124.146 97.6883 127.277 98.634 129.979 99.7064C133.232 101.019 135.905 102.547 138.004 103.913C142.15 106.663 144.124 108.727 144.157 108.676C144.117 108.725 142.384 106.607 138.394 103.591C136.385 102.079 133.776 100.397 130.518 98.8428C128.38 97.8643 125.966 96.9326 123.28 96.2287C124.418 95.8637 125.556 95.5188 126.693 95.1938C129.12 96.1501 131.478 97.2166 133.745 98.4474C138.136 100.823 142.227 103.792 145.626 107.416L145.655 107.448L145.656 107.448C147.604 109.2 149.424 111.167 151.235 113.081C153.055 115.025 154.894 116.987 156.987 118.666C159.085 120.333 161.489 121.804 164.13 122.418C166.783 123.119 169.583 122.854 172.127 122.032C169.519 122.707 166.782 122.787 164.243 122.02C161.689 121.332 159.46 119.805 157.484 118.088C155.519 116.366 153.732 114.398 151.974 112.439C150.177 110.463 148.44 108.445 146.48 106.597L146.504 106.618C144.796 104.713 142.929 102.944 140.907 101.36C138.874 99.7967 136.708 98.4052 134.438 97.1638C132.692 96.2075 130.89 95.3616 129.071 94.552C130.822 94.1061 132.581 93.6837 134.36 93.3693C139.28 92.5151 144.303 92.3039 149.224 93.171L149.247 93.1921L149.263 93.1944C151.877 93.4115 154.459 93.9102 157.093 94.3865C159.734 94.8394 162.37 95.263 165.099 95.1785C167.781 95.1234 170.474 94.5215 172.882 93.2977C175.29 92.1162 177.326 90.3562 179.07 88.3721C177.23 90.2388 175.116 91.8768 172.702 92.9492Z" fill="#A95210"/>
<path d="M147.59 114.924C150.274 116.865 152.524 118.266 154.172 119.101C155.858 119.934 156.847 120.227 156.842 120.24C156.848 120.229 155.889 119.864 154.327 118.909C152.749 117.949 150.589 116.395 148.051 114.323C145.536 112.289 142.574 109.723 139.037 107.148C135.509 104.586 131.321 101.988 126.549 100.148C124.438 99.3046 122.302 98.7051 120.193 98.251C120.051 98.7227 119.909 99.1943 119.742 99.6613C121.806 100.133 123.896 100.761 125.996 101.562C130.6 103.36 134.684 105.773 138.258 108.193C141.817 110.592 144.892 113.006 147.59 114.924Z" fill="#A95210"/>
<path d="M156.819 122.369C154.433 121.334 152.227 119.949 150.027 118.481C147.84 117.035 145.687 115.506 143.295 114.259L143.317 114.269C141.205 112.839 138.927 111.625 136.543 110.675C134.173 109.718 131.712 108.981 129.181 108.427C126.74 107.872 124.271 107.474 121.797 107.176C120.555 105.957 119.271 104.783 117.971 103.632C117.721 104.101 117.462 104.569 117.183 105.035C117.88 105.653 118.582 106.273 119.26 106.897C118.223 106.795 117.187 106.719 116.15 106.638C115.791 107.167 115.407 107.694 115.007 108.218C117.884 110.062 120.341 112.072 122.361 114.039C124.869 116.47 126.734 118.889 128.142 120.94C130.902 125.04 131.933 127.693 131.965 127.659C131.928 127.69 131.14 125.083 128.62 120.788C127.376 118.625 125.613 116.108 123.195 113.436C121.616 111.724 119.731 109.974 117.541 108.289C118.723 108.384 119.904 108.485 121.096 108.615C122.952 110.416 124.731 112.289 126.344 114.288C129.483 118.133 132.102 122.404 133.832 127.048L133.848 127.089L133.849 127.089C134.954 129.431 135.87 131.932 136.813 134.388C137.716 136.867 138.666 139.378 139.95 141.713C141.228 144.04 142.886 146.295 145.081 147.867C147.264 149.518 149.947 150.315 152.607 150.525C149.947 150.162 147.389 149.197 145.336 147.541C143.261 145.934 141.779 143.695 140.634 141.373C139.467 139.04 138.588 136.541 137.726 134.068C136.843 131.568 136.023 129.066 134.932 126.616L134.945 126.642C134.109 124.24 133.07 121.89 131.828 119.665C130.548 117.457 129.107 115.358 127.484 113.366C126.242 111.813 124.907 110.34 123.531 108.925C125.311 109.155 127.098 109.443 128.865 109.819C133.717 110.896 138.489 112.573 142.689 115.24L142.734 115.284C145.052 116.433 147.232 117.897 149.488 119.296C151.714 120.717 154.038 122.119 156.584 123.049C159.064 124.002 161.805 124.471 164.478 124.26C167.199 124.058 169.758 123.188 172.129 122.033C169.68 123.06 167.085 123.738 164.467 123.835C161.84 123.939 159.221 123.396 156.819 122.369Z" fill="#A95210"/>
<path d="M62.2075 145.132C60.2544 147.752 58.7896 149.997 57.9396 151.609C57.1135 153.259 56.8102 154.23 56.7971 154.224C56.8079 154.232 57.1899 153.278 58.1605 151.753C59.1299 150.209 60.7081 148.079 62.808 145.594C64.9068 143.093 67.4974 140.201 70.1166 136.725C72.7383 133.243 75.3527 129.158 77.2474 124.446C78.0663 122.429 78.6811 120.373 79.1455 118.349C78.6656 118.199 78.1929 118.035 77.7237 117.862C77.2402 119.86 76.6146 121.88 75.8207 123.912C73.9882 128.418 71.5158 132.447 69.072 135.948C66.6008 139.471 64.1571 142.479 62.2075 145.132Z" fill="#A95210"/>
<path d="M54.1368 102.237C55.2984 101.722 56.5209 101.112 57.7744 100.361C58.2245 100.087 58.6817 99.7976 59.1353 99.4761C58.9622 99.0279 58.7975 98.5773 58.6459 98.1221C58.1552 98.5386 57.6443 98.927 57.1321 99.2755C56.0016 100.043 54.8591 100.712 53.7786 101.305C51.6011 102.458 49.6337 103.343 48.028 104.047C44.7915 105.441 42.9387 106.135 42.9375 106.141C42.9411 106.134 44.7939 105.672 48.1223 104.552C49.796 103.986 51.8291 103.262 54.1368 102.237Z" fill="#A95210"/>
<path d="M61.6637 113.753C60.1021 115.635 58.6242 117.197 57.4029 118.444C54.9532 120.962 53.5134 122.268 53.5218 122.272C53.5146 122.268 55.0439 121.141 57.7037 118.856C59.0229 117.727 60.6227 116.279 62.3513 114.462C63.2156 113.541 64.1229 112.536 64.9873 111.372C65.2869 110.96 65.5866 110.524 65.8767 110.066C65.5424 109.718 65.2213 109.358 64.9037 108.995C64.6148 109.557 64.2949 110.097 63.9642 110.615C63.2324 111.77 62.4265 112.784 61.6637 113.753Z" fill="#A95210"/>
<path d="M42.0779 130.508C39.2497 132.187 37.0245 133.707 35.611 134.902C34.2034 136.104 33.5444 136.887 33.5337 136.876C33.5397 136.888 34.2667 136.137 35.7578 135.091C37.2549 134.043 39.541 132.674 42.4468 131.16C45.3574 129.635 48.8851 127.938 52.6576 125.716C56.4349 123.49 60.4413 120.692 64.0264 117.054C65.5545 115.515 66.9131 113.865 68.1189 112.186C67.7392 111.859 67.3644 111.526 67.0002 111.181C65.7849 112.836 64.4275 114.446 62.909 116.01C59.4612 119.5 55.6135 122.291 51.9843 124.602C48.3383 126.934 44.9037 128.798 42.0779 130.508Z" fill="#A95210"/>
<path d="M69.578 133.208C69.5696 133.205 70.5462 131.592 72.1125 128.485C72.8909 126.95 73.8053 125.003 74.7019 122.689C75.1388 121.506 75.5829 120.23 75.9339 118.839C76.0497 118.332 76.1584 117.811 76.2467 117.274C75.8014 117.083 75.3621 116.882 74.9275 116.671C74.8798 117.296 74.7938 117.915 74.6935 118.514C74.4595 119.859 74.1121 121.105 73.7803 122.276C73.0687 124.604 72.3154 126.602 71.6803 128.214C70.3946 131.465 69.5672 133.207 69.578 133.208Z" fill="#A95210"/>
<path d="M54.6077 154.219C55.6619 151.873 57.0933 149.697 58.5701 147.541C60.0504 145.392 61.6239 143.243 62.9037 140.899L62.8655 140.948C64.3267 138.865 65.5456 136.634 66.5377 134.275C67.513 131.936 68.2532 129.516 68.8262 127.04C69.3802 124.64 69.7873 122.215 70.0881 119.789C71.3261 118.57 72.5187 117.314 73.6911 116.041C73.2123 115.781 72.7396 115.511 72.2764 115.227C71.646 115.918 71.0181 116.612 70.3698 117.286C70.4785 116.238 70.5573 115.193 70.6373 114.146C70.1156 113.78 69.607 113.398 69.108 113.001C67.2325 115.87 65.1648 118.313 63.1173 120.33C60.6211 122.806 58.1845 124.631 56.0893 126.017C51.8978 128.734 49.2487 129.731 49.2654 129.767C49.2499 129.728 51.8954 128.952 56.2612 126.49C58.4435 125.262 61.0031 123.529 63.7143 121.164C65.4513 119.604 67.2408 117.759 68.9408 115.612C68.8513 116.774 68.7451 117.934 68.6137 119.102C66.792 120.921 64.8973 122.662 62.8774 124.252C58.9425 127.334 54.5982 129.909 49.873 131.609L49.8492 131.616L49.8253 131.628C47.4376 132.713 44.9246 133.603 42.4116 134.54C39.8867 135.429 37.3355 136.361 34.949 137.624C32.5661 138.882 30.3014 140.498 28.6886 142.666C27.0316 144.805 26.1911 147.46 25.9929 150.062C26.3391 147.458 27.3288 144.933 28.999 142.923C30.6489 140.874 32.9267 139.42 35.2916 138.298C37.6721 137.148 40.1947 136.294 42.722 135.436C45.2505 134.576 47.8244 133.762 50.3195 132.687L50.273 132.71C52.7132 131.889 55.096 130.87 57.3619 129.648C59.629 128.388 61.7647 126.965 63.7871 125.374C65.3617 124.156 66.8492 122.849 68.3033 121.499C68.0586 123.251 67.7721 125.011 67.3805 126.746C66.2893 131.515 64.5881 136.193 61.8829 140.317L61.8638 140.336L61.8507 140.358C60.6688 142.649 59.1694 144.784 57.7487 147.003C56.3102 149.189 54.8883 151.466 53.9476 153.972C52.9567 156.421 52.4851 159.113 52.6976 161.732C52.9352 164.394 53.8043 166.922 54.9611 169.254C53.9165 166.847 53.2205 164.309 53.1203 161.732C53.0176 159.146 53.5727 156.571 54.6077 154.219Z" fill="#A95210"/>
<path d="M29.2461 110.162C32.5231 109.851 36.4425 109.604 40.8083 108.964C45.1574 108.349 49.9566 107.266 54.6794 105.254C56.7148 104.397 58.6082 103.376 60.3787 102.265C60.1566 101.823 59.9441 101.376 59.7436 100.923C57.9672 102.002 56.0738 103.004 54.0634 103.863C49.5089 105.809 44.8697 106.938 40.6101 107.712C36.3338 108.464 32.4336 108.926 29.1625 109.422C25.8843 109.907 23.2519 110.49 21.4671 111.056C19.7134 111.624 18.7965 112.096 18.8013 112.092C18.7965 112.096 19.754 111.712 21.5519 111.289C23.3331 110.856 25.9678 110.468 29.2461 110.162Z" fill="#A95210"/>
<path d="M83.045 162.32C83.1071 159.759 83.5524 157.206 84.0944 154.648C84.6197 152.113 85.219 149.532 85.521 146.912L85.4983 146.945C86.0391 144.488 86.2815 141.956 86.2779 139.395C86.2743 136.871 86.0021 134.352 85.5891 131.875C85.1724 129.435 84.5958 127.032 83.9273 124.665C84.6221 123 85.2608 121.322 85.872 119.633C85.3217 119.592 84.7773 119.534 84.2353 119.463C83.8986 120.398 83.562 121.33 83.2038 122.263C82.8815 121.215 82.5388 120.171 82.1926 119.134C81.5754 119.01 80.9666 118.865 80.3637 118.704C80.3649 118.709 80.3661 118.712 80.3673 118.716C79.7548 122.094 78.8022 125.157 77.6895 127.816C76.3465 131.035 74.8017 133.645 73.4132 135.708C70.6042 139.796 68.5305 141.705 68.5758 141.745C68.5305 141.701 70.6877 139.998 73.7535 136.075C75.2875 134.117 76.9875 131.553 78.5634 128.351C79.5662 126.25 80.501 123.88 81.2388 121.235C81.6112 122.357 81.9634 123.467 82.2953 124.598C81.3164 126.967 80.2371 129.28 78.9932 131.51C76.5506 135.839 73.5422 139.86 69.8377 143.201L69.8186 143.216L69.8091 143.236C68.0303 145.146 66.0545 146.919 64.0895 148.715C62.1077 150.5 60.1116 152.312 58.3973 154.368C56.6937 156.438 55.2229 158.787 54.5806 161.391C53.8799 163.985 54.1401 166.753 54.9639 169.247C54.2655 166.701 54.207 163.994 54.9626 161.513C55.6933 158.987 57.2285 156.796 58.9751 154.859C60.7276 152.924 62.7321 151.179 64.7353 149.438C66.7254 147.699 68.7633 145.986 70.6519 144.067C72.5835 142.394 74.3814 140.562 76.0014 138.577C77.5976 136.561 79.0135 134.436 80.2741 132.207C81.2591 130.487 82.1222 128.722 82.934 126.919C83.3936 128.642 83.8138 130.372 84.1409 132.123C84.9969 136.966 85.2178 141.897 84.3343 146.734L84.3212 146.755L84.3176 146.77C84.1123 149.35 83.5727 151.882 83.1131 154.462C82.6642 157.059 82.2129 159.657 82.3108 162.334C82.3562 164.969 82.9614 167.618 84.2078 169.988C85.4255 172.343 87.215 174.349 89.2123 176.075C87.3165 174.263 85.6798 172.169 84.5743 169.805C83.4605 167.46 82.9901 164.872 83.045 162.32Z" fill="#A95210"/>
<path d="M31.5159 136.053C33.4021 134.272 35.5689 132.801 37.7727 131.368C39.9658 129.937 42.2316 128.571 44.3125 126.89C46.4745 125.509 48.4754 123.913 50.3007 122.112C52.1117 120.304 53.7365 118.361 55.2252 116.291C56.6829 114.288 57.9973 112.194 59.2269 110.053C60.8446 109.386 62.4407 108.674 64.0273 107.943C63.6931 107.528 63.3707 107.103 63.0579 106.671C62.1852 107.078 61.3126 107.486 60.4327 107.877C60.9449 106.93 61.4415 105.978 61.9357 105.023C61.6003 104.493 61.2779 103.957 60.9735 103.409C60.9723 103.413 60.9711 103.415 60.9699 103.417C58.1059 105.369 55.242 106.859 52.557 107.929C49.2883 109.279 46.3193 110.048 43.8588 110.53C38.9259 111.488 36.087 111.408 36.0858 111.451C36.0918 111.403 38.8292 111.709 43.8373 111.06C46.3181 110.723 49.3743 110.118 52.7994 108.934C55.0116 108.144 57.3849 107.104 59.8 105.744C59.2592 106.794 58.7076 107.833 58.131 108.86C55.7338 109.851 53.2912 110.742 50.7985 111.461C45.9814 112.837 40.9638 113.575 35.9294 113.368L35.9151 113.366L35.8888 113.367C33.2553 113.49 30.5691 113.355 27.9081 113.257C25.2172 113.163 22.512 113.057 19.8032 113.326C17.1135 113.595 14.3773 114.232 12.0374 115.623C9.6927 116.99 7.89599 119.101 6.68068 121.449C8.03448 119.18 9.92074 117.21 12.2451 115.965C14.5707 114.711 17.2198 114.212 19.8701 114.066C22.5132 113.923 25.1695 114.047 27.8424 114.226C30.5238 114.407 33.1956 114.61 35.9306 114.546L35.8709 114.552C38.446 114.714 41.0438 114.639 43.6153 114.361C46.1963 114.079 48.7344 113.548 51.2032 112.859C53.1372 112.318 55.033 111.686 56.8954 110.979C55.9893 112.512 55.0366 114.017 54.0087 115.478C51.1412 119.46 47.7543 123.149 43.6487 125.945L43.6236 125.956L43.595 125.968C41.6192 127.631 39.3975 129.052 37.2223 130.568C35.0376 132.043 32.8398 133.611 30.9953 135.571C29.1306 137.474 27.6467 139.76 26.8182 142.284C26.0028 144.818 25.8201 147.479 25.9896 150.062C25.9586 147.459 26.2976 144.863 27.2145 142.442C28.1134 140.009 29.6392 137.832 31.5159 136.053Z" fill="#A95210"/>
<path d="M112.448 159.115C111.496 156.728 110.931 154.184 110.433 151.616C109.925 149.094 109.482 146.478 108.728 143.939L108.725 143.99C108.27 141.505 107.505 139.072 106.512 136.72C105.53 134.393 104.297 132.161 102.94 130.029C101.612 127.934 100.138 125.938 98.6012 123.993C98.5964 122.109 98.5332 120.235 98.4389 118.364C97.904 118.537 97.3799 118.71 96.8654 118.875C96.9239 119.939 96.9764 121 97.0098 122.058C96.278 121.178 95.5355 120.325 94.7941 119.471C94.1984 119.62 93.5991 119.743 92.9878 119.825C93.0022 119.841 93.0153 119.857 93.0296 119.873C93.7853 123.224 94.0742 126.387 94.0623 129.237C94.0707 132.714 93.654 135.708 93.1789 138.138C92.1868 142.986 91.03 145.549 91.0598 145.542C91.0288 145.545 92.3503 143.137 93.6612 138.352C94.2987 135.952 94.8872 132.964 95.089 129.415C95.2084 127.101 95.132 124.55 94.7786 121.84C95.5629 122.716 96.3127 123.623 97.0648 124.542C97.0827 127.1 96.98 129.65 96.703 132.185C96.1574 137.105 94.9123 141.908 92.7909 146.402L92.792 146.427L92.7837 146.445C91.8943 148.895 90.7423 151.275 89.6416 153.675C88.5098 156.051 87.3816 158.471 86.6044 161.04C85.8177 163.59 85.3653 166.295 85.7831 168.964C86.1687 171.631 87.4736 174.071 89.2142 176.078C87.6001 173.975 86.466 171.516 86.1735 168.91C85.9013 166.327 86.4373 163.731 87.3112 161.266C88.1863 158.801 89.3216 156.437 90.5214 154.087C91.72 151.729 92.9305 149.363 93.9155 146.869L93.894 146.934C95.0341 144.628 95.9629 142.266 96.6768 139.81C97.3967 137.369 97.8599 134.854 98.1691 132.334C98.3911 130.38 98.5308 128.417 98.5726 126.474C99.6673 127.872 100.726 129.311 101.692 130.794C104.373 134.944 106.506 139.42 107.576 144.217L107.563 144.244L107.573 144.274C108.377 146.725 108.865 149.267 109.451 151.819C110.048 154.388 110.631 156.955 111.775 159.4C112.846 161.814 114.443 164.039 116.515 165.765C118.546 167.471 120.978 168.658 123.504 169.498C121.048 168.536 118.714 167.224 116.772 165.465C114.828 163.704 113.396 161.495 112.448 159.115Z" fill="#A95210"/>
<path d="M123.841 89.88C125.17 89.609 126.485 89.4388 127.735 89.3063C130.179 89.0258 132.359 88.973 134.126 88.9308C137.643 88.8616 139.632 88.9214 139.63 88.9073C139.629 88.9226 137.714 88.6621 134.215 88.3887C132.464 88.2948 130.302 88.2068 127.729 88.2902C126.488 88.3347 125.123 88.4415 123.677 88.6621C122.944 88.7841 122.199 88.9261 121.443 89.1291C121.447 89.623 121.444 90.1147 121.427 90.6028C122.223 90.3036 123.043 90.0713 123.841 89.88Z" fill="#A95210"/>
<path d="M153.617 91.0537C156.847 91.8258 159.52 92.2869 161.342 92.4394C163.224 92.5872 164.249 92.4664 164.248 92.4793C164.252 92.4664 163.217 92.4593 161.402 92.1719C159.556 91.9196 156.997 91.2719 153.823 90.3321C150.687 89.3829 146.96 88.145 142.686 87.0855C138.427 86.0237 133.594 85.1965 128.431 85.3009C125.955 85.3384 123.572 85.6212 121.291 86.053C121.336 86.5352 121.363 87.0116 121.39 87.4891C123.663 87.0961 126.029 86.8403 128.47 86.8098C133.421 86.737 138.156 87.4363 142.39 88.3281C146.628 89.2069 150.408 90.2746 153.617 91.0537Z" fill="#A95210"/>
<path d="M164.014 90.2492C161.501 89.388 159.091 88.2593 156.713 87.1094C154.31 85.9314 151.904 84.7428 149.365 83.7666L149.426 83.7713C147.079 82.6578 144.675 81.7297 142.173 81.0281C139.692 80.3288 137.14 79.877 134.566 79.5954C132.59 79.3549 130.595 79.227 128.618 79.1766C130.041 78.1042 131.501 77.0646 133.005 76.1083C137.215 73.4719 141.782 71.3869 146.662 70.3367L146.689 70.3473L146.72 70.3367C149.225 69.5553 151.788 69.0449 154.406 68.504C157.016 67.922 159.621 67.3236 162.11 66.2078C164.566 65.1612 166.83 63.5936 168.576 61.5462C170.335 59.5644 171.529 57.1603 172.365 54.6729C171.403 57.0958 170.07 59.4025 168.28 61.2939C166.479 63.1959 164.245 64.6238 161.807 65.5331C159.394 66.4777 156.803 67.0456 154.212 67.5477C151.625 68.0159 148.958 68.4524 146.379 69.1986L146.417 69.1939C143.891 69.6421 141.431 70.4048 139.033 71.3822C136.661 72.3537 134.389 73.561 132.227 74.8857C130.098 76.194 128.07 77.636 126.096 79.1461C124.105 79.1508 122.118 79.22 120.139 79.3127C120.264 79.8383 120.379 80.3604 120.487 80.8791C121.703 80.8098 122.907 80.7524 124.109 80.7218C123.034 81.5831 121.987 82.4584 120.944 83.3513C121.042 83.9755 121.124 84.5962 121.194 85.2122C121.42 85.0197 121.638 84.839 121.857 84.6454C125.28 83.8922 128.513 83.6059 131.425 83.6188C134.96 83.5988 138.01 84.0118 140.474 84.4636C145.406 85.4609 148.024 86.5873 148.012 86.5556C148.018 86.5873 145.573 85.3095 140.706 84.013C138.26 83.3912 135.223 82.8057 131.596 82.6085C129.255 82.5006 126.657 82.5593 123.899 82.9054C124.789 82.1474 125.71 81.4059 126.64 80.6714C129.248 80.6561 131.845 80.7488 134.426 81.0246C139.431 81.5619 144.32 82.7834 148.884 84.8484L148.91 84.8602L148.936 84.8684C151.428 85.746 153.849 86.883 156.301 87.9859C158.703 89.0818 161.172 90.1941 163.789 90.972C166.379 91.73 169.133 92.1688 171.848 91.7675C174.571 91.4026 177.041 90.0897 179.074 88.3731C176.945 89.9735 174.436 91.0999 171.786 91.3533C169.163 91.642 166.515 91.0917 164.014 90.2492Z" fill="#A95210"/>
<path d="M88.2642 49.8116C88.1807 44.9376 88.8934 40.2819 89.8007 36.1271C90.7044 31.9642 91.7824 28.24 92.5703 25.0838C93.363 21.917 93.8215 19.3063 93.9755 17.4724C94.1343 15.6538 94.0113 14.6436 94.0244 14.6436C94.0113 14.6424 93.9994 15.6608 93.7224 17.4584C93.4454 19.236 92.8055 21.7785 91.835 24.8703C90.8799 27.9655 89.6097 31.6239 88.5304 35.8291C87.456 40.0073 86.6155 44.7863 86.7182 49.841C86.7576 52.366 87.0656 54.8041 87.5372 57.132C88.0254 57.098 88.5161 57.0815 89.008 57.071C88.5722 54.7478 88.2917 52.3261 88.2642 49.8116Z" fill="#A95210"/>
<path d="M103.265 52.2377C105.08 47.6876 107.532 43.6807 110.013 40.1701C112.464 36.69 114.907 33.6487 116.868 31.0134C118.835 28.3934 120.259 26.1582 121.102 24.525C121.956 22.8893 122.255 21.9084 122.267 21.9131C122.257 21.9049 121.865 22.8412 120.914 24.3924C119.951 25.9517 118.356 28.059 116.246 30.5453C114.177 33.0328 111.575 35.952 108.953 39.418C106.343 42.8816 103.696 46.9941 101.825 51.6839C100.855 54.0892 100.186 56.491 99.7124 58.8647C100.18 59.0313 100.644 59.2073 101.107 59.3938C101.606 57.0354 102.303 54.6313 103.265 52.2377Z" fill="#A95210"/>
<path d="M90.7945 50.5369C90.5116 48.1269 90.4519 45.9961 90.4173 44.2608C90.3504 40.7877 90.4017 38.8447 90.3886 38.8447C90.4017 38.8482 90.1224 40.7068 89.8598 44.1705C89.7654 45.9046 89.6819 48.0283 89.7487 50.5205C89.8072 51.7677 89.9147 53.0994 90.1379 54.5344C90.2716 55.3546 90.4435 56.2134 90.7181 57.0852C91.2446 57.1052 91.7711 57.1369 92.2999 57.185C91.9 56.2674 91.6099 55.3029 91.3711 54.3748C91.1013 53.049 90.9223 51.7466 90.7945 50.5369Z" fill="#A95210"/>
<path d="M75.1066 53.3045C75.6486 54.4332 76.267 55.6253 77.0346 56.8632C77.4942 57.6059 78.0183 58.3674 78.6463 59.0972C79.1477 58.9083 79.6551 58.7358 80.166 58.5715C79.3996 57.8511 78.7132 57.0486 78.121 56.2472C77.3403 55.1243 76.6705 53.9932 76.0796 52.9208C74.8845 50.8029 74.0023 48.8493 73.2908 47.2654C71.8737 44.0856 71.167 42.2647 71.155 42.2705C71.1682 42.2693 71.6397 44.095 72.7416 47.3897C73.3266 49.0218 74.0811 51.02 75.1066 53.3045Z" fill="#A95210"/>
<path d="M62.6716 61.3524C63.6099 62.2042 64.6449 63.0936 65.8304 63.9361C66.5527 64.4511 67.3537 64.9463 68.2228 65.3898C68.6132 65.0448 69.0096 64.7058 69.4155 64.3784C68.4139 63.9935 67.4636 63.4867 66.5909 62.9399C65.4364 62.2089 64.3811 61.4275 63.407 60.6766C61.4897 59.1407 59.9043 57.6916 58.6245 56.4937C56.0757 54.0872 54.7183 52.671 54.7087 52.6827C54.7195 52.6733 55.8679 54.1787 58.1851 56.7929C59.3551 58.0812 60.8152 59.6593 62.6716 61.3524Z" fill="#A95210"/>
<path d="M73.4607 53.2059C71.4801 48.7309 70.34 44.1608 69.5544 39.9814C68.7689 35.7926 68.3176 31.9488 67.8055 28.7351C67.3101 25.5108 66.7263 22.9248 66.1425 21.173C65.579 19.4376 65.086 18.5436 65.0967 18.54C65.0848 18.5412 65.4656 19.4869 65.9049 21.2575C66.3359 23.0034 66.7525 25.5929 67.0438 28.8148C67.3697 32.0274 67.6264 35.8865 68.2615 40.1785C68.8955 44.4529 69.9866 49.1779 72.046 53.8102C73.0834 56.1815 74.3441 58.3533 75.7265 60.362C76.1635 60.1473 76.6016 59.9361 77.0481 59.7402C75.7134 57.7256 74.4861 55.5561 73.4607 53.2059Z" fill="#A95210"/>
<path d="M100.791 83.563C101.32 83.6076 101.87 83.3049 102.127 82.9822C102.203 82.9048 102.237 82.818 102.265 82.7323C101.549 82.7018 100.751 82.6912 99.9348 82.7429C99.8166 82.7593 99.7008 82.764 99.5838 82.7839C99.8751 83.1488 100.283 83.5372 100.791 83.563Z" fill="#A95210"/>
<path d="M106.658 83.1132C106.671 83.1216 106.689 83.1311 106.696 83.1347L106.928 83.1061C106.846 83.118 106.756 83.1216 106.658 83.1132Z" fill="#A95210"/>
<path d="M105.407 82.0649C104.999 81.5862 104.547 81.0734 104.003 80.6698C103.431 80.2627 102.773 79.9811 102.084 79.8461C101.385 79.7112 100.685 79.7276 100.006 79.8086C99.3422 79.8907 98.645 80.1184 98.0349 80.4105C97.4213 80.7226 96.8542 81.0981 96.3612 81.5252C95.3238 82.3758 94.4773 83.3896 93.8518 84.5148C94.7794 83.616 95.732 82.7712 96.7814 82.0673C97.3055 81.7188 97.8308 81.3891 98.4002 81.1544C98.5865 81.0688 98.7632 81.0054 98.9375 80.9362C99.0079 80.9103 99.0903 80.8904 99.1703 80.8681C99.4675 80.7707 99.8042 80.6968 100.138 80.664C100.796 80.5631 101.444 80.5525 102.086 80.6675C102.142 80.6686 102.203 80.6898 102.26 80.6956C102.727 80.7965 103.192 80.9573 103.612 81.2154C104.135 81.5264 104.618 81.9347 105.117 82.3571C105.234 82.4427 105.35 82.5389 105.471 82.6281C105.292 82.5636 105.059 82.5002 104.825 82.4427C104.41 82.3277 103.9 82.2163 103.368 82.1271C103.251 82.1095 103.134 82.0989 103.005 82.0696C102.078 81.9417 101.016 81.869 99.8782 81.9546C99.4042 81.9828 98.9375 82.0426 98.4707 82.1341C98.3537 82.1576 98.2379 82.1904 98.1209 82.2186C97.7818 82.2984 97.4714 82.3852 97.1575 82.499C96.3552 82.7853 95.6724 83.1678 95.1471 83.5585C94.7316 83.8953 94.4236 84.2121 94.2147 84.4749C93.9103 84.8469 93.8028 85.1144 93.8494 85.1472C93.9138 85.1942 94.1562 84.9489 94.6242 84.5887C95.5494 85.0522 96.5319 85.362 97.518 85.613C98.5865 85.8677 99.6836 86.0378 100.801 86.0495C101.909 86.0378 103.03 85.8782 104.057 85.3901C104.546 85.1531 105.013 84.8328 105.407 84.4444C105.757 84.0725 106.049 83.6618 106.282 83.2124C106.555 83.2406 106.716 83.2406 106.736 83.1936C106.744 83.1831 106.712 83.1549 106.689 83.1256C106.682 83.1221 106.664 83.1127 106.651 83.1045C106.749 83.1197 105.82 82.5319 105.407 82.0649ZM99.1703 82.8193C99.1703 82.8463 99.1703 82.8675 99.1703 82.8827C99.2288 83.1338 99.3445 83.4471 99.5785 83.7451C99.6179 83.792 99.6597 83.8378 99.7039 83.8812C99.9546 84.1264 100.3 84.3259 100.716 84.3517C101.211 84.3928 101.632 84.205 101.93 83.9633C102.078 83.853 102.183 83.7345 102.26 83.609C102.377 83.4494 102.439 83.2957 102.493 83.1361C102.53 82.9953 102.537 82.8722 102.509 82.7607C102.678 82.7619 102.846 82.7806 103.018 82.7888C102.973 83.0634 102.901 83.3239 102.778 83.5539C102.657 83.7803 102.494 83.9892 102.318 84.1476C101.91 84.5265 101.361 84.7401 100.836 84.76C100.278 84.7812 99.7493 84.5934 99.2873 84.2496C99.1798 84.164 99.0855 84.0713 98.996 83.9633C98.7548 83.6771 98.5793 83.3133 98.491 82.932C98.7035 82.8874 98.9363 82.8487 99.1703 82.8193ZM103.905 85.1026C102.933 85.4828 101.85 85.626 100.801 85.626C99.7302 85.626 98.6438 85.4699 97.5944 85.2904C97.0584 85.1965 96.5307 85.085 96.0066 84.9595C95.5542 84.8527 95.0981 84.7225 94.6779 84.5699C94.7388 84.5195 94.8128 84.4597 94.9107 84.4022C95.0814 84.279 95.2629 84.1628 95.4766 84.0244C96.1224 83.6301 97.0047 83.2758 98.0075 83.0259C98.0325 83.3708 98.1197 83.7181 98.2558 84.042C98.3931 84.313 98.5662 84.5676 98.7763 84.7952C99.0521 85.0534 99.3577 85.2822 99.723 85.4241C100.075 85.5579 100.478 85.6259 100.844 85.6201C101.632 85.5884 102.373 85.2258 102.854 84.6533C103.146 84.3106 103.347 83.9082 103.426 83.4788C103.482 83.2723 103.495 83.0493 103.482 82.8452C103.943 82.8851 104.353 82.9367 104.706 82.9907C105.289 83.0763 105.755 83.1514 106.105 83.1913C106.165 83.2007 106.209 83.2124 106.259 83.2206C105.661 84.0619 104.86 84.7366 103.905 85.1026Z" fill="#A95210"/>
<path d="M106.952 76.9984C106.191 76.8212 105.085 76.5889 103.692 76.4164C102.3 76.258 100.608 76.1383 98.7192 76.3918C96.8604 76.6347 94.7951 77.3375 93.1082 78.8088C92.2821 79.5457 91.6458 80.4703 91.2578 81.4441C90.8925 82.418 90.754 83.4212 90.717 84.3469C90.674 86.2149 91.0011 87.8317 91.185 89.1857C91.4094 90.5292 91.5133 91.6145 91.4667 92.3584C91.4178 93.1046 91.2423 93.5024 91.3044 93.5352C91.3593 93.547 91.6327 93.195 91.7676 92.4006C91.8607 91.9418 91.8846 91.3693 91.875 90.7192C91.8893 90.7615 91.9371 90.7955 91.9598 90.853C92.2344 91.1991 92.6665 91.7013 92.9912 92.2305C93.1536 92.5144 93.224 92.7737 93.1858 92.8641C93.1858 92.9732 92.3824 93.4308 92.1591 93.52C92.1759 93.3745 92.1759 93.2759 92.1759 93.2947C92.1759 93.2712 92.0016 93.5927 91.5969 93.8098C91.2089 94.0398 90.6012 94.1477 89.9171 94.1195C89.2295 94.1195 88.6051 93.9811 88.1634 93.7969C87.7169 93.6174 87.4722 93.3803 87.4686 93.3979C87.4698 93.3839 87.4829 93.432 87.5175 93.52C87.5152 93.527 87.5092 93.5282 87.5092 93.5352C87.5163 93.5387 87.5199 93.5387 87.5271 93.547C87.5844 93.6619 87.6966 93.8907 87.9354 94.1195C88.315 94.5208 89.0409 94.8963 89.8909 94.9221C90.7564 94.9549 91.536 94.5748 91.8858 94.1137C92.0421 93.8919 92.1186 93.7159 92.1436 93.5563C92.2009 93.6619 92.4683 93.7746 92.9626 93.7194C93.1106 93.7194 93.2551 93.6866 93.4258 93.6045C93.5929 93.5282 93.7995 93.3756 93.8902 93.1304C93.9857 92.8828 93.9857 92.6306 93.9272 92.4217C93.8735 92.2223 93.8006 92.0287 93.6944 91.8503C93.2861 91.1557 92.762 90.7404 92.3537 90.4505C92.1603 90.2933 91.9824 90.2182 91.8368 90.1678C91.8284 89.824 91.7903 89.4779 91.7664 89.1212C91.6363 87.7472 91.3784 86.1421 91.4775 84.3786C91.5169 83.5068 91.653 82.5904 92.0028 81.7316C92.3525 80.8621 92.9005 80.0596 93.6419 79.3955C95.1652 78.0649 97.0741 77.3879 98.8302 77.1192C100.623 76.8329 102.262 76.8904 103.645 76.9761C105.004 77.0758 106.12 77.2201 106.909 77.2999C107.684 77.3797 108.107 77.4067 108.122 77.3551C108.133 77.3034 107.722 77.1756 106.952 76.9984Z" fill="#A95210"/>
<path d="M96.6138 98.0667C96.7762 97.8754 96.7929 97.7311 96.7738 97.7065C96.6866 97.6161 96.3416 98.0174 95.7399 97.9188C95.1347 97.8461 94.3372 97.2524 93.3224 96.6998C92.8258 96.4264 92.2743 96.2152 91.7239 96.1847C91.1939 96.1272 90.6805 96.3255 90.363 96.5859C90.0323 96.857 89.8436 97.1421 89.7493 97.331C89.6407 97.5563 89.6204 97.6748 89.6634 97.7076C89.7493 97.7886 90.0406 97.3873 90.6208 97.0682C90.9002 96.9297 91.2512 96.83 91.6594 96.9027C92.0677 96.9684 92.5333 97.1585 93.0001 97.4167C93.8167 97.8461 94.5855 98.353 95.3317 98.475C94.7491 98.6709 93.905 98.7953 92.9416 98.8446C91.9471 98.8892 90.9969 98.9408 90.3259 99.1215C90.0155 99.2072 89.7804 99.2834 89.6061 99.3914C89.4306 99.2822 89.1978 99.2072 88.9005 99.1215C88.2236 98.9408 87.2745 98.8892 86.2836 98.8446C85.3154 98.7953 84.4726 98.6709 83.8709 98.475C84.6206 98.3518 85.4086 97.8461 86.2144 97.4167C86.6907 97.1585 87.1408 96.9684 87.5419 96.9027C87.9502 96.83 88.3084 96.9297 88.5913 97.0682C89.1667 97.3873 89.4652 97.7886 89.5547 97.7076C89.5977 97.6748 89.575 97.5563 89.4688 97.331C89.3721 97.1421 89.1882 96.8582 88.8551 96.5859C88.5328 96.3255 88.0314 96.1272 87.4799 96.1847C86.9462 96.2152 86.3983 96.4264 85.9016 96.6998C84.8881 97.2524 84.0798 97.8461 83.4674 97.9188C82.8705 98.0174 82.5207 97.6161 82.4455 97.7065C82.4073 97.7299 82.4431 97.8743 82.5935 98.0667C82.6556 98.1324 82.7535 98.2157 82.8621 98.2955C82.898 98.3389 82.9385 98.4023 82.9958 98.4715C83.0603 98.7214 83.1976 99.1239 83.4507 99.6166C83.8805 100.48 84.7066 101.591 85.9482 102.34C86.2228 102.505 86.4854 102.649 86.7707 102.752C86.0198 103.006 85.3787 103.402 84.9382 103.803C84.0798 104.552 83.7981 105.249 83.8673 105.299C83.9509 105.385 84.3878 104.851 85.2343 104.261C87.216 102.886 92.137 102.943 93.9922 104.261C94.8099 104.868 95.272 105.385 95.3352 105.299C95.4188 105.249 95.1359 104.55 94.2835 103.803C93.8274 103.402 93.1935 103.006 92.4521 102.752C92.7184 102.647 93.0013 102.504 93.2747 102.34C94.5175 101.59 95.334 100.48 95.7722 99.6166C96.0265 99.1239 96.1494 98.7214 96.2115 98.4715C96.2664 98.4011 96.3249 98.3389 96.3643 98.2955C96.4706 98.2157 96.5553 98.1324 96.6138 98.0667ZM95.3317 99.3022C94.8231 100.023 94.0375 100.988 92.9321 101.639C92.2564 102.048 91.5962 102.274 90.9599 102.411C90.7557 102.373 88.4325 103.059 86.292 101.639C85.2176 100.939 84.3866 100.023 83.8697 99.3022C83.7909 99.179 83.7181 99.0781 83.6512 98.9819C84.2708 99.3503 85.2331 99.5861 86.2526 99.626C87.2745 99.6812 88.1759 99.6554 88.8241 99.68C89.0497 99.68 89.2324 99.6952 89.3995 99.7058C89.4473 99.7187 89.5165 99.7211 89.6049 99.7176C89.6956 99.7211 89.7768 99.7187 89.8245 99.7058C89.9833 99.6941 90.1684 99.68 90.3916 99.68C91.0327 99.6554 91.9495 99.6812 92.9715 99.626C93.991 99.5861 94.9413 99.3503 95.5656 98.9819C95.506 99.0769 95.4331 99.179 95.3317 99.3022Z" fill="#A95210"/>
<path d="M93.5515 82.5395C93.8416 81.9881 94.1758 81.4308 94.5805 80.8746C94.9793 80.3267 95.4747 79.8515 96.0872 79.4666C97.2989 78.7122 98.6766 78.3918 99.9349 78.2581C101.184 78.1196 102.325 78.1771 103.298 78.2886C105.204 78.515 106.347 78.9527 106.347 78.9492C106.347 78.9539 105.24 78.4141 103.316 78.0915C102.365 77.9202 101.193 77.8216 99.8883 77.9202C98.6013 78.0305 97.1509 78.3214 95.8544 79.1369C95.2133 79.5417 94.6665 80.0685 94.2809 80.6693C93.8726 81.2278 93.5228 81.8168 93.2435 82.3894C92.7003 83.5427 92.3577 84.6551 92.2311 85.6137C92.0711 86.5723 92.1332 87.3607 92.286 87.8782C92.4149 88.405 92.5904 88.6455 92.5904 88.6479C92.5904 88.6455 92.4364 88.385 92.3481 87.8606C92.2406 87.3455 92.2407 86.5711 92.4162 85.65C92.6012 84.7231 92.982 83.6495 93.5515 82.5395Z" fill="#A95210"/>
<path d="M96.8428 97C96.2602 96.7008 95.7934 96.3546 95.4806 95.9674C94.8586 95.2095 94.8598 94.5243 94.8598 94.5465C94.8598 94.5465 94.8228 94.6932 94.8598 94.9795C94.8956 95.2482 94.9947 95.6671 95.2681 96.1259C95.5487 96.5799 95.9677 97.0727 96.6088 97.4529C96.7712 97.5585 96.9455 97.6441 97.1329 97.7298C96.9168 97.9691 96.7831 98.2449 96.6685 98.503C96.4918 98.97 96.4333 99.3912 96.4118 99.735C96.3748 100.423 96.5491 100.772 96.5491 100.766C96.5491 100.768 96.4882 100.412 96.6565 99.7925C96.7246 99.4992 96.8595 99.1249 97.0744 98.7611C97.2976 98.4256 98.9081 97.1572 98.9081 97.1572C98.5332 97.271 97.6068 97.3966 96.8428 97Z" fill="#A95210"/>
<path d="M77.6929 82.9804C77.9424 83.303 78.5035 83.6058 79.0348 83.5612C79.5278 83.5342 79.9493 83.1599 80.2167 82.7903C80.0448 82.7739 79.8741 82.7598 79.6998 82.741C78.9524 82.6953 78.2337 82.7023 77.5497 82.7305C77.5819 82.8126 77.6213 82.8994 77.6929 82.9804Z" fill="#A95210"/>
<path d="M84.5025 83.5622C83.9808 83.1715 83.3063 82.789 82.4933 82.5027C82.1829 82.3877 81.8558 82.3021 81.5323 82.2223C81.4129 82.1953 81.2935 82.1613 81.1646 82.1378C80.7169 82.0463 80.2501 81.9876 79.7642 81.9583C78.6408 81.8726 77.5819 81.9454 76.6531 82.0733C76.5218 82.1014 76.4024 82.1131 76.2854 82.1307C75.7375 82.2199 75.2444 82.3314 74.8266 82.4464C74.583 82.5039 74.3622 82.5661 74.164 82.6318C74.2882 82.5426 74.4123 82.4464 74.5317 82.3607C75.0331 81.9383 75.5047 81.53 76.0252 81.2191C76.4609 80.9609 76.9253 80.8002 77.3933 80.6993C77.453 80.6923 77.5115 80.6723 77.5676 80.6711C78.2087 80.5561 78.8605 80.5679 79.5207 80.6676C79.8502 80.6993 80.1689 80.7744 80.4829 80.8718C80.5593 80.8941 80.6298 80.914 80.7109 80.9398C80.89 81.0091 81.0679 81.0724 81.2529 81.1581C81.8236 81.3927 82.3477 81.7212 82.8718 82.0709C83.9104 82.7749 84.8798 83.6197 85.8086 84.5185C85.1747 83.3921 84.3115 82.3783 83.2956 81.5288C82.7858 81.1017 82.2307 80.7263 81.6194 80.4142C81.0058 80.122 80.311 79.8956 79.6377 79.8123C78.9608 79.7313 78.2672 79.7149 77.5676 79.8498C76.8752 79.9847 76.2054 80.2663 75.6539 80.6735C75.0916 81.0771 74.6535 81.5887 74.238 82.0686C73.8154 82.5344 72.9045 83.1222 72.9917 83.1152C72.9869 83.1234 72.9749 83.1328 72.9666 83.1363C72.9332 83.1644 72.9045 83.1938 72.9165 83.2043C72.9332 83.2513 73.0979 83.2513 73.3701 83.2231C73.5838 83.6725 73.8822 84.082 74.2344 84.4551C74.6248 84.8423 75.0904 85.1638 75.5978 85.4008C76.6066 85.8889 77.7443 86.0485 78.8498 86.0602C79.9708 86.0485 81.0643 85.8783 82.1292 85.6237C83.1237 85.3726 84.1026 85.0629 85.0087 84.5994C85.4851 84.9585 85.7369 85.2037 85.8098 85.1579C85.8456 85.1251 85.7417 84.8576 85.4373 84.4856C85.2355 84.2158 84.918 83.899 84.5025 83.5622ZM77.3073 82.7397C77.3766 83.2642 77.8899 83.9635 77.8899 83.9635C78.1812 84.2064 78.617 84.3929 79.1076 84.3518C79.504 84.3272 79.849 84.1348 80.0937 83.9036C80.1439 83.8497 80.1964 83.7922 80.2489 83.7452C80.4817 83.4484 80.5916 83.1339 80.6489 82.8828C80.6524 82.8746 80.6548 82.8629 80.656 82.8465C80.8243 82.8746 80.9927 82.904 81.1526 82.9321C81.0727 83.3135 80.9043 83.6772 80.656 83.9635C80.5641 84.0714 80.4555 84.1641 80.3516 84.2498C79.9075 84.5936 79.3738 84.7813 78.8187 84.7602C78.2934 84.7402 77.7419 84.5267 77.3336 84.1477C77.1569 83.9881 76.9981 83.7804 76.8704 83.554C76.7498 83.324 76.6639 83.0647 76.634 82.789C76.8501 82.7702 77.1044 82.6259 77.3073 82.7397ZM83.6489 84.9585C83.126 85.084 82.5912 85.1955 82.0576 85.2893C81.001 85.4689 79.9254 85.6249 78.8521 85.6249C77.7896 85.6249 76.7224 85.4818 75.7339 85.1016C74.7979 84.7367 73.9849 84.0609 73.3964 83.2184C73.4417 83.2102 73.4895 83.1985 73.548 83.1891C73.8978 83.1492 74.3646 83.0741 74.9448 82.9885C75.2993 82.9345 75.7124 82.8817 76.1577 82.843C76.1422 83.0459 76.1708 83.2689 76.2102 83.4766C76.3021 83.906 76.492 84.3084 76.7833 84.651C77.2775 85.2236 78.0081 85.5862 78.8044 85.6179C79.1721 85.6249 79.578 85.5568 79.9314 85.4219C80.2812 85.2799 80.6011 85.0512 80.8638 84.793C81.093 84.5654 81.2589 84.3108 81.3878 84.0397C81.5323 83.7171 81.6206 83.3686 81.623 83.0237C82.6497 83.2736 83.5284 83.6279 84.173 84.0221C84.3891 84.1618 84.573 84.2767 84.7389 84.3999C84.8273 84.4574 84.9132 84.5173 84.9825 84.5677C84.5372 84.7214 84.0978 84.8517 83.6489 84.9585Z" fill="#A95210"/>
<path d="M86.454 92.8659C86.4242 92.7756 86.4958 92.5163 86.657 92.2323C86.9793 91.7032 87.4031 91.201 87.6777 90.8548C87.7123 90.7973 87.7434 90.7633 87.7744 90.7211C87.7625 91.3711 87.7899 91.9437 87.8783 92.4024C88.0191 93.1968 88.289 93.5488 88.326 93.5371C88.3892 93.5042 88.2281 93.1064 88.1815 92.3602C88.1349 91.6163 88.2388 90.531 88.4573 89.1875C88.6483 87.8335 88.9611 86.2155 88.9288 84.3487C88.8978 83.4218 88.7545 82.4198 88.3773 81.4459C88.0024 80.4721 87.3721 79.5475 86.54 78.8107C84.8555 77.3405 82.7818 76.6365 80.9159 76.3936C79.0463 76.1413 77.3499 76.261 75.9603 76.4182C74.5623 76.5907 73.4545 76.823 72.694 77.0002C71.9347 77.1774 71.5133 77.3053 71.53 77.3557C71.5312 77.4074 71.967 77.3804 72.7441 77.3006C73.513 77.2208 74.6328 77.0765 76.014 76.9768C77.3881 76.8911 79.0308 76.8336 80.8013 77.1199C82.5705 77.3886 84.4735 78.0656 85.992 79.3962C86.7453 80.0591 87.2981 80.8628 87.6479 81.7322C87.9929 82.5911 88.1338 83.5086 88.1755 84.3793C88.2615 86.1428 88.0204 87.7491 87.8878 89.1218C87.8532 89.4785 87.8222 89.8247 87.7995 90.1684C87.6694 90.2189 87.4903 90.294 87.2885 90.4512C86.8886 90.741 86.3645 91.1575 85.9562 91.851C85.8512 92.0293 85.7652 92.2229 85.7175 92.4224C85.6649 92.6312 85.653 92.8835 85.7533 93.1311C85.85 93.3763 86.0458 93.5288 86.2201 93.6051C86.3944 93.6861 86.5424 93.7201 86.6868 93.7201C87.2276 93.7776 87.5094 93.6274 87.513 93.5371C87.3267 93.4491 86.454 92.975 86.454 92.8659Z" fill="#A95210"/>
<path d="M87.0655 88.6474C87.0583 88.645 87.2386 88.4045 87.3747 87.8777C87.5108 87.3602 87.5681 86.5718 87.4272 85.6132C87.2899 84.6557 86.958 83.5422 86.3957 82.3889C86.1248 81.8163 85.7821 81.2273 85.375 80.6688C84.9882 80.068 84.4343 79.5412 83.7908 79.1364C82.4907 78.3209 81.0426 78.0299 79.7545 77.9197C78.4652 77.8223 77.2964 77.9196 76.3342 78.091C74.4014 78.4136 73.3078 78.9533 73.3078 78.9487C73.3078 78.9522 74.4455 78.5145 76.3652 78.2881C77.3143 78.1766 78.4687 78.1191 79.7211 78.2576C80.9758 78.3913 82.3606 78.7117 83.5688 79.4661C84.1824 79.8498 84.6766 80.325 85.0563 80.8741C85.4646 81.4291 85.8108 81.9876 86.1021 82.539C86.6775 83.649 87.0392 84.7226 87.2338 85.6495C87.4165 86.5706 87.4165 87.3438 87.309 87.8601C87.2123 88.3834 87.0583 88.645 87.0655 88.6474Z" fill="#A95210"/>
<path d="M82.5293 98.5031C82.4326 98.2449 82.2858 97.9692 82.0828 97.7298C82.2667 97.6442 82.4398 97.5585 82.6057 97.4529C83.2385 97.0728 83.6635 96.58 83.944 96.1259C84.2103 95.6671 84.3213 95.2494 84.3571 94.9796C84.3845 94.6933 84.3571 94.5466 84.3571 94.5466C84.3571 94.5231 84.3583 95.2084 83.7303 95.9675C83.4247 96.3547 82.9627 96.756 82.3753 97C82.1175 97.108 81.8429 97.2124 81.5468 97.2417C81.5134 97.2147 80.6849 97.2711 80.3029 97.1573L81.1779 97.88C81.1779 97.88 81.9193 98.4256 82.1187 98.7612C82.3443 99.1238 82.4792 99.4992 82.5556 99.7926C82.7251 100.412 82.6571 100.768 82.6571 100.766C82.6523 100.772 82.8409 100.423 82.7979 99.735C82.7824 99.3913 82.7156 98.9689 82.5293 98.5031Z" fill="#A95210"/>
<path d="M95.1908 99.1049C95.1764 99.0873 94.7753 99.681 93.9361 100.538C93.5242 100.954 92.9607 101.433 92.2265 101.774C91.4839 102.124 90.5838 102.314 89.6574 102.319C87.7329 102.371 86.1642 101.455 85.2963 100.653C84.4165 99.8101 84.1909 99.0779 84.1825 99.1061C84.1897 99.085 84.5526 99.7373 85.4909 100.424C86.3982 101.108 87.9132 101.799 89.6359 101.741C90.5062 101.741 91.324 101.592 92.02 101.333C92.7136 101.054 93.2902 100.681 93.757 100.323C94.6595 99.6071 95.1824 99.0826 95.1908 99.1049Z" fill="#A95210"/>
<path d="M104.801 81.3774C104.8 81.3774 104.441 81.2999 103.486 81.2577C102.501 81.2131 101.16 81.2389 99.7384 81.4419C98.3034 81.6425 97.0785 81.9875 96.3192 82.3372C95.5122 82.6798 95.1541 82.9895 95.1362 82.9813C95.1565 82.9895 95.4382 82.6457 96.1748 82.2374C96.9042 81.815 98.1363 81.3844 99.6441 81.1767C101.126 80.9573 102.54 81.0113 103.499 81.1274C104.483 81.2424 104.8 81.3774 104.801 81.3774Z" fill="#A95210"/>
<path d="M75.0662 81.3865C75.0626 81.3865 75.6106 81.2152 76.5752 81.1225C77.5338 81.0287 78.902 80.9606 80.3883 81.1777C80.7476 81.2363 81.1093 81.3032 81.4388 81.4159C81.7337 81.5308 82.0214 81.6447 82.2864 81.7467C82.8332 81.9603 83.3036 82.1797 83.639 82.3921C84.298 82.8403 84.6192 83.1395 84.6359 83.1348C84.624 83.143 84.2049 82.8767 83.4898 82.4988C83.1281 82.3052 82.6541 82.1328 82.1014 81.9368L81.2323 81.6446C80.941 81.559 80.6211 81.4909 80.2713 81.4405C78.8852 81.2434 77.5493 81.2281 76.599 81.2504C75.644 81.2715 75.065 81.3865 75.0662 81.3865Z" fill="#A95210"/>
<path d="M95.816 100.076C95.798 100.076 95.3384 100.728 94.3977 101.678C93.9273 102.139 93.2934 102.654 92.4709 103.011C91.6543 103.399 90.6634 103.594 89.6284 103.628C87.5022 103.671 85.7532 102.672 84.7838 101.795C83.7786 100.879 83.5219 100.066 83.5148 100.076C83.5207 100.071 83.9111 100.821 84.9509 101.581C85.9681 102.356 87.6705 103.152 89.6152 103.113C90.5954 103.074 91.5277 102.929 92.2966 102.608C93.0893 102.31 93.7256 101.874 94.2222 101.469C95.237 100.649 95.804 100.073 95.816 100.076Z" fill="#A95210"/>
<path d="M122.515 89.7268L122.516 87.2288L122.535 87.2334L122.516 87.0762L122.516 86.919L122.502 86.919L122.289 84.4233L122.311 84.4245L122.27 84.2732L122.245 84.1159L121.803 81.6461L121.808 81.6461L121.782 81.5006L121.733 81.3434L121.08 78.9169L121.092 78.9169L121.035 78.7914L120.99 78.6212L120.97 78.6342L120.111 76.2711L120.136 76.2711L120.065 76.1444L120.008 75.9813L119.991 75.9871L118.911 73.7179L118.911 73.7144L118.854 73.5924L118.782 73.4352L118.766 73.4352L117.496 71.2657L117.5 71.261L117.421 71.1448L117.323 71.0017L117.315 71.0087L115.85 68.9601L115.868 68.9507L115.776 68.8345L115.672 68.702L115.659 68.709L114.034 66.7836L114.038 66.7836L113.927 66.6838L113.823 66.5501L113.81 66.5665L112.003 64.7913L112.018 64.7795L111.914 64.6869L111.799 64.5683L111.78 64.5765L109.814 62.9726L109.829 62.9597L109.714 62.8752L109.576 62.7661L109.566 62.7849L107.492 61.3382L107.497 61.3358L107.369 61.2643L107.23 61.1633L107.222 61.1751L105.003 59.9184L105.012 59.9161L104.877 59.8527L104.747 59.7624L104.747 59.7835L102.43 58.7181L102.44 58.7134L102.3 58.6548L102.126 58.5914L102.12 58.5996L99.7464 57.7431L99.7464 57.7361L99.6091 57.6974L99.4204 57.6398L99.4204 57.6457L96.9779 57.0027L96.9838 56.9863L96.8382 56.964L96.6687 56.923L96.6687 56.9347L94.1593 56.5006L94.1616 56.483L94.0148 56.4818L93.8465 56.4478L93.8465 56.4571L91.2917 56.2377L91.2964 56.2295L91.1532 56.2295L90.9765 56.2119L90.9801 56.2295L88.4384 56.2295L88.4396 56.2131L88.2797 56.2295L88.1197 56.2295L88.1233 56.2389L85.5816 56.456L85.5828 56.4478L85.4264 56.4747L85.2652 56.4806L85.2664 56.4994L82.757 56.9312L82.7558 56.9218L82.6054 56.9558L82.4454 56.9851L82.4454 57.0016L79.9814 57.6445L79.9814 57.6387L79.831 57.688L79.6769 57.7326L79.6877 57.7408L77.2881 58.5949L77.2881 58.5891L77.1377 58.6524L76.9908 58.7088L76.998 58.7146L74.6891 59.7777L74.6855 59.7577L74.5399 59.8457L74.4026 59.9126L74.4026 59.9149L72.194 61.1716L72.1893 61.1598L72.0615 61.2502L71.9254 61.3335L71.9338 61.3358L69.8506 62.7825L69.8398 62.7638L69.7192 62.8694L69.5867 62.9574L69.5951 62.9714L67.6384 64.5754L67.6384 64.566L67.5166 64.6728L67.3972 64.7748L67.4152 64.7878L65.6089 66.563L65.5958 66.5454L65.4919 66.6651L65.3833 66.7801L65.3952 66.7801L63.7608 68.7055L63.7453 68.6973L63.6534 68.831L63.5483 68.9472L63.5675 68.9578L62.0955 71.0064L62.0931 70.9982L62.0047 71.1331L61.9164 71.2586L61.9319 71.2633L60.6497 73.4328L60.5769 73.5736L60.491 73.712L60.5112 73.7168L59.432 75.986L59.4225 75.9789L59.3676 76.1268L59.3031 76.2687L59.3055 76.2687L58.4376 78.6271L58.428 78.6177L58.3803 78.7714L58.3313 78.9158L58.3397 78.9158L57.6831 81.3422L57.6676 81.3422L57.6377 81.4971L57.6043 81.6449L57.6126 81.6449L57.1733 84.1148L57.1506 84.1112L57.1471 84.272L57.122 84.4222L57.1268 84.421L56.9059 86.9178L56.894 86.9178L56.894 87.0751L56.8796 87.2323L56.894 87.2264L56.894 89.7244L56.8796 89.7221L56.894 89.8969L56.894 90.0365L56.9047 90.0318L57.1268 92.5439L57.122 92.5439L57.1471 92.6871L57.1506 92.8584L57.1721 92.8513L57.6115 95.3165L57.6031 95.3165L57.6377 95.4608L57.6676 95.6321L57.6831 95.6204L58.3397 98.0269L58.3301 98.0269L58.3815 98.1876L58.4268 98.3425L58.4364 98.3425L59.3043 100.675L59.3019 100.68L59.3664 100.833L59.4213 100.99L59.4308 100.981L60.5101 103.253L60.4886 103.259L60.5793 103.384L60.6485 103.52L60.6485 103.51L61.9307 105.69L61.914 105.699L62.0071 105.831L62.0919 105.967L62.0931 105.956L63.5663 107.993L63.546 108.004L63.6534 108.126L63.7429 108.255L63.7585 108.238L65.3928 110.171L65.3797 110.188L65.4895 110.29L65.5922 110.405L65.6053 110.391L67.4128 112.165L67.3937 112.178L67.5178 112.271L67.636 112.394L67.636 112.386L69.5927 113.982L69.5831 113.995L69.7204 114.096L69.8374 114.189L69.8494 114.169L71.9326 115.608L71.923 115.617L72.0603 115.709L72.1881 115.797L72.1917 115.789L74.4014 117.036L74.4014 117.057L74.5447 117.12L74.6844 117.184L74.6891 117.184L76.998 118.241L76.9896 118.255L77.146 118.318L77.2869 118.382L77.2869 118.357L79.6865 119.201L79.6757 119.222L79.8393 119.264L79.9802 119.327L79.9802 119.312L82.4442 119.957L82.4442 119.959L82.609 120L82.7534 120.027L82.7546 120.02L85.2664 120.461L85.264 120.461L85.43 120.48L85.5804 120.524L85.5804 120.5L88.1233 120.713L88.1197 120.721L88.2797 120.721L88.4396 120.741L88.436 120.721L90.9789 120.721L90.9765 120.741L91.1532 120.721L91.2964 120.721L91.2917 120.713L93.8465 120.498L93.8465 120.523L93.9897 120.476L94.1604 120.46L94.1581 120.46L96.6675 120.018L96.6675 120.026L96.8107 119.995L96.9826 119.956L96.9779 119.956L99.4192 119.31L99.4192 119.326L99.5828 119.263L99.7464 119.221L99.7464 119.2L102.12 118.356L102.124 118.381L102.276 118.309L102.44 118.254L102.43 118.24L104.741 117.183L104.748 117.183L104.876 117.119L105.015 117.056L105.004 117.035L107.223 115.787L107.232 115.796L107.357 115.707L107.498 115.616L107.493 115.607L109.566 114.168L109.576 114.188L109.691 114.094L109.832 113.993L109.815 113.981L111.781 112.385L111.792 112.393L111.891 112.271L112.019 112.176L112.002 112.163L113.81 110.389L113.822 110.403L113.909 110.29L114.036 110.186L114.032 110.168L115.656 108.236L115.67 108.252L115.775 108.128L115.868 108.004L115.847 107.993L117.314 105.955L117.321 105.966L117.407 105.832L117.499 105.698L117.494 105.69L118.766 103.509L118.782 103.519L118.854 103.383L118.911 103.258L118.911 103.252L119.992 100.98L120.008 100.988L120.058 100.84L120.136 100.68L120.109 100.674L120.97 98.3413L120.989 98.3413L121.035 98.1935L121.092 98.0257L121.079 98.0257L121.733 95.6204L121.733 95.6309L121.776 95.4678L121.809 95.3153L121.803 95.3153L122.245 92.8502L122.245 92.8572L122.266 92.6953L122.317 92.5416L122.289 92.5416L122.503 90.0307L122.516 90.0353L122.516 89.8946L122.539 89.7209L122.515 89.7268ZM121.605 89.8371L115.087 90.6537L121.349 92.5721L114.808 92.8255L120.872 95.2602L114.315 94.9528L120.145 97.9025L113.653 97.0401L119.197 100.485L112.804 99.0582L118.013 102.958L111.778 100.988L116.623 105.337L110.576 102.838L115.029 107.577L109.235 104.58L113.24 109.685L107.722 106.185L111.28 111.607L106.084 107.668L109.138 113.363L104.318 108.992L106.854 114.931L102.436 110.167L104.439 116.3L100.472 111.175L101.924 117.458L98.4176 112.015L99.2879 118.39L96.295 112.659L96.6054 119.103L94.1294 113.15L93.8715 119.578L91.9196 113.419L91.0875 119.831L89.7051 113.529L88.3119 119.831L87.4786 113.419L85.5374 119.578L85.2784 113.15L82.7988 119.104L83.114 112.659L80.1055 118.389L80.9925 112.015L77.4887 117.457L78.9368 111.175L74.9685 116.3L76.9634 110.165L72.5546 114.93L75.0903 108.99L70.2696 113.362L73.327 107.667L68.1446 111.606L71.6855 106.181L66.1676 109.683L70.186 104.578L64.3805 107.573L68.831 102.835L62.7879 105.334L67.6324 100.986L61.3887 102.956L66.6069 99.0559L60.2176 100.483L65.7641 97.0354L59.2661 97.8978L65.0967 94.9492L58.5403 95.2555L64.6192 92.822L58.0556 92.5674L64.3255 90.6502L57.8228 89.8324L64.2288 88.4725L57.8228 87.1032L64.3255 86.2866L58.0556 84.3787L64.6192 84.123L58.5403 81.6836L65.0967 81.9992L59.2649 79.0366L65.7629 79.9107L60.2164 76.467L66.6069 77.8914L61.3887 73.9913L67.6336 75.9496L62.7879 71.6188L68.831 74.111L64.3816 69.3731L70.1872 72.378L66.1688 67.2811L71.6867 70.7658L68.1446 65.3427L73.3282 69.2921L70.2708 63.5863L75.0915 67.9592L72.5558 62.0199L76.9634 66.7824L74.9697 60.6459L78.938 65.7745L77.4898 59.4937L80.9937 64.945L80.1055 58.5574L83.1152 64.2926L82.7988 57.8464L85.2808 63.8162L85.5398 57.37L87.481 63.5311L88.3131 57.1365L89.7063 63.4349L91.0887 57.1365L91.9208 63.5299L93.8727 57.3653L94.1306 63.8151L96.6066 57.8428L96.2962 64.2914L99.2891 58.5562L98.4188 64.9438L101.925 59.4902L100.473 65.7733L104.443 60.6412L102.437 66.7812L106.856 62.0164L104.319 67.9592L109.142 63.5839L106.086 69.2933L111.286 65.3416L107.722 70.7658L113.243 67.2811L109.235 72.3792L115.031 69.3731L110.576 74.1122L116.627 71.6177L111.778 75.9496L118.013 73.9913L112.804 77.8926L119.197 76.4682L113.653 79.9131L120.145 79.039L114.315 82.0016L120.874 81.686L114.808 84.1265L121.349 84.3823L115.087 86.2901L121.605 87.1067L115.193 88.476L121.605 89.8371Z" fill="#A95210"/>
</svg>
