<svg width="49" height="48" viewBox="0 0 49 48" fill="none" xmlns="http://www.w3.org/2000/svg">
<path d="M46.1371 32.5871C46.0396 32.5868 45.9428 32.5701 45.8508 32.5376C45.7454 32.5001 45.6484 32.4421 45.5654 32.367C45.4824 32.2919 45.415 32.2012 45.367 32.1001C45.3191 31.9989 45.2915 31.8893 45.2859 31.7776C45.2803 31.6658 45.2968 31.554 45.3344 31.4486C45.7142 30.3793 46.0102 29.282 46.2198 28.1668C46.2621 27.9448 46.3908 27.7486 46.5777 27.6215C46.7646 27.4943 46.9944 27.4466 47.2164 27.4889C47.4385 27.5312 47.6347 27.6599 47.7618 27.8468C47.8889 28.0337 47.9366 28.2635 47.8943 28.4855C47.6682 29.687 47.3491 30.8692 46.9399 32.0212C46.8808 32.1868 46.772 32.3301 46.6282 32.4314C46.4845 32.5327 46.313 32.5871 46.1371 32.5871Z" fill="#F4F4F4"/>
<path d="M40.7865 41.1086C40.619 41.1079 40.4554 41.0578 40.3161 40.9647C40.1769 40.8715 40.0682 40.7394 40.0037 40.5848C39.9391 40.4302 39.9215 40.26 39.9532 40.0955C39.9848 39.931 40.0642 39.7795 40.1815 39.6598C41.1788 38.6544 42.0771 37.5555 42.8641 36.3781C42.9895 36.1901 43.1845 36.0596 43.4062 36.0153C43.6279 35.971 43.858 36.0166 44.0461 36.1421C44.2341 36.2675 44.3646 36.4625 44.4089 36.6842C44.4532 36.9058 44.4076 37.136 44.2821 37.324C43.4341 38.5904 42.4661 39.7721 41.3915 40.8529C41.3126 40.9334 41.2185 40.9975 41.1146 41.0414C41.0108 41.0852 40.8992 41.1081 40.7865 41.1086Z" fill="#F4F4F4"/>
<path d="M44.4009 4.5417C44.2519 4.47388 44.0865 4.45043 43.9245 4.47416C43.7625 4.49789 43.6107 4.56779 43.4874 4.67549L40.9811 6.87241C37.8007 3.81919 33.8362 1.70733 29.5279 0.77139C25.2196 -0.164554 20.7362 0.112052 16.5756 1.57049C12.415 3.02892 8.74017 5.6121 5.95915 9.03311C3.17814 12.4541 1.39983 16.5791 0.821756 20.9498C0.243678 25.3205 0.888452 29.7659 2.68446 33.7923C4.48048 37.8187 7.35743 41.2684 10.9958 43.7583C14.6341 46.2483 18.8915 47.6809 23.2949 47.8972C27.6984 48.1135 32.0757 47.1049 35.9405 44.9835C36.1387 44.8748 36.2856 44.6918 36.3489 44.4748C36.4122 44.2578 36.3867 44.0245 36.278 43.8263C36.1693 43.6281 35.9863 43.4812 35.7692 43.4179C35.5522 43.3546 35.3189 43.3801 35.1207 43.4888C31.5349 45.4624 27.4727 46.4044 23.3843 46.2106C19.2959 46.0167 15.341 44.6945 11.9581 42.3905C8.57511 40.0865 5.89623 36.8908 4.21838 33.1575C2.54053 29.4242 1.92925 25.2992 2.45228 21.2397C2.97532 17.1803 4.61225 13.345 7.18163 10.1589C9.751 6.97284 13.1525 4.5605 17.0089 3.18928C20.8654 1.81806 25.0263 1.54152 29.0303 2.39033C33.0343 3.23913 36.7251 5.18012 39.6935 7.99814L36.6734 10.6399C36.5426 10.7538 36.4497 10.9049 36.4071 11.073C36.3645 11.241 36.3742 11.4181 36.4348 11.5806C36.4955 11.743 36.6043 11.8831 36.7466 11.9821C36.889 12.0811 37.0582 12.1343 37.2316 12.1346H44.049C44.275 12.1346 44.4918 12.0448 44.6516 11.885C44.8114 11.7252 44.9012 11.5084 44.9012 11.2824V5.31718C44.901 5.15354 44.8538 4.99339 44.7651 4.85587C44.6764 4.71836 44.55 4.60929 44.4009 4.5417Z" fill="#F4F4F4"/>
<path d="M47.4586 24.0656C47.2379 24.0657 47.0258 23.9803 46.8668 23.8272C46.7079 23.6742 46.6145 23.4654 46.6064 23.2449C46.5671 22.1444 46.4423 21.0486 46.2331 19.9674C46.1932 19.747 46.2418 19.5197 46.3683 19.3347C46.4948 19.1498 46.689 19.0221 46.9089 18.9793C47.1288 18.9365 47.3568 18.9821 47.5434 19.1061C47.73 19.2301 47.8602 19.4226 47.9059 19.6419C48.1321 20.8097 48.2675 21.9932 48.3107 23.1819C48.3149 23.2938 48.2971 23.4055 48.2581 23.5105C48.2191 23.6155 48.1598 23.7118 48.0836 23.7938C48.0074 23.8759 47.9157 23.9422 47.8139 23.9888C47.7121 24.0354 47.602 24.0615 47.4901 24.0656H47.4586Z" fill="#F4F4F4"/>
<path d="M33.4098 16.9294L27.2596 11.6978C26.9146 11.4027 26.4794 11.234 26.0256 11.2195C25.5719 11.205 25.1268 11.3455 24.7636 11.6179L22.0979 13.6147L20.4205 11.9374C20.0464 11.5655 19.5403 11.3568 19.0128 11.3568C18.4853 11.3568 17.9792 11.5655 17.605 11.9374L12.613 16.9794C11.9 17.0777 11.2463 17.4295 10.7715 17.9703C10.2966 18.5112 10.0324 19.205 10.0271 19.9247V33.9023C10.0271 34.6967 10.3427 35.4586 10.9044 36.0203C11.4661 36.582 12.228 36.8976 13.0224 36.8976H32.9905C33.7848 36.8976 34.5467 36.582 35.1084 36.0203C35.6701 35.4586 35.9857 34.6967 35.9857 33.9023V19.9247C35.9928 19.1979 35.7355 18.4933 35.2615 17.9422C34.7876 17.3911 34.1295 17.0312 33.4098 16.9294ZM33.9889 28.9103H31.9921C31.4625 28.9103 30.9546 28.6999 30.5801 28.3255C30.2056 27.951 29.9952 27.4431 29.9952 26.9135C29.9952 26.3839 30.2056 25.876 30.5801 25.5015C30.9546 25.1271 31.4625 24.9167 31.9921 24.9167H33.9889V28.9103ZM26.0016 13.2154L30.2948 16.9294H25.4126L23.5256 15.0425L26.0016 13.2154ZM19.0128 13.3452L22.5971 16.9294H15.4285L19.0128 13.3452ZM32.9905 34.9007H13.0224C12.7576 34.9007 12.5036 34.7956 12.3164 34.6083C12.1291 34.4211 12.024 34.1671 12.024 33.9023V19.9247C12.024 19.6599 12.1291 19.4059 12.3164 19.2187C12.5036 19.0314 12.7576 18.9263 13.0224 18.9263H32.9905C33.2553 18.9263 33.5092 19.0314 33.6964 19.2187C33.8837 19.4059 33.9889 19.6599 33.9889 19.9247V22.9199H31.9921C30.9329 22.9199 29.9171 23.3406 29.1681 24.0896C28.4192 24.8385 27.9984 25.8543 27.9984 26.9135C27.9984 27.9727 28.4192 28.9885 29.1681 29.7374C29.9171 30.4864 30.9329 30.9071 31.9921 30.9071H33.9889V33.9023C33.9889 34.1671 33.8837 34.4211 33.6964 34.6083C33.5092 34.7956 33.2553 34.9007 32.9905 34.9007Z" fill="#F4F4F4"/>
<path d="M31.2833 26.2048C31.1008 26.3961 30.9974 26.6493 30.9937 26.9136C30.9937 27.1784 31.0989 27.4324 31.2862 27.6196C31.4734 27.8069 31.7273 27.912 31.9921 27.912C32.2569 27.912 32.5109 27.8069 32.6981 27.6196C32.8854 27.4324 32.9905 27.1784 32.9905 26.9136C32.9917 26.7153 32.9338 26.5212 32.8241 26.3559C32.7145 26.1907 32.5582 26.0618 32.375 25.9857C32.1919 25.9097 31.9902 25.8899 31.7958 25.9289C31.6013 25.9679 31.4229 26.064 31.2833 26.2048Z" fill="#F4F4F4"/>
</svg>
