<svg width="346" height="92" viewBox="0 0 346 92" fill="none" xmlns="http://www.w3.org/2000/svg">
<path fill-rule="evenodd" clip-rule="evenodd" d="M173 73.7773C192.109 73.7773 207.6 58.2863 207.6 39.1773L346 39.1773V74.7797C346 83.7806 338.703 91.0773 329.702 91.0773H174.236H16.2976C7.29668 91.0773 0 83.7806 0 74.7797V39.1773L138.4 39.1773C138.4 58.2863 153.891 73.7773 173 73.7773Z" fill="#A95210"/>
<g filter="url(#filter0_d_1_22476)">
<circle cx="173" cy="39.1773" r="33.3643" fill="#833800"/>
<path d="M172.3 61.3973C167.94 61.3973 163.569 61.3531 159.209 61.4194C157.223 61.4526 155.913 60.0588 155.936 58.1451C155.98 54.8266 155.936 51.508 155.958 48.1894C155.969 46.6297 156.834 45.5014 158.243 45.1917C158.51 45.1364 158.798 45.1253 159.064 45.1253C167.907 45.1253 176.738 45.1253 185.581 45.1253C187.345 45.1253 188.609 46.2647 188.632 48.0125C188.676 51.5191 188.676 55.0146 188.632 58.5212C188.609 60.2358 187.345 61.3862 185.614 61.3862C181.176 61.3973 176.738 61.3973 172.3 61.3973ZM179.534 50.6784C180.677 50.6784 181.786 50.6452 182.885 50.6894C183.484 50.7115 183.484 50.3908 183.473 49.9593C183.461 49.5611 183.528 49.1961 182.907 49.2071C181.387 49.2403 179.878 49.2293 178.358 49.2071C177.903 49.1961 177.781 49.3731 177.792 49.7934C177.803 52.1164 177.803 54.4394 177.792 56.7624C177.792 57.1606 177.914 57.3155 178.336 57.3155C179.867 57.3044 181.409 57.2934 182.94 57.3265C183.528 57.3376 183.484 56.9947 183.484 56.6075C183.484 56.2204 183.572 55.8221 182.929 55.8443C181.953 55.8885 180.965 55.8664 179.989 55.8443C179.822 55.8443 179.534 55.6783 179.523 55.5677C179.467 55.0589 179.501 54.55 179.501 53.9637C180.266 53.9637 180.965 53.9527 181.664 53.9637C182.019 53.9748 182.186 53.8421 182.152 53.4881C182.141 53.3443 182.141 53.1894 182.152 53.0456C182.197 52.6363 182.019 52.4925 181.609 52.5036C180.932 52.5257 180.244 52.5146 179.534 52.5146C179.534 51.8841 179.534 51.3089 179.534 50.6784ZM170.325 49.2293C170.381 49.4616 170.403 49.5722 170.436 49.6717C171.102 51.873 171.768 54.0744 172.444 56.2757C172.833 57.5257 172.589 57.2602 173.853 57.3155C174.308 57.3376 174.541 57.2049 174.674 56.7403C175.351 54.4836 176.061 52.2381 176.76 49.9925C176.827 49.7713 176.871 49.5501 176.96 49.2293C176.45 49.2293 176.028 49.1961 175.618 49.2514C175.44 49.2735 175.196 49.4616 175.14 49.6275C174.919 50.3023 174.752 51.0102 174.564 51.6961C174.286 52.7027 174.02 53.6983 173.743 54.7049C173.576 54.539 173.51 54.373 173.465 54.2071C173.055 52.7137 172.655 51.2204 172.234 49.7381C172.178 49.5501 172.023 49.2846 171.879 49.2624C171.39 49.1961 170.902 49.2293 170.325 49.2293ZM161.128 53.2668C161.128 54.4505 161.128 55.623 161.128 56.8066C161.128 57.0942 161.15 57.3155 161.527 57.3155C163.158 57.3044 164.778 57.3155 166.409 57.2934C166.531 57.2934 166.697 57.0832 166.753 56.9283C166.808 56.7624 166.753 56.5633 166.775 56.3863C166.819 55.977 166.642 55.8443 166.231 55.8443C165.288 55.8664 164.345 55.8332 163.402 55.8553C162.981 55.8664 162.825 55.7447 162.836 55.3022C162.859 53.6429 162.859 51.9837 162.848 50.3244C162.836 49.0965 163.036 49.2403 161.716 49.2071C161.283 49.1961 161.128 49.3399 161.139 49.7713C161.139 50.9439 161.128 52.1053 161.128 53.2668ZM169.371 53.2668C169.371 52.2491 169.382 51.2425 169.371 50.2248C169.36 49.0855 169.527 49.2624 168.373 49.2182C167.829 49.1961 167.685 49.3841 167.696 49.904C167.718 52.0058 167.696 54.1075 167.707 56.2093C167.718 57.4482 167.518 57.2934 168.828 57.3376C169.282 57.3487 169.393 57.1827 169.382 56.7624C169.36 55.5788 169.371 54.4173 169.371 53.2668Z" fill="white"/>
<path d="M172.267 43.3112C168.606 43.3112 164.944 43.3002 161.283 43.3223C160.851 43.3223 160.618 43.1785 160.418 42.8135C155.558 34.2737 160.773 23.7207 170.536 22.3601C178.069 21.3092 185.181 26.9065 185.936 34.4617C186.235 37.4374 185.658 40.2139 184.194 42.8135C183.983 43.1785 183.75 43.3223 183.317 43.3223C179.623 43.3112 175.95 43.3112 172.267 43.3112ZM169.271 34.7162C169.26 36.121 169.249 37.5148 169.26 38.9197C169.271 39.871 169.771 40.1586 170.581 39.6719C172.844 38.2781 175.096 36.8732 177.348 35.4573C178.014 35.037 178.025 34.506 177.348 34.0856C175.085 32.6697 172.811 31.2538 170.525 29.849C169.782 29.3954 169.271 29.6941 169.26 30.568C169.271 31.9618 169.271 33.3445 169.271 34.7162Z" fill="white"/>
<path d="M153.229 35.9662C153.229 27.0504 159.342 19.2739 168.084 17.4376C175.451 15.8889 181.875 17.9022 186.768 23.6544C191.949 29.7495 192.692 36.6521 189.63 43.9971C189.608 44.0524 189.586 44.0967 189.564 44.152C189.386 44.517 189.098 44.7051 188.709 44.506C188.321 44.3069 188.31 43.975 188.487 43.61C189.741 41.0436 190.318 38.3113 190.207 35.4684C190.041 30.9663 188.432 27.0172 185.314 23.7429C182.064 20.3358 178.07 18.4332 173.354 18.1677C168.173 17.8801 163.658 19.5283 159.919 23.1123C156.058 26.7959 154.271 31.3755 154.405 36.6742C154.46 39.0525 155.037 41.3423 156.069 43.4993C156.257 43.8976 156.357 44.2405 155.913 44.4949C155.547 44.7161 155.248 44.5392 154.982 43.9971C153.828 41.5967 153.229 38.8644 153.229 35.9662Z" fill="white"/>
</g>
<defs>
<filter id="filter0_d_1_22476" x="134.693" y="0.870127" width="76.6143" height="76.6143" filterUnits="userSpaceOnUse" color-interpolation-filters="sRGB">
<feFlood flood-opacity="0" result="BackgroundImageFix"/>
<feColorMatrix in="SourceAlpha" type="matrix" values="0 0 0 0 0 0 0 0 0 0 0 0 0 0 0 0 0 0 127 0" result="hardAlpha"/>
<feOffset/>
<feGaussianBlur stdDeviation="2.47143"/>
<feComposite in2="hardAlpha" operator="out"/>
<feColorMatrix type="matrix" values="0 0 0 0 1 0 0 0 0 1 0 0 0 0 1 0 0 0 0.5 0"/>
<feBlend mode="normal" in2="BackgroundImageFix" result="effect1_dropShadow_1_22476"/>
<feBlend mode="normal" in="SourceGraphic" in2="effect1_dropShadow_1_22476" result="shape"/>
</filter>
</defs>
</svg>
