<svg width="56" height="58" viewBox="0 0 56 58" fill="none" xmlns="http://www.w3.org/2000/svg">
<path d="M55.6602 0.631104H8.27381C3.70431 0.631104 -3.56971e-06 4.33541 -3.56971e-06 8.90491V49.5218C-3.56971e-06 54.0913 3.70431 57.7956 8.2738 57.7956H55.6602V0.631104Z" fill="#A95210"/>
<path d="M33.2245 22.0208C32.6042 22.0218 31.9849 22.0719 31.3724 22.1706C29.671 20.4407 27.5031 19.2432 25.1329 18.7242L28.2736 15.2298C28.3493 15.1471 28.4002 15.0448 28.4203 14.9345C28.4405 14.8243 28.4291 14.7105 28.3875 14.6064L27.1887 11.6095C27.1443 11.498 27.0674 11.4024 26.9681 11.3351C26.8687 11.2677 26.7514 11.2318 26.6313 11.2319H18.24C18.1199 11.2318 18.0026 11.2677 17.9032 11.3351C17.8039 11.4024 17.727 11.498 17.6826 11.6095L16.4838 14.6064C16.4422 14.7105 16.4308 14.8243 16.451 14.9345C16.4711 15.0448 16.522 15.1471 16.5977 15.2298L19.7384 18.7242C16.707 19.3881 14.0279 21.1487 12.2157 23.6679C10.4036 26.187 9.58623 29.287 9.92077 32.3722C10.2553 35.4573 11.7181 38.31 14.0281 40.3822C16.3381 42.4544 19.3324 43.5998 22.4357 43.5985C23.056 43.5975 23.6753 43.5474 24.2877 43.4487C25.4503 44.6401 26.8405 45.5857 28.3757 46.2292C29.9109 46.8728 31.5599 47.2011 33.2245 47.1948C36.5628 47.1948 39.7643 45.8687 42.1249 43.5081C44.4854 41.1476 45.8115 37.9461 45.8115 34.6078C45.8115 31.2695 44.4854 28.068 42.1249 25.7074C39.7643 23.3469 36.5628 22.0208 33.2245 22.0208V22.0208ZM25.8401 12.4307H26.2237L26.943 14.2288H25.1209L25.8401 12.4307ZM26.4875 15.4276L23.7723 18.4425L24.6773 15.4276H26.4875ZM24.5455 12.4307L23.8262 14.2288H21.0451L20.3258 12.4307H24.5455ZM23.4306 15.4276L22.5256 18.4305H22.3457L21.4407 15.4276H23.4306ZM18.6476 12.4307H19.0312L19.7504 14.2288H17.9283L18.6476 12.4307ZM18.3838 15.4276H20.194L21.099 18.4425L18.3838 15.4276ZM22.4357 42.3997C19.5084 42.408 16.6905 41.2888 14.5666 39.2744C12.4427 37.26 11.1761 34.5051 11.0295 31.5816C10.883 28.658 11.8679 25.7903 13.7797 23.5737C15.6915 21.357 18.3835 19.9617 21.2968 19.6772C22.0543 19.6053 22.817 19.6053 23.5745 19.6772C26.3077 19.9509 28.8486 21.2075 30.7251 23.2136C32.7204 25.3189 33.8299 28.1108 33.8239 31.0115C33.8316 33.0678 33.2781 35.0872 32.2229 36.8521C31.1678 38.617 29.651 40.0606 27.8361 41.0272C27.3555 40.6274 26.9212 40.1751 26.5414 39.6786C28.1772 38.8947 29.5591 37.666 30.5291 36.1332C31.499 34.6004 32.0177 32.8254 32.0257 31.0115C32.0229 28.4689 31.0116 26.0313 29.2137 24.2334C27.4158 22.4356 24.9782 21.4243 22.4357 21.4214C19.9149 21.4179 17.4941 22.4074 15.6976 24.1757C13.9011 25.9441 12.8735 28.3489 12.8372 30.8694C12.801 33.39 13.759 35.8233 15.5039 37.6426C17.2488 39.4619 19.6401 40.5207 22.1599 40.5896C22.4962 41.2118 22.8831 41.8052 23.3167 42.3638C23.029 42.3818 22.7353 42.3997 22.4357 42.3997V42.3997ZM34.0876 26.2584C36.232 26.4736 38.2113 27.5055 39.6155 29.1403C41.0197 30.7752 41.7411 32.8876 41.6301 35.0399C41.5192 37.1921 40.5844 39.2192 39.0195 40.701C37.4546 42.1828 35.3796 43.0057 33.2245 42.9991C31.705 43.0041 30.2137 42.5892 28.915 41.8004C31.4919 40.2552 33.4304 37.8382 34.3793 34.9872C35.3281 32.1362 35.2247 29.0397 34.0876 26.2584V26.2584ZM25.8821 38.6596C25.1919 37.4208 24.8308 36.0258 24.8332 34.6078C24.8411 32.9939 25.311 31.416 26.1873 30.0607C27.0636 28.7053 28.3096 27.6293 29.7781 26.9597C30.4682 28.1985 30.8294 29.5935 30.827 31.0115C30.8191 32.6254 30.3492 34.2033 29.4729 35.5586C28.5966 36.9139 27.3506 37.99 25.8821 38.6596V38.6596ZM21.5725 39.3609C19.4282 39.1457 17.4488 38.1138 16.0446 36.479C14.6404 34.8441 13.9191 32.7317 14.03 30.5794C14.141 28.4271 15.0758 26.4001 16.6407 24.9183C18.2055 23.4365 20.2805 22.6136 22.4357 22.6202C23.9552 22.6152 25.4465 23.0301 26.7452 23.8189C24.1682 25.3641 22.2298 27.7811 21.2809 30.6321C20.332 33.4831 20.4355 36.5796 21.5725 39.3609V39.3609ZM33.2245 45.996C30.6894 45.9974 28.2264 45.1524 26.226 43.595C24.2257 42.0376 22.8026 39.8569 22.1824 37.3988C21.5622 34.9407 21.7804 32.3459 22.8024 30.026C23.8244 27.706 25.5917 25.7936 27.8241 24.5921C28.3047 24.9919 28.739 25.4442 29.1187 25.9407C27.483 26.7246 26.101 27.9533 25.1311 29.4861C24.1612 31.0189 23.6425 32.7939 23.6344 34.6078C23.6373 37.1504 24.6486 39.588 26.4464 41.3859C28.2443 43.1837 30.6819 44.195 33.2245 44.1979C35.7453 44.2014 38.166 43.2119 39.9625 41.4436C41.759 39.6752 42.7867 37.2704 42.8229 34.7499C42.8592 32.2293 41.9011 29.796 40.1562 27.9767C38.4114 26.1574 36.0201 25.0986 33.5002 25.0297C33.164 24.4075 32.7771 23.8141 32.3434 23.2555C32.6311 23.2375 32.9248 23.2196 33.2245 23.2196C36.2449 23.2196 39.1415 24.4194 41.2772 26.5551C43.4129 28.6908 44.6127 31.5874 44.6127 34.6078C44.6127 37.6281 43.4129 40.5248 41.2772 42.6605C39.1415 44.7962 36.2449 45.996 33.2245 45.996V45.996Z" fill="#FCFCFC"/>
</svg>
