<svg width="131" height="52" viewBox="0 0 131 52" fill="none" xmlns="http://www.w3.org/2000/svg">
<rect y="0.0771484" width="131" height="51" rx="8" fill="#FEFEFE"/>
<g clip-path="url(#clip0_1_23797)">
<path d="M15.438 19.3022L14.4827 23.1393L19.9507 19.2804L16.3745 33.841L20.0065 33.8444L25.2894 12.3376" fill="#3395FF"/>
<path d="M9.55274 27.723L8.04852 33.8443H15.4926L18.5386 21.3919L9.55274 27.723ZM35.4108 22.3338C35.2288 23.0718 34.8782 23.6139 34.3554 23.9601C33.8338 24.3056 33.1017 24.479 32.1567 24.479H29.1543L30.2085 20.1898H33.2108C34.1546 20.1898 34.803 20.3619 35.1548 20.7128C35.5066 21.0636 35.5915 21.5997 35.4108 22.341M38.5193 22.2484C38.9014 20.6995 38.7437 19.5081 38.045 18.6741C37.3474 17.8467 36.1234 17.4297 34.3766 17.4297H27.6762L23.6427 33.8516H26.898L28.5235 27.2325H30.6585C31.1377 27.2325 31.515 27.3186 31.7903 27.4841C32.0663 27.6562 32.2282 27.954 32.278 28.3843L32.859 33.8516H36.3467L35.7814 28.7549C35.6661 27.6164 35.1888 26.9479 34.3499 26.7494C35.4193 26.4118 36.3151 25.8492 37.0369 25.0681C37.7536 24.2928 38.2657 23.321 38.5193 22.255M46.4322 27.9739C46.1593 29.0859 45.7407 29.9265 45.1748 30.5156C44.6083 31.1047 43.9314 31.3959 43.1417 31.3959C42.3374 31.3959 41.7922 31.1113 41.5041 30.5355C41.2154 29.9596 41.2056 29.1256 41.4737 28.0335C41.7418 26.9413 42.1694 26.0874 42.7578 25.4719C43.3461 24.8563 44.0339 24.5485 44.8237 24.5485C45.6122 24.5485 46.152 24.8464 46.4249 25.4374C46.7039 26.0312 46.71 26.8804 46.4371 27.9858L46.4322 27.9739ZM47.8588 22.1623L47.4512 23.8237C47.2753 23.228 46.9338 22.7514 46.4292 22.394C45.9233 22.0432 45.2974 21.8645 44.5507 21.8645C43.6348 21.8645 42.7554 22.1226 41.9123 22.6389C41.0692 23.1552 40.3292 23.8833 39.6984 24.8232C39.0676 25.7631 38.6066 26.8288 38.3094 28.0268C38.0183 29.2315 37.9576 30.2839 38.1335 31.1974C38.3155 32.1174 38.6976 32.819 39.2859 33.3089C39.8804 33.8053 40.6385 34.0502 41.5665 34.0502C42.3039 34.0543 43.0331 33.8802 43.7016 33.5405C44.3625 33.2152 44.9504 32.7363 45.4241 32.1373L44.9996 33.8688H48.1475L51.0219 22.1683H47.8679L47.8588 22.1623ZM62.3339 22.1623H53.1794L52.5395 24.7702H57.8661L50.8242 31.4092L50.2225 33.8582H59.6724L60.3123 31.2503H54.6047L61.7546 24.5121M70.3917 27.954C70.1085 29.1057 69.6882 29.9715 69.1332 30.5355C68.5782 31.1047 67.9061 31.3893 67.117 31.3893C65.4672 31.3893 64.925 30.2442 65.4879 27.954C65.7669 26.8155 66.189 25.9597 66.7531 25.3832C67.3172 24.8047 68.0008 24.5161 68.8044 24.5161C69.5929 24.5161 70.1255 24.8027 70.3996 25.3799C70.6738 25.9557 70.6714 26.8142 70.3917 27.9527M72.2344 22.6025C71.5096 22.11 70.5846 21.8638 69.4565 21.8638C68.3143 21.8638 67.2571 22.1087 66.2843 22.5985C65.3154 23.0853 64.4639 23.8119 63.7974 24.7206C63.1121 25.6407 62.6189 26.7196 62.3163 27.9507C62.0191 29.1772 61.9827 30.2542 62.2132 31.1762C62.4436 32.0962 62.9289 32.8045 63.6567 33.2943C64.3906 33.7881 65.3247 34.0336 66.4711 34.0336C67.5992 34.0336 68.6486 33.7861 69.613 33.2936C70.5773 32.7985 71.4022 32.0956 72.0876 31.1689C72.773 30.2462 73.2643 29.1699 73.5676 27.9388C73.8709 26.7076 73.9073 25.6327 73.6768 24.7087C73.4463 23.7886 72.9671 23.0804 72.2453 22.5873M83.4724 25.2879L84.2791 22.1041C84.0061 21.9518 83.6483 21.8724 83.1994 21.8724C82.4777 21.8724 81.7862 22.067 81.119 22.4615C80.5452 22.7964 80.0576 23.269 79.6451 23.8608L80.0636 22.1464L79.1496 22.1504H76.9054L74.0122 33.8463H77.2044L78.7056 27.7323C78.9239 26.8433 79.317 26.1437 79.8841 25.6473C80.4482 25.1489 81.1518 24.8993 82.0009 24.8993C82.5225 24.8993 83.0078 25.0297 83.4687 25.2898M92.3546 28.0103C92.0816 29.1024 91.6692 29.9364 91.1051 30.5123C90.541 31.0908 89.8617 31.3794 89.0732 31.3794C88.2847 31.3794 87.7449 31.0882 87.4598 30.5057C87.1686 29.9199 87.1626 29.076 87.4355 27.9666C87.7085 26.8579 88.127 26.0074 88.7032 25.4183C89.2794 24.8245 89.9587 24.528 90.7472 24.528C91.5236 24.528 92.0452 24.8325 92.3242 25.448C92.6032 26.0636 92.6093 26.9175 92.3412 28.0096M94.5733 22.6217C93.9819 22.1054 93.2268 21.8473 92.3109 21.8473C91.5084 21.8473 90.7436 22.0458 90.0182 22.4469C89.2934 22.8474 88.705 23.3935 88.2531 24.0845L88.2641 24.0051L88.7996 22.1451H85.682L84.8874 25.3818L84.8632 25.4944L81.5879 38.8278H84.7843L86.4341 32.1161C86.5979 32.7131 86.9315 33.1818 87.441 33.5207C87.9505 33.8582 88.5795 34.0257 89.3273 34.0257C90.2553 34.0257 91.1409 33.7808 91.9809 33.291C92.824 32.7999 93.5519 32.0929 94.1705 31.1795C94.7892 30.2661 95.2484 29.207 95.5413 28.009C95.8385 26.8089 95.8992 25.7386 95.7294 24.802C95.5565 23.8641 95.1738 23.138 94.583 22.6243M105.176 27.9626C104.903 29.068 104.485 29.9153 103.921 30.4977C103.357 31.0842 102.677 31.3761 101.889 31.3761C101.082 31.3761 100.536 31.0915 100.251 30.5156C99.96 29.9397 99.9539 29.1057 100.221 28.0136C100.488 26.9214 100.913 26.0676 101.502 25.452C102.09 24.8364 102.779 24.5293 103.568 24.5293C104.357 24.5293 104.891 24.8272 105.17 25.4163C105.449 26.0074 105.45 26.8566 105.179 27.9646L105.176 27.9626ZM106.602 22.1478L106.193 23.8092C106.017 23.2101 105.678 22.7336 105.174 22.3794C104.665 22.026 104.04 21.8499 103.294 21.8499C102.378 21.8499 101.494 22.1081 100.65 22.6243C99.8065 23.1406 99.0665 23.8648 98.4357 24.802C97.8049 25.7393 97.344 26.8076 97.0468 28.0057C96.7526 29.2083 96.695 30.2628 96.8709 31.1802C97.0486 32.0936 97.4313 32.7992 98.0233 33.2916C98.6141 33.7815 99.3759 34.029 100.304 34.029C101.05 34.029 101.763 33.8596 102.439 33.5193C103.098 33.1925 103.685 32.713 104.157 32.1141L103.733 33.847H106.881L109.754 22.1511H106.606L106.602 22.1478ZM122.97 22.1517L122.972 22.1484H121.037C120.975 22.1484 120.921 22.1517 120.864 22.1531H119.861L119.345 22.9341L119.218 23.1194L119.163 23.2121L115.084 29.4129L114.241 22.1517H110.9L112.592 33.1857L108.856 38.8318H112.186L113.09 37.4332C113.115 37.3922 113.138 37.3577 113.169 37.3141L114.224 35.6791L114.254 35.6328L118.981 28.3187L122.966 22.163L122.972 22.159H122.97V22.1517Z" fill="#072654"/>
</g>
<defs>
<clipPath id="clip0_1_23797">
<rect width="115" height="26.6087" fill="white" transform="translate(8 12.2727)"/>
</clipPath>
</defs>
</svg>
