<svg width="57" height="58" viewBox="0 0 57 58" fill="none" xmlns="http://www.w3.org/2000/svg">
<path d="M0.344788 57.5929L47.7311 57.5929C52.3006 57.5929 56.0049 53.8886 56.0049 49.3191L56.0049 8.7022C56.0049 4.13271 52.3006 0.428404 47.7311 0.428404L0.344788 0.428404L0.344788 57.5929Z" fill="#A95210"/>
<path d="M35.5732 29.5747H22.2937C21.7581 29.5718 21.2452 29.3573 20.867 28.9779C20.4887 28.5986 20.2756 28.0852 20.2742 27.5495V14.2757C20.2742 13.7381 20.4874 13.2224 20.867 12.8417C21.2466 12.461 21.7617 12.2464 22.2994 12.2449H35.5732C36.1108 12.2464 36.6259 12.461 37.0056 12.8417C37.3852 13.2224 37.5984 13.7381 37.5984 14.2757V27.5495C37.5969 28.0862 37.3831 28.6005 37.0036 28.9799C36.6241 29.3594 36.1099 29.5733 35.5732 29.5747V29.5747ZM22.2937 13.3731C22.0563 13.3761 21.8296 13.4725 21.6628 13.6414C21.4959 13.8104 21.4024 14.0383 21.4024 14.2757V27.5495C21.4039 27.786 21.4981 28.0124 21.6648 28.1802C21.8314 28.3479 22.0573 28.4435 22.2937 28.4465H35.5732C35.8116 28.445 36.0397 28.3493 36.2078 28.1801C36.3758 28.011 36.4702 27.7823 36.4701 27.5439V14.2757C36.4702 14.0373 36.3758 13.8086 36.2078 13.6395C36.0397 13.4704 35.8116 13.3746 35.5732 13.3731H22.2937Z" fill="#FCFCFC"/>
<path d="M35.5732 29.5747H22.2937C21.7581 29.5718 21.2452 29.3573 20.867 28.9779C20.4887 28.5986 20.2756 28.0852 20.2742 27.5495V14.2757C20.2742 13.7381 20.4874 13.2224 20.867 12.8417C21.2466 12.461 21.7617 12.2464 22.2994 12.2449H35.5732C36.1108 12.2464 36.6259 12.461 37.0056 12.8417C37.3852 13.2224 37.5984 13.7381 37.5984 14.2757V27.5495C37.5969 28.0862 37.3831 28.6005 37.0036 28.9799C36.6241 29.3594 36.1099 29.5733 35.5732 29.5747V29.5747ZM22.2937 13.3731C22.0563 13.3761 21.8296 13.4725 21.6628 13.6414C21.4959 13.8104 21.4024 14.0383 21.4024 14.2757V27.5495C21.4039 27.786 21.4981 28.0124 21.6648 28.1802C21.8314 28.3479 22.0573 28.4435 22.2937 28.4465H35.5732C35.8116 28.445 36.0397 28.3493 36.2078 28.1801C36.3758 28.011 36.4702 27.7823 36.4701 27.5439V14.2757C36.4702 14.0373 36.3758 13.8086 36.2078 13.6395C36.0397 13.4704 35.8116 13.3746 35.5732 13.3731H22.2937Z" fill="#FCFCFC"/>
<path d="M42.9632 45.7764H29.6894C29.1508 45.7764 28.6342 45.5625 28.2534 45.1816C27.8725 44.8007 27.6586 44.2842 27.6586 43.7456V30.4718C27.6586 29.9331 27.8725 29.4166 28.2534 29.0357C28.6342 28.6549 29.1508 28.4409 29.6894 28.4409H42.9632C43.5009 28.4424 44.016 28.657 44.3956 29.0377C44.7752 29.4184 44.9884 29.9341 44.9884 30.4718V43.7456C44.9884 44.2832 44.7752 44.7989 44.3956 45.1796C44.016 45.5603 43.5009 45.7749 42.9632 45.7764V45.7764ZM29.6894 29.5748C29.45 29.5748 29.2204 29.6699 29.0512 29.8392C28.8819 30.0084 28.7868 30.238 28.7868 30.4774V43.7456C28.7868 43.8641 28.8102 43.9815 28.8555 44.091C28.9009 44.2005 28.9674 44.3 29.0512 44.3838C29.135 44.4676 29.2345 44.5341 29.344 44.5795C29.4535 44.6248 29.5709 44.6482 29.6894 44.6482H42.9632C43.2016 44.6467 43.4298 44.5509 43.5978 44.3818C43.7659 44.2127 43.8602 43.984 43.8602 43.7456V30.4718C43.8587 30.2343 43.7637 30.007 43.5958 29.8392C43.4279 29.6713 43.2007 29.5763 42.9632 29.5748H29.6894Z" fill="#FCFCFC"/>
<path d="M26.6544 45.7765H13.3806C12.843 45.775 12.3279 45.5604 11.9482 45.1797C11.5686 44.799 11.3554 44.2833 11.3554 43.7457V30.4719C11.3569 29.9352 11.5707 29.4209 11.9502 29.0415C12.3297 28.662 12.844 28.4481 13.3806 28.4467H26.6544C27.193 28.4467 27.7096 28.6606 28.0905 29.0415C28.4713 29.4223 28.6853 29.9389 28.6853 30.4775V43.7457C28.6853 44.2843 28.4713 44.8008 28.0905 45.1817C27.7096 45.5626 27.193 45.7765 26.6544 45.7765V45.7765ZM13.3806 29.5749C13.1422 29.5764 12.9141 29.6721 12.746 29.8413C12.578 30.0104 12.4836 30.2391 12.4837 30.4775V43.7457C12.4836 43.9841 12.578 44.2128 12.746 44.3819C12.9141 44.551 13.1422 44.6468 13.3806 44.6483H26.6544C26.773 44.6483 26.8903 44.6249 26.9998 44.5796C27.1093 44.5342 27.2088 44.4677 27.2927 44.3839C27.3765 44.3001 27.443 44.2006 27.4883 44.0911C27.5337 43.9816 27.557 43.8642 27.557 43.7457V30.4719C27.557 30.3533 27.5337 30.236 27.4883 30.1265C27.443 30.0169 27.3765 29.9174 27.2927 29.8336C27.2088 29.7498 27.1093 29.6833 26.9998 29.638C26.8903 29.5926 26.773 29.5693 26.6544 29.5693L13.3806 29.5749ZM30.6089 27.3523H27.5232C26.958 27.3579 26.41 27.1578 25.9814 26.7894C25.5528 26.4209 25.2727 25.9092 25.1934 25.3496C25.1371 24.8211 25.2692 24.2896 25.5664 23.8489C25.8636 23.4083 26.3069 23.0867 26.818 22.9408V20.8536C26.2343 20.7669 25.7078 20.455 25.3513 19.9848C25.0397 19.5343 24.8976 18.9881 24.9503 18.4429C25.003 17.8977 25.2469 17.3887 25.639 17.0062L27.4781 15.1333C27.8644 14.7517 28.3755 14.5222 28.9174 14.4869C29.4594 14.4517 29.9959 14.6131 30.4284 14.9415C30.7093 15.1663 30.9347 15.4526 31.0873 15.7783C31.2399 16.104 31.3155 16.4605 31.3084 16.8201V22.9408C31.8196 23.0867 32.2628 23.4083 32.5601 23.8489C32.8573 24.2896 32.9894 24.8211 32.9331 25.3496C32.855 25.9088 32.5761 26.4204 32.1484 26.7889C31.7207 27.1574 31.1735 27.3577 30.6089 27.3523V27.3523ZM29.0632 15.6016C28.7665 15.6043 28.4827 15.7239 28.2735 15.9344L26.4288 17.7734C26.2257 17.9642 26.0967 18.2206 26.0647 18.4974C26.0327 18.7741 26.0997 19.0533 26.2539 19.2853C26.3544 19.423 26.4847 19.5362 26.6352 19.6163C26.7856 19.6964 26.9523 19.7414 27.1227 19.7479C27.3456 19.7581 27.556 19.8543 27.7096 20.0163C27.8631 20.1782 27.948 20.3934 27.9463 20.6166V23.1439C27.9493 23.3466 27.88 23.5437 27.7507 23.6998C27.6215 23.8559 27.4408 23.9608 27.2411 23.9957C26.9599 24.0455 26.708 24.2002 26.5363 24.4284C26.3646 24.6566 26.2859 24.9415 26.316 25.2255C26.3623 25.5099 26.5101 25.7678 26.7321 25.9514C26.9541 26.135 27.2352 26.2319 27.5232 26.224H30.6089C30.8972 26.2331 31.1789 26.1366 31.4012 25.9528C31.6234 25.769 31.771 25.5104 31.8162 25.2255C31.8462 24.9415 31.7675 24.6566 31.5958 24.4284C31.4241 24.2002 31.1722 24.0455 30.891 23.9957C30.6918 23.9598 30.5118 23.8546 30.3828 23.6987C30.2537 23.5428 30.184 23.3463 30.1858 23.1439V16.8201C30.1936 16.6341 30.1585 16.4488 30.0832 16.2786C30.0078 16.1084 29.8943 15.9578 29.7515 15.8385C29.5545 15.6857 29.3125 15.6023 29.0632 15.6016V15.6016Z" fill="#FCFCFC"/>
<path d="M23.0327 43.5989H18.0515C17.9557 43.6047 17.8596 43.6047 17.7638 43.5989H17.6115C17.1832 43.5207 16.7854 43.3237 16.4635 43.0305C16.1417 42.7372 15.9086 42.3594 15.791 41.9402C15.6734 41.5209 15.676 41.0771 15.7984 40.6592C15.9208 40.2413 16.1581 39.8662 16.4833 39.5767L20.1557 35.8986C20.2174 35.8363 20.252 35.7521 20.252 35.6645C20.252 35.5768 20.2174 35.4927 20.1557 35.4304C20.1291 35.3931 20.094 35.3627 20.0532 35.3418C20.0125 35.3208 19.9674 35.3099 19.9216 35.3099C19.8758 35.3099 19.8307 35.3208 19.7899 35.3418C19.7492 35.3627 19.7141 35.3931 19.6875 35.4304L19.0895 35.9945C18.6462 36.4032 18.0619 36.6245 17.4591 36.6123C16.8563 36.6 16.2815 36.3551 15.8552 35.9287C15.4288 35.5023 15.1839 34.9276 15.1716 34.3248C15.1594 33.7219 15.3807 33.1377 15.7894 32.6944L16.3986 32.0851C17.3222 31.1566 18.5733 30.6276 19.8828 30.6119C21.1923 30.5963 22.4557 31.0953 23.4011 32.0015C24.3465 32.9078 24.8985 34.1489 24.9383 35.4579C24.9781 36.767 24.5024 38.0393 23.6138 39.0013C24.1633 39.1423 24.6427 39.4785 24.9625 39.9471C25.2823 40.4158 25.4205 40.9848 25.3514 41.5479C25.2823 42.111 25.0106 42.6297 24.587 43.0071C24.1635 43.3846 23.617 43.5949 23.0497 43.5989H23.0327ZM17.8315 42.4706H17.8879C17.9424 42.4743 17.9971 42.4743 18.0515 42.4706H23.0327C23.3529 42.4706 23.66 42.3434 23.8864 42.117C24.1128 41.8906 24.24 41.5836 24.24 41.2634C24.24 40.9432 24.1128 40.6362 23.8864 40.4098C23.66 40.1834 23.3529 40.0562 23.0327 40.0562H22.3332C22.2223 40.0557 22.114 40.0226 22.0219 39.9609C21.9297 39.8993 21.8577 39.8118 21.815 39.7095C21.7723 39.6071 21.7606 39.4945 21.7816 39.3856C21.8025 39.2767 21.8551 39.1764 21.9327 39.0972L22.6717 38.3582C23.3981 37.6325 23.8064 36.6481 23.807 35.6213C23.8075 34.5946 23.4001 33.6097 22.6745 32.8834C21.9489 32.157 20.9644 31.7486 19.9377 31.7481C18.911 31.7475 17.9261 32.1549 17.1997 32.8805L16.5848 33.5236C16.407 33.756 16.3196 34.0451 16.3389 34.337C16.3583 34.629 16.483 34.904 16.6899 35.1109C16.8968 35.3178 17.1718 35.4425 17.4638 35.4619C17.7557 35.4812 18.0448 35.3938 18.2772 35.216L18.8921 34.6067C19.1693 34.3504 19.535 34.2114 19.9126 34.2188C20.2901 34.2262 20.6501 34.3794 20.9171 34.6464C21.1841 34.9134 21.3373 35.2734 21.3447 35.6509C21.3521 36.0285 21.2131 36.3942 20.9568 36.6714L17.2674 40.3495C17.1361 40.4631 17.0305 40.6034 16.9575 40.7609C16.8846 40.9185 16.846 41.0898 16.8443 41.2634C16.8448 41.5435 16.9432 41.8147 17.1224 42.03C17.3017 42.2452 17.5505 42.3911 17.8259 42.4424L17.8315 42.4706ZM36.3235 43.5989C35.0797 43.5974 33.8873 43.1022 33.0083 42.2222C32.1293 41.3421 31.6356 40.1492 31.6356 38.9054C31.6356 38.3383 31.8609 37.7945 32.2618 37.3936C32.6628 36.9926 33.2066 36.7673 33.7736 36.7673C33.9292 36.7669 34.0844 36.7839 34.2362 36.8181V36.7109C34.2307 36.632 34.2307 36.5529 34.2362 36.474C34.233 36.4346 34.233 36.395 34.2362 36.3555C34.2336 36.3217 34.2336 36.2878 34.2362 36.254C34.2322 36.1882 34.2322 36.1223 34.2362 36.0565C34.2424 35.99 34.2537 35.9239 34.2701 35.8591C34.2837 35.7956 34.3025 35.7333 34.3265 35.6729C34.3503 35.5998 34.3785 35.5282 34.4111 35.4586C34.4088 35.438 34.4088 35.4171 34.4111 35.3965L34.6593 34.9057H34.0444C33.754 34.9206 33.4636 34.8763 33.1909 34.7755C32.9182 34.6746 32.6689 34.5193 32.4581 34.3191C32.2473 34.1188 32.0794 33.8778 31.9647 33.6106C31.85 33.3434 31.7908 33.0557 31.7908 32.7649C31.7908 32.4741 31.85 32.1864 31.9647 31.9192C32.0794 31.652 32.2473 31.411 32.4581 31.2107C32.6689 31.0104 32.9182 30.8552 33.1909 30.7543C33.4636 30.6534 33.754 30.6091 34.0444 30.624H38.1456C38.5112 30.6233 38.8709 30.7163 39.1903 30.8942C39.5097 31.0721 39.7782 31.329 39.97 31.6402C40.1618 31.9515 40.2707 32.3067 40.2861 32.672C40.3015 33.0373 40.2229 33.4004 40.058 33.7267L39.2738 35.2668C40.0274 35.8765 40.5733 36.7048 40.8366 37.6377C41.0999 38.5705 41.0676 39.5621 40.744 40.4758C40.4205 41.3895 39.8217 42.1804 39.03 42.7397C38.2383 43.299 37.2928 43.5992 36.3235 43.5989V43.5989ZM33.7736 37.8956C33.5058 37.8956 33.249 38.002 33.0596 38.1913C32.8702 38.3807 32.7639 38.6376 32.7639 38.9054C32.7612 39.5251 32.9201 40.1349 33.2249 40.6745C33.5298 41.2141 33.97 41.665 34.5023 41.9825C35.0345 42.3001 35.6403 42.4734 36.26 42.4855C36.8796 42.4975 37.4917 42.3477 38.0359 42.051C38.58 41.7543 39.0374 41.3209 39.3629 40.7935C39.6885 40.2661 39.8709 39.663 39.8922 39.0436C39.9136 38.4242 39.7731 37.8099 39.4846 37.2613C39.1961 36.7128 38.7696 36.2489 38.2471 35.9155C38.138 35.8401 38.059 35.7286 38.0239 35.6007C37.9888 35.4727 38 35.3365 38.0553 35.216L39.0482 33.2472C39.1252 33.0926 39.1619 32.9211 39.155 32.7485C39.1481 32.576 39.0978 32.4079 39.0087 32.26C38.9179 32.1129 38.7909 31.9915 38.6398 31.9076C38.4886 31.8236 38.3185 31.7798 38.1456 31.7805H34.0444C33.9051 31.7701 33.7651 31.7885 33.6332 31.8347C33.5014 31.8809 33.3804 31.9538 33.278 32.0488C33.1756 32.1439 33.0939 32.259 33.0381 32.3871C32.9822 32.5152 32.9534 32.6534 32.9534 32.7931C32.9534 32.9328 32.9822 33.071 33.0381 33.1991C33.0939 33.3272 33.1756 33.4423 33.278 33.5374C33.3804 33.6324 33.5014 33.7053 33.6332 33.7515C33.7651 33.7976 33.9051 33.8161 34.0444 33.8057H35.5788C35.6747 33.8055 35.769 33.8297 35.8529 33.8761C35.9368 33.9225 36.0075 33.9895 36.0583 34.0708C36.1079 34.1566 36.1339 34.2539 36.1339 34.3529C36.1339 34.4519 36.1079 34.5492 36.0583 34.635L35.4096 35.9155V35.9832C35.4096 35.9832 35.4096 36.034 35.3758 36.0735C35.3741 36.1035 35.3741 36.1337 35.3758 36.1637C35.3758 36.1637 35.3758 36.2089 35.3758 36.2314C35.3758 36.254 35.3758 36.333 35.3758 36.3668V36.3442C35.3742 36.3592 35.3742 36.3744 35.3758 36.3894C35.3721 36.4288 35.3721 36.4684 35.3758 36.5078C35.3725 36.5397 35.3725 36.5719 35.3758 36.6037C35.3825 36.6364 35.392 36.6685 35.404 36.6996C35.4148 36.7289 35.428 36.7572 35.4434 36.7843L35.4886 36.8745C35.5041 36.903 35.5231 36.9296 35.545 36.9535L35.607 37.0268C35.6267 37.0521 35.6494 37.0749 35.6747 37.0945L35.7481 37.1566L35.844 37.2186H35.8891C35.9417 37.2442 35.9964 37.265 36.0527 37.2807H36.1148C36.1784 37.2896 36.2429 37.2896 36.3066 37.2807H36.3573C36.6609 37.2863 36.9561 37.3814 37.2057 37.5542C37.4553 37.7271 37.6483 37.9698 37.7604 38.252C37.8725 38.5342 37.8986 38.8432 37.8356 39.1402C37.7726 39.4372 37.6232 39.7089 37.4062 39.9213C37.1891 40.1336 36.9142 40.2771 36.6159 40.3336C36.3176 40.3901 36.0092 40.3572 35.7295 40.239C35.4499 40.1208 35.2114 39.9226 35.044 39.6692C34.8767 39.4159 34.788 39.1187 34.7891 38.8151C34.7651 38.5628 34.6477 38.3285 34.4598 38.1583C34.2719 37.9882 34.0271 37.8945 33.7736 37.8956V37.8956ZM35.8665 38.4597C35.9008 38.6096 35.9178 38.7629 35.9173 38.9167C35.9173 39.0249 35.9599 39.1288 36.0359 39.2059C36.1119 39.2829 36.2152 39.327 36.3235 39.3285C36.4327 39.3285 36.5374 39.2851 36.6147 39.2078C36.6919 39.1306 36.7353 39.0259 36.7353 38.9167C36.7338 38.8084 36.6898 38.7051 36.6127 38.6291C36.5356 38.5531 36.4317 38.5105 36.3235 38.5105H36.2558C36.1247 38.4995 35.9946 38.4788 35.8665 38.4484V38.4597Z" fill="#FCFCFC"/>
</svg>
