<svg width="56" height="58" viewBox="0 0 56 58" fill="none" xmlns="http://www.w3.org/2000/svg">
<path d="M55.6602 0.147949H8.27381C3.70431 0.147949 -3.56971e-06 3.85226 -3.56971e-06 8.42176V49.0386C-3.56971e-06 53.6081 3.70431 57.3124 8.2738 57.3124H55.6602V0.147949Z" fill="#A95210"/>
<path d="M36.6385 35.576C37.1455 35.576 37.641 35.4226 38.0625 35.1352C38.484 34.8478 38.8126 34.4394 39.0066 33.9614C39.2006 33.4835 39.2513 32.9577 39.1524 32.4503C39.0535 31.943 38.8094 31.4769 38.451 31.1111C38.0925 30.7454 37.6358 30.4963 37.1386 30.3953C36.6414 30.2944 36.126 30.3462 35.6577 30.5442C35.1893 30.7421 34.789 31.0774 34.5073 31.5075C34.2257 31.9376 34.0754 32.4433 34.0754 32.9606C34.0762 33.654 34.3465 34.3188 34.827 34.8091C35.3075 35.2994 35.959 35.5752 36.6385 35.576ZM36.6385 31.5204C36.9177 31.5204 37.1906 31.6048 37.4227 31.7631C37.6548 31.9213 37.8357 32.1462 37.9425 32.4094C38.0493 32.6726 38.0773 32.9622 38.0228 33.2415C37.9684 33.5209 37.8339 33.7775 37.6365 33.9789C37.4392 34.1803 37.1877 34.3175 36.9139 34.3731C36.6401 34.4287 36.3563 34.4001 36.0984 34.2911C35.8405 34.1821 35.6201 33.9975 35.465 33.7607C35.3099 33.5238 35.2271 33.2454 35.2271 32.9606C35.2275 32.5787 35.3764 32.2126 35.641 31.9426C35.9056 31.6726 36.2643 31.5207 36.6385 31.5202V31.5204Z" fill="#FCFCFC"/>
<path d="M38.5607 35.5614C38.4694 35.5639 38.38 35.5879 38.2995 35.6317C38.219 35.6755 38.1495 35.7378 38.0967 35.8137C37.9883 35.9664 37.8579 36.1016 37.71 36.2146C37.3219 36.5025 36.8378 36.6216 36.3637 36.5459C35.8896 36.4702 35.4643 36.2057 35.181 35.8106C35.128 35.735 35.0584 35.6731 34.9778 35.6299C34.8972 35.5866 34.8078 35.5632 34.7167 35.5614C33.4133 35.5614 32.3651 36.6697 32.3651 37.9995V40.774C32.3637 40.8507 32.3772 40.9269 32.4049 40.9981C32.4326 41.0694 32.4738 41.1344 32.5263 41.1893C32.5787 41.2442 32.6413 41.2879 32.7104 41.3179C32.7796 41.348 32.8538 41.3637 32.929 41.3642H40.3482C40.5019 41.3639 40.6494 41.3018 40.7585 41.1913C40.8677 41.0808 40.9297 40.9309 40.9313 40.774V37.9995C40.9313 36.6697 39.8638 35.5614 38.5607 35.5614ZM39.7795 40.189H33.5169V37.9995C33.5159 37.7162 33.6106 37.4412 33.7849 37.2206C33.9593 37.0001 34.2027 36.8475 34.4742 36.7884C34.7519 37.0922 35.0879 37.3344 35.4612 37.5C35.8345 37.6656 36.2373 37.7511 36.6444 37.7511C37.0514 37.7511 37.4542 37.6656 37.8275 37.5C38.2008 37.3344 38.5368 37.0922 38.8145 36.7884C39.0869 36.8472 39.3313 36.9994 39.5069 37.2199C39.6825 37.4403 39.7787 37.7155 39.7795 37.9995V40.189Z" fill="#FCFCFC"/>
<path d="M40.4994 29.08V26.6734H41.6531C41.7276 26.6754 41.8018 26.6622 41.8713 26.6345C41.9408 26.6068 42.0041 26.5652 42.0576 26.5121C42.1111 26.4591 42.1536 26.3956 42.1827 26.3255C42.2118 26.2554 42.2268 26.1801 42.227 26.104V21.2177C42.227 19.1381 40.6596 17.4183 38.7305 17.4183H32.2931V16.4433C32.2931 14.3637 30.7437 12.6438 28.8146 12.6438H23.8311C21.902 12.6438 20.3437 14.3637 20.3437 16.4433V17.4183H14.3395C12.4105 17.4183 10.8418 19.1381 10.8418 21.2177V26.104C10.842 26.1802 10.8572 26.2555 10.8865 26.3257C10.9157 26.3958 10.9584 26.4592 11.0119 26.5122C11.0655 26.5653 11.129 26.6069 11.1985 26.6345C11.2681 26.6622 11.3423 26.6754 11.417 26.6734H12.5694V35.8191C12.5694 37.8986 14.1458 39.6013 16.075 39.6013H29.0632C30.2839 42.6128 33.2193 44.7938 36.6385 44.7938C38.4627 44.7937 40.2345 44.1718 41.6727 43.0268C43.1108 41.8817 44.1328 40.2792 44.5764 38.4737C45.02 36.6683 44.8598 34.7633 44.1211 33.0614C43.3824 31.3595 42.1077 29.9582 40.4994 29.08V29.08ZM21.4955 16.4433C21.4955 15.0117 22.5372 13.8191 23.8311 13.8191H28.8146C30.1085 13.8191 31.1414 15.0117 31.1414 16.4433V17.4183H21.4955V16.4433ZM11.9935 21.2177C11.9935 19.7861 13.0456 18.5935 14.3395 18.5935H38.7305C40.0243 18.5935 41.0752 19.7861 41.0752 21.2177V25.4982H30.2776V23.3907C30.273 23.23 30.2083 23.0772 30.0967 22.9637C29.9851 22.8502 29.8351 22.7846 29.6776 22.7804H22.9294C22.775 22.7858 22.6288 22.8527 22.5222 22.9668C22.4156 23.0809 22.3571 23.2331 22.3593 23.3907V25.4982H11.9935V21.2177ZM29.1258 23.9556V28.216H23.511V23.9556H29.1258ZM16.075 38.426C14.7808 38.426 13.7211 37.2507 13.7211 35.8191V26.6734H22.3593V28.8172C22.3589 28.8934 22.3734 28.9688 22.402 29.0392C22.4307 29.1095 22.4728 29.1732 22.5259 29.2267C22.579 29.2802 22.6421 29.3223 22.7114 29.3505C22.7806 29.3788 22.8548 29.3926 22.9294 29.3912H29.6776C29.9957 29.3912 30.2776 29.1415 30.2776 28.8172V26.6734H39.3476V28.5622C38.4776 28.2527 37.563 28.0942 36.6416 28.0934C32.1309 28.0934 28.4596 31.8435 28.4596 36.4463C28.4606 37.1131 28.5379 37.7775 28.6899 38.426H16.075ZM36.6388 43.6131C35.2487 43.6131 33.8897 43.1925 32.7338 42.4044C31.578 41.6163 30.6771 40.4962 30.1451 39.1856C29.6131 37.8751 29.4739 36.433 29.7451 35.0417C30.0163 33.6504 30.6857 32.3724 31.6687 31.3694C32.6517 30.3663 33.9041 29.6832 35.2676 29.4065C36.631 29.1298 38.0443 29.2718 39.3286 29.8146C40.613 30.3575 41.7107 31.2768 42.483 32.4562C43.2554 33.6357 43.6676 35.0224 43.6676 36.4409C43.6655 38.3425 42.9243 40.1656 41.6065 41.5102C40.2888 42.8548 38.5021 43.6111 36.6385 43.6131H36.6388Z" fill="#FCFCFC"/>
</svg>
