<svg width="53" height="53" viewBox="0 0 53 53" fill="none" xmlns="http://www.w3.org/2000/svg">
<path d="M26.9554 48.3629C14.6184 48.3629 4.58163 38.3261 4.58163 25.9891C4.58163 13.652 14.6184 3.61523 26.9554 3.61523C39.2924 3.61523 49.3284 13.652 49.3284 25.9891C49.3284 38.3261 39.2916 48.3629 26.9554 48.3629ZM26.9554 5.12648C15.4513 5.12648 6.09207 14.4857 6.09207 25.9891C6.09207 37.4932 15.4513 46.8516 26.9554 46.8516C38.4588 46.8516 47.818 37.4924 47.818 25.9891C47.818 14.4857 38.4588 5.12648 26.9554 5.12648Z" fill="#F4F4F4"/>
<path d="M26.9585 8.91235C22.6799 8.91235 19.1975 12.3882 19.1975 16.6669V20.4986H20.815V16.6669C20.815 13.819 23.4991 10.7097 26.3469 10.7097C29.1128 10.7097 30.5022 12.0482 31.4705 13.0165C32.4387 13.9848 32.9835 15.2975 32.9852 16.6669V20.4986H34.713V16.6669C34.713 12.3882 31.2372 8.91235 26.9585 8.91235Z" fill="#F4F4F4"/>
<path d="M26.9114 30.2618C28.0956 30.2618 29.0555 29.3018 29.0555 28.1176C29.0555 26.9334 28.0956 25.9734 26.9114 25.9734C25.7272 25.9734 24.7672 26.9334 24.7672 28.1176C24.7672 29.3018 25.7272 30.2618 26.9114 30.2618Z" fill="#F4F4F4"/>
<path d="M28.5651 32.846H25.2549L26.0796 29.1077H27.7404L28.5651 32.846Z" fill="#F4F4F4"/>
<path d="M16.9397 20.062V36.5566L15.5243 36.0751V21.3864C15.5243 20.6511 16.1133 20.062 16.8487 20.062H16.9397ZM38.271 21.3864V35.5369L36.4747 36.0752V20.0621L36.9523 20.062C37.682 20.062 38.271 20.6511 38.271 21.3864ZM16.9397 35.5369V38.5586H16.8487C16.1133 38.5586 15.5243 37.9695 15.5243 37.2391V35.5369L16.9397 35.5369ZM38.271 35.5369V37.2391C38.271 37.9695 37.682 38.5586 36.9515 38.5586L36.4747 38.5587V35.537L38.271 35.5369Z" fill="#F4F4F4"/>
<path d="M16.786 20.062H36.5268V21.7729H16.786V20.062Z" fill="#F4F4F4"/>
<path d="M16.786 36.7088L36.5268 36.7087V38.599H16.786V36.7088Z" fill="#F4F4F4"/>
</svg>
