<svg width="53" height="56" viewBox="0 0 53 56" fill="none" xmlns="http://www.w3.org/2000/svg">
<path d="M13.4665 16.1514C14.7542 16.1915 14.3053 15.2059 14.505 14.5403C14.5586 15.0867 14.6108 15.6331 14.6671 16.2103C14.8654 16.2103 15.0517 16.2103 15.0745 16.2103C15.2085 16.5076 15.2487 16.8437 15.4269 16.9535C17.1112 17.9847 17.8134 19.6989 18.5142 21.3877C19.1922 23.0215 19.7483 24.7062 20.3727 26.3628C20.9275 27.8333 21.7006 29.1497 23.0084 30.1019C24.0054 30.8277 24.9447 31.6353 25.9564 32.3384C26.6183 32.7977 26.8113 32.5915 26.9707 31.8147C27.4598 29.4296 28.0239 27.0605 28.568 24.6861C28.6537 24.3125 28.785 23.9496 28.9659 23.3456C28.1405 23.5652 27.5161 23.7313 26.7255 23.9415C26.9855 23.7835 27.1007 23.671 27.236 23.6362C29.0383 23.1822 29.5328 21.8068 29.6574 20.1891C29.7029 19.5985 29.6547 19.0025 29.6735 18.4093C29.6936 17.7879 29.5006 17.3982 28.8038 17.5321C29.9937 16.9361 28.8909 16.2197 28.9298 15.4429C30.4466 17.5468 29.7632 19.802 29.5877 22.2287C30.0111 21.9233 30.188 21.8149 30.3434 21.6809C31.1648 20.9685 31.9259 20.1717 32.8117 19.5529C34.232 18.5606 34.5174 16.9736 33.4133 15.5474C34.1731 15.9237 34.2963 16.2143 34.5389 18.203C35.2651 18.3102 36.0008 18.4173 36.7378 18.5258C36.7472 18.5967 36.7565 18.6691 36.7646 18.74C35.0749 18.4548 33.684 19.0253 32.4231 20.0511C31.201 21.0448 30.2403 22.1872 29.8959 23.6349C31.1233 23.738 32.2663 23.8277 33.4039 23.9589C33.4321 23.9616 33.4079 24.421 33.4079 24.6754C32.1015 25.1214 30.9049 24.8053 29.5475 24.1786C29.2567 25.3718 28.8453 26.4592 28.7502 27.5748C28.5398 30.0631 28.4782 32.5647 28.3857 35.061C28.3777 35.2913 28.5908 35.5297 28.7006 35.7641C28.8695 35.5672 29.0919 35.3958 29.1964 35.1695C29.7713 33.9146 30.188 32.566 30.9116 31.4076C31.5856 30.3282 32.5691 29.4403 33.4321 28.4814C33.6706 28.2176 33.9627 28.002 34.3365 27.6685C32.9671 27.5587 31.6338 28.0542 30.5149 27.1248C31.5105 26.253 33.6639 26.174 34.7171 27.0364C35.1164 27.3645 35.4112 27.398 35.6993 27.0699C35.7569 27.0043 35.4635 26.4445 35.2357 26.3534C34.3191 25.9878 33.3651 25.7187 32.6227 25.4763C33.4267 25.1696 34.4129 25.6169 35.3442 26.0119C37.2805 26.8329 40.0542 25.7441 40.7295 23.9389C40.9091 23.4581 41.2173 23.0255 41.4665 22.5715C41.5483 22.6211 41.6313 22.6693 41.7131 22.7188C41.1181 23.6349 40.6786 24.7276 39.8867 25.416C39.1001 26.099 37.9585 26.3735 36.979 27.0297C37.3153 27.1128 37.657 27.1757 37.9839 27.2842C38.5159 27.4583 39.1216 27.5507 39.5477 27.8734C41.2052 29.1269 42.3549 29.1136 44.3448 28.8939C44.3059 29.0238 44.2684 29.1457 44.1987 29.376C45.5266 29.1444 46.8237 28.9408 48.0109 29.7845C46.8934 30.7661 44.5726 30.6242 43.7244 29.5957C43.6225 29.4711 43.4014 29.4189 43.2259 29.3868C42.8963 29.3252 42.5546 29.3252 42.2263 29.2582C41.1918 29.0506 40.9841 29.2555 41.291 30.4929C40.5339 29.1122 39.5303 28.3315 38.2586 27.8801C36.9683 27.4221 35.8025 27.7851 34.7211 28.4748C32.8452 29.6707 31.7933 31.4773 31.1059 33.5289C31.0483 33.7003 31.0978 33.9079 31.0978 34.1959C31.5668 34.0338 31.9755 33.8919 32.2315 33.8035C31.6378 34.8829 30.8687 35.9891 30.3903 37.2091C29.3894 39.7603 29.3921 42.4708 29.64 45.1425C29.8409 47.3121 30.527 49.4012 31.3538 51.4167C31.5615 51.9243 32.0318 52.4064 32.5035 52.7104C33.9908 53.672 35.5358 54.5438 37.05 55.4464C37.0607 55.4344 37.0312 55.5013 36.9977 55.5027C34.4344 55.6085 31.8723 55.725 29.309 55.8026C28.0119 55.8415 26.7108 55.8401 25.4123 55.8026C22.5729 55.721 19.7336 55.6044 16.6918 55.4946C17.3725 55.2522 17.9099 55.1478 18.3547 54.8866C19.7858 54.0496 21.4219 53.3787 22.5207 52.2122C23.4319 51.2453 23.9062 49.7119 24.1903 48.35C24.5293 46.7268 24.5923 45.0126 24.5306 43.348C24.465 41.5869 24.1729 39.8259 23.8741 38.0836C23.4372 35.5418 21.7422 34.1048 19.4187 33.249C17.796 32.6517 16.129 32.5138 14.2866 32.6317C14.5881 32.4776 14.7716 32.3839 15.0731 32.2286C13.6233 31.7277 12.1962 31.4103 11.2757 29.8689C11.8264 29.9358 12.2177 29.9157 12.558 30.0376C13.7064 30.4514 14.8212 30.9268 15.4497 32.0973C15.5327 32.2527 15.8624 32.3705 16.0647 32.3531C17.9139 32.1911 19.7309 32.5379 21.3295 33.3254C22.8141 34.0566 24.0751 35.2498 25.4056 36.277C25.7956 36.5783 26.0863 37.0095 26.5473 37.5198C26.7952 36.0681 26.1453 35.0784 25.5463 34.0914C25.3467 33.7619 25.0492 33.4687 24.7383 33.2343C22.2942 31.3942 20.8363 28.8256 19.4696 26.1847C19.3945 26.0414 19.3021 25.9061 19.2579 25.8325C18.5959 26.6293 17.9447 27.4114 17.2935 28.1935C17.2305 28.1493 17.1675 28.1051 17.1045 28.0609C17.2064 27.8949 17.2787 27.698 17.4141 27.5654C19.0662 25.9503 19.2646 24.1598 18.0023 22.159C17.8683 21.9461 17.7236 21.7318 17.6352 21.4975C17.0442 19.9386 16.9545 19.8221 15.3049 20.0699C13.504 20.3404 11.8317 20.9819 10.8576 22.6519C10.4489 23.3523 10.2921 24.1987 10.0469 24.9044C9.65027 23.6844 10.3162 22.5501 10.9996 21.2926C10.2265 21.2926 9.65564 21.2926 9.08481 21.2926C10.6204 21.1238 12.0435 20.7288 13.4424 20.0404C14.4259 19.557 15.5837 19.4257 16.7602 19.1123C16.2965 17.895 15.3385 17.1343 14.2035 16.5317C13.9663 16.4058 13.7466 16.2491 13.5174 16.1058C13.5215 16.1165 13.4665 16.1514 13.4665 16.1514Z" fill="#CF6C21"/>
<path d="M19.0574 26.845C19.9056 28.0971 19.9418 30.0792 19.174 31.1452C18.2668 30.3202 18.1824 28.0757 19.0574 26.845Z" fill="#CF6C21"/>
<path d="M40.84 27.6676C41.7217 26.7248 43.8295 26.71 45.065 27.6381C44.1565 28.3934 41.8289 28.4095 40.84 27.6676Z" fill="#CF6C21"/>
<path d="M28.8517 31.9797C29.0339 30.4544 30.4033 28.8929 31.6951 28.6772C31.62 30.1611 30.5213 31.4601 28.8517 31.9797Z" fill="#CF6C21"/>
<path d="M23.6397 33.3934C22.2568 33.5688 20.8365 32.4814 20.1062 30.9815C21.5614 30.9105 23.3717 32.1238 23.6397 33.3934Z" fill="#CF6C21"/>
<path d="M30.9983 14.1303C29.523 14.6553 27.5372 14.1477 26.957 13.1366C27.9405 12.5206 30.1461 13.0375 30.9983 14.1303Z" fill="#CF6C21"/>
<path d="M8.35808 29.8245C7.86229 28.2014 8.33932 26.9144 9.26122 25.673C9.99284 26.8274 9.53591 29.013 8.35808 29.8245Z" fill="#CF6C21"/>
<path d="M29.3674 15.1526C30.8815 15.1245 32.6664 16.2146 33.1421 17.4146C31.8517 17.6168 29.7828 16.4061 29.3674 15.1526Z" fill="#CF6C21"/>
<path d="M24.8938 30.6233C23.5471 30.4278 22.2353 28.7779 22.2647 27.3181C23.4479 27.5511 24.7625 29.2024 24.8938 30.6233Z" fill="#CF6C21"/>
<path d="M25.3108 24.365C23.7833 24.977 22.3897 24.9823 21.0015 24.2297C21.9408 23.2735 24.0901 23.315 25.3108 24.365Z" fill="#CF6C21"/>
<path d="M5.23938 6.16942C6.72809 5.98595 8.51293 6.89393 8.90822 8.03762C7.65803 8.42331 5.66415 7.40953 5.23938 6.16942Z" fill="#CF6C21"/>
<path d="M22.6523 14.0828C21.3231 15.1596 20.0032 15.6283 18.4247 15.4234C18.9607 14.2248 20.842 13.5913 22.6523 14.0828Z" fill="#CF6C21"/>
<path d="M12.7248 27.2014C13.7941 26.351 15.8456 26.3858 16.868 27.2308C15.3994 28.0745 13.6521 28.0799 12.7248 27.2014Z" fill="#CF6C21"/>
<path d="M5.03207 16.1315C6.02767 15.2971 7.98135 15.3869 9.10559 16.3163C8.18369 17.1185 6.14961 17.0261 5.03207 16.1315Z" fill="#CF6C21"/>
<path d="M36.6385 17.6821C37.6649 17.1384 39.7097 17.6553 40.7549 18.72C39.8142 19.3454 37.2174 18.6905 36.6385 17.6821Z" fill="#CF6C21"/>
<path d="M24.7617 19.8031C25.9248 18.9285 27.7016 18.8844 28.8795 19.7013C28.0152 20.6026 25.8297 20.6561 24.7617 19.8031Z" fill="#CF6C21"/>
<path d="M43.011 23.0909C43.8566 22.2138 45.9134 22.0839 47.114 22.7869C46.3851 23.7217 44.2934 23.8971 43.011 23.0909Z" fill="#CF6C21"/>
<path d="M52.434 25.0547C51.3272 26.2278 49.4647 26.7608 48.3619 26.2599C49.1779 25.139 51.0981 24.5498 52.434 25.0547Z" fill="#CF6C21"/>
<path d="M15.7704 14.3036C16.9884 13.2323 18.2975 12.8559 19.868 13.1198C19.068 14.3559 16.9388 14.9813 15.7704 14.3036Z" fill="#CF6C21"/>
<path d="M6.59004 13.9297C5.52209 14.8497 3.51615 14.8644 2.46964 14.0047C3.46925 13.1529 5.07454 13.1087 6.59004 13.9297Z" fill="#CF6C21"/>
<path d="M23.2205 2.64404C24.1799 4.2069 24.4452 5.58093 23.5943 7.21878C22.7408 5.69342 22.6604 4.306 23.2205 2.64404Z" fill="#CF6C21"/>
<path d="M4.97546 22.756C6.16804 21.8346 7.77734 21.8105 9.17225 22.6515C8.27179 23.4832 6.24174 23.5542 4.97546 22.756Z" fill="#CF6C21"/>
<path d="M33.4196 11.3346C32.6478 9.88826 32.7014 8.18077 33.5483 7.21252C34.4166 8.1031 34.3536 10.1521 33.4196 11.3346Z" fill="#CF6C21"/>
<path d="M26.0306 4.88379C26.5948 6.51361 26.0628 7.80192 25.2682 9.08489C24.4602 8.08584 24.8126 6.02479 26.0306 4.88379Z" fill="#CF6C21"/>
<path d="M7.19766 30.4071C5.9086 31.2803 4.06481 31.2843 3.02499 30.4553C3.95091 29.5955 5.8818 29.554 7.19766 30.4071Z" fill="#CF6C21"/>
<path d="M49.7914 20.8819C48.3174 21.7939 46.9171 21.7631 45.4204 21.2194C46.7 20.1896 48.2946 20.0503 49.7914 20.8819Z" fill="#CF6C21"/>
<path d="M17.1359 26.0605C16.1939 24.795 16.2086 22.8786 17.1252 21.9237C17.8688 22.8478 17.8956 25.02 17.1359 26.0605Z" fill="#CF6C21"/>
<path d="M9.15595 12.6755C7.51448 13.1549 6.22945 12.6634 4.98462 11.7956C5.90116 11.0483 8.09335 11.4849 9.15595 12.6755Z" fill="#CF6C21"/>
<path d="M16.2918 5.03655C15.4959 3.91429 15.5253 1.85057 16.3106 0.929199C17.1909 1.91084 17.2043 3.95447 16.2918 5.03655Z" fill="#CF6C21"/>
<path d="M10.0575 28.9462C10.824 28.0409 13.0028 28.0074 14.1699 28.8846C13.0148 29.6921 10.958 29.7952 10.0575 28.9462Z" fill="#CF6C21"/>
<path d="M14.1588 4.00415C15.3474 5.17998 15.941 6.45892 15.7775 8.09677C14.5206 7.26378 13.6322 5.11034 14.1588 4.00415Z" fill="#CF6C21"/>
<path d="M29.4341 5.63208C30.0813 6.74764 29.6324 8.89975 28.6542 9.61757C27.9949 8.60378 28.3366 6.77978 29.4341 5.63208Z" fill="#CF6C21"/>
<path d="M0.50351 21.5359C2.02974 20.7993 3.40722 20.8033 4.85573 21.4314C3.91105 22.4438 2.12487 22.4974 0.50351 21.5359Z" fill="#CF6C21"/>
<path d="M46.6168 28.0073C47.6606 27.0913 49.483 27.0511 50.6756 27.9163C49.8729 28.7653 47.6914 28.8135 46.6168 28.0073Z" fill="#CF6C21"/>
<path d="M28.1413 22.1228C26.7062 22.9826 25.322 22.921 23.8413 22.4871C24.6614 21.401 26.6982 21.2256 28.1413 22.1228Z" fill="#CF6C21"/>
<path d="M14.2215 17.8064C13.0557 18.7706 11.8203 18.7706 10.5728 18.6621C10.3879 18.6461 10.2204 18.4412 10.0448 18.322C10.1842 18.1773 10.2967 17.9738 10.4669 17.8988C11.6648 17.3685 12.8802 17.2399 14.2215 17.8064Z" fill="#CF6C21"/>
<path d="M33.8517 31.9227C34.9331 31.1339 36.8318 31.1071 37.9011 31.8638C37.4067 32.7945 34.6517 32.828 33.8517 31.9227Z" fill="#CF6C21"/>
<path d="M19.9048 11.5538C21.5529 11.4011 22.838 11.8766 23.9448 12.9881C22.9197 13.5908 20.6444 12.7979 19.9048 11.5538Z" fill="#CF6C21"/>
<path d="M19.2136 0.537964C20.6272 1.28926 21.6965 2.90569 21.6657 4.17258C20.445 3.83911 19.2189 2.05529 19.2136 0.537964Z" fill="#CF6C21"/>
<path d="M32.3782 5.46363C31.2151 4.69493 30.5063 2.73165 30.9565 1.52368C32.1411 2.39952 32.8981 4.49672 32.3782 5.46363Z" fill="#CF6C21"/>
<path d="M0.881744 15.5487C2.10514 15.3196 4.05479 16.3723 4.59882 17.5561C3.35399 17.8467 1.2757 16.7231 0.881744 15.5487Z" fill="#CF6C21"/>
<path d="M18.6954 3.53699C19.2421 4.77709 18.3993 6.95331 17.145 7.57202C16.9668 5.95292 17.6127 4.7262 18.6954 3.53699Z" fill="#CF6C21"/>
<path d="M25.3483 28.2975C25.2049 26.9302 26.4846 25.0901 27.7187 24.8115C27.9023 25.8199 26.7258 27.585 25.3483 28.2975Z" fill="#CF6C21"/>
<path d="M7.31955 5.35291C8.49738 5.1748 10.0236 6.13635 10.7968 7.49431C9.66718 7.9175 7.98149 6.90505 7.31955 5.35291Z" fill="#CF6C21"/>
<path d="M31.9807 9.41937C30.9047 8.79932 30.1838 6.97398 30.4492 5.54504C31.5962 6.06867 32.3332 7.93285 31.9807 9.41937Z" fill="#CF6C21"/>
<path d="M36.9776 34.0028C35.7287 35.0501 34.3847 35.2429 32.8907 34.9175C33.3436 33.8515 35.5934 33.3198 36.9776 34.0028Z" fill="#CF6C21"/>
<path d="M34.2033 15.1759C33.871 13.6988 34.4593 11.8989 35.4857 11.248C35.9949 12.4614 35.3034 14.5773 34.2033 15.1759Z" fill="#CF6C21"/>
<path d="M25.0538 4.52016C24.156 3.36577 24.3302 1.30204 25.3486 0.262817C26.1084 1.72122 25.6796 3.06578 25.0538 4.52016Z" fill="#CF6C21"/>
<path d="M1.38724 25.7327C2.49807 24.5127 3.75899 23.9529 5.37097 24.0895C4.73985 25.2867 2.48065 26.2268 1.38724 25.7327Z" fill="#CF6C21"/>
<path d="M36.0216 19.683C36.6179 21.0798 36.2641 22.9748 35.3422 23.5145C34.6642 22.2248 34.9818 20.2923 36.0216 19.683Z" fill="#CF6C21"/>
<path d="M38.3458 21.4353C38.7933 22.4062 37.8875 24.636 36.7673 25.319C36.4243 23.9852 37.2149 22.042 38.3458 21.4353Z" fill="#CF6C21"/>
<path d="M29.8181 11.4636C28.5572 12.0315 26.2243 11.3043 25.7433 10.2275C27.2856 9.98514 28.6068 10.3494 29.8181 11.4636Z" fill="#CF6C21"/>
<path d="M34.8993 6.47217C33.7228 5.61642 33.0595 3.69064 33.5392 2.53088C34.6862 3.36387 35.3522 5.29367 34.8993 6.47217Z" fill="#CF6C21"/>
<path d="M39.2119 2.53992C39.2923 4.20991 38.7938 5.49689 37.6079 6.53477C37.0251 5.59465 37.8692 3.42379 39.2119 2.53992Z" fill="#CF6C21"/>
<path d="M44.6188 25.1201C43.5709 26.1955 41.7968 26.6146 40.5761 26.1191C41.0263 25.1495 43.2601 24.5737 44.6188 25.1201Z" fill="#CF6C21"/>
<path d="M27.4356 16.615C25.8611 16.7957 24.5814 16.3391 23.5041 15.1981C24.4983 14.5874 26.8085 15.4177 27.4356 16.615Z" fill="#CF6C21"/>
<path d="M1.9035 18.6181C3.18451 18.2203 4.90638 18.8792 5.68088 20.0617C4.46017 20.4756 2.33631 19.6627 1.9035 18.6181Z" fill="#CF6C21"/>
<path d="M39.3214 12.9953C40.7485 12.0926 42.5521 12.1087 43.6053 12.9671C42.2158 13.6582 40.8396 13.8818 39.3214 12.9953Z" fill="#CF6C21"/>
<path d="M9.43277 10.3563C8.41038 10.8089 6.4835 10.0898 5.56696 8.91394C6.64295 8.43048 8.91287 9.27687 9.43277 10.3563Z" fill="#CF6C21"/>
<path d="M42.4965 33.0667C42.3237 34.7045 41.8225 36.0022 40.5603 36.9637C40.1194 35.8027 41.0587 33.8086 42.4965 33.0667Z" fill="#CF6C21"/>
<path d="M14.521 12.4711C13.9689 11.1547 14.2771 9.40703 15.195 8.64636C15.9601 10.074 15.6466 11.8551 14.521 12.4711Z" fill="#CF6C21"/>
<path d="M5.07602 25.8546C5.9939 24.6868 7.93551 23.9824 9.00347 24.4296C8.36431 25.572 6.49773 26.2496 5.07602 25.8546Z" fill="#CF6C21"/>
<path d="M46.2044 26.9803C46.1079 25.3893 47.3045 23.5546 48.5627 23.2787C48.3014 24.8335 47.5752 26.02 46.2044 26.9803Z" fill="#CF6C21"/>
<path d="M36.4688 6.06079C36.7958 7.28885 35.9543 9.30168 34.9185 9.88289C34.483 8.66421 35.1892 6.88307 36.4688 6.06079Z" fill="#CF6C21"/>
<path d="M40.5683 11.5154C41.044 10.3409 42.7967 9.40343 44.284 9.52797C43.6958 10.7467 41.9994 11.6546 40.5683 11.5154Z" fill="#CF6C21"/>
<path d="M39.7118 10.5068C39.145 12.1447 37.8225 13.2723 36.3231 13.4317C36.9341 11.8688 38.0757 11.009 39.7118 10.5068Z" fill="#CF6C21"/>
<path d="M45.2727 17.3512C45.3625 18.6944 44.2503 20.4823 43.0618 20.9858C42.8139 19.8689 43.9247 18.0061 45.2727 17.3512Z" fill="#CF6C21"/>
<path d="M40.9019 19.6689C41.0265 21.3537 40.528 22.6353 39.314 23.6826C38.8812 22.4398 39.6088 20.5475 40.9019 19.6689Z" fill="#CF6C21"/>
<path d="M26.7605 6.77503C27.1477 5.1345 27.8981 3.9185 29.3935 3.15381C29.3721 4.63229 28.1661 6.29961 26.7605 6.77503Z" fill="#CF6C21"/>
<path d="M47.9409 10.7367C46.8662 11.8443 44.7759 12.3545 43.8888 11.7706C44.5802 10.7756 46.692 10.2158 47.9409 10.7367Z" fill="#CF6C21"/>
<path d="M10.2438 8.48352C11.6722 8.90001 12.98 10.4173 13.0537 11.6708C11.9335 11.6106 10.6484 10.179 10.2438 8.48352Z" fill="#CF6C21"/>
<path d="M42.1934 6.98096C41.5114 8.51167 40.4783 9.41698 38.9963 9.89106C38.8904 8.77416 40.5493 7.23675 42.1934 6.98096Z" fill="#CF6C21"/>
<path d="M39.4265 6.63818C39.0553 8.31086 38.1468 9.41169 36.7385 10.2219C36.6367 8.88806 37.9177 7.18726 39.4265 6.63818Z" fill="#CF6C21"/>
<path d="M25.553 13.146C24.1031 12.2166 23.4894 10.9497 23.2 9.39355C24.5989 9.97343 25.7004 11.6742 25.553 13.146Z" fill="#CF6C21"/>
<path d="M14.3405 21.4758C14.0899 23.2623 13.2832 24.4582 11.9392 25.0341C11.9942 23.4592 13.1211 21.7905 14.3405 21.4758Z" fill="#CF6C21"/>
<path d="M49.2691 24.3779C49.1874 22.9195 50.3224 21.1356 51.4828 20.8196C51.523 22.2432 50.5863 23.7792 49.2691 24.3779Z" fill="#CF6C21"/>
<path d="M46.1525 33.1308C44.499 32.95 43.2394 32.3299 42.2961 30.9974C43.6816 30.7925 45.713 31.8853 46.1525 33.1308Z" fill="#CF6C21"/>
<path d="M14.9101 29.399C16.1455 29.3254 17.996 30.6699 18.3887 31.9261C17.0795 31.9569 15.3282 30.6833 14.9101 29.399Z" fill="#CF6C21"/>
<path d="M47.2755 13.3412C46.6189 14.4112 44.479 14.9803 43.3548 14.3831C44.1199 13.3653 46.1178 12.8349 47.2755 13.3412Z" fill="#CF6C21"/>
<path d="M8.02341 26.7716C6.97019 27.9434 5.85801 28.8233 4.30096 29.0135C4.49258 27.772 6.69684 26.4221 8.02341 26.7716Z" fill="#CF6C21"/>
<path d="M19.9636 16.6675C21.3156 16.5751 23.0174 17.5782 23.5935 18.7621C22.3621 19.0004 20.5974 18.0041 19.9636 16.6675Z" fill="#CF6C21"/>
<path d="M28.8718 0.202271C28.7619 1.85619 28.0758 3.0963 26.8015 4.06589C26.3928 2.97979 27.4983 0.87991 28.8718 0.202271Z" fill="#CF6C21"/>
<path d="M39.3797 14.1422C38.423 15.5524 37.2264 16.3063 35.6345 16.5059C35.9374 15.3073 37.9044 14.0444 39.3797 14.1422Z" fill="#CF6C21"/>
<path d="M48.9787 13.7587C48.7469 15.3912 47.9201 16.4719 46.6431 17.3036C46.3148 16.1117 47.5704 14.1926 48.9787 13.7587Z" fill="#CF6C21"/>
<path d="M19.708 22.9324C20.3807 21.257 21.533 20.42 23.2442 19.9125C22.5487 21.62 21.3575 22.4155 19.708 22.9324Z" fill="#CF6C21"/>
<path d="M39.2924 31.6485C37.9484 31.2333 36.7103 29.7254 36.6366 28.4143C38.0784 28.879 39.405 30.4941 39.2924 31.6485Z" fill="#CF6C21"/>
<path d="M10.7509 4.93127C12.2691 5.34777 13.5353 6.66287 13.6734 7.90566C12.4634 7.832 10.972 6.34414 10.7509 4.93127Z" fill="#CF6C21"/>
<path d="M20.3808 18.7628C19.2056 18.9569 17.4503 17.8481 16.8821 16.5517C18.0211 16.3334 19.8689 17.5012 20.3808 18.7628Z" fill="#CF6C21"/>
<path d="M16.3421 12.6208C16.1478 10.9642 16.8445 9.24871 17.8897 8.80811C18.2354 10.2183 17.7718 11.358 16.3421 12.6208Z" fill="#CF6C21"/>
<path d="M32.808 14.1274C31.6154 13.0695 30.7632 11.9793 30.8664 10.3643C32.1662 10.9763 33.1122 12.744 32.808 14.1274Z" fill="#CF6C21"/>
<path d="M7.87866 14.0349C9.45447 13.6278 11.2581 14.1876 11.8075 15.2147C11.1495 15.5978 11.037 15.583 10.3817 15.0286C9.78008 15.4665 8.56473 15.0045 7.87866 14.0349Z" fill="#CF6C21"/>
<path d="M46.6591 19.4442C47.108 18.1907 48.8902 17.0256 50.0895 17.2011C49.666 18.4117 47.7874 19.6384 46.6591 19.4442Z" fill="#CF6C21"/>
<path d="M40.6862 31.9836C40.4892 33.2237 39.0287 34.5429 37.4904 34.8696C37.875 33.4836 39.4052 32.1028 40.6862 31.9836Z" fill="#CF6C21"/>
<path d="M46.369 36.6967C44.7972 36.0231 43.7453 35.0709 43.2308 33.5013C44.5305 33.6393 45.9402 35.0535 46.369 36.6967Z" fill="#CF6C21"/>
<path d="M22.1485 10.7126C20.5432 10.4287 19.5637 9.38946 18.7798 8.09445C19.8062 7.96321 22.1042 9.41893 22.1485 10.7126Z" fill="#CF6C21"/>
<path d="M8.95815 19.9081C7.76557 20.196 6.20049 19.0965 5.61224 17.622C6.7673 17.5725 8.2158 18.5461 8.95815 19.9081Z" fill="#CF6C21"/>
<path d="M22.7045 8.5615C21.307 7.67226 20.3717 6.61295 20.0018 5.09964C20.8728 5.03268 22.663 7.22631 22.7045 8.5615Z" fill="#CF6C21"/>
<path d="M43.065 15.2737C42.3816 16.4535 40.5767 17.0588 38.9995 16.6839C40.2069 15.7169 41.4638 15.2241 43.065 15.2737Z" fill="#CF6C21"/>
<path d="M13.5553 13.8662C12.1818 14.1688 10.6716 13.0787 10.2241 11.5159C11.6806 11.8453 12.7258 12.6328 13.5553 13.8662Z" fill="#CF6C21"/>
<path d="M11.1873 31.8583C10.1689 31.5824 8.96562 32.1449 8.09866 31.1927C9.243 30.8954 10.2466 31.2356 11.1873 31.8583Z" fill="#CF6C21"/>
<path d="M13.4676 16.151L13.5225 16.1161C12.7212 16.1161 11.9199 16.1161 11.1186 16.1161C11.9145 15.7626 12.7091 15.4425 13.4676 16.151Z" fill="#CF6C21"/>
</svg>
