<svg width="346" height="92" viewBox="0 0 346 92" fill="none" xmlns="http://www.w3.org/2000/svg">
<path fill-rule="evenodd" clip-rule="evenodd" d="M173 73.7769C192.109 73.7769 207.6 58.286 207.6 39.1769L346 39.1769V74.7793C346 83.7802 338.703 91.0769 329.702 91.0769H174.236H16.2976C7.29668 91.0769 0 83.7802 0 74.7793V39.1769L138.4 39.1769C138.4 58.286 153.891 73.7769 173 73.7769Z" fill="#A95210"/>
<g filter="url(#filter0_d_1_22358)">
<circle cx="173" cy="39.1769" r="33.3643" fill="#833800"/>
<path d="M172.3 61.397C167.94 61.397 163.569 61.3527 159.209 61.4191C157.223 61.4523 155.913 60.0585 155.936 58.1448C155.98 54.8262 155.936 51.5077 155.958 48.1891C155.969 46.6294 156.834 45.5011 158.243 45.1914C158.51 45.1361 158.798 45.125 159.064 45.125C167.907 45.125 176.738 45.125 185.581 45.125C187.345 45.125 188.609 46.2644 188.632 48.0121C188.676 51.5188 188.676 55.0143 188.632 58.5209C188.609 60.2355 187.345 61.3859 185.614 61.3859C181.176 61.397 176.738 61.397 172.3 61.397ZM179.534 50.6781C180.677 50.6781 181.786 50.6449 182.885 50.6891C183.484 50.7112 183.484 50.3904 183.473 49.959C183.461 49.5608 183.528 49.1958 182.907 49.2068C181.387 49.24 179.878 49.2289 178.358 49.2068C177.903 49.1958 177.781 49.3728 177.792 49.7931C177.803 52.1161 177.803 54.4391 177.792 56.7621C177.792 57.1603 177.914 57.3152 178.336 57.3152C179.867 57.3041 181.409 57.293 182.94 57.3262C183.528 57.3373 183.484 56.9944 183.484 56.6072C183.484 56.22 183.572 55.8218 182.929 55.8439C181.953 55.8882 180.965 55.8661 179.989 55.8439C179.822 55.8439 179.534 55.678 179.523 55.5674C179.467 55.0585 179.501 54.5497 179.501 53.9634C180.266 53.9634 180.965 53.9524 181.664 53.9634C182.019 53.9745 182.186 53.8417 182.152 53.4878C182.141 53.344 182.141 53.1891 182.152 53.0453C182.197 52.636 182.019 52.4922 181.609 52.5033C180.932 52.5254 180.244 52.5143 179.534 52.5143C179.534 51.8838 179.534 51.3086 179.534 50.6781ZM170.325 49.2289C170.381 49.4612 170.403 49.5719 170.436 49.6714C171.102 51.8727 171.768 54.074 172.444 56.2754C172.833 57.5253 172.589 57.2599 173.853 57.3152C174.308 57.3373 174.541 57.2045 174.674 56.74C175.351 54.4833 176.061 52.2378 176.76 49.9922C176.827 49.771 176.871 49.5497 176.96 49.2289C176.45 49.2289 176.028 49.1958 175.618 49.2511C175.44 49.2732 175.196 49.4612 175.14 49.6272C174.919 50.3019 174.752 51.0099 174.564 51.6957C174.286 52.7024 174.02 53.6979 173.743 54.7046C173.576 54.5386 173.51 54.3727 173.465 54.2068C173.055 52.7134 172.655 51.2201 172.234 49.7378C172.178 49.5497 172.023 49.2843 171.879 49.2621C171.39 49.1958 170.902 49.2289 170.325 49.2289ZM161.128 53.2665C161.128 54.4501 161.128 55.6227 161.128 56.8063C161.128 57.0939 161.15 57.3152 161.527 57.3152C163.158 57.3041 164.778 57.3152 166.409 57.293C166.531 57.293 166.697 57.0829 166.753 56.928C166.808 56.7621 166.753 56.563 166.775 56.386C166.819 55.9767 166.642 55.8439 166.231 55.8439C165.288 55.8661 164.345 55.8329 163.402 55.855C162.981 55.8661 162.825 55.7444 162.836 55.3019C162.859 53.6426 162.859 51.9834 162.848 50.3241C162.836 49.0962 163.036 49.24 161.716 49.2068C161.283 49.1958 161.128 49.3396 161.139 49.771C161.139 50.9435 161.128 52.105 161.128 53.2665ZM169.371 53.2665C169.371 52.2488 169.382 51.2422 169.371 50.2245C169.36 49.0851 169.527 49.2621 168.373 49.2179C167.829 49.1958 167.685 49.3838 167.696 49.9037C167.718 52.0055 167.696 54.1072 167.707 56.209C167.718 57.4479 167.518 57.293 168.828 57.3373C169.282 57.3484 169.393 57.1824 169.382 56.7621C169.36 55.5785 169.371 54.417 169.371 53.2665Z" fill="white"/>
<path d="M172.267 43.311C168.606 43.311 164.944 43.2999 161.283 43.322C160.851 43.322 160.618 43.1782 160.418 42.8132C155.558 34.2734 160.773 23.7204 170.536 22.3598C178.069 21.3089 185.181 26.9062 185.936 34.4615C186.235 37.4371 185.658 40.2136 184.194 42.8132C183.983 43.1782 183.75 43.322 183.317 43.322C179.623 43.311 175.95 43.311 172.267 43.311ZM169.271 34.7159C169.26 36.1207 169.249 37.5145 169.26 38.9194C169.271 39.8707 169.771 40.1583 170.581 39.6716C172.844 38.2778 175.096 36.873 177.348 35.457C178.014 35.0367 178.025 34.5057 177.348 34.0854C175.085 32.6694 172.811 31.2535 170.525 29.8487C169.782 29.3951 169.271 29.6938 169.26 30.5677C169.271 31.9615 169.271 33.3442 169.271 34.7159Z" fill="white"/>
<path d="M153.229 35.9659C153.229 27.05 159.342 19.2735 168.084 17.4373C175.451 15.8886 181.875 17.9019 186.768 23.654C191.949 29.7491 192.692 36.6517 189.63 43.9968C189.608 44.0521 189.586 44.0964 189.564 44.1517C189.386 44.5167 189.098 44.7048 188.709 44.5056C188.321 44.3065 188.31 43.9747 188.487 43.6096C189.741 41.0433 190.318 38.311 190.207 35.4681C190.041 30.9659 188.432 27.0168 185.314 23.7425C182.064 20.3355 178.07 18.4328 173.354 18.1674C168.173 17.8798 163.658 19.528 159.919 23.112C156.058 26.7956 154.271 31.3752 154.405 36.6738C154.46 39.0521 155.037 41.342 156.069 43.499C156.257 43.8972 156.357 44.2402 155.913 44.4946C155.547 44.7158 155.248 44.5388 154.982 43.9968C153.828 41.5964 153.229 38.8641 153.229 35.9659Z" fill="white"/>
</g>
<defs>
<filter id="filter0_d_1_22358" x="134.693" y="0.869765" width="76.6143" height="76.6143" filterUnits="userSpaceOnUse" color-interpolation-filters="sRGB">
<feFlood flood-opacity="0" result="BackgroundImageFix"/>
<feColorMatrix in="SourceAlpha" type="matrix" values="0 0 0 0 0 0 0 0 0 0 0 0 0 0 0 0 0 0 127 0" result="hardAlpha"/>
<feOffset/>
<feGaussianBlur stdDeviation="2.47143"/>
<feComposite in2="hardAlpha" operator="out"/>
<feColorMatrix type="matrix" values="0 0 0 0 1 0 0 0 0 1 0 0 0 0 1 0 0 0 0.5 0"/>
<feBlend mode="normal" in2="BackgroundImageFix" result="effect1_dropShadow_1_22358"/>
<feBlend mode="normal" in="SourceGraphic" in2="effect1_dropShadow_1_22358" result="shape"/>
</filter>
</defs>
</svg>
