<svg width="53" height="56" viewBox="0 0 53 56" fill="none" xmlns="http://www.w3.org/2000/svg">
<path d="M13.4665 16.0742C14.7542 16.1144 14.3053 15.1287 14.505 14.4631C14.5586 15.0095 14.6108 15.5559 14.6671 16.1331C14.8654 16.1331 15.0517 16.1331 15.0745 16.1331C15.2085 16.4304 15.2487 16.7666 15.4269 16.8764C17.1112 17.9076 17.8134 19.6218 18.5142 21.3105C19.1922 22.9443 19.7483 24.6291 20.3727 26.2857C20.9275 27.7561 21.7006 29.0726 23.0084 30.0247C24.0054 30.7506 24.9447 31.5581 25.9564 32.2612C26.6183 32.7206 26.8113 32.5143 26.9707 31.7376C27.4598 29.3525 28.0239 26.9834 28.568 24.609C28.6537 24.2353 28.785 23.8724 28.9659 23.2684C28.1405 23.4881 27.5161 23.6541 26.7255 23.8644C26.9855 23.7064 27.1007 23.5939 27.236 23.559C29.0383 23.1051 29.5328 21.7297 29.6574 20.1119C29.7029 19.5213 29.6547 18.9254 29.6735 18.3321C29.6936 17.7107 29.5006 17.321 28.8038 17.4549C29.9937 16.859 28.8909 16.1425 28.9298 15.3658C30.4466 17.4697 29.7632 19.7249 29.5877 22.1515C30.0111 21.8462 30.188 21.7377 30.3434 21.6038C31.1648 20.8913 31.9259 20.0945 32.8117 19.4758C34.232 18.4834 34.5174 16.8965 33.4133 15.4702C34.1731 15.8465 34.2963 16.1371 34.5389 18.1259C35.2651 18.233 36.0008 18.3401 36.7378 18.4486C36.7472 18.5196 36.7565 18.5919 36.7646 18.6629C35.0749 18.3776 33.684 18.9481 32.4231 19.974C31.201 20.9677 30.2403 22.11 29.8959 23.5577C31.1233 23.6608 32.2663 23.7505 33.4039 23.8818C33.4321 23.8845 33.4079 24.3438 33.4079 24.5983C32.1015 25.0442 30.9049 24.7282 29.5475 24.1014C29.2567 25.2947 28.8453 26.3821 28.7502 27.4977C28.5398 29.9859 28.4782 32.4876 28.3857 34.9838C28.3777 35.2142 28.5908 35.4526 28.7006 35.6869C28.8695 35.4901 29.0919 35.3186 29.1964 35.0923C29.7713 33.8375 30.188 32.4889 30.9116 31.3305C31.5856 30.2511 32.5691 29.3632 33.4321 28.4043C33.6706 28.1405 33.9627 27.9249 34.3365 27.5914C32.9671 27.4816 31.6338 27.9771 30.5149 27.0477C31.5105 26.1759 33.6639 26.0968 34.7171 26.9593C35.1164 27.2874 35.4112 27.3209 35.6993 26.9928C35.7569 26.9272 35.4635 26.3674 35.2357 26.2763C34.3191 25.9107 33.3651 25.6415 32.6227 25.3991C33.4267 25.0924 34.4129 25.5397 35.3442 25.9348C37.2805 26.7557 40.0542 25.667 40.7295 23.8617C40.9091 23.3809 41.2173 22.9484 41.4665 22.4944C41.5483 22.5439 41.6313 22.5921 41.7131 22.6417C41.1181 23.5577 40.6786 24.6505 39.8867 25.3389C39.1001 26.0218 37.9585 26.2964 36.979 26.9526C37.3153 27.0356 37.657 27.0986 37.9839 27.207C38.5159 27.3811 39.1216 27.4735 39.5477 27.7963C41.2052 29.0498 42.3549 29.0364 44.3448 28.8168C44.3059 28.9467 44.2684 29.0685 44.1987 29.2989C45.5266 29.0672 46.8237 28.8636 48.0109 29.7074C46.8934 30.689 44.5726 30.547 43.7244 29.5185C43.6225 29.394 43.4014 29.3417 43.2259 29.3096C42.8963 29.248 42.5546 29.248 42.2263 29.181C41.1918 28.9735 40.9841 29.1784 41.291 30.4158C40.5339 29.0351 39.5303 28.2543 38.2586 27.803C36.9683 27.345 35.8025 27.7079 34.7211 28.3976C32.8452 29.5935 31.7933 31.4001 31.1059 33.4518C31.0483 33.6232 31.0978 33.8308 31.0978 34.1187C31.5668 33.9567 31.9755 33.8147 32.2315 33.7263C31.6378 34.8057 30.8687 35.9119 30.3903 37.1319C29.3894 39.6831 29.3921 42.3937 29.64 45.0654C29.8409 47.2349 30.527 49.3241 31.3538 51.3396C31.5615 51.8471 32.0318 52.3293 32.5035 52.6333C33.9908 53.5948 35.5358 54.4666 37.05 55.3693C37.0607 55.3572 37.0312 55.4242 36.9977 55.4255C34.4344 55.5313 31.8723 55.6478 29.309 55.7255C28.0119 55.7643 26.7108 55.763 25.4123 55.7255C22.5729 55.6438 19.7336 55.5273 16.6918 55.4175C17.3725 55.1751 17.9099 55.0706 18.3547 54.8095C19.7858 53.9725 21.4219 53.3015 22.5207 52.1351C23.4319 51.1682 23.9062 49.6348 24.1903 48.2728C24.5293 46.6497 24.5923 44.9355 24.5306 43.2709C24.465 41.5098 24.1729 39.7487 23.8741 38.0064C23.4372 35.4646 21.7422 34.0276 19.4187 33.1719C17.796 32.5746 16.129 32.4367 14.2866 32.5545C14.5881 32.4005 14.7716 32.3068 15.0731 32.1514C13.6233 31.6505 12.1962 31.3332 11.2757 29.7917C11.8264 29.8587 12.2177 29.8386 12.558 29.9605C13.7064 30.3743 14.8212 30.8497 15.4497 32.0202C15.5327 32.1755 15.8624 32.2934 16.0647 32.276C17.9139 32.1139 19.7309 32.4608 21.3295 33.2482C22.8141 33.9794 24.0751 35.1727 25.4056 36.1998C25.7956 36.5012 26.0863 36.9324 26.5473 37.4426C26.7952 35.9909 26.1453 35.0012 25.5463 34.0142C25.3467 33.6848 25.0492 33.3915 24.7383 33.1572C22.2942 31.3171 20.8363 28.7485 19.4696 26.1076C19.3945 25.9643 19.3021 25.829 19.2579 25.7553C18.5959 26.5522 17.9447 27.3343 17.2935 28.1164C17.2305 28.0722 17.1675 28.028 17.1045 27.9838C17.2064 27.8177 17.2787 27.6209 17.4141 27.4883C19.0662 25.8732 19.2646 24.0827 18.0023 22.0819C17.8683 21.869 17.7236 21.6547 17.6352 21.4203C17.0442 19.8615 16.9545 19.745 15.3049 19.9927C13.504 20.2632 11.8317 20.9047 10.8576 22.5747C10.4489 23.2751 10.2921 24.1215 10.0469 24.8273C9.65027 23.6073 10.3162 22.4729 10.9996 21.2154C10.2265 21.2154 9.65564 21.2154 9.08481 21.2154C10.6204 21.0467 12.0435 20.6516 13.4424 19.9633C14.4259 19.4798 15.5837 19.3486 16.7602 19.0352C16.2965 17.8179 15.3385 17.0572 14.2035 16.4545C13.9663 16.3287 13.7466 16.172 13.5174 16.0287C13.5215 16.0394 13.4665 16.0742 13.4665 16.0742Z" fill="#CF6C21"/>
<path d="M19.0574 26.7678C19.9056 28.02 19.9418 30.002 19.174 31.068C18.2668 30.2431 18.1824 27.9986 19.0574 26.7678Z" fill="#CF6C21"/>
<path d="M40.84 27.5904C41.7217 26.6476 43.8295 26.6329 45.065 27.561C44.1565 28.3163 41.8289 28.3324 40.84 27.5904Z" fill="#CF6C21"/>
<path d="M28.8517 31.9026C29.0339 30.3772 30.4033 28.8157 31.6951 28.6001C31.62 30.0839 30.5213 31.383 28.8517 31.9026Z" fill="#CF6C21"/>
<path d="M23.6397 33.3163C22.2568 33.4917 20.8365 32.4042 20.1062 30.9043C21.5614 30.8334 23.3717 32.0467 23.6397 33.3163Z" fill="#CF6C21"/>
<path d="M30.9983 14.0531C29.523 14.578 27.5372 14.0705 26.957 13.0594C27.9405 12.4433 30.1461 12.9603 30.9983 14.0531Z" fill="#CF6C21"/>
<path d="M8.35808 29.7475C7.86229 28.1244 8.33932 26.8374 9.26122 25.5959C9.99284 26.7503 9.53591 28.9359 8.35808 29.7475Z" fill="#CF6C21"/>
<path d="M29.3674 15.0755C30.8815 15.0474 32.6664 16.1375 33.1421 17.3374C31.8517 17.5396 29.7828 16.329 29.3674 15.0755Z" fill="#CF6C21"/>
<path d="M24.8938 30.5461C23.5471 30.3506 22.2353 28.7007 22.2647 27.241C23.4479 27.474 24.7625 29.1252 24.8938 30.5461Z" fill="#CF6C21"/>
<path d="M25.3108 24.2879C23.7833 24.9 22.3897 24.9053 21.0015 24.1527C21.9408 23.1965 24.0901 23.238 25.3108 24.2879Z" fill="#CF6C21"/>
<path d="M5.23938 6.09227C6.72809 5.9088 8.51293 6.81678 8.90822 7.96047C7.65803 8.34616 5.66415 7.33238 5.23938 6.09227Z" fill="#CF6C21"/>
<path d="M22.6523 14.0058C21.3231 15.0825 20.0032 15.5512 18.4247 15.3463C18.9607 14.1478 20.842 13.5143 22.6523 14.0058Z" fill="#CF6C21"/>
<path d="M12.7248 27.1242C13.7941 26.2738 15.8456 26.3086 16.868 27.1537C15.3994 27.9974 13.6521 28.0027 12.7248 27.1242Z" fill="#CF6C21"/>
<path d="M5.03207 16.0544C6.02767 15.2201 7.98135 15.3098 9.10559 16.2393C8.18369 17.0414 6.14961 16.949 5.03207 16.0544Z" fill="#CF6C21"/>
<path d="M36.6385 17.6048C37.6649 17.0611 39.7097 17.578 40.7549 18.6427C39.8142 19.2681 37.2174 18.6133 36.6385 17.6048Z" fill="#CF6C21"/>
<path d="M24.7617 19.7259C25.9248 18.8514 27.7016 18.8072 28.8795 19.6241C28.0152 20.5254 25.8297 20.579 24.7617 19.7259Z" fill="#CF6C21"/>
<path d="M43.011 23.0138C43.8566 22.1366 45.9134 22.0067 47.114 22.7098C46.3851 23.6446 44.2934 23.82 43.011 23.0138Z" fill="#CF6C21"/>
<path d="M52.434 24.9775C51.3272 26.1507 49.4646 26.6837 48.3618 26.1828C49.1779 25.0619 51.0981 24.4726 52.434 24.9775Z" fill="#CF6C21"/>
<path d="M15.7704 14.2266C16.9884 13.1552 18.2975 12.7789 19.868 13.0427C19.068 14.2788 16.9388 14.9042 15.7704 14.2266Z" fill="#CF6C21"/>
<path d="M6.59004 13.8525C5.52209 14.7725 3.51615 14.7873 2.46964 13.9275C3.46925 13.0758 5.07454 13.0316 6.59004 13.8525Z" fill="#CF6C21"/>
<path d="M23.2205 2.56689C24.1799 4.12975 24.4452 5.50378 23.5943 7.14163C22.7408 5.61627 22.6604 4.22885 23.2205 2.56689Z" fill="#CF6C21"/>
<path d="M4.97546 22.6789C6.16804 21.7575 7.77734 21.7334 9.17225 22.5744C8.27179 23.406 6.24174 23.477 4.97546 22.6789Z" fill="#CF6C21"/>
<path d="M33.4196 11.2573C32.6478 9.81099 32.7014 8.1035 33.5483 7.13525C34.4166 8.02583 34.3536 10.0748 33.4196 11.2573Z" fill="#CF6C21"/>
<path d="M26.0306 4.80664C26.5948 6.43646 26.0628 7.72478 25.2682 9.00774C24.4602 8.00869 24.8126 5.94765 26.0306 4.80664Z" fill="#CF6C21"/>
<path d="M7.19766 30.3301C5.9086 31.2032 4.06481 31.2073 3.02499 30.3783C3.95091 29.5185 5.8818 29.477 7.19766 30.3301Z" fill="#CF6C21"/>
<path d="M49.7913 20.8049C48.3174 21.7169 46.9171 21.6861 45.4203 21.1424C46.7 20.1125 48.2946 19.9733 49.7913 20.8049Z" fill="#CF6C21"/>
<path d="M17.1359 25.9832C16.1939 24.7177 16.2086 22.8013 17.1252 21.8464C17.8688 22.7705 17.8956 24.9427 17.1359 25.9832Z" fill="#CF6C21"/>
<path d="M9.15595 12.5983C7.51448 13.0778 6.22945 12.5863 4.98462 11.7185C5.90116 10.9712 8.09335 11.4078 9.15595 12.5983Z" fill="#CF6C21"/>
<path d="M16.2918 4.9594C15.4959 3.83714 15.5253 1.77343 16.3106 0.852051C17.1909 1.83369 17.2043 3.87732 16.2918 4.9594Z" fill="#CF6C21"/>
<path d="M10.0575 28.8689C10.824 27.9636 13.0028 27.9301 14.1699 28.8073C13.0148 29.6148 10.958 29.718 10.0575 28.8689Z" fill="#CF6C21"/>
<path d="M14.1588 3.927C15.3474 5.10283 15.941 6.38177 15.7775 8.01962C14.5206 7.18664 13.6322 5.03319 14.1588 3.927Z" fill="#CF6C21"/>
<path d="M29.4341 5.55493C30.0813 6.67049 29.6324 8.8226 28.6542 9.54042C27.9949 8.52664 28.3366 6.70263 29.4341 5.55493Z" fill="#CF6C21"/>
<path d="M0.50351 21.4587C2.02974 20.7221 3.40722 20.7262 4.85573 21.3543C3.91105 22.3667 2.12487 22.4203 0.50351 21.4587Z" fill="#CF6C21"/>
<path d="M46.6168 27.9302C47.6606 27.0142 49.483 26.974 50.6756 27.8391C49.8729 28.6882 47.6914 28.7364 46.6168 27.9302Z" fill="#CF6C21"/>
<path d="M28.1413 22.0458C26.7062 22.9056 25.322 22.844 23.8413 22.4101C24.6614 21.324 26.6982 21.1485 28.1413 22.0458Z" fill="#CF6C21"/>
<path d="M14.2215 17.7293C13.0557 18.6936 11.8203 18.6936 10.5728 18.5851C10.3879 18.569 10.2204 18.3641 10.0448 18.2449C10.1842 18.1003 10.2967 17.8967 10.4669 17.8218C11.6648 17.2914 12.8802 17.1629 14.2215 17.7293Z" fill="#CF6C21"/>
<path d="M33.8517 31.8455C34.9331 31.0567 36.8318 31.03 37.9011 31.7866C37.4067 32.7174 34.6517 32.7508 33.8517 31.8455Z" fill="#CF6C21"/>
<path d="M19.9048 11.4768C21.5529 11.3241 22.838 11.7995 23.9448 12.9111C22.9197 13.5137 20.6444 12.7209 19.9048 11.4768Z" fill="#CF6C21"/>
<path d="M19.2136 0.460693C20.6272 1.21199 21.6965 2.82842 21.6657 4.09531C20.445 3.76184 19.2189 1.97802 19.2136 0.460693Z" fill="#CF6C21"/>
<path d="M32.3782 5.38648C31.2151 4.61778 30.5063 2.6545 30.9565 1.44653C32.1411 2.32238 32.8981 4.41957 32.3782 5.38648Z" fill="#CF6C21"/>
<path d="M0.881744 15.4715C2.10514 15.2425 4.05479 16.2951 4.59882 17.479C3.35399 17.7696 1.2757 16.646 0.881744 15.4715Z" fill="#CF6C21"/>
<path d="M18.6954 3.45972C19.2421 4.69982 18.3993 6.87604 17.145 7.49475C16.9668 5.87565 17.6127 4.64893 18.6954 3.45972Z" fill="#CF6C21"/>
<path d="M25.3483 28.2203C25.2049 26.853 26.4846 25.0129 27.7187 24.7344C27.9023 25.7428 26.7258 27.5079 25.3483 28.2203Z" fill="#CF6C21"/>
<path d="M7.31955 5.27589C8.49738 5.09777 10.0236 6.05932 10.7968 7.41728C9.66718 7.84047 7.98149 6.82803 7.31955 5.27589Z" fill="#CF6C21"/>
<path d="M31.9807 9.34235C30.9047 8.72229 30.1838 6.89695 30.4492 5.46802C31.5962 5.99165 32.3332 7.85583 31.9807 9.34235Z" fill="#CF6C21"/>
<path d="M36.9776 33.9256C35.7287 34.9729 34.3847 35.1657 32.8907 34.8403C33.3436 33.7743 35.5934 33.2426 36.9776 33.9256Z" fill="#CF6C21"/>
<path d="M34.2033 15.0988C33.871 13.6216 34.4593 11.8218 35.4857 11.1709C35.9949 12.3842 35.3034 14.5002 34.2033 15.0988Z" fill="#CF6C21"/>
<path d="M25.0538 4.44314C24.156 3.28874 24.3302 1.22502 25.3486 0.185791C26.1084 1.64419 25.6796 2.98876 25.0538 4.44314Z" fill="#CF6C21"/>
<path d="M1.38724 25.6555C2.49807 24.4355 3.75899 23.8757 5.37097 24.0123C4.73985 25.2096 2.48065 26.1497 1.38724 25.6555Z" fill="#CF6C21"/>
<path d="M36.0216 19.6057C36.6179 21.0025 36.2641 22.8975 35.3422 23.4372C34.6642 22.1475 34.9818 20.2151 36.0216 19.6057Z" fill="#CF6C21"/>
<path d="M38.3458 21.3582C38.7933 22.3291 37.8875 24.5589 36.7673 25.2419C36.4243 23.908 37.2149 21.9648 38.3458 21.3582Z" fill="#CF6C21"/>
<path d="M29.8181 11.3865C28.5572 11.9543 26.2243 11.2271 25.7433 10.1504C27.2856 9.908 28.6068 10.2723 29.8181 11.3865Z" fill="#CF6C21"/>
<path d="M34.8993 6.39515C33.7228 5.53939 33.0595 3.61361 33.5392 2.45386C34.6862 3.28684 35.3522 5.21664 34.8993 6.39515Z" fill="#CF6C21"/>
<path d="M39.2119 2.46289C39.2923 4.13288 38.7938 5.41986 37.6079 6.45775C37.0251 5.51762 37.8692 3.34677 39.2119 2.46289Z" fill="#CF6C21"/>
<path d="M44.6188 25.0431C43.5709 26.1184 41.7968 26.5376 40.5761 26.0421C41.0263 25.0725 43.2601 24.4967 44.6188 25.0431Z" fill="#CF6C21"/>
<path d="M27.4356 16.5377C25.8611 16.7185 24.5814 16.2618 23.5041 15.1208C24.4983 14.5101 26.8085 15.3404 27.4356 16.5377Z" fill="#CF6C21"/>
<path d="M1.9035 18.5409C3.18451 18.1432 4.90638 18.8021 5.68088 19.9846C4.46017 20.3984 2.33631 19.5855 1.9035 18.5409Z" fill="#CF6C21"/>
<path d="M39.3214 12.9181C40.7485 12.0155 42.5521 12.0316 43.6053 12.89C42.2158 13.581 40.8396 13.8047 39.3214 12.9181Z" fill="#CF6C21"/>
<path d="M9.43277 10.2791C8.41038 10.7318 6.4835 10.0126 5.56696 8.83679C6.64295 8.35334 8.91287 9.19972 9.43277 10.2791Z" fill="#CF6C21"/>
<path d="M42.4965 32.9895C42.3237 34.6274 41.8225 35.925 40.5603 36.8866C40.1194 35.7255 41.0587 33.7314 42.4965 32.9895Z" fill="#CF6C21"/>
<path d="M14.521 12.3939C13.9689 11.0774 14.2771 9.32976 15.195 8.56909C15.9601 9.99669 15.6466 11.7778 14.521 12.3939Z" fill="#CF6C21"/>
<path d="M5.07602 25.7775C5.9939 24.6098 7.93551 23.9053 9.00347 24.3526C8.36431 25.495 6.49773 26.1726 5.07602 25.7775Z" fill="#CF6C21"/>
<path d="M46.2044 26.903C46.1079 25.312 47.3045 23.4773 48.5628 23.2014C48.3015 24.7562 47.5752 25.9428 46.2044 26.903Z" fill="#CF6C21"/>
<path d="M36.4688 5.98364C36.7958 7.2117 35.9543 9.22453 34.9185 9.80574C34.483 8.58706 35.1892 6.80592 36.4688 5.98364Z" fill="#CF6C21"/>
<path d="M40.5683 11.4382C41.044 10.2637 42.7967 9.32628 44.284 9.45082C43.6958 10.6695 41.9994 11.5775 40.5683 11.4382Z" fill="#CF6C21"/>
<path d="M39.7118 10.4297C39.145 12.0675 37.8225 13.1952 36.3231 13.3545C36.9341 11.7917 38.0757 10.9319 39.7118 10.4297Z" fill="#CF6C21"/>
<path d="M45.2727 17.2742C45.3625 18.6174 44.2503 20.4052 43.0618 20.9088C42.8139 19.7919 43.9247 17.929 45.2727 17.2742Z" fill="#CF6C21"/>
<path d="M40.9019 19.5918C41.0265 21.2765 40.528 22.5581 39.314 23.6054C38.8812 22.3626 39.6088 20.4703 40.9019 19.5918Z" fill="#CF6C21"/>
<path d="M26.7605 6.69788C27.1477 5.05735 27.8981 3.84135 29.3935 3.07666C29.3721 4.55515 28.1661 6.22246 26.7605 6.69788Z" fill="#CF6C21"/>
<path d="M47.9409 10.6595C46.8662 11.767 44.7759 12.2772 43.8888 11.6933C44.5802 10.6983 46.692 10.1385 47.9409 10.6595Z" fill="#CF6C21"/>
<path d="M10.2438 8.40625C11.6722 8.82274 12.98 10.3401 13.0537 11.5936C11.9335 11.5333 10.6484 10.1017 10.2438 8.40625Z" fill="#CF6C21"/>
<path d="M42.1934 6.90381C41.5114 8.43452 40.4783 9.33983 38.9963 9.81391C38.8904 8.69701 40.5493 7.1596 42.1934 6.90381Z" fill="#CF6C21"/>
<path d="M39.4265 6.56104C39.0553 8.23371 38.1468 9.33454 36.7385 10.1448C36.6367 8.81091 37.9177 7.11011 39.4265 6.56104Z" fill="#CF6C21"/>
<path d="M25.553 13.0689C24.1031 12.1395 23.4894 10.8726 23.2 9.31641C24.5989 9.89628 25.7004 11.5971 25.553 13.0689Z" fill="#CF6C21"/>
<path d="M14.3405 21.3987C14.0899 23.1852 13.2832 24.3811 11.9392 24.957C11.9942 23.3821 13.1211 21.7134 14.3405 21.3987Z" fill="#CF6C21"/>
<path d="M49.2691 24.3007C49.1874 22.8423 50.3224 21.0585 51.4828 20.7424C51.523 22.166 50.5863 23.7021 49.2691 24.3007Z" fill="#CF6C21"/>
<path d="M46.1525 33.0535C44.499 32.8727 43.2394 32.2526 42.2961 30.9201C43.6816 30.7152 45.713 31.808 46.1525 33.0535Z" fill="#CF6C21"/>
<path d="M14.9101 29.322C16.1455 29.2483 17.996 30.5929 18.3887 31.8491C17.0795 31.8799 15.3282 30.6063 14.9101 29.322Z" fill="#CF6C21"/>
<path d="M47.2755 13.2639C46.6189 14.3339 44.479 14.9031 43.3548 14.3058C44.1199 13.288 46.1178 12.7577 47.2755 13.2639Z" fill="#CF6C21"/>
<path d="M8.02341 26.6945C6.97019 27.8663 5.85801 28.7462 4.30096 28.9363C4.49258 27.6949 6.69684 26.345 8.02341 26.6945Z" fill="#CF6C21"/>
<path d="M19.9636 16.5904C21.3156 16.498 23.0174 17.5011 23.5935 18.6849C22.3621 18.9233 20.5974 17.9269 19.9636 16.5904Z" fill="#CF6C21"/>
<path d="M28.8718 0.125C28.7619 1.77892 28.0758 3.01903 26.8015 3.98862C26.3928 2.90252 27.4983 0.802639 28.8718 0.125Z" fill="#CF6C21"/>
<path d="M39.3797 14.0652C38.423 15.4753 37.2264 16.2293 35.6345 16.4289C35.9374 15.2303 37.9044 13.9674 39.3797 14.0652Z" fill="#CF6C21"/>
<path d="M48.9787 13.6816C48.7469 15.3141 47.9201 16.3949 46.6431 17.2265C46.3149 16.0346 47.5704 14.1155 48.9787 13.6816Z" fill="#CF6C21"/>
<path d="M19.708 22.8554C20.3807 21.18 21.533 20.343 23.2442 19.8354C22.5487 21.5429 21.3575 22.3384 19.708 22.8554Z" fill="#CF6C21"/>
<path d="M39.2924 31.5713C37.9484 31.1562 36.7103 29.6482 36.6366 28.3372C38.0784 28.8019 39.405 30.4169 39.2924 31.5713Z" fill="#CF6C21"/>
<path d="M10.7509 4.85425C12.2691 5.27074 13.5353 6.58585 13.6734 7.82863C12.4634 7.75498 10.972 6.26711 10.7509 4.85425Z" fill="#CF6C21"/>
<path d="M20.3808 18.6855C19.2056 18.8797 17.4503 17.7708 16.8821 16.4745C18.0211 16.2562 19.8689 17.424 20.3808 18.6855Z" fill="#CF6C21"/>
<path d="M16.3421 12.5437C16.1478 10.8871 16.8445 9.17156 17.8897 8.73096C18.2354 10.1411 17.7718 11.2808 16.3421 12.5437Z" fill="#CF6C21"/>
<path d="M32.808 14.0503C31.6154 12.9923 30.7632 11.9022 30.8664 10.2871C32.1662 10.8991 33.1122 12.6669 32.808 14.0503Z" fill="#CF6C21"/>
<path d="M7.87866 13.9576C9.45447 13.5505 11.2581 14.1103 11.8075 15.1375C11.1495 15.5205 11.037 15.5058 10.3817 14.9513C9.78008 15.3892 8.56473 14.9272 7.87866 13.9576Z" fill="#CF6C21"/>
<path d="M46.6591 19.367C47.108 18.1135 48.8902 16.9484 50.0895 17.1238C49.666 18.3344 47.7874 19.5611 46.6591 19.367Z" fill="#CF6C21"/>
<path d="M40.6862 31.9065C40.4892 33.1466 39.0287 34.4657 37.4904 34.7925C37.875 33.4064 39.4052 32.0257 40.6862 31.9065Z" fill="#CF6C21"/>
<path d="M46.369 36.6197C44.7972 35.946 43.7453 34.9939 43.2307 33.4243C44.5305 33.5623 45.9402 34.9765 46.369 36.6197Z" fill="#CF6C21"/>
<path d="M22.1485 10.6355C20.5432 10.3515 19.5637 9.31232 18.7798 8.0173C19.8062 7.88606 22.1042 9.34178 22.1485 10.6355Z" fill="#CF6C21"/>
<path d="M8.95815 19.8311C7.76557 20.119 6.20049 19.0195 5.61224 17.545C6.7673 17.4955 8.2158 18.4691 8.95815 19.8311Z" fill="#CF6C21"/>
<path d="M22.7045 8.48435C21.307 7.59511 20.3717 6.5358 20.0018 5.02249C20.8728 4.95553 22.663 7.14916 22.7045 8.48435Z" fill="#CF6C21"/>
<path d="M43.065 15.1965C42.3816 16.3764 40.5767 16.9817 38.9995 16.6067C40.2069 15.6398 41.4638 15.147 43.065 15.1965Z" fill="#CF6C21"/>
<path d="M13.5553 13.789C12.1818 14.0917 10.6716 13.0016 10.2241 11.4387C11.6806 11.7682 12.7258 12.5556 13.5553 13.789Z" fill="#CF6C21"/>
<path d="M11.1873 31.7812C10.1689 31.5053 8.96562 32.0678 8.09866 31.1156C9.243 30.8183 10.2466 31.1584 11.1873 31.7812Z" fill="#CF6C21"/>
<path d="M13.4676 16.0739L13.5225 16.0391C12.7212 16.0391 11.9199 16.0391 11.1186 16.0391C11.9145 15.6856 12.7091 15.3655 13.4676 16.0739Z" fill="#CF6C21"/>
</svg>
