<svg width="44" height="44" viewBox="0 0 44 44" fill="none" xmlns="http://www.w3.org/2000/svg">
<g clip-path="url(#clip0_1_23840)">
<path d="M29.7533 42.094H5.20544V42.9413C5.20544 43.1098 5.46581 43.2715 5.92926 43.3906C6.39271 43.5098 7.02129 43.5768 7.67671 43.5768H32.6365" fill="#F4F4F4"/>
<mask id="path-2-outside-1_1_23840" maskUnits="userSpaceOnUse" x="-0.972412" y="-0.422852" width="45" height="45" fill="black">
<rect fill="white" x="-0.972412" y="-0.422852" width="45" height="45"/>
<path d="M8.68561 34.6305L5.98946 37.3268L5.20429 36.5415C5.14579 36.483 5.07634 36.4366 4.99991 36.405C4.92348 36.3733 4.84157 36.357 4.75885 36.357C4.67612 36.357 4.59421 36.3733 4.51778 36.405C4.44136 36.4367 4.37191 36.4831 4.31342 36.5416C4.25493 36.6001 4.20853 36.6695 4.17688 36.7459C4.14522 36.8224 4.12894 36.9043 4.12894 36.987C4.12894 37.0697 4.14524 37.1516 4.1769 37.2281C4.20856 37.3045 4.25497 37.3739 4.31346 37.4324L5.544 38.663C5.66215 38.7811 5.82236 38.8474 5.98941 38.8474C6.15646 38.8474 6.31668 38.7811 6.43482 38.663L9.57651 35.5214C9.69464 35.4032 9.761 35.243 9.761 35.0759C9.76099 34.9089 9.69461 34.7486 9.57647 34.6305C9.45833 34.5124 9.2981 34.446 9.13103 34.446C8.96396 34.446 8.80374 34.5124 8.68561 34.6305ZM12.8852 9.89941H30.2069C30.7079 9.89884 31.1882 9.69956 31.5425 9.34531C31.8967 8.99106 32.096 8.51075 32.0966 8.00976V6.24609C32.096 5.7451 31.8967 5.2648 31.5425 4.91055C31.1882 4.5563 30.7079 4.35702 30.2069 4.35644H12.8852C12.3842 4.35702 11.9039 4.5563 11.5496 4.91055C11.1954 5.2648 10.9961 5.7451 10.9955 6.24609V8.00976C10.9961 8.51075 11.1954 8.99106 11.5496 9.34531C11.9039 9.69956 12.3842 9.89884 12.8852 9.89941ZM12.2553 6.24609C12.2555 6.07909 12.3219 5.91898 12.44 5.8009C12.558 5.68281 12.7182 5.61639 12.8852 5.61621H30.2069C30.3739 5.61639 30.534 5.68281 30.6521 5.8009C30.7702 5.91898 30.8366 6.07909 30.8368 6.24609V8.00976C30.8366 8.17677 30.7702 8.33688 30.6521 8.45496C30.534 8.57305 30.3739 8.63947 30.2069 8.63965H12.8852C12.7182 8.63947 12.558 8.57305 12.44 8.45496C12.3219 8.33688 12.2555 8.17677 12.2553 8.00976V6.24609ZM32.1649 13.0488C32.1649 12.8818 32.0986 12.7216 31.9805 12.6034C31.8623 12.4853 31.7021 12.4189 31.5351 12.4189H11.4836C11.3166 12.4189 11.1564 12.4853 11.0382 12.6034C10.9201 12.7216 10.8537 12.8818 10.8537 13.0488C10.8537 13.2159 10.9201 13.3761 11.0382 13.4942C11.1564 13.6123 11.3166 13.6787 11.4836 13.6787H31.5351C31.7021 13.6787 31.8623 13.6123 31.9805 13.4942C32.0986 13.3761 32.1649 13.2159 32.1649 13.0488ZM42.0334 9.92931C41.8159 9.8099 41.5769 9.73454 41.3302 9.70753C41.0835 9.68052 40.8339 9.7024 40.5956 9.77191C40.3574 9.84142 40.1352 9.9572 39.9417 10.1126C39.7482 10.2681 39.5873 10.4601 39.4681 10.6778L38.7819 11.9299L35.9439 17.1087V7.71582H40.6366C40.8037 7.71582 40.9639 7.64946 41.082 7.53133C41.2001 7.41321 41.2665 7.25299 41.2665 7.08594V3.86816C41.2655 2.99563 40.9185 2.15912 40.3015 1.54214C39.6845 0.925171 38.848 0.578127 37.9755 0.577148C37.9439 0.577148 37.9127 0.57866 37.8813 0.5795C37.8656 0.578408 37.8499 0.577148 37.8339 0.577148H10.203C9.36805 0.578082 8.56752 0.910194 7.9771 1.50062C7.38667 2.09105 7.05456 2.89157 7.05362 3.72656L7.05329 29.7172C5.7247 29.6978 4.4186 30.0611 3.29081 30.7637C2.16303 31.4663 1.26119 32.4785 0.692902 33.6795C0.124613 34.8806 -0.0861291 36.2198 0.0858217 37.5374C0.257773 38.8549 0.805155 40.0952 1.66266 41.1102C2.52016 42.1252 3.65157 42.872 4.92189 43.2616C6.19221 43.6512 7.5478 43.6671 8.82692 43.3074C10.106 42.9478 11.2547 42.2276 12.1357 41.2331C13.0168 40.2385 13.5932 39.0114 13.796 37.6982H29.3935V40.3018C29.3935 41.1704 29.7386 42.0036 30.3529 42.6178C30.9671 43.2321 31.8003 43.5771 32.6689 43.5771C33.5376 43.5771 34.3707 43.2321 34.985 42.6178C35.5992 42.0036 35.9443 41.1704 35.9443 40.3018L35.9439 24.9728L42.0956 13.7464L42.7812 12.4951C42.9007 12.2776 42.9761 12.0386 43.0032 11.7919C43.0303 11.5452 43.0085 11.2956 42.9391 11.0573C42.8696 10.819 42.7539 10.5967 42.5985 10.4032C42.4431 10.2097 42.2511 10.0486 42.0334 9.92931ZM35.9442 3.86816C35.9442 3.32944 36.1583 2.81278 36.5392 2.43185C36.9201 2.05092 37.4368 1.83691 37.9755 1.83691C38.5142 1.83691 39.0309 2.05092 39.4118 2.43185C39.7927 2.81278 40.0067 3.32944 40.0067 3.86816V6.45605H35.9442V3.86816ZM11.9504 39.3082C11.5127 40.1313 10.8788 40.8338 10.1048 41.3534C9.33077 41.873 8.44055 42.1937 7.51299 42.2871C6.58543 42.3805 5.64915 42.2437 4.78709 41.8888C3.92503 41.5339 3.1638 40.9719 2.57081 40.2526C1.97783 39.5332 1.5714 38.6787 1.38752 37.7648C1.20365 36.8509 1.24801 35.9057 1.51667 35.013C1.78532 34.1203 2.26999 33.3076 2.92774 32.647C3.58548 31.9863 4.39601 31.4981 5.28751 31.2255C5.99917 31.0059 6.74728 30.9296 7.4886 31.001C8.22992 31.0724 8.94973 31.2901 9.60641 31.6414C10.2637 31.9909 10.8458 32.4664 11.3193 33.0409C11.7929 33.6153 12.1486 34.2774 12.3663 34.9893C12.5839 35.7013 12.6593 36.4491 12.5879 37.1901C12.5165 37.9312 12.2999 38.6509 11.9504 39.3082ZM32.6689 42.3174C32.1345 42.3168 31.6221 42.1042 31.2443 41.7264C30.8664 41.3485 30.6538 40.8361 30.6532 40.3018V37.0684C30.6532 36.9013 30.5869 36.7411 30.4687 36.623C30.3506 36.5048 30.1904 36.4385 30.0233 36.4385C30.0092 36.4385 29.9953 36.4396 29.9814 36.4406C29.9674 36.4397 29.9536 36.4385 29.9394 36.4385H13.8716C13.8523 35.822 13.7512 35.2109 13.5709 34.6211C13.3071 33.7498 12.8732 32.9396 12.2942 32.2372C11.7152 31.5348 11.0026 30.9542 10.1977 30.5291C9.60548 30.2136 8.97066 29.9855 8.31305 29.8519L8.31339 3.72656C8.31397 3.22557 8.51324 2.74527 8.86749 2.39102C9.22174 2.03676 9.70205 1.83749 10.203 1.83691H35.389C34.9322 2.41537 34.684 3.13107 34.6845 3.86816V7.07779L34.6841 7.08594V19.4075L29.0952 29.606C29.0896 29.6163 29.0852 29.6267 29.0802 29.637C29.0768 29.6441 29.0731 29.6509 29.07 29.6581C29.0513 29.7011 29.0374 29.7462 29.0287 29.7924L29.0278 29.7963L28.4014 33.2477C27.1772 33.3552 25.9441 33.2979 24.7351 33.0774C24.1662 32.967 23.6038 32.8253 23.0505 32.6529C22.2827 32.425 21.6192 32.2286 20.677 32.2598C19.3128 32.3055 17.971 32.813 16.6889 33.7682C16.557 33.8687 16.4701 34.0172 16.447 34.1815C16.424 34.3457 16.4666 34.5124 16.5657 34.6454C16.6648 34.7784 16.8123 34.867 16.9763 34.8918C17.1402 34.9167 17.3074 34.876 17.4415 34.7784C18.5138 33.9796 19.6165 33.5558 20.7191 33.5188C21.4575 33.4936 21.9751 33.6479 22.6923 33.8606C23.2871 34.0458 23.8918 34.1977 24.5035 34.3158C25.9895 34.5861 27.5077 34.6328 29.0076 34.4543C29.0153 34.4534 29.0227 34.4517 29.0302 34.4505C29.0401 34.4491 29.0501 34.4475 29.06 34.4456C29.0708 34.4434 29.0815 34.4408 29.0921 34.438C29.1317 34.428 29.1701 34.4141 29.207 34.3966C29.2141 34.3933 29.2212 34.3897 29.2282 34.386C29.2743 34.362 29.3171 34.3323 29.3558 34.2976C29.3587 34.2951 29.3617 34.2928 29.3646 34.2902L32.2855 31.5817L32.2909 31.5761C32.3046 31.5631 32.3176 31.5494 32.3301 31.5351C32.3328 31.532 32.3359 31.5292 32.3386 31.5259C32.3533 31.5084 32.3671 31.4902 32.3798 31.4712C32.3837 31.4653 32.3871 31.4591 32.3909 31.4531C32.3972 31.443 32.4039 31.4331 32.4097 31.4225L34.6841 27.2717L34.6845 40.3018C34.6839 40.8361 34.4713 41.3485 34.0935 41.7264C33.7156 42.1042 33.2032 42.3168 32.6689 42.3174ZM30.1113 30.8812L30.6788 31.1923L30.7882 31.2522L29.8934 32.0818L30.1113 30.8812ZM34.7612 24.5098L34.7595 24.5129L31.6075 30.2647L31.0552 29.9619L30.5026 29.6591L39.5839 13.0878L40.6882 13.6932L34.7612 24.5098ZM41.6769 11.8887L41.2935 12.5884L41.0455 12.4525L40.1893 11.9831L40.5728 11.2832C40.6401 11.1606 40.7463 11.0639 40.8746 11.0084C41.003 10.9528 41.1462 10.9415 41.2816 10.9763C41.4171 11.0111 41.5371 11.09 41.6228 11.2005C41.7084 11.3111 41.7549 11.447 41.7548 11.5868C41.7551 11.6925 41.7283 11.7964 41.6769 11.8887Z"/>
</mask>
<path d="M8.68561 34.6305L5.98946 37.3268L5.20429 36.5415C5.14579 36.483 5.07634 36.4366 4.99991 36.405C4.92348 36.3733 4.84157 36.357 4.75885 36.357C4.67612 36.357 4.59421 36.3733 4.51778 36.405C4.44136 36.4367 4.37191 36.4831 4.31342 36.5416C4.25493 36.6001 4.20853 36.6695 4.17688 36.7459C4.14522 36.8224 4.12894 36.9043 4.12894 36.987C4.12894 37.0697 4.14524 37.1516 4.1769 37.2281C4.20856 37.3045 4.25497 37.3739 4.31346 37.4324L5.544 38.663C5.66215 38.7811 5.82236 38.8474 5.98941 38.8474C6.15646 38.8474 6.31668 38.7811 6.43482 38.663L9.57651 35.5214C9.69464 35.4032 9.761 35.243 9.761 35.0759C9.76099 34.9089 9.69461 34.7486 9.57647 34.6305C9.45833 34.5124 9.2981 34.446 9.13103 34.446C8.96396 34.446 8.80374 34.5124 8.68561 34.6305ZM12.8852 9.89941H30.2069C30.7079 9.89884 31.1882 9.69956 31.5425 9.34531C31.8967 8.99106 32.096 8.51075 32.0966 8.00976V6.24609C32.096 5.7451 31.8967 5.2648 31.5425 4.91055C31.1882 4.5563 30.7079 4.35702 30.2069 4.35644H12.8852C12.3842 4.35702 11.9039 4.5563 11.5496 4.91055C11.1954 5.2648 10.9961 5.7451 10.9955 6.24609V8.00976C10.9961 8.51075 11.1954 8.99106 11.5496 9.34531C11.9039 9.69956 12.3842 9.89884 12.8852 9.89941ZM12.2553 6.24609C12.2555 6.07909 12.3219 5.91898 12.44 5.8009C12.558 5.68281 12.7182 5.61639 12.8852 5.61621H30.2069C30.3739 5.61639 30.534 5.68281 30.6521 5.8009C30.7702 5.91898 30.8366 6.07909 30.8368 6.24609V8.00976C30.8366 8.17677 30.7702 8.33688 30.6521 8.45496C30.534 8.57305 30.3739 8.63947 30.2069 8.63965H12.8852C12.7182 8.63947 12.558 8.57305 12.44 8.45496C12.3219 8.33688 12.2555 8.17677 12.2553 8.00976V6.24609ZM32.1649 13.0488C32.1649 12.8818 32.0986 12.7216 31.9805 12.6034C31.8623 12.4853 31.7021 12.4189 31.5351 12.4189H11.4836C11.3166 12.4189 11.1564 12.4853 11.0382 12.6034C10.9201 12.7216 10.8537 12.8818 10.8537 13.0488C10.8537 13.2159 10.9201 13.3761 11.0382 13.4942C11.1564 13.6123 11.3166 13.6787 11.4836 13.6787H31.5351C31.7021 13.6787 31.8623 13.6123 31.9805 13.4942C32.0986 13.3761 32.1649 13.2159 32.1649 13.0488ZM42.0334 9.92931C41.8159 9.8099 41.5769 9.73454 41.3302 9.70753C41.0835 9.68052 40.8339 9.7024 40.5956 9.77191C40.3574 9.84142 40.1352 9.9572 39.9417 10.1126C39.7482 10.2681 39.5873 10.4601 39.4681 10.6778L38.7819 11.9299L35.9439 17.1087V7.71582H40.6366C40.8037 7.71582 40.9639 7.64946 41.082 7.53133C41.2001 7.41321 41.2665 7.25299 41.2665 7.08594V3.86816C41.2655 2.99563 40.9185 2.15912 40.3015 1.54214C39.6845 0.925171 38.848 0.578127 37.9755 0.577148C37.9439 0.577148 37.9127 0.57866 37.8813 0.5795C37.8656 0.578408 37.8499 0.577148 37.8339 0.577148H10.203C9.36805 0.578082 8.56752 0.910194 7.9771 1.50062C7.38667 2.09105 7.05456 2.89157 7.05362 3.72656L7.05329 29.7172C5.7247 29.6978 4.4186 30.0611 3.29081 30.7637C2.16303 31.4663 1.26119 32.4785 0.692902 33.6795C0.124613 34.8806 -0.0861291 36.2198 0.0858217 37.5374C0.257773 38.8549 0.805155 40.0952 1.66266 41.1102C2.52016 42.1252 3.65157 42.872 4.92189 43.2616C6.19221 43.6512 7.5478 43.6671 8.82692 43.3074C10.106 42.9478 11.2547 42.2276 12.1357 41.2331C13.0168 40.2385 13.5932 39.0114 13.796 37.6982H29.3935V40.3018C29.3935 41.1704 29.7386 42.0036 30.3529 42.6178C30.9671 43.2321 31.8003 43.5771 32.6689 43.5771C33.5376 43.5771 34.3707 43.2321 34.985 42.6178C35.5992 42.0036 35.9443 41.1704 35.9443 40.3018L35.9439 24.9728L42.0956 13.7464L42.7812 12.4951C42.9007 12.2776 42.9761 12.0386 43.0032 11.7919C43.0303 11.5452 43.0085 11.2956 42.9391 11.0573C42.8696 10.819 42.7539 10.5967 42.5985 10.4032C42.4431 10.2097 42.2511 10.0486 42.0334 9.92931ZM35.9442 3.86816C35.9442 3.32944 36.1583 2.81278 36.5392 2.43185C36.9201 2.05092 37.4368 1.83691 37.9755 1.83691C38.5142 1.83691 39.0309 2.05092 39.4118 2.43185C39.7927 2.81278 40.0067 3.32944 40.0067 3.86816V6.45605H35.9442V3.86816ZM11.9504 39.3082C11.5127 40.1313 10.8788 40.8338 10.1048 41.3534C9.33077 41.873 8.44055 42.1937 7.51299 42.2871C6.58543 42.3805 5.64915 42.2437 4.78709 41.8888C3.92503 41.5339 3.1638 40.9719 2.57081 40.2526C1.97783 39.5332 1.5714 38.6787 1.38752 37.7648C1.20365 36.8509 1.24801 35.9057 1.51667 35.013C1.78532 34.1203 2.26999 33.3076 2.92774 32.647C3.58548 31.9863 4.39601 31.4981 5.28751 31.2255C5.99917 31.0059 6.74728 30.9296 7.4886 31.001C8.22992 31.0724 8.94973 31.2901 9.60641 31.6414C10.2637 31.9909 10.8458 32.4664 11.3193 33.0409C11.7929 33.6153 12.1486 34.2774 12.3663 34.9893C12.5839 35.7013 12.6593 36.4491 12.5879 37.1901C12.5165 37.9312 12.2999 38.6509 11.9504 39.3082ZM32.6689 42.3174C32.1345 42.3168 31.6221 42.1042 31.2443 41.7264C30.8664 41.3485 30.6538 40.8361 30.6532 40.3018V37.0684C30.6532 36.9013 30.5869 36.7411 30.4687 36.623C30.3506 36.5048 30.1904 36.4385 30.0233 36.4385C30.0092 36.4385 29.9953 36.4396 29.9814 36.4406C29.9674 36.4397 29.9536 36.4385 29.9394 36.4385H13.8716C13.8523 35.822 13.7512 35.2109 13.5709 34.6211C13.3071 33.7498 12.8732 32.9396 12.2942 32.2372C11.7152 31.5348 11.0026 30.9542 10.1977 30.5291C9.60548 30.2136 8.97066 29.9855 8.31305 29.8519L8.31339 3.72656C8.31397 3.22557 8.51324 2.74527 8.86749 2.39102C9.22174 2.03676 9.70205 1.83749 10.203 1.83691H35.389C34.9322 2.41537 34.684 3.13107 34.6845 3.86816V7.07779L34.6841 7.08594V19.4075L29.0952 29.606C29.0896 29.6163 29.0852 29.6267 29.0802 29.637C29.0768 29.6441 29.0731 29.6509 29.07 29.6581C29.0513 29.7011 29.0374 29.7462 29.0287 29.7924L29.0278 29.7963L28.4014 33.2477C27.1772 33.3552 25.9441 33.2979 24.7351 33.0774C24.1662 32.967 23.6038 32.8253 23.0505 32.6529C22.2827 32.425 21.6192 32.2286 20.677 32.2598C19.3128 32.3055 17.971 32.813 16.6889 33.7682C16.557 33.8687 16.4701 34.0172 16.447 34.1815C16.424 34.3457 16.4666 34.5124 16.5657 34.6454C16.6648 34.7784 16.8123 34.867 16.9763 34.8918C17.1402 34.9167 17.3074 34.876 17.4415 34.7784C18.5138 33.9796 19.6165 33.5558 20.7191 33.5188C21.4575 33.4936 21.9751 33.6479 22.6923 33.8606C23.2871 34.0458 23.8918 34.1977 24.5035 34.3158C25.9895 34.5861 27.5077 34.6328 29.0076 34.4543C29.0153 34.4534 29.0227 34.4517 29.0302 34.4505C29.0401 34.4491 29.0501 34.4475 29.06 34.4456C29.0708 34.4434 29.0815 34.4408 29.0921 34.438C29.1317 34.428 29.1701 34.4141 29.207 34.3966C29.2141 34.3933 29.2212 34.3897 29.2282 34.386C29.2743 34.362 29.3171 34.3323 29.3558 34.2976C29.3587 34.2951 29.3617 34.2928 29.3646 34.2902L32.2855 31.5817L32.2909 31.5761C32.3046 31.5631 32.3176 31.5494 32.3301 31.5351C32.3328 31.532 32.3359 31.5292 32.3386 31.5259C32.3533 31.5084 32.3671 31.4902 32.3798 31.4712C32.3837 31.4653 32.3871 31.4591 32.3909 31.4531C32.3972 31.443 32.4039 31.4331 32.4097 31.4225L34.6841 27.2717L34.6845 40.3018C34.6839 40.8361 34.4713 41.3485 34.0935 41.7264C33.7156 42.1042 33.2032 42.3168 32.6689 42.3174ZM30.1113 30.8812L30.6788 31.1923L30.7882 31.2522L29.8934 32.0818L30.1113 30.8812ZM34.7612 24.5098L34.7595 24.5129L31.6075 30.2647L31.0552 29.9619L30.5026 29.6591L39.5839 13.0878L40.6882 13.6932L34.7612 24.5098ZM41.6769 11.8887L41.2935 12.5884L41.0455 12.4525L40.1893 11.9831L40.5728 11.2832C40.6401 11.1606 40.7463 11.0639 40.8746 11.0084C41.003 10.9528 41.1462 10.9415 41.2816 10.9763C41.4171 11.0111 41.5371 11.09 41.6228 11.2005C41.7084 11.3111 41.7549 11.447 41.7548 11.5868C41.7551 11.6925 41.7283 11.7964 41.6769 11.8887Z" fill="#F4F4F4"/>
<path d="M8.68561 34.6305L5.98946 37.3268L5.20429 36.5415C5.14579 36.483 5.07634 36.4366 4.99991 36.405C4.92348 36.3733 4.84157 36.357 4.75885 36.357C4.67612 36.357 4.59421 36.3733 4.51778 36.405C4.44136 36.4367 4.37191 36.4831 4.31342 36.5416C4.25493 36.6001 4.20853 36.6695 4.17688 36.7459C4.14522 36.8224 4.12894 36.9043 4.12894 36.987C4.12894 37.0697 4.14524 37.1516 4.1769 37.2281C4.20856 37.3045 4.25497 37.3739 4.31346 37.4324L5.544 38.663C5.66215 38.7811 5.82236 38.8474 5.98941 38.8474C6.15646 38.8474 6.31668 38.7811 6.43482 38.663L9.57651 35.5214C9.69464 35.4032 9.761 35.243 9.761 35.0759C9.76099 34.9089 9.69461 34.7486 9.57647 34.6305C9.45833 34.5124 9.2981 34.446 9.13103 34.446C8.96396 34.446 8.80374 34.5124 8.68561 34.6305ZM12.8852 9.89941H30.2069C30.7079 9.89884 31.1882 9.69956 31.5425 9.34531C31.8967 8.99106 32.096 8.51075 32.0966 8.00976V6.24609C32.096 5.7451 31.8967 5.2648 31.5425 4.91055C31.1882 4.5563 30.7079 4.35702 30.2069 4.35644H12.8852C12.3842 4.35702 11.9039 4.5563 11.5496 4.91055C11.1954 5.2648 10.9961 5.7451 10.9955 6.24609V8.00976C10.9961 8.51075 11.1954 8.99106 11.5496 9.34531C11.9039 9.69956 12.3842 9.89884 12.8852 9.89941ZM12.2553 6.24609C12.2555 6.07909 12.3219 5.91898 12.44 5.8009C12.558 5.68281 12.7182 5.61639 12.8852 5.61621H30.2069C30.3739 5.61639 30.534 5.68281 30.6521 5.8009C30.7702 5.91898 30.8366 6.07909 30.8368 6.24609V8.00976C30.8366 8.17677 30.7702 8.33688 30.6521 8.45496C30.534 8.57305 30.3739 8.63947 30.2069 8.63965H12.8852C12.7182 8.63947 12.558 8.57305 12.44 8.45496C12.3219 8.33688 12.2555 8.17677 12.2553 8.00976V6.24609ZM32.1649 13.0488C32.1649 12.8818 32.0986 12.7216 31.9805 12.6034C31.8623 12.4853 31.7021 12.4189 31.5351 12.4189H11.4836C11.3166 12.4189 11.1564 12.4853 11.0382 12.6034C10.9201 12.7216 10.8537 12.8818 10.8537 13.0488C10.8537 13.2159 10.9201 13.3761 11.0382 13.4942C11.1564 13.6123 11.3166 13.6787 11.4836 13.6787H31.5351C31.7021 13.6787 31.8623 13.6123 31.9805 13.4942C32.0986 13.3761 32.1649 13.2159 32.1649 13.0488ZM42.0334 9.92931C41.8159 9.8099 41.5769 9.73454 41.3302 9.70753C41.0835 9.68052 40.8339 9.7024 40.5956 9.77191C40.3574 9.84142 40.1352 9.9572 39.9417 10.1126C39.7482 10.2681 39.5873 10.4601 39.4681 10.6778L38.7819 11.9299L35.9439 17.1087V7.71582H40.6366C40.8037 7.71582 40.9639 7.64946 41.082 7.53133C41.2001 7.41321 41.2665 7.25299 41.2665 7.08594V3.86816C41.2655 2.99563 40.9185 2.15912 40.3015 1.54214C39.6845 0.925171 38.848 0.578127 37.9755 0.577148C37.9439 0.577148 37.9127 0.57866 37.8813 0.5795C37.8656 0.578408 37.8499 0.577148 37.8339 0.577148H10.203C9.36805 0.578082 8.56752 0.910194 7.9771 1.50062C7.38667 2.09105 7.05456 2.89157 7.05362 3.72656L7.05329 29.7172C5.7247 29.6978 4.4186 30.0611 3.29081 30.7637C2.16303 31.4663 1.26119 32.4785 0.692902 33.6795C0.124613 34.8806 -0.0861291 36.2198 0.0858217 37.5374C0.257773 38.8549 0.805155 40.0952 1.66266 41.1102C2.52016 42.1252 3.65157 42.872 4.92189 43.2616C6.19221 43.6512 7.5478 43.6671 8.82692 43.3074C10.106 42.9478 11.2547 42.2276 12.1357 41.2331C13.0168 40.2385 13.5932 39.0114 13.796 37.6982H29.3935V40.3018C29.3935 41.1704 29.7386 42.0036 30.3529 42.6178C30.9671 43.2321 31.8003 43.5771 32.6689 43.5771C33.5376 43.5771 34.3707 43.2321 34.985 42.6178C35.5992 42.0036 35.9443 41.1704 35.9443 40.3018L35.9439 24.9728L42.0956 13.7464L42.7812 12.4951C42.9007 12.2776 42.9761 12.0386 43.0032 11.7919C43.0303 11.5452 43.0085 11.2956 42.9391 11.0573C42.8696 10.819 42.7539 10.5967 42.5985 10.4032C42.4431 10.2097 42.2511 10.0486 42.0334 9.92931ZM35.9442 3.86816C35.9442 3.32944 36.1583 2.81278 36.5392 2.43185C36.9201 2.05092 37.4368 1.83691 37.9755 1.83691C38.5142 1.83691 39.0309 2.05092 39.4118 2.43185C39.7927 2.81278 40.0067 3.32944 40.0067 3.86816V6.45605H35.9442V3.86816ZM11.9504 39.3082C11.5127 40.1313 10.8788 40.8338 10.1048 41.3534C9.33077 41.873 8.44055 42.1937 7.51299 42.2871C6.58543 42.3805 5.64915 42.2437 4.78709 41.8888C3.92503 41.5339 3.1638 40.9719 2.57081 40.2526C1.97783 39.5332 1.5714 38.6787 1.38752 37.7648C1.20365 36.8509 1.24801 35.9057 1.51667 35.013C1.78532 34.1203 2.26999 33.3076 2.92774 32.647C3.58548 31.9863 4.39601 31.4981 5.28751 31.2255C5.99917 31.0059 6.74728 30.9296 7.4886 31.001C8.22992 31.0724 8.94973 31.2901 9.60641 31.6414C10.2637 31.9909 10.8458 32.4664 11.3193 33.0409C11.7929 33.6153 12.1486 34.2774 12.3663 34.9893C12.5839 35.7013 12.6593 36.4491 12.5879 37.1901C12.5165 37.9312 12.2999 38.6509 11.9504 39.3082ZM32.6689 42.3174C32.1345 42.3168 31.6221 42.1042 31.2443 41.7264C30.8664 41.3485 30.6538 40.8361 30.6532 40.3018V37.0684C30.6532 36.9013 30.5869 36.7411 30.4687 36.623C30.3506 36.5048 30.1904 36.4385 30.0233 36.4385C30.0092 36.4385 29.9953 36.4396 29.9814 36.4406C29.9674 36.4397 29.9536 36.4385 29.9394 36.4385H13.8716C13.8523 35.822 13.7512 35.2109 13.5709 34.6211C13.3071 33.7498 12.8732 32.9396 12.2942 32.2372C11.7152 31.5348 11.0026 30.9542 10.1977 30.5291C9.60548 30.2136 8.97066 29.9855 8.31305 29.8519L8.31339 3.72656C8.31397 3.22557 8.51324 2.74527 8.86749 2.39102C9.22174 2.03676 9.70205 1.83749 10.203 1.83691H35.389C34.9322 2.41537 34.684 3.13107 34.6845 3.86816V7.07779L34.6841 7.08594V19.4075L29.0952 29.606C29.0896 29.6163 29.0852 29.6267 29.0802 29.637C29.0768 29.6441 29.0731 29.6509 29.07 29.6581C29.0513 29.7011 29.0374 29.7462 29.0287 29.7924L29.0278 29.7963L28.4014 33.2477C27.1772 33.3552 25.9441 33.2979 24.7351 33.0774C24.1662 32.967 23.6038 32.8253 23.0505 32.6529C22.2827 32.425 21.6192 32.2286 20.677 32.2598C19.3128 32.3055 17.971 32.813 16.6889 33.7682C16.557 33.8687 16.4701 34.0172 16.447 34.1815C16.424 34.3457 16.4666 34.5124 16.5657 34.6454C16.6648 34.7784 16.8123 34.867 16.9763 34.8918C17.1402 34.9167 17.3074 34.876 17.4415 34.7784C18.5138 33.9796 19.6165 33.5558 20.7191 33.5188C21.4575 33.4936 21.9751 33.6479 22.6923 33.8606C23.2871 34.0458 23.8918 34.1977 24.5035 34.3158C25.9895 34.5861 27.5077 34.6328 29.0076 34.4543C29.0153 34.4534 29.0227 34.4517 29.0302 34.4505C29.0401 34.4491 29.0501 34.4475 29.06 34.4456C29.0708 34.4434 29.0815 34.4408 29.0921 34.438C29.1317 34.428 29.1701 34.4141 29.207 34.3966C29.2141 34.3933 29.2212 34.3897 29.2282 34.386C29.2743 34.362 29.3171 34.3323 29.3558 34.2976C29.3587 34.2951 29.3617 34.2928 29.3646 34.2902L32.2855 31.5817L32.2909 31.5761C32.3046 31.5631 32.3176 31.5494 32.3301 31.5351C32.3328 31.532 32.3359 31.5292 32.3386 31.5259C32.3533 31.5084 32.3671 31.4902 32.3798 31.4712C32.3837 31.4653 32.3871 31.4591 32.3909 31.4531C32.3972 31.443 32.4039 31.4331 32.4097 31.4225L34.6841 27.2717L34.6845 40.3018C34.6839 40.8361 34.4713 41.3485 34.0935 41.7264C33.7156 42.1042 33.2032 42.3168 32.6689 42.3174ZM30.1113 30.8812L30.6788 31.1923L30.7882 31.2522L29.8934 32.0818L30.1113 30.8812ZM34.7612 24.5098L34.7595 24.5129L31.6075 30.2647L31.0552 29.9619L30.5026 29.6591L39.5839 13.0878L40.6882 13.6932L34.7612 24.5098ZM41.6769 11.8887L41.2935 12.5884L41.0455 12.4525L40.1893 11.9831L40.5728 11.2832C40.6401 11.1606 40.7463 11.0639 40.8746 11.0084C41.003 10.9528 41.1462 10.9415 41.2816 10.9763C41.4171 11.0111 41.5371 11.09 41.6228 11.2005C41.7084 11.3111 41.7549 11.447 41.7548 11.5868C41.7551 11.6925 41.7283 11.7964 41.6769 11.8887Z" stroke="#F4F4F4" stroke-width="0.149057" mask="url(#path-2-outside-1_1_23840)"/>
</g>
<defs>
<clipPath id="clip0_1_23840">
<rect width="43" height="43" fill="white" transform="translate(0.0147705 0.576904)"/>
</clipPath>
</defs>
</svg>
