<svg width="56" height="58" viewBox="0 0 56 58" fill="none" xmlns="http://www.w3.org/2000/svg">
<path d="M55.6602 0.0771484H8.27381C3.70431 0.0771484 -3.56971e-06 3.78146 -3.56971e-06 8.35096V48.9678C-3.56971e-06 53.5373 3.70431 57.2416 8.2738 57.2416H55.6602V0.0771484Z" fill="#A95210"/>
<path d="M18.9997 26.3065C20.9471 26.3065 22.5257 24.7279 22.5257 22.7806C22.5257 20.8332 20.9471 19.2546 18.9997 19.2546C17.0524 19.2546 15.4738 20.8332 15.4738 22.7806C15.4738 24.7279 17.0524 26.3065 18.9997 26.3065Z" stroke="#FCFCFC" stroke-width="0.752353" stroke-linecap="round" stroke-linejoin="round"/>
<path d="M38.9791 26.3065C40.9264 26.3065 42.505 24.7279 42.505 22.7806C42.505 20.8332 40.9264 19.2546 38.9791 19.2546C37.0318 19.2546 35.4532 20.8332 35.4532 22.7806C35.4532 24.7279 37.0318 26.3065 38.9791 26.3065Z" stroke="#FCFCFC" stroke-width="0.752353" stroke-linecap="round" stroke-linejoin="round"/>
<path d="M17.8721 39.2344V43.0364C17.8721 43.691 17.3456 44.2187 16.691 44.2187C16.5356 44.2191 16.3816 44.1888 16.238 44.1296C16.0943 44.0703 15.9638 43.9833 15.8539 43.8734C15.744 43.7635 15.6569 43.633 15.5977 43.4894C15.5384 43.3457 15.5082 43.1918 15.5087 43.0364V39.2344M22.5379 39.2344V43.0364C22.5379 43.691 22.0114 44.2187 21.3568 44.2187C21.2015 44.219 21.0477 44.1886 20.9041 44.1293C20.7606 44.07 20.6302 43.9829 20.5204 43.873C20.4107 43.7631 20.3238 43.6327 20.2646 43.4891C20.2054 43.3455 20.1752 43.1917 20.1756 43.0364V39.2344" stroke="#FCFCFC" stroke-width="0.752164" stroke-linecap="round" stroke-linejoin="round"/>
<path d="M38.9809 40.4189V43.6063C38.9809 44.2609 38.4544 44.7874 37.7998 44.7874C37.6445 44.7879 37.4906 44.7576 37.3471 44.6985C37.2035 44.6393 37.073 44.5523 36.9631 44.4425C36.8533 44.3328 36.7662 44.2024 36.7068 44.0589C36.6475 43.9154 36.6172 43.7616 36.6175 43.6063V40.4189M41.3655 40.4001V43.5875C41.3655 44.2421 40.8378 44.7686 40.1832 44.7686C40.028 44.7689 39.8743 44.7386 39.7308 44.6793C39.5874 44.6201 39.457 44.533 39.3473 44.4233C39.2376 44.3136 39.1506 44.1833 39.0914 44.0398C39.0321 43.8964 39.0017 43.7427 39.0021 43.5875V40.4001" stroke="#FCFCFC" stroke-width="0.752164" stroke-linecap="round" stroke-linejoin="round"/>
<path d="M26.958 12.8063C25.4231 12.8063 24.1786 13.8699 24.1786 15.8056C24.1786 17.7412 26.7723 19.6052 28.9971 21.6043C31.2207 19.6052 33.8274 17.7647 33.8274 15.8056C33.8274 13.8464 32.5816 12.8052 31.0468 12.8052C30.2382 12.8052 29.5048 13.4104 28.9971 14.0051C28.4894 13.414 27.7654 12.8063 26.958 12.8063Z" stroke="#FCFCFC" stroke-width="0.752164" stroke-linecap="round" stroke-linejoin="round"/>
<path d="M33.1035 30.1062V34.1044C33.1035 34.3418 33.2797 34.5333 33.4971 34.5333H35.0602C35.2777 34.5333 35.454 34.3418 35.454 34.1044V27.5864" stroke="#FCFCFC" stroke-width="0.752164" stroke-linecap="round" stroke-linejoin="round"/>
<path d="M33.1129 30.1672C33.1761 29.4344 33.5119 28.7519 34.054 28.2547C34.596 27.7575 35.3048 27.4816 36.0404 27.4817" stroke="#FCFCFC" stroke-width="0.751819" stroke-linecap="round" stroke-linejoin="round"/>
<path d="M44.856 30.1333V34.1044C44.856 34.3418 44.6797 34.5334 44.4611 34.5334H42.898C42.6806 34.5334 42.5055 34.3418 42.5055 34.1044V27.6323" stroke="#FCFCFC" stroke-width="0.752164" stroke-linecap="round" stroke-linejoin="round"/>
<path d="M44.8443 30.1672C44.781 29.4344 44.4452 28.7519 43.9031 28.2547C43.3611 27.7575 42.6522 27.4816 41.9167 27.4817" stroke="#FCFCFC" stroke-width="0.751819" stroke-linecap="round" stroke-linejoin="round"/>
<path d="M35.4516 27.5629V39.2344C35.4516 39.889 35.9722 40.4096 36.6269 40.4096H41.3279C41.4826 40.411 41.6361 40.3816 41.7793 40.3231C41.9225 40.2645 42.0526 40.178 42.1621 40.0685C42.2715 39.9591 42.358 39.829 42.4166 39.6858C42.4751 39.5426 42.5046 39.3891 42.5031 39.2344L42.4115 27.671M41.9319 27.483H36.0228M35.454 35.7522H42.6465M38.9856 39.9595V38.6762" stroke="#FCFCFC" stroke-width="0.752164"/>
<path d="M17.2375 27.4817C13.1335 38.0496 17.2398 27.4817 13.1241 38.059C13.1241 38.7136 13.5918 39.2343 14.1889 39.2343H23.813C24.4089 39.2343 25.0635 38.7524 24.8778 38.059C20.7809 27.5252 24.9142 38.059 20.7644 27.4817H17.2375V27.4817Z" stroke="#FCFCFC" stroke-width="0.752164" stroke-linecap="round" stroke-linejoin="round"/>
<path d="M13.7107 26.3065C12.7371 26.3065 11.9478 25.5172 11.9478 24.5435C11.9478 23.5698 12.7371 22.7805 13.7107 22.7805C14.6844 22.7805 15.4737 23.5698 15.4737 24.5435C15.4737 25.5172 14.6844 26.3065 13.7107 26.3065Z" stroke="#FCFCFC" stroke-width="0.752132"/>
</svg>
