<svg width="56" height="58" viewBox="0 0 56 58" fill="none" xmlns="http://www.w3.org/2000/svg">
<path d="M55.6602 0.817749H8.27381C3.70431 0.817749 -3.56971e-06 4.52206 -3.56971e-06 9.09156V49.7084C-3.56971e-06 54.2779 3.70431 57.9822 8.2738 57.9822H55.6602V0.817749Z" fill="#A95210"/>
<g clip-path="url(#clip0_1_22613)">
<path d="M38.6075 18.9726L42.8734 17.8681L27.8586 13.9806L12.7868 17.8684L18.3051 19.2917V26.289L18.7359 26.4489C17.2348 28.382 16.3375 30.8213 16.3375 33.4701C16.3375 39.7281 21.3436 44.8193 27.4971 44.8193C33.6505 44.8193 38.6567 39.7281 38.6567 33.4701C38.6567 30.8032 37.7469 28.3489 36.2272 26.4096L36.5521 26.2809V19.5048L37.9269 19.1463V21.639L37.302 22.8767V25.6903H39.3642V22.8316L38.6238 21.6251L38.6075 18.9726V18.9726ZM27.8581 15.0298L38.8208 17.8681L27.8581 20.7065L16.8538 17.8684L27.8581 15.0298V15.0298ZM21.6742 27.5394C21.0247 27.4458 20.3541 27.3355 19.6742 27.2086L19.3621 27.1504L19.5629 26.9005C19.593 26.8631 19.6244 26.8269 19.6549 26.7899L21.6742 27.5394ZM17.2842 32.7968C17.389 31.1447 17.8885 29.5235 18.7286 28.1074L18.7963 27.9936L18.9249 28.0192C19.8457 28.2011 20.7459 28.3545 21.6004 28.475L21.808 28.5043L21.7563 28.7109C21.4353 29.9946 21.2506 31.3747 21.2075 32.8148L21.2019 32.9987H17.2714L17.2842 32.7968ZM18.7956 38.9455L18.728 38.8314C17.8883 37.4155 17.389 35.8003 17.2842 34.1487L17.2714 33.952H21.2019L21.2075 34.1306C21.2506 35.5705 21.4352 36.9482 21.7562 38.2317L21.8079 38.4367L21.6003 38.4652C20.7422 38.5862 19.8419 38.7391 18.9243 38.9204L18.7956 38.9455V38.9455ZM23.6678 43.1209C22.0725 42.4617 20.6533 41.3966 19.5636 40.0406L19.3627 39.7905L19.6751 39.7324C20.4493 39.5885 21.2068 39.4657 21.9264 39.3675L22.0781 39.3468L22.1284 39.494C22.581 40.8202 23.1715 41.9404 23.8833 42.8234L24.3505 43.403L23.6678 43.1209ZM27.0537 43.849L26.8117 43.7899C25.3312 43.4139 23.9792 41.8371 23.1105 39.4638L23.0237 39.2328L23.2636 39.2077C24.456 39.0833 25.6698 39.0103 26.8546 38.9908L27.0537 38.9877V43.849H27.0537ZM27.0537 38.048L26.86 38.0509C25.5607 38.0717 24.2271 38.1566 22.9054 38.3031L22.7432 38.3208L22.7005 38.1628C22.3697 36.9043 22.1781 35.5558 22.132 34.1428L22.125 33.952H27.0537V38.048V38.048ZM22.125 32.9987L22.1315 32.8027C22.1775 31.3896 22.3686 30.0354 22.6994 28.7768L22.7409 28.6191L22.9008 28.6369C23.6445 28.7192 24.3915 28.7812 25.1355 28.824L27.0536 29.5359V32.9987H22.125V32.9987ZM30.1817 28.8045C30.8181 28.7629 31.4566 28.7072 32.0935 28.6367L32.2534 28.619L32.2949 28.777C32.6257 30.0354 32.8169 31.3892 32.8631 32.8027L32.8696 32.9987H27.9285V29.6972L30.1817 28.8045ZM27.9285 33.952H32.8696L32.8631 34.1428C32.8169 35.5563 32.6258 36.9078 32.295 38.1661L32.2534 38.3226L32.0935 38.3041C30.7713 38.1575 29.4271 38.0722 28.1281 38.0513L27.9285 38.048V33.952H27.9285ZM28.1765 43.7899L27.9285 43.849V38.9877L28.1341 38.9908C29.3184 39.0103 30.5313 39.0833 31.7243 39.2078L31.9691 39.233L31.8789 39.464C31.0101 41.8372 29.6571 43.4139 28.1765 43.7899ZM35.4305 40.0407C34.341 41.3964 32.922 42.4615 31.3268 43.1207L30.6439 43.4029L31.1112 42.8232C31.8231 41.9401 32.4136 40.8201 32.8661 39.4941L32.9164 39.347L33.0681 39.3677C33.7887 39.466 34.546 39.5887 35.319 39.7325L35.6314 39.7905L35.4305 40.0407ZM37.7099 34.1487C37.6051 35.8003 37.1059 37.4186 36.2662 38.8345L36.1985 38.947L36.0698 38.9208C35.1526 38.7397 34.2524 38.586 33.3942 38.465L33.1866 38.4355L33.2383 38.2288C33.5593 36.9456 33.7439 35.5709 33.787 34.1307L33.7926 33.952H37.7228L37.7099 34.1487V34.1487ZM37.7099 32.7968L37.7228 32.9987H33.7925L33.787 32.8148C33.7439 31.3747 33.5593 29.9943 33.2383 28.711L33.1866 28.5046L33.3942 28.4756C34.2523 28.3547 35.1525 28.2014 36.0698 28.0202L36.1985 27.9948L36.2661 28.1089C37.1059 29.5247 37.6051 31.1451 37.7099 32.7968ZM35.431 26.9003L35.6316 27.15L35.3198 27.2084C34.6472 27.3344 34.0149 27.4404 33.3971 27.5307L35.3211 26.7685C35.3577 26.8125 35.3952 26.8557 35.431 26.9003V26.9003ZM35.5523 25.586L27.704 28.6947L19.3049 25.5779V19.5495L27.8586 21.7557L35.5523 19.7637V25.586V25.586Z" fill="#FCFCFC"/>
</g>
<defs>
<clipPath id="clip0_1_22613">
<rect width="30.0866" height="30.8387" fill="white" transform="translate(12.7868 13.9806)"/>
</clipPath>
</defs>
</svg>
