<svg width="48" height="45" viewBox="0 0 48 45" fill="none" xmlns="http://www.w3.org/2000/svg">
<g clip-path="url(#clip0_1_23847)">
<path d="M40.6633 5.388C40.6633 5.21706 40.5906 5.05312 40.4611 4.93225C40.3316 4.81138 40.1559 4.74347 39.9728 4.74347H34.9086C34.7254 4.74347 34.5498 4.81138 34.4203 4.93225C34.2908 5.05312 34.218 5.21706 34.218 5.388C34.218 5.55894 34.2908 5.72288 34.4203 5.84375C34.5498 5.96463 34.7254 6.03253 34.9086 6.03253H35.8294C36.2576 6.03304 36.6752 6.15721 37.0248 6.388C37.3745 6.61879 37.6391 6.9449 37.7823 7.3216H34.9086C34.7254 7.3216 34.5498 7.3895 34.4203 7.51037C34.2908 7.63125 34.218 7.79519 34.218 7.96613C34.218 8.13707 34.2908 8.30101 34.4203 8.42188C34.5498 8.54275 34.7254 8.61066 34.9086 8.61066H37.7823C37.6391 8.98734 37.3745 9.31345 37.0248 9.54424C36.6752 9.77503 36.2576 9.8992 35.8294 9.89972H34.9086C34.7734 9.89972 34.6411 9.93677 34.5282 10.0063C34.4154 10.0758 34.3268 10.1747 34.2737 10.2908C34.2205 10.4068 34.205 10.5349 34.2291 10.6591C34.2531 10.7833 34.3158 10.8981 34.4092 10.9894L38.0922 14.5885C38.2187 14.7121 38.3927 14.7837 38.5758 14.7877C38.7589 14.7916 38.9362 14.7274 39.0687 14.6094C39.2011 14.4913 39.2779 14.3289 39.2821 14.158C39.2863 13.9871 39.2176 13.8216 39.0911 13.698L36.4668 11.1337C37.1407 11.0142 37.7613 10.7106 38.2501 10.2614C38.7388 9.81219 39.0736 9.23762 39.2119 8.61057H39.9728C40.1559 8.61057 40.3316 8.54267 40.4611 8.42179C40.5906 8.30092 40.6633 8.13698 40.6633 7.96604C40.6633 7.7951 40.5906 7.63116 40.4611 7.51029C40.3316 7.38941 40.1559 7.32151 39.9728 7.32151H39.2128C39.1104 6.85393 38.8976 6.41355 38.5898 6.03245H39.9728C40.1559 6.03245 40.3316 5.96454 40.4611 5.84367C40.5906 5.72279 40.6633 5.55894 40.6633 5.388ZM24.3199 21.7106V18.0399C24.3199 17.869 24.2471 17.705 24.1176 17.5841C23.9881 17.4633 23.8124 17.3954 23.6293 17.3954C23.4461 17.3954 23.2705 17.4633 23.141 17.5841C23.0115 17.705 22.9387 17.869 22.9387 18.0399V21.6987L19.9077 20.614C19.7371 20.5548 19.5485 20.5608 19.3827 20.6307C19.2169 20.7006 19.0873 20.8288 19.0222 20.9873C18.9571 21.1459 18.9616 21.322 19.0348 21.4775C19.108 21.6329 19.244 21.7551 19.4132 21.8175L22.5283 22.9324L20.2837 25.7278C20.1739 25.8646 20.1267 26.0365 20.1527 26.2057C20.1787 26.375 20.2756 26.5276 20.4222 26.6302C20.5687 26.7327 20.7529 26.7767 20.9342 26.7525C21.1156 26.7282 21.2791 26.6378 21.389 26.501L23.6434 23.6934L26.0272 26.5136C26.1407 26.6478 26.3066 26.7345 26.4885 26.7545C26.6704 26.7745 26.8534 26.7263 26.9972 26.6204C27.141 26.5145 27.2338 26.3597 27.2553 26.1899C27.2767 26.0201 27.225 25.8494 27.1116 25.7151L24.76 22.9331L27.9848 21.8202C28.1542 21.7593 28.2911 21.6386 28.3658 21.4842C28.4406 21.3298 28.4472 21.1542 28.3843 20.9952C28.3213 20.8363 28.1939 20.7069 28.0295 20.635C27.8651 20.5632 27.677 20.5546 27.5059 20.6112L24.3199 21.7106ZM37.4407 0.0771485C35.9365 0.0771665 34.4525 0.399605 33.1029 1.0196C31.7534 1.6396 30.5745 2.54059 29.657 3.65309C27.6721 2.74407 25.8235 1.59576 24.1588 0.237594C24.0282 0.130394 23.8589 0.0731774 23.685 0.0773836C23.5111 0.0815899 23.3453 0.146909 23.2208 0.260281C21.572 1.75154 19.682 2.99116 17.6201 3.93359C13.3927 5.88283 9.17853 6.33976 6.38753 6.37989C6.20625 6.38251 6.03335 6.45156 5.90615 6.57213C5.77894 6.6927 5.70764 6.85512 5.70764 7.02434V20.049C5.70764 25.0059 7.40175 29.8676 10.607 34.1087C13.7058 38.2091 18.1304 41.6338 23.4023 44.0129C23.4961 44.0552 23.5988 44.0772 23.703 44.0772C23.8071 44.0772 23.9099 44.0552 24.0036 44.0129C29.2756 41.6338 33.7001 38.2091 36.799 34.1087C40.0042 29.8677 41.6984 25.0059 41.6984 20.049V17.5276C43.7073 16.6272 45.3289 15.1165 46.2974 13.2431C47.266 11.3698 47.5239 9.24498 47.0291 7.21689C46.5343 5.18879 45.316 3.37773 43.5738 2.08054C41.8317 0.783343 39.6693 0.0769562 37.4407 0.0771485ZM40.3171 20.049C40.3171 24.7384 38.7102 29.3432 35.6702 33.3657C32.7649 37.2101 28.6321 40.4377 23.7029 42.715C18.7737 40.4377 14.6408 37.2101 11.7355 33.3657C8.69551 29.3433 7.08869 24.7384 7.08869 20.049V7.65168C10.0022 7.54615 14.1059 6.99185 18.2319 5.08937C20.2328 4.1732 22.0829 2.9945 23.7261 1.58913C25.3102 2.81963 27.0415 3.8751 28.8854 4.73453C28.504 5.36033 28.2033 6.02605 27.9896 6.7178C26.6726 6.11054 25.406 5.41245 24.2003 4.62934C24.0809 4.55162 23.9384 4.51106 23.7929 4.51345C23.6474 4.51584 23.5065 4.56107 23.3902 4.64266C22.0923 5.55136 20.7069 6.34568 19.2518 7.0154C16.3395 8.34367 13.2107 9.21044 9.9935 9.5802C9.82688 9.60011 9.67374 9.67601 9.56276 9.7937C9.45178 9.91139 9.39057 10.0628 9.39059 10.2196V20.049C9.39059 24.2923 10.852 28.469 13.617 32.1277C16.0177 35.3048 19.3897 38.0708 23.3684 40.1268C23.4707 40.1797 23.5858 40.2074 23.7029 40.2074C23.8199 40.2074 23.935 40.1797 24.0374 40.1268C28.016 38.0708 31.3881 35.3048 33.7888 32.1278C36.5538 28.469 38.0152 24.2923 38.0152 20.049V18.4171C38.7963 18.3752 39.5691 18.2461 40.3171 18.0323V20.049ZM36.6341 18.4021V20.049C36.6341 24.0248 35.26 27.9446 32.6601 31.3849C30.446 34.3148 27.3547 36.8811 23.7029 38.8236C20.0511 36.8811 16.9597 34.3148 14.7456 31.3848C12.1458 27.9447 10.7716 24.0248 10.7716 20.049V10.7815C13.93 10.3613 16.9981 9.48041 19.8635 8.17117C21.2462 7.53436 22.5696 6.79088 23.8197 5.94849C25.0571 6.72457 26.3528 7.4166 27.6966 8.01924C27.5169 9.25405 27.6084 10.5101 27.9657 11.7108C28.323 12.9115 28.9385 14.0317 29.7748 15.0032C30.611 15.9747 31.6504 16.7771 32.8297 17.3614C34.0089 17.9458 35.3033 18.2999 36.634 18.4022L36.6341 18.4021ZM37.4407 17.1442C35.7689 17.1442 34.1347 16.6815 32.7447 15.8146C31.3547 14.9478 30.2714 13.7157 29.6316 12.2742C28.9919 10.8327 28.8245 9.24647 29.1506 7.71616C29.4767 6.18585 30.2818 4.78017 31.4638 3.67687C32.6459 2.57357 34.152 1.82221 35.7916 1.51781C37.4312 1.2134 39.1308 1.36961 40.6752 1.9667C42.2197 2.56378 43.5398 3.57492 44.4686 4.87225C45.3974 6.16957 45.8931 7.69481 45.8932 9.2551C45.8906 11.3467 44.9993 13.3519 43.4147 14.8309C41.8301 16.3099 39.6817 17.1418 37.4407 17.1442Z" fill="#F4F4F4"/>
</g>
<defs>
<clipPath id="clip0_1_23847">
<rect width="47.1429" height="44" fill="white" transform="translate(0.130737 0.0769043)"/>
</clipPath>
</defs>
</svg>
