<svg width="131" height="52" viewBox="0 0 131 52" fill="none" xmlns="http://www.w3.org/2000/svg">
<rect y="0.0771484" width="131" height="51" rx="8" fill="#FEFEFE"/>
<path d="M88.1461 17.6326C88.482 17.3673 88.65 17.2347 88.818 17.102C91.1527 15.1456 94.1426 15.3611 96.1414 17.6823C96.343 17.9145 96.4438 17.9311 96.6453 17.7321C96.7797 17.5829 96.9309 17.4668 97.0652 17.3176C98.6273 15.8088 100.693 15.3611 102.625 16.2067C104.657 17.102 105.749 18.6772 105.766 20.8823C105.8 25.6409 105.783 30.3829 105.783 35.1414C105.783 36.8326 104.725 37.8937 103.028 37.8937C102.356 37.8937 101.684 37.844 101.013 37.9103C100.324 37.9766 100.122 37.7611 100.122 37.0481C100.156 32.4057 100.139 27.7632 100.139 23.1207C100.139 22.9217 100.139 22.7393 100.139 22.5404C100.122 21.4627 99.6855 21.015 98.6441 20.9652C97.7035 20.9155 97.0484 21.4792 96.9477 22.4243C96.9309 22.6399 96.9477 22.872 96.9477 23.0875C96.9477 27.1 96.9477 31.0958 96.9477 35.1083C96.9477 36.8658 95.923 37.8937 94.1426 37.8772C93.2355 37.8606 92.0094 38.2751 91.4887 37.6948C91.0352 37.1974 91.3375 36.0202 91.3375 35.1414C91.3375 31.0295 91.3375 26.901 91.3375 22.7891C91.3375 21.33 90.3801 20.5839 89.1371 21.0813C88.3645 21.3963 88.1125 22.0098 88.1125 22.8057C88.1293 26.6523 88.1125 30.4823 88.1125 34.329C88.1125 34.6274 88.1125 34.9424 88.1125 35.2409C88.0621 36.8492 87.0207 37.8606 85.4082 37.8772C84.7363 37.8937 84.0645 37.8274 83.3926 37.8937C82.6703 37.9601 82.452 37.7611 82.4688 36.9984C82.5023 30.4823 82.4856 23.9663 82.4856 17.4336C82.4856 17.1518 82.5023 16.8865 82.4856 16.6046C82.452 16.2399 82.6031 16.1238 82.9727 16.1238C84.518 16.1404 86.0465 16.1404 87.5918 16.1238C87.9781 16.1238 88.1629 16.2233 88.1293 16.6378C88.0957 16.9362 88.1293 17.2015 88.1461 17.6326Z" fill="#02B9EF"/>
<path d="M52.5367 26.6192C52.5367 28.8907 52.5367 31.1456 52.5367 33.4171C52.5199 36.3684 50.9578 37.8938 47.968 37.9104C46.6578 37.9104 45.3309 37.927 44.0207 37.9104C41.3668 37.8773 39.4184 36.1363 39.284 33.5166C39.1832 31.6431 39.1664 29.7529 39.2672 27.8793C39.4016 25.1933 41.4844 23.3032 44.2391 23.27C44.9613 23.2534 45.7004 23.27 46.4227 23.27C47.1281 23.2534 47.3969 22.8555 47.3801 22.1923C47.3801 21.5291 47.0777 21.2306 46.4059 21.2638C45.65 21.2804 44.8941 21.2804 44.1383 21.2638C42.2906 21.2306 41.266 20.2358 41.2828 18.4451C41.2828 17.7156 40.9469 16.7374 41.434 16.3063C41.8539 15.9415 42.8113 16.1736 43.5336 16.1736C45.4148 16.157 47.2793 16.1736 49.1605 16.1736C51.1594 16.1736 52.5199 17.5166 52.5367 19.5063C52.5535 21.8607 52.5367 24.2482 52.5367 26.6192ZM47.3969 30.383C47.3969 30.1011 47.3969 29.8358 47.3969 29.5539C47.3969 27.8627 47.3969 27.8627 45.6836 27.9291C44.827 27.9622 44.3566 28.3933 44.3398 29.2721C44.323 29.9684 44.323 30.6482 44.3398 31.3446C44.3566 32.5384 44.8941 32.8534 46.641 32.9032C47.9344 32.9363 47.2793 32.041 47.3969 31.5436C47.4641 31.1788 47.3801 30.7643 47.3969 30.383Z" fill="#06306F"/>
<path d="M67.4859 24.8119C67.4859 27.3487 67.5195 29.9021 67.4691 32.4389C67.4355 34.3953 66.9652 36.1694 65.0504 37.214C64.2777 37.6285 63.4379 37.8606 62.5645 37.8772C60.6328 37.9104 58.7012 37.8772 56.7695 37.9104C56.2992 37.9104 56.1984 37.7446 56.2152 37.33C56.2488 36.6337 56.1984 35.9539 56.232 35.2575C56.2656 33.9311 57.2902 32.9197 58.634 32.8699C59.5074 32.8368 60.3641 32.8534 61.2375 32.8699C61.943 32.8699 62.3293 32.5881 62.3293 31.842C62.3293 31.0793 61.9598 30.814 61.2543 30.7974C60.0785 30.7642 58.9027 30.93 57.7437 30.5984C55.7449 30.0181 54.2836 28.3767 54.2332 26.3373C54.1324 23.1041 54.1996 19.871 54.1828 16.6378C54.1828 16.2731 54.3004 16.157 54.6699 16.1736C56.0473 16.1902 57.4078 16.2067 58.7852 16.1736C59.3898 16.157 59.3059 16.4886 59.3059 16.8534C59.3059 19.2907 59.3059 21.7114 59.3059 24.1487C59.3059 25.2098 59.8098 25.7736 60.7504 25.8067C61.859 25.8399 62.3461 25.3922 62.3461 24.2813C62.3461 21.8275 62.3629 19.357 62.3293 16.9031C62.3293 16.3228 62.4805 16.157 63.0684 16.1736C64.2945 16.2233 65.5375 16.2399 66.7637 16.1736C67.4355 16.1404 67.5363 16.3891 67.5195 16.9694C67.4691 19.5725 67.4859 22.1922 67.4859 24.8119Z" fill="#06306F"/>
<path d="M24.6875 28.5756C24.6875 25.873 24.6875 23.1539 24.6875 20.4513C24.6875 17.7984 26.3336 16.1404 29.0379 16.1736C30.8016 16.1901 32.5652 15.9746 34.3121 16.3062C36.5461 16.7373 37.957 18.4451 37.9738 20.7166C37.9906 23.1207 37.9738 25.5248 37.9738 27.929C37.9738 30.9466 36.1766 32.787 33.1195 32.8699C32.1957 32.9031 31.2719 32.8865 30.348 32.8699C29.9281 32.8533 29.7434 32.986 29.7602 33.4337C29.7938 34.0969 29.777 34.7601 29.7602 35.4233C29.7266 36.8492 28.702 37.8772 27.2742 37.8938C26.4344 37.9103 25.3762 38.2419 24.8387 37.7611C24.3348 37.3134 24.7043 36.2523 24.6875 35.4565C24.6707 33.1684 24.6875 30.8637 24.6875 28.5756ZM29.7602 24.5134C29.7602 25.044 29.7602 25.558 29.7602 26.0886C29.7602 27.9622 29.7602 27.9622 31.6582 27.7963C32.4813 27.73 32.8676 27.3321 32.8844 26.5197C32.9012 25.5912 32.8508 24.6461 32.9012 23.7176C33.002 21.0316 32.498 21.2969 30.2809 21.2803C29.8777 21.2803 29.7434 21.3963 29.7434 21.7943C29.777 22.6896 29.7602 23.6015 29.7602 24.5134Z" fill="#06306F"/>
<path d="M72.2395 28.6088C72.2395 26.4037 72.2227 24.1819 72.2563 21.9767C72.2563 21.4627 72.1387 21.2472 71.5676 21.2638C70.8117 21.2969 69.8039 21.5125 69.384 21.1477C68.8633 20.6669 69.2664 19.6389 69.1992 18.843C69.1992 18.7933 69.1992 18.727 69.1992 18.6772C69.1992 17.898 68.9473 16.986 69.2832 16.4057C69.6191 15.8254 70.6438 16.1902 71.366 16.0078C72.7938 15.643 73.8688 14.8306 74.7422 13.7031C75.3469 12.9404 76.1027 12.3933 77.077 12.2109C77.5977 12.1114 77.9168 12.1778 77.8832 12.841C77.8328 13.7695 77.8832 14.7145 77.8664 15.6596C77.8496 16.0575 78.0008 16.1902 78.4039 16.1736C79.0758 16.157 79.7477 16.1902 80.4195 16.157C80.8227 16.1404 80.957 16.2897 80.9402 16.6876C80.9234 18.0472 80.9234 19.3902 80.9402 20.7498C80.9402 21.1311 80.8395 21.3301 80.4195 21.2803C80.3356 21.2638 80.2516 21.2803 80.1676 21.2803C79.4285 21.3467 78.4039 20.9487 78.0176 21.4461C77.6481 21.9104 77.8832 22.8721 77.8832 23.6182C77.8832 28.128 77.8664 32.6213 77.9 37.1311C77.9 37.7612 77.732 37.9601 77.0938 37.9104C76.4891 37.8607 75.8676 37.9104 75.2461 37.8938C73.432 37.8275 72.2395 36.6171 72.2395 34.8265C72.2395 32.7539 72.2395 30.6814 72.2395 28.6088Z" fill="#02B9EF"/>
</svg>
