<svg width="44" height="45" viewBox="0 0 44 45" fill="none" xmlns="http://www.w3.org/2000/svg">
<g clip-path="url(#clip0_1_23813)">
<path d="M40.7351 40.7975L40.1324 35.8075C40.1314 35.7992 40.1303 35.7909 40.1289 35.7826C39.9634 34.7631 39.4881 33.8193 38.7677 33.0791C38.0473 32.339 37.1166 31.8384 36.102 31.6453L29.9557 30.4892H29.9553L28.2907 30.1761C29.9039 29.8625 31.492 29.4315 33.0424 28.8866C33.7347 28.6424 34.3208 28.1658 34.7011 27.5379C35.0814 26.91 35.2323 26.1698 35.1281 25.4431L34.1691 18.8683H34.7041C35.0471 18.8679 35.3759 18.7315 35.6184 18.489C35.861 18.2464 35.9974 17.9176 35.9977 17.5746V14.9481C35.9974 14.6051 35.861 14.2763 35.6184 14.0338C35.3759 13.7912 35.0471 13.6548 34.7041 13.6544H33.6402C33.5571 13.4561 33.4519 13.2678 33.3266 13.093L32.7916 9.42517C32.4124 6.82806 31.111 4.45423 29.1254 2.73774C27.1399 1.02126 24.6028 0.0768326 21.9781 0.0771485H21.4933C18.832 0.0806614 16.2632 1.05371 14.2675 2.81423C12.2717 4.57475 10.9858 7.00212 10.6504 9.64216L10.147 13.6544H9.09464C8.75164 13.6548 8.4228 13.7912 8.18026 14.0337C7.93772 14.2763 7.8013 14.6051 7.80094 14.9481V17.5746C7.8013 17.9176 7.93772 18.2465 8.18026 18.489C8.4228 18.7315 8.75164 18.868 9.09464 18.8683H9.49305L8.66203 25.4928C8.57529 26.2079 8.73386 26.9313 9.11179 27.5445C9.48972 28.1578 10.0646 28.6246 10.7424 28.8685C12.3409 29.4338 13.9798 29.8774 15.6451 30.1957L14.227 30.4745L14.2175 30.4764L8.14091 31.6714C7.19555 31.8587 6.32396 32.3138 5.62996 32.9825C4.93595 33.6512 4.44877 34.5053 4.22646 35.443C4.22371 35.4543 4.22133 35.4656 4.21932 35.477L3.30005 40.5999C3.20471 41.0164 3.20446 41.449 3.29934 41.8656C3.39422 42.2822 3.58177 42.672 3.84806 43.0062C4.11434 43.3403 4.45252 43.6101 4.83743 43.7955C5.22235 43.9809 5.64411 44.0772 6.07136 44.0771H37.925C38.3353 44.0772 38.7407 43.9884 39.1135 43.8169C39.4862 43.6454 39.8175 43.3953 40.0844 43.0838C40.3514 42.7722 40.5478 42.4065 40.6601 42.0119C40.7724 41.6172 40.798 41.203 40.7351 40.7975ZM33.8605 14.9455L34.7087 14.948L34.7041 17.5793H33.8605V14.9455ZM33.0032 19.8067L33.8525 25.6293C33.914 26.0602 33.8243 26.4991 33.5986 26.8714C33.3729 27.2436 33.0251 27.526 32.6145 27.6706C30.8281 28.2986 28.9902 28.769 27.1218 29.0763V26.5911L27.588 26.2994C28.2673 25.8763 28.8407 25.3031 29.264 24.6238H29.3692C30.1134 24.6231 30.8269 24.3272 31.3532 23.801C31.8795 23.2749 32.1756 22.5615 32.1765 21.8173V20.3761C32.4833 20.2362 32.7632 20.0435 33.0032 19.8067ZM24.4017 26.7724C23.6503 27.2383 22.7836 27.4852 21.8994 27.4852C21.0152 27.4852 20.1486 27.2383 19.3971 26.7724L18.0608 25.9364C18.0587 25.935 18.0563 25.9337 18.0541 25.9322L16.8939 25.2064C16.3243 24.8529 15.8547 24.3594 15.5297 23.7731C15.2048 23.1867 15.0353 22.5269 15.0375 21.8565V13.1345C15.6709 13.0476 16.2772 12.8212 16.8127 12.4717C17.3481 12.1222 17.7993 11.6582 18.1338 11.1133C18.5435 11.5183 18.9876 11.887 19.4612 12.215L19.5863 12.3002C22.5192 14.288 25.6854 13.8247 28.761 13.2976V21.8567C28.7617 22.3631 28.6652 22.8648 28.4769 23.3348H24.1553C24.024 22.9633 23.7808 22.6415 23.4592 22.4137C23.1376 22.1859 22.7534 22.0634 22.3593 22.0629H21.2647C20.7598 22.0635 20.2757 22.2643 19.9187 22.6213C19.5617 22.9784 19.3609 23.4624 19.3603 23.9673V23.9914C19.3609 24.4963 19.5617 24.9803 19.9187 25.3373C20.2758 25.6944 20.7598 25.8952 21.2647 25.8958H22.3593C22.7533 25.8953 23.1376 25.7727 23.4592 25.545C23.7808 25.3172 24.024 24.9955 24.1553 24.6239H27.6299C27.4116 24.8458 27.1682 25.0413 26.9044 25.2066L24.4017 26.7724ZM25.8327 27.3977V30.3323C25.8324 30.4056 25.8155 30.4779 25.7832 30.5437C25.751 30.6095 25.7042 30.6671 25.6465 30.7122L22.0061 33.5456L18.5224 30.7203C18.4241 30.6411 18.3611 30.5263 18.3471 30.4008C18.3468 30.3961 18.3468 30.3913 18.3463 30.3867C18.3453 30.3736 18.3441 30.3603 18.3441 30.3469V27.6343L18.7136 27.8655C19.6704 28.4586 20.7738 28.7729 21.8995 28.7729C23.0252 28.7728 24.1286 28.4585 25.0853 27.8653L25.8327 27.3977ZM22.9746 23.9673V23.9913C22.9744 24.1545 22.9095 24.3109 22.7942 24.4262C22.6788 24.5416 22.5224 24.6065 22.3593 24.6066H21.2647C21.1015 24.6065 20.9451 24.5416 20.8298 24.4262C20.7144 24.3109 20.6496 24.1545 20.6494 23.9913V23.9673C20.6496 23.8041 20.7144 23.6477 20.8298 23.5323C20.9451 23.417 21.1015 23.3521 21.2647 23.3519H22.3593C22.5224 23.3521 22.6788 23.417 22.7942 23.5323C22.9095 23.6477 22.9744 23.8041 22.9746 23.9673ZM29.8633 23.2505C29.9874 22.7963 30.0502 22.3275 30.0501 21.8566V20.6337H30.8874V21.8173C30.8869 22.133 30.7879 22.4407 30.6044 22.6976C30.4209 22.9545 30.1618 23.1478 29.8633 23.2506V23.2505ZM32.5715 14.7561V17.7666C32.571 18.185 32.4046 18.5861 32.1088 18.8819C31.813 19.1778 31.4119 19.3442 30.9935 19.3447H30.0501V13.1781H30.9935C31.4119 13.1785 31.813 13.345 32.1088 13.6408C32.4046 13.9366 32.571 14.3378 32.5715 14.7561ZM11.9293 9.80261C12.2252 7.474 13.3595 5.33301 15.1199 3.78022C16.8802 2.22742 19.146 1.36923 21.4934 1.36621H21.9782C24.2932 1.36588 26.531 2.19884 28.2823 3.71277C30.0337 5.2267 31.1815 7.32045 31.5161 9.61114L31.8684 12.0262C31.5857 11.9353 31.2906 11.889 30.9936 11.889H29.4381C29.4349 11.8889 29.4318 11.8892 29.4287 11.889H29.4056L29.403 11.8892C29.383 11.8893 29.3629 11.8903 29.3429 11.8923L29.3343 11.8932C29.3219 11.8946 29.3096 11.8954 29.2973 11.8975L28.8561 11.9732C25.7996 12.4998 22.9125 12.9971 20.3097 11.2331L20.1924 11.1532C19.5437 10.7038 18.96 10.1674 18.4574 9.55906C18.3839 9.46998 18.2878 9.40229 18.1791 9.36309C18.0705 9.32389 17.9533 9.3146 17.8398 9.33621C17.7263 9.35782 17.6208 9.40953 17.5341 9.48592C17.4475 9.56232 17.383 9.66059 17.3473 9.77047C17.1466 10.3921 16.7521 10.9331 16.2217 11.3143C15.6913 11.6955 15.0528 11.8969 14.3997 11.8891L14.3968 11.8892L14.393 11.889H12.8052C12.4021 11.8891 12.0036 11.9748 11.6362 12.1405L11.9293 9.80261ZM11.2272 14.756C11.2277 14.3377 11.3941 13.9367 11.6899 13.6409C11.9857 13.3451 12.3868 13.1786 12.8051 13.1781H13.7484V19.3447H12.8051C12.3867 19.3442 11.9856 19.1778 11.6898 18.8819C11.3939 18.5861 11.2276 18.185 11.2271 17.7666L11.2272 14.756ZM9.08992 17.5746L9.09456 14.9435H9.93803V17.5773L9.08992 17.5746ZM11.1724 27.6534C10.7709 27.5087 10.4305 27.232 10.2068 26.8687C9.98314 26.5053 9.8894 26.0768 9.94096 25.6533L10.6883 19.6959C10.9562 19.9912 11.2829 20.2272 11.6475 20.3888C12.012 20.5503 12.4063 20.6337 12.8051 20.6337H13.7484V21.8566C13.7456 22.7457 13.9703 23.6207 14.4013 24.3984C14.8322 25.176 15.455 25.8304 16.2104 26.2993L17.0551 26.8279V29.1309C15.0523 28.8236 13.0827 28.329 11.1724 27.6534ZM17.2683 31.1902C17.3794 31.3946 17.5296 31.5752 17.7104 31.7216L21.2742 34.6116C21.4773 34.7778 21.7309 34.8697 21.9932 34.8723C22.2555 34.8748 22.5109 34.7878 22.7171 34.6257L26.4379 31.7297C26.6163 31.5905 26.7662 31.4182 26.8795 31.2224L29.1117 31.6422C29.0287 31.8946 28.8731 32.1169 28.6643 32.2812L22.0331 37.4422C22.006 37.4634 21.9724 37.4747 21.938 37.4744C21.9036 37.474 21.8703 37.462 21.8436 37.4402L15.4911 32.2881C15.2805 32.1174 15.1272 31.8864 15.0517 31.6261L17.2683 31.1902ZM39.1083 42.242C38.9624 42.4133 38.781 42.5509 38.5767 42.6452C38.3724 42.7395 38.15 42.7883 37.925 42.7881H6.07136C5.837 42.7881 5.60566 42.7351 5.39467 42.6331C5.18369 42.531 4.99852 42.3826 4.85303 42.1988C4.70755 42.0151 4.60551 41.8008 4.55457 41.5721C4.50363 41.3433 4.50509 41.106 4.55886 40.8779C4.5615 40.8666 4.56382 40.8552 4.56582 40.8437L5.48484 35.7225C5.65248 35.0292 6.01512 34.3983 6.52988 33.9046C7.04464 33.4108 7.69001 33.0748 8.3897 32.9361L13.7828 31.8757C13.9184 32.4326 14.2336 32.9295 14.6795 33.2897L21.032 38.4416C21.2845 38.6478 21.5997 38.7618 21.9257 38.765C22.2517 38.7681 22.569 38.6602 22.8255 38.459L29.4568 33.298C29.9152 32.9422 30.2423 32.4441 30.3866 31.882L35.8633 32.9121C36.6154 33.0552 37.3054 33.4257 37.8402 33.9734C38.3751 34.5211 38.729 35.2197 38.8542 35.975L39.4566 40.9636C39.4577 40.9718 39.4589 40.98 39.4601 40.9882C39.4958 41.2102 39.4828 41.4373 39.4221 41.6538C39.3613 41.8703 39.2542 42.071 39.1082 42.242H39.1083Z" fill="#F4F4F4"/>
</g>
<defs>
<clipPath id="clip0_1_23813">
<rect width="44" height="44" fill="white" transform="translate(0 0.0769043)"/>
</clipPath>
</defs>
</svg>
