<svg width="25" height="25" viewBox="0 0 25 25" fill="none" xmlns="http://www.w3.org/2000/svg">
<path d="M12.1285 23.5801C11.4385 23.5801 10.7885 23.2301 10.3285 22.6201L8.82854 20.6201C8.77084 20.5712 8.70225 20.5369 8.62854 20.5201H8.12854C3.95854 20.5201 1.37854 19.3901 1.37854 13.7701V8.77007C1.37854 4.35007 3.70854 2.02007 8.12854 2.02007H16.1285C20.5485 2.02007 22.8785 4.35007 22.8785 8.77007V13.7701C22.8785 18.1901 20.5485 20.5201 16.1285 20.5201H15.6285C15.5485 20.5201 15.4785 20.5601 15.4285 20.6201L13.9285 22.6201C13.4685 23.2301 12.8185 23.5801 12.1285 23.5801ZM8.12854 3.52007C4.54854 3.52007 2.87854 5.19007 2.87854 8.77007V13.7701C2.87854 18.2901 4.42854 19.0201 8.12854 19.0201H8.62854C9.13854 19.0201 9.71854 19.3101 10.0285 19.7201L11.5285 21.7201C11.8785 22.1801 12.3785 22.1801 12.7285 21.7201L14.2285 19.7201C14.5585 19.2801 15.0785 19.0201 15.6285 19.0201H16.1285C19.7085 19.0201 21.3785 17.3501 21.3785 13.7701V8.77007C21.3785 5.19007 19.7085 3.52007 16.1285 3.52007H8.12854Z" fill="white"/>
<path d="M12.1285 12.7702C11.5685 12.7702 11.1285 12.3202 11.1285 11.7702C11.1285 11.2202 11.5785 10.7702 12.1285 10.7702C12.6785 10.7702 13.1285 11.2202 13.1285 11.7702C13.1285 12.3202 12.6885 12.7702 12.1285 12.7702ZM16.1285 12.7702C15.5685 12.7702 15.1285 12.3202 15.1285 11.7702C15.1285 11.2202 15.5785 10.7702 16.1285 10.7702C16.6785 10.7702 17.1285 11.2202 17.1285 11.7702C17.1285 12.3202 16.6885 12.7702 16.1285 12.7702ZM8.12854 12.7702C7.56854 12.7702 7.12854 12.3202 7.12854 11.7702C7.12854 11.2202 7.57854 10.7702 8.12854 10.7702C8.67854 10.7702 9.12854 11.2202 9.12854 11.7702C9.12854 12.3202 8.68854 12.7702 8.12854 12.7702Z" fill="white"/>
</svg>
