<svg width="25" height="25" viewBox="0 0 25 25" fill="none" xmlns="http://www.w3.org/2000/svg">
<path d="M12.1286 23.5798C11.4386 23.5798 10.7886 23.2298 10.3286 22.6198L8.82857 20.6198C8.77088 20.5709 8.70228 20.5366 8.62857 20.5198H8.12857C3.95857 20.5198 1.37857 19.3898 1.37857 13.7698V8.76978C1.37857 4.34978 3.70857 2.01978 8.12857 2.01978H16.1286C20.5486 2.01978 22.8786 4.34978 22.8786 8.76978V13.7698C22.8786 18.1898 20.5486 20.5198 16.1286 20.5198H15.6286C15.5486 20.5198 15.4786 20.5598 15.4286 20.6198L13.9286 22.6198C13.4686 23.2298 12.8186 23.5798 12.1286 23.5798ZM8.12857 3.51978C4.54857 3.51978 2.87857 5.18978 2.87857 8.76978V13.7698C2.87857 18.2898 4.42857 19.0198 8.12857 19.0198H8.62857C9.13857 19.0198 9.71857 19.3098 10.0286 19.7198L11.5286 21.7198C11.8786 22.1798 12.3786 22.1798 12.7286 21.7198L14.2286 19.7198C14.5586 19.2798 15.0786 19.0198 15.6286 19.0198H16.1286C19.7086 19.0198 21.3786 17.3498 21.3786 13.7698V8.76978C21.3786 5.18978 19.7086 3.51978 16.1286 3.51978H8.12857Z" fill="white"/>
<path d="M12.1286 12.7699C11.5686 12.7699 11.1286 12.3199 11.1286 11.7699C11.1286 11.2199 11.5786 10.7699 12.1286 10.7699C12.6786 10.7699 13.1286 11.2199 13.1286 11.7699C13.1286 12.3199 12.6886 12.7699 12.1286 12.7699ZM16.1286 12.7699C15.5686 12.7699 15.1286 12.3199 15.1286 11.7699C15.1286 11.2199 15.5786 10.7699 16.1286 10.7699C16.6786 10.7699 17.1286 11.2199 17.1286 11.7699C17.1286 12.3199 16.6886 12.7699 16.1286 12.7699ZM8.12857 12.7699C7.56857 12.7699 7.12857 12.3199 7.12857 11.7699C7.12857 11.2199 7.57857 10.7699 8.12857 10.7699C8.67857 10.7699 9.12857 11.2199 9.12857 11.7699C9.12857 12.3199 8.68857 12.7699 8.12857 12.7699Z" fill="white"/>
</svg>
