<svg width="25" height="25" viewBox="0 0 25 25" fill="none" xmlns="http://www.w3.org/2000/svg">
<path d="M12.1286 23.5797C11.4386 23.5797 10.7886 23.2297 10.3286 22.6197L8.82857 20.6197C8.77088 20.5708 8.70228 20.5365 8.62857 20.5197H8.12857C3.95857 20.5197 1.37857 19.3897 1.37857 13.7697V8.76972C1.37857 4.34971 3.70857 2.01971 8.12857 2.01971H16.1286C20.5486 2.01971 22.8786 4.34971 22.8786 8.76972V13.7697C22.8786 18.1897 20.5486 20.5197 16.1286 20.5197H15.6286C15.5486 20.5197 15.4786 20.5597 15.4286 20.6197L13.9286 22.6197C13.4686 23.2297 12.8186 23.5797 12.1286 23.5797ZM8.12857 3.51971C4.54857 3.51971 2.87857 5.18971 2.87857 8.76972V13.7697C2.87857 18.2897 4.42857 19.0197 8.12857 19.0197H8.62857C9.13857 19.0197 9.71857 19.3097 10.0286 19.7197L11.5286 21.7197C11.8786 22.1797 12.3786 22.1797 12.7286 21.7197L14.2286 19.7197C14.5586 19.2797 15.0786 19.0197 15.6286 19.0197H16.1286C19.7086 19.0197 21.3786 17.3497 21.3786 13.7697V8.76972C21.3786 5.18971 19.7086 3.51971 16.1286 3.51971H8.12857Z" fill="white"/>
<path d="M12.1286 12.7698C11.5686 12.7698 11.1286 12.3198 11.1286 11.7698C11.1286 11.2198 11.5786 10.7698 12.1286 10.7698C12.6786 10.7698 13.1286 11.2198 13.1286 11.7698C13.1286 12.3198 12.6886 12.7698 12.1286 12.7698ZM16.1286 12.7698C15.5686 12.7698 15.1286 12.3198 15.1286 11.7698C15.1286 11.2198 15.5786 10.7698 16.1286 10.7698C16.6786 10.7698 17.1286 11.2198 17.1286 11.7698C17.1286 12.3198 16.6886 12.7698 16.1286 12.7698ZM8.12857 12.7698C7.56857 12.7698 7.12857 12.3198 7.12857 11.7698C7.12857 11.2198 7.57857 10.7698 8.12857 10.7698C8.67857 10.7698 9.12857 11.2198 9.12857 11.7698C9.12857 12.3198 8.68857 12.7698 8.12857 12.7698Z" fill="white"/>
</svg>
