<svg width="24" height="25" viewBox="0 0 24 25" fill="none" xmlns="http://www.w3.org/2000/svg">
<path d="M17.45 22.8269C16.32 22.8269 15.13 22.5569 13.9 22.0369C12.7 21.5269 11.49 20.8269 10.31 19.9769C9.14001 19.1169 8.01001 18.1569 6.94001 17.1069C5.88001 16.0369 4.92001 14.9069 4.07001 13.7469C3.21001 12.5469 2.52001 11.3469 2.03001 10.1869C1.51001 8.9469 1.25001 7.7469 1.25001 6.6169C1.25001 5.8369 1.39001 5.0969 1.66001 4.4069C1.94001 3.6969 2.39001 3.0369 3.00001 2.4669C3.77001 1.7069 4.65001 1.3269 5.59001 1.3269C5.98001 1.3269 6.38001 1.4169 6.72001 1.5769C7.11001 1.7569 7.44001 2.0269 7.68001 2.3869L10 5.6569C10.21 5.9469 10.37 6.2269 10.48 6.5069C10.61 6.8069 10.68 7.1069 10.68 7.3969C10.68 7.7769 10.57 8.1469 10.36 8.4969C10.1762 8.80928 9.95082 9.09523 9.69001 9.3469L9.01001 10.0569C9.02001 10.0869 9.03001 10.1069 9.04001 10.1269C9.16001 10.3369 9.40001 10.6969 9.86001 11.2369C10.35 11.7969 10.81 12.3069 11.27 12.7769C11.86 13.3569 12.35 13.8169 12.81 14.1969C13.38 14.6769 13.75 14.9169 13.97 15.0269L13.95 15.0769L14.68 14.3569C14.99 14.0469 15.29 13.8169 15.58 13.6669C16.13 13.3269 16.83 13.2669 17.53 13.5569C17.79 13.6669 18.07 13.8169 18.37 14.0269L21.69 16.3869C22.06 16.6369 22.33 16.9569 22.49 17.3369C22.64 17.7169 22.71 18.0669 22.71 18.4169C22.71 18.8969 22.6 19.3769 22.39 19.8269C22.18 20.2769 21.92 20.6669 21.59 21.0269C21.02 21.6569 20.4 22.1069 19.68 22.3969C18.99 22.6769 18.24 22.8269 17.45 22.8269ZM5.59001 2.8269C5.04001 2.8269 4.53001 3.0669 4.04001 3.5469C3.58001 3.9769 3.26001 4.4469 3.06001 4.9569C2.85001 5.4769 2.75001 6.0269 2.75001 6.6169C2.75001 7.5469 2.97001 8.5569 3.41001 9.5969C3.86001 10.6569 4.49001 11.7569 5.29001 12.8569C6.09001 13.9569 7.00001 15.0269 8.00001 16.0369C9.00001 17.0269 10.08 17.9469 11.19 18.7569C12.27 19.5469 13.38 20.1869 14.48 20.6469C16.19 21.3769 17.79 21.5469 19.11 20.9969C19.62 20.7869 20.07 20.4669 20.48 20.0069C20.71 19.7569 20.89 19.4869 21.04 19.1669C21.16 18.9169 21.22 18.6569 21.22 18.3969C21.22 18.2369 21.19 18.0769 21.11 17.8969C21.0461 17.773 20.9492 17.6692 20.83 17.5969L17.51 15.2369C17.31 15.0969 17.13 14.9969 16.96 14.9269C16.74 14.8369 16.65 14.7469 16.31 14.9569C16.11 15.0569 15.93 15.2069 15.73 15.4069L14.97 16.1569C14.58 16.5369 13.98 16.6269 13.52 16.4569L13.25 16.3369C12.84 16.1169 12.36 15.7769 11.83 15.3269C11.35 14.9169 10.83 14.4369 10.2 13.8169C9.71001 13.3169 9.22001 12.7869 8.71001 12.1969C8.24001 11.6469 7.90001 11.1769 7.69001 10.7869L7.57001 10.4869C7.51001 10.2569 7.49001 10.1269 7.49001 9.9869C7.49001 9.6269 7.62001 9.3069 7.87001 9.0569L8.62001 8.2769C8.82001 8.0769 8.97001 7.8869 9.07001 7.7169C9.15001 7.5869 9.18001 7.4769 9.18001 7.3769C9.18001 7.2969 9.15001 7.1769 9.10001 7.0569C9.03001 6.8969 8.92001 6.7169 8.78001 6.5269L6.46001 3.2469C6.36639 3.11255 6.23868 3.00555 6.09001 2.9369C5.93001 2.8669 5.76001 2.8269 5.59001 2.8269ZM13.95 15.0869L13.79 15.7669L14.06 15.0669C14.01 15.0569 13.97 15.0669 13.95 15.0869Z" fill="#F9F9F9"/>
</svg>
