<svg width="25" height="25" viewBox="0 0 25 25" fill="none" xmlns="http://www.w3.org/2000/svg">
<path d="M12.1285 23.5797C11.4385 23.5797 10.7885 23.2297 10.3285 22.6197L8.82854 20.6197C8.77084 20.5708 8.70225 20.5365 8.62854 20.5197H8.12854C3.95854 20.5197 1.37854 19.3897 1.37854 13.7697V8.76972C1.37854 4.34971 3.70854 2.01971 8.12854 2.01971H16.1285C20.5485 2.01971 22.8785 4.34971 22.8785 8.76972V13.7697C22.8785 18.1897 20.5485 20.5197 16.1285 20.5197H15.6285C15.5485 20.5197 15.4785 20.5597 15.4285 20.6197L13.9285 22.6197C13.4685 23.2297 12.8185 23.5797 12.1285 23.5797ZM8.12854 3.51971C4.54854 3.51971 2.87854 5.18971 2.87854 8.76972V13.7697C2.87854 18.2897 4.42854 19.0197 8.12854 19.0197H8.62854C9.13854 19.0197 9.71854 19.3097 10.0285 19.7197L11.5285 21.7197C11.8785 22.1797 12.3785 22.1797 12.7285 21.7197L14.2285 19.7197C14.5585 19.2797 15.0785 19.0197 15.6285 19.0197H16.1285C19.7085 19.0197 21.3785 17.3497 21.3785 13.7697V8.76972C21.3785 5.18971 19.7085 3.51971 16.1285 3.51971H8.12854Z" fill="white"/>
<path d="M12.1285 12.7698C11.5685 12.7698 11.1285 12.3198 11.1285 11.7698C11.1285 11.2198 11.5785 10.7698 12.1285 10.7698C12.6785 10.7698 13.1285 11.2198 13.1285 11.7698C13.1285 12.3198 12.6885 12.7698 12.1285 12.7698ZM16.1285 12.7698C15.5685 12.7698 15.1285 12.3198 15.1285 11.7698C15.1285 11.2198 15.5785 10.7698 16.1285 10.7698C16.6785 10.7698 17.1285 11.2198 17.1285 11.7698C17.1285 12.3198 16.6885 12.7698 16.1285 12.7698ZM8.12854 12.7698C7.56854 12.7698 7.12854 12.3198 7.12854 11.7698C7.12854 11.2198 7.57854 10.7698 8.12854 10.7698C8.67854 10.7698 9.12854 11.2198 9.12854 11.7698C9.12854 12.3198 8.68854 12.7698 8.12854 12.7698Z" fill="white"/>
</svg>
