<svg width="24" height="25" viewBox="0 0 24 25" fill="none" xmlns="http://www.w3.org/2000/svg">
<path d="M17.45 22.827C16.32 22.827 15.13 22.557 13.9 22.037C12.7 21.527 11.49 20.827 10.31 19.977C9.14001 19.117 8.01001 18.157 6.94001 17.107C5.88001 16.037 4.92001 14.907 4.07001 13.747C3.21001 12.547 2.52001 11.347 2.03001 10.187C1.51001 8.94697 1.25001 7.74697 1.25001 6.61697C1.25001 5.83697 1.39001 5.09697 1.66001 4.40697C1.94001 3.69697 2.39001 3.03697 3.00001 2.46697C3.77001 1.70697 4.65001 1.32697 5.59001 1.32697C5.98001 1.32697 6.38001 1.41697 6.72001 1.57697C7.11001 1.75697 7.44001 2.02697 7.68001 2.38697L10 5.65697C10.21 5.94697 10.37 6.22697 10.48 6.50697C10.61 6.80697 10.68 7.10697 10.68 7.39697C10.68 7.77697 10.57 8.14697 10.36 8.49697C10.1762 8.80935 9.95082 9.0953 9.69001 9.34697L9.01001 10.057C9.02001 10.087 9.03001 10.107 9.04001 10.127C9.16001 10.337 9.40001 10.697 9.86001 11.237C10.35 11.797 10.81 12.307 11.27 12.777C11.86 13.357 12.35 13.817 12.81 14.197C13.38 14.677 13.75 14.917 13.97 15.027L13.95 15.077L14.68 14.357C14.99 14.047 15.29 13.817 15.58 13.667C16.13 13.327 16.83 13.267 17.53 13.557C17.79 13.667 18.07 13.817 18.37 14.027L21.69 16.387C22.06 16.637 22.33 16.957 22.49 17.337C22.64 17.717 22.71 18.067 22.71 18.417C22.71 18.897 22.6 19.377 22.39 19.827C22.18 20.277 21.92 20.667 21.59 21.027C21.02 21.657 20.4 22.107 19.68 22.397C18.99 22.677 18.24 22.827 17.45 22.827ZM5.59001 2.82697C5.04001 2.82697 4.53001 3.06697 4.04001 3.54697C3.58001 3.97697 3.26001 4.44697 3.06001 4.95697C2.85001 5.47697 2.75001 6.02697 2.75001 6.61697C2.75001 7.54697 2.97001 8.55697 3.41001 9.59697C3.86001 10.657 4.49001 11.757 5.29001 12.857C6.09001 13.957 7.00001 15.027 8.00001 16.037C9.00001 17.027 10.08 17.947 11.19 18.757C12.27 19.547 13.38 20.187 14.48 20.647C16.19 21.377 17.79 21.547 19.11 20.997C19.62 20.787 20.07 20.467 20.48 20.007C20.71 19.757 20.89 19.487 21.04 19.167C21.16 18.917 21.22 18.657 21.22 18.397C21.22 18.237 21.19 18.077 21.11 17.897C21.0461 17.7731 20.9492 17.6693 20.83 17.597L17.51 15.237C17.31 15.097 17.13 14.997 16.96 14.927C16.74 14.837 16.65 14.747 16.31 14.957C16.11 15.057 15.93 15.207 15.73 15.407L14.97 16.157C14.58 16.537 13.98 16.627 13.52 16.457L13.25 16.337C12.84 16.117 12.36 15.777 11.83 15.327C11.35 14.917 10.83 14.437 10.2 13.817C9.71001 13.317 9.22001 12.787 8.71001 12.197C8.24001 11.647 7.90001 11.177 7.69001 10.787L7.57001 10.487C7.51001 10.257 7.49001 10.127 7.49001 9.98697C7.49001 9.62697 7.62001 9.30697 7.87001 9.05697L8.62001 8.27697C8.82001 8.07697 8.97001 7.88697 9.07001 7.71697C9.15001 7.58697 9.18001 7.47697 9.18001 7.37697C9.18001 7.29697 9.15001 7.17697 9.10001 7.05697C9.03001 6.89697 8.92001 6.71697 8.78001 6.52697L6.46001 3.24697C6.36639 3.11261 6.23868 3.00561 6.09001 2.93697C5.93001 2.86697 5.76001 2.82697 5.59001 2.82697ZM13.95 15.087L13.79 15.767L14.06 15.067C14.01 15.057 13.97 15.067 13.95 15.087Z" fill="#F9F9F9"/>
</svg>
