<svg width="25" height="25" viewBox="0 0 25 25" fill="none" xmlns="http://www.w3.org/2000/svg">
<path d="M12.1286 23.5011C11.4386 23.5011 10.7886 23.1511 10.3286 22.5411L8.82857 20.5411C8.77088 20.4922 8.70228 20.4579 8.62857 20.4411H8.12857C3.95857 20.4411 1.37857 19.3111 1.37857 13.6911V8.6911C1.37857 4.2711 3.70857 1.9411 8.12857 1.9411H16.1286C20.5486 1.9411 22.8786 4.2711 22.8786 8.6911V13.6911C22.8786 18.1111 20.5486 20.4411 16.1286 20.4411H15.6286C15.5486 20.4411 15.4786 20.4811 15.4286 20.5411L13.9286 22.5411C13.4686 23.1511 12.8186 23.5011 12.1286 23.5011ZM8.12857 3.4411C4.54857 3.4411 2.87857 5.1111 2.87857 8.6911V13.6911C2.87857 18.2111 4.42857 18.9411 8.12857 18.9411H8.62857C9.13857 18.9411 9.71857 19.2311 10.0286 19.6411L11.5286 21.6411C11.8786 22.1011 12.3786 22.1011 12.7286 21.6411L14.2286 19.6411C14.5586 19.2011 15.0786 18.9411 15.6286 18.9411H16.1286C19.7086 18.9411 21.3786 17.2711 21.3786 13.6911V8.6911C21.3786 5.1111 19.7086 3.4411 16.1286 3.4411H8.12857Z" fill="white"/>
<path d="M12.1286 12.6912C11.5686 12.6912 11.1286 12.2412 11.1286 11.6912C11.1286 11.1412 11.5786 10.6912 12.1286 10.6912C12.6786 10.6912 13.1286 11.1412 13.1286 11.6912C13.1286 12.2412 12.6886 12.6912 12.1286 12.6912ZM16.1286 12.6912C15.5686 12.6912 15.1286 12.2412 15.1286 11.6912C15.1286 11.1412 15.5786 10.6912 16.1286 10.6912C16.6786 10.6912 17.1286 11.1412 17.1286 11.6912C17.1286 12.2412 16.6886 12.6912 16.1286 12.6912ZM8.12857 12.6912C7.56857 12.6912 7.12857 12.2412 7.12857 11.6912C7.12857 11.1412 7.57857 10.6912 8.12857 10.6912C8.67857 10.6912 9.12857 11.1412 9.12857 11.6912C9.12857 12.2412 8.68857 12.6912 8.12857 12.6912Z" fill="white"/>
</svg>
