<svg width="24" height="25" viewBox="0 0 24 25" fill="none" xmlns="http://www.w3.org/2000/svg">
<path d="M17.45 22.8272C16.32 22.8272 15.13 22.5572 13.9 22.0372C12.7 21.5272 11.49 20.8272 10.31 19.9772C9.14 19.1172 8.01 18.1572 6.94 17.1072C5.88 16.0372 4.92 14.9072 4.07 13.7472C3.21 12.5472 2.52 11.3472 2.03 10.1872C1.51 8.94721 1.25 7.74721 1.25 6.61721C1.25 5.83721 1.39 5.09721 1.66 4.40721C1.94 3.69721 2.39 3.03721 3 2.46721C3.77 1.70721 4.65 1.32721 5.59 1.32721C5.98 1.32721 6.38 1.41721 6.72 1.57721C7.11 1.75721 7.44 2.02721 7.68 2.38721L10 5.65721C10.21 5.94721 10.37 6.22721 10.48 6.50721C10.61 6.80721 10.68 7.10721 10.68 7.39721C10.68 7.77721 10.57 8.14721 10.36 8.49721C10.1762 8.80959 9.95081 9.09554 9.69 9.34721L9.01 10.0572C9.02 10.0872 9.03 10.1072 9.04 10.1272C9.16 10.3372 9.4 10.6972 9.86 11.2372C10.35 11.7972 10.81 12.3072 11.27 12.7772C11.86 13.3572 12.35 13.8172 12.81 14.1972C13.38 14.6772 13.75 14.9172 13.97 15.0272L13.95 15.0772L14.68 14.3572C14.99 14.0472 15.29 13.8172 15.58 13.6672C16.13 13.3272 16.83 13.2672 17.53 13.5572C17.79 13.6672 18.07 13.8172 18.37 14.0272L21.69 16.3872C22.06 16.6372 22.33 16.9572 22.49 17.3372C22.64 17.7172 22.71 18.0672 22.71 18.4172C22.71 18.8972 22.6 19.3772 22.39 19.8272C22.18 20.2772 21.92 20.6672 21.59 21.0272C21.02 21.6572 20.4 22.1072 19.68 22.3972C18.99 22.6772 18.24 22.8272 17.45 22.8272ZM5.59 2.82721C5.04 2.82721 4.53 3.06721 4.04 3.54721C3.58 3.97721 3.26 4.44721 3.06 4.95721C2.85 5.47721 2.75 6.02721 2.75 6.61721C2.75 7.54721 2.97 8.55721 3.41 9.59721C3.86 10.6572 4.49 11.7572 5.29 12.8572C6.09 13.9572 7 15.0272 8 16.0372C9 17.0272 10.08 17.9472 11.19 18.7572C12.27 19.5472 13.38 20.1872 14.48 20.6472C16.19 21.3772 17.79 21.5472 19.11 20.9972C19.62 20.7872 20.07 20.4672 20.48 20.0072C20.71 19.7572 20.89 19.4872 21.04 19.1672C21.16 18.9172 21.22 18.6572 21.22 18.3972C21.22 18.2372 21.19 18.0772 21.11 17.8972C21.0461 17.7733 20.9492 17.6695 20.83 17.5972L17.51 15.2372C17.31 15.0972 17.13 14.9972 16.96 14.9272C16.74 14.8372 16.65 14.7472 16.31 14.9572C16.11 15.0572 15.93 15.2072 15.73 15.4072L14.97 16.1572C14.58 16.5372 13.98 16.6272 13.52 16.4572L13.25 16.3372C12.84 16.1172 12.36 15.7772 11.83 15.3272C11.35 14.9172 10.83 14.4372 10.2 13.8172C9.71 13.3172 9.22 12.7872 8.71 12.1972C8.24 11.6472 7.9 11.1772 7.69 10.7872L7.57 10.4872C7.51 10.2572 7.49 10.1272 7.49 9.98721C7.49 9.62721 7.62 9.30721 7.87 9.05721L8.62 8.27721C8.82 8.07721 8.97 7.88721 9.07 7.71721C9.15 7.58721 9.18 7.47721 9.18 7.37721C9.18 7.29721 9.15 7.17721 9.1 7.05721C9.03 6.89721 8.92 6.71721 8.78 6.52721L6.46 3.24721C6.36639 3.11286 6.23868 3.00586 6.09 2.93721C5.93 2.86721 5.76 2.82721 5.59 2.82721ZM13.95 15.0872L13.79 15.7672L14.06 15.0672C14.01 15.0572 13.97 15.0672 13.95 15.0872Z" fill="#F9F9F9"/>
</svg>
