<svg width="38" height="40" viewBox="0 0 38 40" fill="none" xmlns="http://www.w3.org/2000/svg">
<g clip-path="url(#clip0_1_22622)">
<path d="M32.3365 29.5387L37.3833 23.5459C37.7012 23.1707 37.921 22.7195 38.0222 22.2344C38.1233 21.7492 38.1025 21.2459 37.9618 20.7712L35.051 10.8735C34.9295 10.4622 34.6673 10.1091 34.312 9.87849C33.9568 9.64784 33.5321 9.55497 33.1154 9.61678C32.6987 9.67858 32.3175 9.89096 32.0414 10.2152C31.7652 10.5395 31.6124 10.9542 31.6108 11.3837C31.6108 11.4257 31.612 11.4676 31.615 11.5061L32.0206 17.5391C31.8226 17.5218 31.6232 17.5475 31.4356 17.6144C31.2481 17.6814 31.0765 17.7882 30.9323 17.9277L25.9507 22.7729C25.3879 23.322 24.9396 23.9813 24.6327 24.7114C24.3258 25.4414 24.1667 26.2272 24.1648 27.0216V31.6555C23.8526 31.8432 23.5939 32.1106 23.4139 32.4314C23.234 32.7522 23.1391 33.1153 23.1386 33.4848V38.714C23.1386 38.863 23.2318 39.1705 23.3351 39.2759C23.4384 39.3813 32.0156 39.2759 32.1617 39.2759C32.3078 39.2759 31.5075 38.8194 31.6108 38.714C31.7141 38.6086 24.2404 38.863 24.2404 38.714V34.8367H31.6108V38.714C31.6108 38.863 31.6688 39.006 31.7721 39.1113C31.8754 39.2167 32.0156 39.2759 32.1617 39.2759C32.3078 39.2759 32.4479 39.2167 32.5512 39.1113C32.6545 39.006 32.7126 38.863 32.7126 38.714V33.4848C32.7121 33.1241 32.6217 32.7693 32.4498 32.454C32.2778 32.1387 32.03 31.8732 31.7298 31.6826V31.2075C31.7301 30.5952 31.9453 30.0032 32.3365 29.5387ZM31.6107 33.7129H24.2404V33.4848C24.2417 33.2178 24.3468 32.9621 24.5326 32.774C24.7184 32.5858 24.9698 32.4805 25.2316 32.4812H30.6194C30.8813 32.4805 31.1327 32.5858 31.3185 32.774C31.5043 32.9621 31.6094 33.2178 31.6106 33.4848L31.6107 33.7129ZM31.5005 28.8066C30.9378 29.4749 30.6283 30.3266 30.6279 31.2075V31.3576C30.6251 31.3576 30.6223 31.3573 30.6194 31.3573H25.2666V27.0216C25.2682 26.3793 25.397 25.7439 25.6452 25.1536C25.8934 24.5632 26.2559 24.0301 26.711 23.5862L31.693 18.7408C31.7512 18.6845 31.8287 18.6536 31.909 18.6546C31.9893 18.6556 32.066 18.6885 32.1229 18.7463L32.1639 18.7889C32.1795 18.8048 32.1945 18.821 32.209 18.8375C32.2138 18.8435 32.2187 18.8494 32.2237 18.8552C32.4968 19.1702 32.6411 19.5801 32.6269 20.0004C32.6127 20.4208 32.4411 20.8195 32.1473 21.1147L29.3833 23.8943C29.2819 23.9995 29.2252 24.1411 29.2253 24.2886C29.2255 24.4361 29.2824 24.5776 29.384 24.6826C29.4855 24.7877 29.6234 24.8478 29.768 24.85C29.9126 24.8522 30.0522 24.7963 30.1568 24.6945L32.921 21.9148C33.391 21.4421 33.6759 20.8109 33.7225 20.1393C33.769 19.4677 33.574 18.8019 33.1739 18.2664L32.7138 11.4244C32.7129 11.4109 32.7125 11.3973 32.7126 11.3837C32.7144 11.2241 32.7721 11.0704 32.8753 10.9504C32.9784 10.8304 33.1203 10.752 33.2752 10.7293C33.4301 10.7066 33.5879 10.7412 33.72 10.8268C33.8521 10.9124 33.9498 11.0434 33.9955 11.196L36.9065 21.0941C36.9937 21.3883 37.0065 21.7002 36.9437 22.0008C36.881 22.3014 36.7447 22.5809 36.5477 22.8134L31.5005 28.8066ZM14.2897 31.6555V26.9137C14.2878 26.1193 14.1286 25.3335 13.8217 24.6035C13.5148 23.8734 13.0665 23.214 12.5037 22.665L7.52226 17.8199C7.37807 17.6803 7.2065 17.5736 7.01888 17.5066C6.83126 17.4397 6.63186 17.4141 6.43383 17.4316L6.839 11.4043C6.84216 11.3639 6.8437 11.3219 6.8437 11.2758C6.84195 10.8464 6.68913 10.4319 6.41303 10.1077C6.13693 9.78346 5.75591 9.57112 5.33927 9.50928C4.92264 9.44744 4.49809 9.54021 4.14286 9.77071C3.78762 10.0012 3.52531 10.3541 3.40365 10.7652L0.492611 20.6633C0.351847 21.138 0.331067 21.6412 0.432202 22.1263C0.533337 22.6114 0.753102 23.0625 1.07106 23.4377L6.11798 29.4308C6.50912 29.8953 6.72434 30.4873 6.7247 31.0996V31.6827C6.42445 31.8733 6.1767 32.1388 6.00479 32.4541C5.83288 32.7694 5.74246 33.1241 5.74204 33.4848V38.714C5.74204 38.863 5.77722 39.1705 5.88053 39.2759C5.98385 39.3813 14.5807 39.2746 14.7268 39.2746C14.8729 39.2746 14.1107 38.8194 14.214 38.714C14.3173 38.6086 6.84385 38.863 6.84385 38.714V34.8367H14.214V38.714C14.214 38.863 14.2721 39.006 14.3754 39.1113C14.4787 39.2167 14.6188 39.2759 14.7649 39.2759C14.911 39.2759 15.0512 39.2167 15.1545 39.1113C15.2578 39.006 15.3158 38.863 15.3158 38.714V33.4848C15.3154 33.1153 15.2205 32.7522 15.0405 32.4314C14.8606 32.1106 14.6018 31.8432 14.2897 31.6555ZM1.90667 22.7053C1.70962 22.4728 1.5734 22.1934 1.51067 21.8928C1.44795 21.5922 1.46076 21.2804 1.54792 20.9863L4.4591 11.0877C4.50483 10.935 4.60259 10.8041 4.73471 10.7185C4.86684 10.6329 5.02461 10.5984 5.17953 10.6211C5.33445 10.6438 5.4763 10.7223 5.57943 10.8424C5.68257 10.9625 5.74019 11.1162 5.7419 11.2758C5.7419 11.2889 5.74175 11.3018 5.74021 11.3214L5.28061 18.1579C4.88042 18.6934 4.68534 19.3594 4.73191 20.0311C4.77847 20.7029 5.06349 21.3342 5.53358 21.807L8.29764 24.5867C8.34916 24.6385 8.41018 24.6794 8.47721 24.7072C8.54425 24.7349 8.61599 24.749 8.68834 24.7484C8.76069 24.7479 8.83223 24.7329 8.89887 24.7041C8.96552 24.6754 9.02596 24.6336 9.07676 24.581C9.12756 24.5285 9.16771 24.4663 9.19492 24.3979C9.22213 24.3295 9.23588 24.2563 9.23537 24.1825C9.23486 24.1087 9.2201 24.0358 9.19194 23.9678C9.16378 23.8998 9.12277 23.8382 9.07125 23.7863L6.30727 21.0068C6.01332 20.7113 5.84164 20.3121 5.82759 19.8914C5.81354 19.4707 5.9582 19.0605 6.23176 18.7453C6.25056 18.7235 6.26973 18.7021 6.29412 18.6773L6.3304 18.6394C6.38736 18.5813 6.46428 18.5481 6.54483 18.5469C6.62539 18.5457 6.70322 18.5766 6.7618 18.633L11.7433 23.4781C12.1984 23.922 12.561 24.4552 12.8093 25.0455C13.0575 25.6359 13.1863 26.2713 13.1879 26.9137V31.3573H7.83503C7.83209 31.3573 7.82937 31.3575 7.82651 31.3576V31.0996C7.8261 30.2186 7.51655 29.3669 6.95388 28.6986L1.90667 22.7053ZM14.214 33.7129H6.84385V33.4848C6.84511 33.2178 6.95017 32.9621 7.13599 32.774C7.3218 32.5858 7.5732 32.4805 7.83503 32.4812H13.2228C13.4846 32.4805 13.736 32.5858 13.9219 32.774C14.1077 32.9621 14.2128 33.2178 14.214 33.4848V33.7129ZM20.9914 21.3537C22.7154 20.8132 24.089 20.252 24.3374 19.2041C24.3799 19.0317 24.3869 18.8522 24.3581 18.6769C24.3292 18.5016 24.265 18.3343 24.1696 18.1856C23.7953 17.5893 22.928 17.1958 21.7892 16.8744C23.6519 16.4279 25.0582 15.8759 25.3306 14.812C25.3721 14.6559 25.3817 14.4928 25.359 14.3328C25.3362 14.1728 25.2814 14.0192 25.1981 13.8816C24.8529 13.3002 24.0359 12.8949 22.4659 12.5263C22.3954 12.5097 22.3224 12.5075 22.2511 12.5197C22.1797 12.532 22.1115 12.5584 22.0501 12.5975C21.9263 12.6766 21.8383 12.8026 21.8055 12.9478C21.7727 13.0931 21.7978 13.2456 21.8753 13.372C21.9529 13.4983 22.0764 13.5881 22.2188 13.6215C23.8306 14 24.1801 14.3366 24.2556 14.4638C24.2626 14.4727 24.2671 14.4834 24.2686 14.4947C24.2702 14.506 24.2687 14.5175 24.2645 14.5281C24.2303 14.6614 24.0192 15.0158 22.7989 15.4252C21.9388 15.7137 20.8282 15.9476 19.7252 16.1704V11.3112H25.0594L25.0603 11.3113L25.0619 11.3112H28.3024C28.4642 11.3112 28.6225 11.2638 28.7587 11.1747C28.8948 11.0856 29.003 10.9585 29.0704 10.8085C29.1377 10.6585 29.1615 10.4919 29.1388 10.3286C29.116 10.1652 29.0478 10.012 28.9422 9.88699L25.2727 5.54523C24.7883 4.96903 24.127 4.57699 23.3964 4.43289C22.6657 4.28879 21.9088 4.40111 21.2487 4.75157L19.7252 5.55534V4.57551C20.1438 4.44125 20.5013 4.1586 20.7332 3.7787C20.9651 3.39881 21.056 2.94679 20.9894 2.50446C20.9228 2.06214 20.7032 1.65875 20.3703 1.36731C20.0373 1.07587 19.6131 0.915649 19.1743 0.915649C18.7356 0.915649 18.3114 1.07587 17.9784 1.36731C17.6455 1.65875 17.4259 2.06214 17.3593 2.50446C17.2927 2.94679 17.3836 3.39881 17.6155 3.7787C17.8473 4.1586 18.2049 4.44125 18.6234 4.57551V5.55549L17.0999 4.75157C16.4399 4.40112 15.6829 4.28881 14.9523 4.43291C14.2217 4.57701 13.5604 4.96904 13.076 5.54523L9.40649 9.88699C9.30087 10.012 9.23265 10.1652 9.20993 10.3286C9.18722 10.4919 9.21096 10.6585 9.27834 10.8085C9.34572 10.9585 9.4539 11.0856 9.59003 11.1747C9.72617 11.2638 9.88452 11.3112 10.0463 11.3112H13.2868L13.2884 11.3113L13.2893 11.3112H18.6234V16.1704C17.5206 15.9476 16.4099 15.7137 15.5498 15.4252C14.3295 15.0157 14.1184 14.6614 14.0842 14.528C14.0799 14.5175 14.0785 14.506 14.0801 14.4947C14.0816 14.4834 14.0861 14.4727 14.093 14.4638C14.1686 14.3366 14.5181 14 16.1295 13.6216C16.2006 13.6056 16.2679 13.5754 16.3275 13.5328C16.3871 13.4901 16.4378 13.4359 16.4767 13.3731C16.5156 13.3104 16.5419 13.2404 16.5541 13.1672C16.5663 13.094 16.5642 13.0191 16.5479 12.9468C16.5316 12.8744 16.5013 12.8061 16.459 12.7457C16.4166 12.6854 16.3629 12.6342 16.3011 12.5951C16.2392 12.556 16.1703 12.5298 16.0984 12.518C16.0266 12.5062 15.9531 12.5091 15.8824 12.5264C14.3127 12.8951 13.4957 13.3004 13.1506 13.8817C13.0673 14.0193 13.0126 14.1728 12.9898 14.3328C12.967 14.4928 12.9766 14.6559 13.0181 14.812C13.2905 15.8759 14.6968 16.428 16.5595 16.8745C15.4206 17.1958 14.5534 17.5893 14.1791 18.1856C14.0837 18.3343 14.0195 18.5016 13.9906 18.6769C13.9618 18.8522 13.9688 19.0317 14.0113 19.2041C14.2596 20.252 15.6333 20.8132 17.3573 21.3537C16.5308 21.694 15.9024 22.0864 15.6189 22.6235C15.5346 22.7808 15.4824 22.9539 15.4655 23.1324C15.4485 23.3109 15.4672 23.491 15.5204 23.6619C15.776 24.5151 16.6901 25.0507 17.7813 25.537C16.6492 26.1178 15.7711 26.8569 16.0287 28.0237C16.0608 28.1691 16.1482 28.2955 16.2717 28.3751C16.3952 28.4548 16.5447 28.4811 16.6872 28.4484C16.8298 28.4156 16.9537 28.3264 17.0318 28.2005C17.1099 28.0745 17.1357 27.922 17.1036 27.7766C16.9917 27.2702 17.6345 26.8344 18.6234 26.3738V27.9001C18.6234 28.0491 18.6815 28.1921 18.7848 28.2975C18.8881 28.4028 19.0282 28.462 19.1743 28.462C19.3205 28.462 19.4606 28.4028 19.5639 28.2975C19.6672 28.1921 19.7252 28.0491 19.7252 27.9001V26.3738C20.7142 26.8344 21.3569 27.2701 21.2451 27.7766C21.2286 27.8488 21.2263 27.9237 21.2383 27.9968C21.2503 28.0699 21.2763 28.1399 21.3149 28.2027C21.3536 28.2655 21.404 28.3199 21.4633 28.3627C21.5226 28.4055 21.5897 28.436 21.6606 28.4522C21.7315 28.4685 21.8048 28.4704 21.8764 28.4576C21.948 28.4448 22.0164 28.4178 22.0777 28.3779C22.139 28.3381 22.192 28.2862 22.2335 28.2254C22.2751 28.1646 22.3045 28.096 22.3199 28.0236C22.5776 26.8569 21.6995 26.1178 20.5675 25.537C21.6585 25.0507 22.5727 24.515 22.8284 23.662C22.8815 23.4911 22.9002 23.3109 22.8833 23.1325C22.8663 22.954 22.8141 22.7809 22.7298 22.6235C22.4463 22.0863 21.8179 21.694 20.9914 21.3537ZM18.6234 24.6808C17.6919 24.2845 16.7195 23.8189 16.5741 23.3337C16.5632 23.3049 16.5589 23.274 16.5615 23.2433C16.5641 23.2126 16.5735 23.1829 16.589 23.1565C16.791 22.7736 17.6534 22.4105 18.6234 22.0854V24.6808ZM18.6234 20.5667C17.7319 20.2989 16.8108 20.022 16.1212 19.7129C15.257 19.3256 15.1067 19.0434 15.0822 18.94C15.0747 18.915 15.0729 18.8886 15.0772 18.8628C15.0815 18.837 15.0917 18.8126 15.107 18.7916C15.4317 18.2743 17.0421 17.872 18.6234 17.5406V20.5667ZM18.6234 10.1874H15.6797C15.777 10.0975 15.87 10.0029 15.9584 9.90385C16.3017 9.51539 16.5728 9.06636 16.7583 8.57877C16.8115 8.43996 16.8084 8.28529 16.7498 8.14878C16.6912 8.01227 16.5818 7.90511 16.4457 7.85086C16.3096 7.79661 16.158 7.79973 16.0242 7.85952C15.8903 7.91931 15.7853 8.03089 15.7321 8.16969C15.5951 8.53047 15.3947 8.86275 15.1409 9.15028C14.5064 9.86647 13.6943 10.1068 13.2412 10.1874H10.6073L13.9105 6.27917C14.2335 5.89494 14.6745 5.63349 15.1617 5.53739C15.6489 5.44128 16.1536 5.51616 16.5938 5.74984L18.6234 6.82071V10.1874ZM23.2417 18.7915C23.257 18.8126 23.2672 18.837 23.2715 18.8627C23.2758 18.8885 23.274 18.915 23.2664 18.94C23.242 19.0434 23.0917 19.3256 22.2274 19.7129C21.5378 20.022 20.6168 20.2988 19.7252 20.5667V17.5406C21.3066 17.872 22.9169 18.2741 23.2417 18.7915ZM21.7549 5.74992C22.1951 5.51621 22.6998 5.44131 23.187 5.53741C23.6742 5.6335 24.1152 5.89494 24.4382 6.27917L27.7414 10.1874H25.1075C24.6543 10.1068 23.8423 9.86647 23.2078 9.15036C22.954 8.86277 22.7536 8.53043 22.6166 8.16962C22.5907 8.10028 22.5516 8.03687 22.5015 7.98303C22.4515 7.92919 22.3915 7.886 22.325 7.85594C22.2584 7.82589 22.1868 7.80957 22.114 7.80792C22.0413 7.80627 21.969 7.81933 21.9012 7.84635C21.8335 7.87336 21.7716 7.9138 21.7193 7.96531C21.6669 8.01683 21.6251 8.07841 21.5962 8.14651C21.5673 8.2146 21.5519 8.28786 21.551 8.36205C21.55 8.43624 21.5634 8.5099 21.5905 8.57877C21.776 9.06638 22.047 9.51543 22.3904 9.90393C22.4787 10.0029 22.5717 10.0975 22.6689 10.1874H19.7252V6.82071L21.7549 5.74992ZM19.1743 3.53783C19.0291 3.53783 18.8871 3.49389 18.7663 3.41156C18.6455 3.32923 18.5513 3.21222 18.4957 3.07532C18.4401 2.93841 18.4256 2.78777 18.4539 2.64243C18.4823 2.4971 18.5522 2.3636 18.6549 2.25882C18.7577 2.15404 18.8886 2.08268 19.031 2.05377C19.1735 2.02486 19.3212 2.0397 19.4554 2.09641C19.5897 2.15311 19.7044 2.24914 19.7851 2.37235C19.8658 2.49556 19.9089 2.64042 19.9089 2.7886C19.9086 2.98724 19.8312 3.17767 19.6935 3.31812C19.5558 3.45858 19.3691 3.53759 19.1743 3.53783ZM21.7746 23.3336C21.6292 23.8189 20.6568 24.2844 19.7252 24.6807V22.0854C20.6953 22.4104 21.5576 22.7735 21.7597 23.1564C21.7752 23.1828 21.7846 23.2125 21.7871 23.2432C21.7897 23.2739 21.7855 23.3048 21.7746 23.3336Z" fill="#FCFCFC"/>
</g>
<defs>
<clipPath id="clip0_1_22622">
<rect width="37.6082" height="38.3604" fill="white" transform="translate(0.370728 0.915527)"/>
</clipPath>
</defs>
</svg>
