<svg width="18" height="12" viewBox="0 0 18 12" fill="none" xmlns="http://www.w3.org/2000/svg">
<path opacity="0.63" d="M17.1719 11.0327H1.25613L1.82047 8.83679H16.6081L17.1719 11.0327Z" fill="#440E37"/>
<path d="M8.91138 6.05845C8.74301 5.93603 8.57554 5.81183 8.41163 5.68274L2.12379 8.29135C1.65611 8.48544 1.46725 9.02987 1.70198 9.50708L9.31269 6.34958C9.17907 6.25209 9.045 6.15594 8.91138 6.05845Z" fill="#402206"/>
<path d="M8.95452 6.07361C8.88326 6.02197 8.81244 5.96989 8.74206 5.91736L2.43462 8.53399C2.06359 8.68801 1.8685 9.06239 1.92062 9.44923L9.35539 6.36474C9.22221 6.2677 9.08814 6.1711 8.95452 6.07361Z" fill="#703D0B"/>
<path opacity="0.2" d="M6.40582 7.73535L9.31212 6.34958C9.17894 6.25209 9.04443 6.1555 8.9108 6.05845C8.74244 5.93603 8.57497 5.81183 8.41105 5.68274L6.96971 6.27391L7.0481 6.5775L6.40582 7.73535Z" fill="#821C4E"/>
<path d="M9.55903 6.05845C9.72739 5.93603 9.89487 5.81183 10.0588 5.68274L16.3466 8.29135C16.8143 8.48544 17.0032 9.02987 16.7684 9.50708L9.15771 6.34958C9.29134 6.25209 9.42541 6.15594 9.55903 6.05845Z" fill="#402206"/>
<path d="M9.55977 6.05847C9.63104 6.00683 9.70186 5.95475 9.77223 5.90222L16.0797 8.51885C16.4507 8.67287 16.6458 9.04725 16.5937 9.43409L9.15891 6.3496C9.29208 6.25211 9.42615 6.15596 9.55977 6.05847Z" fill="#703D0B"/>
<path opacity="0.2" d="M11.758 7.47939L9.15771 6.34958C9.29089 6.25209 9.42541 6.1555 9.55903 6.05845C9.72739 5.93603 9.89487 5.81183 10.0588 5.68274L11.5001 6.27391L11.4217 6.5775L11.758 7.47939Z" fill="#821C4E"/>
<path d="M16.8268 9.82851L10.2792 6.54548L16.8268 3.26246C17.2864 3.03187 17.4717 2.47275 17.2414 2.01379L9.91491 5.68767C9.44099 5.68767 9.04235 5.68767 8.56843 5.68767L1.2419 2.01379C1.01117 2.4732 1.19691 3.03231 1.65657 3.26246L8.20409 6.54548L1.65657 9.82851C1.19691 10.0591 1.01162 10.6182 1.2419 11.0772L9.24189 7.06587L17.2419 11.0772C17.4722 10.6182 17.2864 10.0591 16.8268 9.82851Z" fill="#8A4B0D"/>
<path d="M17.267 2.0688C17.2618 2.05054 17.2539 2.03181 17.2422 2.01355C17.2511 2.03181 17.259 2.05054 17.267 2.0688Z" fill="#821C4E"/>
<path d="M17.267 2.0688C17.2618 2.05054 17.2539 2.03181 17.2422 2.01355C17.2511 2.03181 17.259 2.05054 17.267 2.0688Z" fill="#942059"/>
<path d="M16.5631 10.0345L9.94117 6.71404L16.8263 3.26141C17.1911 3.07845 17.3831 2.68849 17.3314 2.3061C17.3207 2.22508 17.298 2.14451 17.265 2.06616C17.3292 2.28963 16.9314 2.50687 16.7595 2.59323L10.0597 5.95282H8.42277L1.72293 2.59323C1.55456 2.50909 1.16528 2.28919 1.2116 2.07907C1.18131 2.15341 1.16127 2.22953 1.15058 2.30655C1.09891 2.68938 1.29088 3.07889 1.65567 3.26185L8.54081 6.71448L1.91891 10.0349C1.55412 10.2179 1.36215 10.6078 1.41381 10.9902L9.24099 7.06527L17.0682 10.9902C17.1198 10.6074 16.9279 10.2174 16.5631 10.0345Z" fill="#B56311"/>
<path opacity="0.44" d="M9.24058 6.86703L1.6027 10.6972C1.65259 10.4839 1.79423 10.2974 1.99822 10.195L8.9377 6.71523L1.73499 3.10368C1.52074 2.9964 1.3751 2.79608 1.33234 2.56905C1.41786 2.63137 1.52119 2.6928 1.64234 2.75334L8.38005 6.13163H10.1011L16.8388 2.75334C16.96 2.69236 17.0633 2.63093 17.1488 2.5686C17.1065 2.79563 16.9609 2.99595 16.7462 3.10324L9.54346 6.71479L16.4829 10.1946C16.6869 10.297 16.829 10.483 16.8785 10.6967L9.24058 6.86703Z" fill="white"/>
<path d="M1.211 2.07958C1.21999 2.05757 1.22987 2.03556 1.24066 2.01355C1.22583 2.03556 1.21594 2.05757 1.211 2.07958Z" fill="#821C4E"/>
<path d="M1.211 2.07958C1.21999 2.05757 1.22987 2.03556 1.24066 2.01355C1.22583 2.03556 1.21594 2.05757 1.211 2.07958Z" fill="#942059"/>
<path d="M17.2457 2.01909L16.4163 1.15281C16.2729 1.01125 16.0542 0.980093 15.8769 1.07536L9.76234 4.36818L9.18509 4.4029L8.76418 4.37752L2.6496 1.0847C2.47232 0.989442 2.25363 1.0206 2.11021 1.16216L1.24344 2.01775L8.56686 5.7032H9.37082V5.69385H9.95965L17.2457 2.01909Z" fill="#402206"/>
<path d="M17.566 1.67743L16.5286 0.985211C16.4908 0.953605 16.4373 0.946927 16.3928 0.96874L9.74771 4.23129L9.76018 4.58207C9.63324 4.54245 9.43325 4.49571 9.18293 4.49616C8.93395 4.4966 8.73529 4.54334 8.60924 4.58252L8.62171 4.22951L1.97665 0.96696C1.93211 0.945147 1.87911 0.951379 1.8408 0.98343L0.803446 1.67565C0.697884 1.83101 0.793202 1.95075 0.855114 1.98147C0.855114 1.98147 7.63647 5.36243 8.57272 5.82406C8.6137 5.84409 8.66091 5.84454 8.70278 5.82584C8.82749 5.76975 9.07024 5.70787 9.26355 5.70787C9.45507 5.70743 9.65685 5.77999 9.77087 5.81961C9.80962 5.83296 9.85194 5.83029 9.88846 5.81204C11.0189 5.24625 17.5148 1.98325 17.5148 1.98325C17.5762 1.95254 17.6715 1.83323 17.566 1.67743Z" fill="#B3276B"/>
<path d="M9.17853 4.35156C8.89614 4.35201 8.67834 4.41211 8.55807 4.45351L8.68992 5.68525C9.26583 5.44709 9.49878 5.5428 9.86179 5.65587L9.80433 4.45351C9.68318 4.41211 9.46359 4.35112 9.17853 4.35156Z" fill="#360B2B"/>
<path d="M16.3928 0.78068L9.74777 4.04323L9.852 5.65826L17.5144 1.79519C17.5763 1.76447 17.5865 1.6799 17.5331 1.63538L16.5287 0.797151C16.4904 0.7651 16.4374 0.758868 16.3928 0.78068Z" fill="#360B2B"/>
<path d="M2.03018 0.803996L8.67524 4.06654L8.69529 5.68736L0.908639 1.81851C0.846727 1.78779 0.836482 1.70321 0.889931 1.6587L1.89433 0.820466C1.93264 0.788415 1.98564 0.782183 2.03018 0.803996Z" fill="#360B2B"/>
<path d="M9.24453 4.50262C9.59596 3.24594 10.4173 2.36275 11.6475 1.91537C12.4163 1.63581 13.7396 1.19644 14.9988 1.10741C15.69 1.12878 15.8874 1.10029 16.2824 1.00146L17.3051 1.75779L9.28194 5.45436C9.25388 5.1432 9.23518 4.90771 9.24453 4.50262Z" fill="white"/>
<path d="M15.0587 1.18442C15.0997 1.24896 15.1358 1.31663 15.1754 1.38207C15.2097 1.43905 15.2476 1.49157 15.2895 1.54277C15.3425 1.60687 15.3928 1.6732 15.4418 1.74042C15.5402 1.87574 15.6329 2.01463 15.7291 2.15174C15.7767 2.21985 15.8253 2.28751 15.8756 2.35384C15.8872 2.36898 15.8992 2.38367 15.9112 2.3988L17.3049 1.75644L16.2823 1.00012C15.8885 1.09895 15.6908 1.12699 15.0044 1.10651C15.024 1.13189 15.0418 1.15815 15.0587 1.18442Z" fill="#BFC7C9"/>
<path d="M9.29477 5.46749C9.6413 4.18766 10.6898 3.22969 11.9031 2.69995C12.6612 2.36876 14.1533 1.98859 15.3951 1.81543C16.1002 1.81543 16.7398 1.81543 17.2382 1.77759L9.85465 5.57833C9.77403 5.53871 9.35401 5.46214 9.29477 5.46749Z" fill="#AEB4B8"/>
<path d="M9.52634 5.32262C9.69292 4.76127 10.059 4.27872 10.4684 3.86874C11.3111 3.05232 12.4157 2.55909 13.5421 2.27285C14.1069 2.12907 14.6833 2.0387 15.2619 1.98706C15.0026 2.02445 14.6552 2.08188 14.4031 2.13129C12.997 2.41352 11.5761 2.92322 10.5147 3.9177C10.0978 4.31211 9.72811 4.77863 9.52634 5.32262Z" fill="#AEB4B8"/>
<path d="M9.86703 5.44471C12.0081 4.28597 14.2303 3.16106 16.4208 2.09937C14.2766 3.25009 12.0616 4.39014 9.86703 5.44471Z" fill="#AEB4B8"/>
<g opacity="0.69">
<path d="M10.1773 5.0422C11.8093 4.14031 13.4867 3.27849 15.1703 2.47632C13.5379 3.3782 11.861 4.24047 10.1773 5.0422Z" fill="#AEB4B8"/>
</g>
<g opacity="0.69">
<path d="M9.97809 4.75492C11.2319 3.40387 12.5236 2.70008 14.3297 2.34084C14.5662 2.29454 14.8032 2.2527 15.0415 2.21753C14.8068 2.27006 14.5711 2.32036 14.3382 2.37912C12.4982 2.82116 11.3495 3.46441 9.97809 4.75492Z" fill="#AEB4B8"/>
</g>
<g opacity="0.69">
<path d="M10.4008 4.6557C11.476 3.81168 12.7085 3.16086 14.0113 2.74731C12.7544 3.28373 11.5513 3.92075 10.4008 4.6557Z" fill="#AEB4B8"/>
</g>
<path d="M9.33315 4.50262C8.98172 3.24594 8.16039 2.36275 6.93017 1.91537C6.16139 1.63581 4.83808 1.19644 3.57891 1.10741C2.88764 1.12878 2.69032 1.10029 2.29524 1.00146L1.27258 1.75779L9.29574 5.45436C9.3238 5.1432 9.34295 4.90771 9.33315 4.50262Z" fill="white"/>
<path d="M3.51887 1.18429C3.4779 1.24884 3.44182 1.31651 3.40218 1.38194C3.36788 1.43892 3.33002 1.49145 3.28815 1.54265C3.23515 1.60675 3.18482 1.67308 3.13582 1.74029C3.03739 1.87562 2.94474 2.01451 2.84853 2.15162C2.80087 2.21973 2.75232 2.28739 2.70199 2.35372C2.69041 2.36886 2.67839 2.38355 2.66636 2.39868L1.27267 1.75632L2.29533 1C2.68908 1.09882 2.88684 1.12687 3.57321 1.10639C3.55406 1.13177 3.5358 1.15803 3.51887 1.18429Z" fill="#BFC7C9"/>
<path d="M9.30541 5.46971C8.95889 4.18989 7.88901 3.22969 6.67572 2.69995C5.91763 2.36876 4.42551 1.98859 3.18371 1.81543C2.47863 1.81543 1.83902 1.81543 1.34061 1.77759L8.67961 5.55607C8.76068 5.51645 9.24617 5.46437 9.30541 5.46971Z" fill="#AEB4B8"/>
<path d="M9.05062 5.32306C8.84885 4.77908 8.47916 4.313 8.06181 3.9177C7.0004 2.92278 5.57954 2.41307 4.17339 2.13129C3.92217 2.08099 3.57075 2.0249 3.31464 1.98706C3.89322 2.0387 4.47003 2.12907 5.03436 2.27285C6.1608 2.55909 7.26542 3.05232 8.10813 3.86874C8.51791 4.27917 8.88403 4.76172 9.05062 5.32306Z" fill="#AEB4B8"/>
<path d="M8.71025 5.44471C6.51571 4.39014 4.30114 3.25054 2.15649 2.09937C4.34702 3.16062 6.56916 4.28597 8.71025 5.44471Z" fill="#AEB4B8"/>
<g opacity="0.69">
<path d="M8.40258 5.04391C6.71894 4.24218 5.04197 3.37991 3.40955 2.47803C5.09319 3.2802 6.77105 4.14202 8.40258 5.04391Z" fill="#AEB4B8"/>
</g>
<g opacity="0.69">
<path d="M8.59939 4.75492C7.22709 3.46397 6.07793 2.82116 4.23928 2.37912C4.00633 2.32036 3.77116 2.2705 3.53598 2.21753C3.77427 2.2527 4.01123 2.29454 4.24774 2.34084C6.05432 2.70052 7.34601 3.40476 8.59939 4.75492Z" fill="#AEB4B8"/>
</g>
<g opacity="0.69">
<path d="M8.1747 4.6557C7.02376 3.92075 5.82115 3.28373 4.56421 2.74731C5.86703 3.16086 7.09948 3.81168 8.1747 4.6557Z" fill="#AEB4B8"/>
</g>
<path d="M9.38678 4.34082C9.38678 4.34082 9.65937 1.87154 14.7464 1.2688" stroke="#AEB4B8" stroke-width="0.198257" stroke-miterlimit="10"/>
<path d="M9.39914 4.37366C9.39914 4.37366 9.77017 1.90349 14.7868 1.32434" stroke="#AEB4B8" stroke-width="0.198257" stroke-miterlimit="10"/>
<path d="M9.41098 4.40825C9.41098 4.40825 9.88 1.93719 14.8272 1.38208" stroke="#AEB4B8" stroke-width="0.198257" stroke-miterlimit="10"/>
<path d="M9.42395 4.44064C9.42395 4.44064 9.9914 1.96825 14.8682 1.43762" stroke="#AEB4B8" stroke-width="0.198257" stroke-miterlimit="10"/>
<path d="M9.43634 4.47524C9.43634 4.47524 10.1018 2.00195 14.9086 1.49536" stroke="#AEB4B8" stroke-width="0.198257" stroke-miterlimit="10"/>
<path d="M9.44928 4.50807C9.44928 4.50807 10.2132 2.0339 14.9501 1.5509" stroke="#AEB4B8" stroke-width="0.198257" stroke-miterlimit="10"/>
<path d="M9.46249 4.54254C9.46249 4.54254 10.3244 2.06703 14.9914 1.60852" stroke="#AEB4B8" stroke-width="0.198257" stroke-miterlimit="10"/>
<path d="M9.47461 4.57604C9.47461 4.57604 10.4349 2.09963 15.0315 1.66516" stroke="#AEB4B8" stroke-width="0.198257" stroke-miterlimit="10"/>
<path d="M9.48755 4.60855C9.48755 4.60855 10.5458 2.13126 15.073 1.72083" stroke="#AEB4B8" stroke-width="0.198257" stroke-miterlimit="10"/>
<path d="M9.49887 4.64237C9.49887 4.64237 10.6556 2.16374 15.1124 1.77734" stroke="#AEB4B8" stroke-width="0.198257" stroke-miterlimit="10"/>
<path d="M9.17766 4.34082C9.17766 4.34082 8.90507 1.87154 3.81805 1.2688" stroke="#AEB4B8" stroke-width="0.198257" stroke-miterlimit="10"/>
<path d="M9.16504 4.37366C9.16504 4.37366 8.79402 1.90349 3.77737 1.32434" stroke="#AEB4B8" stroke-width="0.198257" stroke-miterlimit="10"/>
<path d="M9.15309 4.40825C9.15309 4.40825 8.68407 1.93719 3.73691 1.38208" stroke="#AEB4B8" stroke-width="0.198257" stroke-miterlimit="10"/>
<path d="M9.14046 4.44064C9.14046 4.44064 8.57301 1.96825 3.69623 1.43762" stroke="#AEB4B8" stroke-width="0.198257" stroke-miterlimit="10"/>
<path d="M9.12699 4.47524C9.12699 4.47524 8.46155 2.00195 3.65469 1.49536" stroke="#AEB4B8" stroke-width="0.198257" stroke-miterlimit="10"/>
<path d="M9.11399 4.50807C9.11399 4.50807 8.35012 2.0339 3.61319 1.5509" stroke="#AEB4B8" stroke-width="0.198257" stroke-miterlimit="10"/>
<path d="M9.10162 4.54254C9.10162 4.54254 8.23975 2.06703 3.57275 1.60852" stroke="#AEB4B8" stroke-width="0.198257" stroke-miterlimit="10"/>
<path d="M9.09031 4.57604C9.09031 4.57604 8.13001 2.09963 3.53339 1.66516" stroke="#AEB4B8" stroke-width="0.198257" stroke-miterlimit="10"/>
<path d="M9.07838 4.60855C9.07838 4.60855 8.02009 2.13126 3.49295 1.72083" stroke="#AEB4B8" stroke-width="0.198257" stroke-miterlimit="10"/>
<path d="M9.06491 4.64237C9.06491 4.64237 7.90818 2.16374 3.45142 1.77734" stroke="#AEB4B8" stroke-width="0.198257" stroke-miterlimit="10"/>
<path d="M8.67793 5.68058C8.67793 5.68058 9.21421 5.45355 9.80437 5.68726L9.96962 5.60001C9.96962 5.60001 9.26231 5.27148 8.54431 5.60535L8.67793 5.68058Z" fill="#360B2B"/>
</svg>
