<svg width="40" height="41" viewBox="0 0 40 41" fill="none" xmlns="http://www.w3.org/2000/svg">
<g clip-path="url(#clip0_1_22629)">
<path d="M20.1748 0.949097C13.9161 0.949097 8.03367 3.96855 4.35648 9.03546C4.11218 8.93654 3.84664 8.87924 3.56736 8.87924C2.40192 8.87924 1.45398 9.82719 1.45398 10.9922C1.45398 11.6705 1.78071 12.2684 2.27886 12.6554C1.18913 15.1258 0.630859 17.7597 0.630859 20.4931C0.630859 31.2699 9.39803 40.037 20.1748 40.037C30.9516 40.037 39.7188 31.2699 39.7188 20.4931C39.7188 9.71627 30.9516 0.949097 20.1748 0.949097ZM3.56736 9.69365C4.28345 9.69365 4.86602 10.2761 4.86602 10.9923C4.86602 11.7085 4.28353 12.2914 3.56736 12.2914C2.85118 12.2914 2.26832 11.7084 2.26832 10.9923C2.26832 10.2762 2.85118 9.69365 3.56736 9.69365ZM20.1748 39.2227C9.84737 39.2227 1.44519 30.8205 1.44519 20.4931C1.44519 17.8873 1.97467 15.3767 3.00756 13.0208C3.187 13.0705 3.37225 13.1056 3.56728 13.1056C4.73233 13.1056 5.68027 12.1577 5.68027 10.9922C5.68027 10.3998 5.43353 9.86538 5.03942 9.48128C8.5649 4.64493 14.1905 1.76343 20.1748 1.76343C30.5023 1.76343 38.9045 10.1656 38.9045 20.4931C38.9045 30.8205 30.5023 39.2227 20.1748 39.2227Z" fill="#FCFCFC"/>
<path d="M20.1749 9.09253C13.8884 9.09253 8.77423 14.2067 8.77423 20.4931C8.77423 22.9538 9.59414 25.3639 11.0749 27.3281C10.8027 27.6873 10.647 28.1283 10.647 28.588C10.647 29.7443 11.5878 30.6846 12.7441 30.6846C13.2665 30.6846 13.7564 30.4913 14.1371 30.1494C15.9478 31.2872 18.0254 31.8938 20.1749 31.8938C26.4613 31.8938 31.5755 26.7797 31.5755 20.4932C31.5755 14.2068 26.4613 9.09253 20.1749 9.09253ZM12.7441 29.8703C12.0367 29.8703 11.4613 29.2949 11.4613 28.588C11.4613 27.8724 12.0511 27.3013 12.7441 27.3013C13.4511 27.3013 14.0264 27.8786 14.0264 28.588C14.0264 29.2632 13.4787 29.8703 12.7441 29.8703ZM20.1749 31.0794C18.2043 31.0794 16.2952 30.5363 14.6292 29.5052C14.7684 29.2221 14.8407 28.9112 14.8407 28.5879C14.8407 27.4292 13.9003 26.4869 12.7441 26.4869C12.3616 26.4869 11.993 26.5903 11.6725 26.7832C10.3261 24.9708 9.58849 22.7524 9.58849 20.4931C9.58849 14.6557 14.3373 9.90686 20.1748 9.90686C26.0122 9.90686 30.7611 14.6557 30.7611 20.4931C30.7611 26.3306 26.0123 31.0794 20.1749 31.0794Z" fill="#FCFCFC"/>
<path d="M20.1756 15.4604C17.4014 15.4604 15.1445 17.7174 15.1445 20.4916C15.1445 23.2658 17.4014 25.5227 20.1756 25.5227C22.9499 25.5227 25.2068 23.2658 25.2068 20.4916C25.2068 17.7174 22.9499 15.4604 20.1756 15.4604ZM20.1756 24.7084C17.8503 24.7084 15.9588 22.8169 15.9588 20.4915C15.9588 18.1662 17.8503 16.2747 20.1756 16.2747C22.501 16.2747 24.3924 18.1662 24.3924 20.4915C24.3924 22.8168 22.501 24.7084 20.1756 24.7084Z" fill="#FCFCFC"/>
<path d="M37.419 19.2824C37.419 18.0765 36.4567 17.0931 35.2599 17.0546C33.6637 10.0617 27.3775 5.02087 20.1749 5.02087C11.6434 5.02087 4.70258 11.9617 4.70258 20.4932C4.70258 29.0246 11.6434 35.9655 20.1749 35.9655C28.3934 35.9655 35.1054 29.6251 35.612 21.468C36.64 21.2695 37.419 20.3654 37.419 19.2824ZM20.1749 35.1511C12.0924 35.1511 5.51691 28.5756 5.51691 20.4932C5.51691 12.4107 12.0924 5.83521 20.1749 5.83521C26.9789 5.83521 32.9196 10.5829 34.4532 17.1778C33.5833 17.4827 32.9565 18.3098 32.9565 19.2824C32.9565 20.3767 33.7523 21.2873 34.7961 21.473C34.289 29.1733 27.9422 35.1511 20.1749 35.1511ZM35.1879 20.6952C34.4066 20.6952 33.7708 20.0613 33.7708 19.2824C33.7708 18.501 34.4066 17.8652 35.1879 17.8652C35.9692 17.8652 36.6047 18.501 36.6047 19.2824C36.6047 20.0613 35.9692 20.6952 35.1879 20.6952Z" fill="#FCFCFC"/>
</g>
<defs>
<clipPath id="clip0_1_22629">
<rect width="39.1125" height="39.1125" fill="white" transform="translate(0.618591 0.936768)"/>
</clipPath>
</defs>
</svg>
