<svg width="41" height="38" viewBox="0 0 41 38" fill="none" xmlns="http://www.w3.org/2000/svg">
<path d="M26.7202 20.9632C26.8441 20.9632 26.963 20.9177 27.0506 20.8367C27.1382 20.7557 27.1874 20.6458 27.1874 20.5313C27.1874 20.4167 27.1382 20.3069 27.0506 20.2259C26.963 20.1449 26.8441 20.0994 26.7202 20.0994H22.3118C22.1879 20.0994 22.069 20.1449 21.9814 20.2259C21.8938 20.3069 21.8446 20.4167 21.8446 20.5313C21.8446 20.6458 21.8938 20.7557 21.9814 20.8367C22.069 20.9177 22.1879 20.9632 22.3118 20.9632H23.5731C23.8661 20.9614 24.1526 21.0435 24.3932 21.1982C24.6338 21.3528 24.8168 21.5724 24.9171 21.827H22.3118C22.1879 21.827 22.069 21.8725 21.9814 21.9535C21.8938 22.0345 21.8446 22.1444 21.8446 22.2589C21.8446 22.3734 21.8938 22.4833 21.9814 22.5643C22.069 22.6453 22.1879 22.6908 22.3118 22.6908H24.9172C24.8169 22.9454 24.6339 23.165 24.3933 23.3197C24.1527 23.4743 23.8662 23.5564 23.5732 23.5546H22.3118C22.2179 23.5562 22.1266 23.5835 22.0494 23.6331C21.9722 23.6826 21.9127 23.7523 21.8783 23.8331C21.844 23.914 21.8364 24.0025 21.8564 24.0873C21.8765 24.1722 21.9233 24.2497 21.991 24.31L25.1436 27.0661C25.188 27.1052 25.2404 27.1358 25.2977 27.1562C25.355 27.1765 25.416 27.1862 25.4774 27.1847C25.5387 27.1832 25.5992 27.1705 25.6552 27.1474C25.7112 27.1243 25.7618 27.0912 25.804 27.05C25.8892 26.9656 25.935 26.8535 25.9316 26.7381C25.9281 26.6227 25.8756 26.5132 25.7854 26.4333L23.4863 24.4184H23.5732C24.1159 24.4244 24.6438 24.2551 25.0659 23.9397C25.4879 23.6243 25.7777 23.1826 25.8852 22.6908H26.7202C26.8441 22.6908 26.963 22.6453 27.0506 22.5643C27.1382 22.4833 27.1874 22.3734 27.1874 22.2589C27.1874 22.1444 27.1382 22.0345 27.0506 21.9535C26.963 21.8725 26.8441 21.827 26.7202 21.827H25.8852C25.831 21.5072 25.6808 21.2079 25.4517 20.9632H26.7202Z" fill="#FCFCFC"/>
<path d="M24.7121 14.9937C24.5689 14.4759 24.2337 14.021 23.765 13.7082C24.0811 13.4979 24.3387 13.2212 24.5164 12.9007C24.6941 12.5803 24.7869 12.2254 24.7871 11.8653C24.7873 11.5053 24.6949 11.1503 24.5175 10.8297C24.3401 10.5091 24.0828 10.2322 23.7668 10.0216C24.1888 9.74162 24.5035 9.34487 24.6655 8.88867C24.8276 8.43247 24.8285 7.94045 24.6682 7.48372C24.5079 7.02699 24.1947 6.6292 23.7739 6.34784C23.353 6.06648 22.8463 5.91612 22.327 5.91848H10.2632C9.7437 5.91671 9.23702 6.06758 8.81627 6.34931C8.39552 6.63104 8.08246 7.02906 7.92227 7.48596C7.76207 7.94285 7.76301 8.43498 7.92496 8.89135C8.08691 9.34771 8.4015 9.74471 8.82333 10.0251C8.50746 10.2352 8.25018 10.5118 8.07272 10.832C7.89526 11.1521 7.80271 11.5068 7.80271 11.8665C7.80271 12.2263 7.89526 12.5809 8.07272 12.9011C8.25018 13.2213 8.50746 13.4979 8.82333 13.708C8.50745 13.9184 8.25017 14.1951 8.07273 14.5155C7.89528 14.8358 7.80275 15.1906 7.80275 15.5505C7.80275 15.9104 7.89528 16.2652 8.07273 16.5855C8.25017 16.9059 8.50745 17.1827 8.82333 17.393C8.50741 17.6034 8.25012 17.8802 8.07265 18.2006C7.89519 18.5211 7.80265 18.8759 7.80265 19.2358C7.80265 19.5958 7.89519 19.9506 8.07265 20.271C8.25012 20.5914 8.50741 20.8682 8.82333 21.0786C8.50746 21.2891 8.2502 21.5659 8.07277 21.8863C7.89534 22.2067 7.80281 22.5615 7.80281 22.9214C7.80281 23.2814 7.89534 23.6362 8.07277 23.9566C8.2502 24.277 8.50746 24.5538 8.82333 24.7642C8.50744 24.9747 8.25017 25.2515 8.07273 25.5719C7.89529 25.8923 7.80276 26.2471 7.80276 26.607C7.80276 26.967 7.89529 27.3218 8.07273 27.6422C8.25017 27.9626 8.50744 28.2394 8.82333 28.4498C8.40134 28.7298 8.08656 29.1266 7.9245 29.5828C7.76244 30.039 7.76148 30.531 7.92176 30.9878C8.08205 31.4445 8.39527 31.8423 8.81617 32.1237C9.23706 32.405 9.74382 32.5554 10.2632 32.553H22.327C22.7852 32.5564 23.2352 32.4401 23.6251 32.2176C23.9184 32.2434 24.2155 32.2608 24.516 32.2608C26.9769 32.2621 29.3389 31.3654 31.0886 29.7656C32.8383 28.1658 33.8344 25.9921 33.8602 23.7171C33.886 21.4421 32.9396 19.2496 31.2266 17.6161C29.5136 15.9827 27.1725 15.0404 24.7121 14.9939V14.9937ZM31.5756 23.3387C31.5056 21.8532 30.8873 20.4346 29.8237 19.3193L30.7729 18.4421C32.0864 19.7914 32.8452 21.5246 32.9167 23.3387H31.5756ZM18.9069 29.4122L19.8558 28.535C20.9756 29.4476 22.3802 30.0073 23.8666 30.1335V31.3775C22.0242 31.2462 20.2804 30.5553 18.9069 29.4122V29.4122ZM16.1319 24.2025H17.4767C17.6075 25.5802 18.2096 26.8835 19.1958 27.9234L18.247 28.8007C17.0117 27.5262 16.2679 25.9093 16.1319 24.2025ZM29.1623 18.7092C27.9507 17.7269 26.4112 17.1589 24.801 17.1V15.8601C26.7666 15.9204 28.6465 16.6185 30.1111 17.8319L29.1623 18.7092ZM23.8666 15.8782V17.1221C22.3675 17.2494 20.952 17.8177 19.8279 18.7435L18.8748 17.8697C20.2529 16.7112 22.0095 16.0104 23.8666 15.8782ZM18.2185 18.4846L19.1716 19.358C18.1301 20.4677 17.5255 21.8708 17.4564 23.3387H16.1153C16.186 21.5441 16.9296 19.8281 18.2185 18.4846ZM24.801 30.1557C26.3957 30.0974 27.9216 29.5397 29.1283 28.574L30.0774 29.4514C28.6174 30.6481 26.7511 31.3357 24.801 31.3955V30.1557ZM24.516 29.2976C23.3031 29.2977 22.1174 28.9652 21.1088 28.3422C20.1003 27.7192 19.3142 26.8338 18.85 25.7978C18.3858 24.7617 18.2643 23.6217 18.5009 22.5219C18.7375 21.422 19.3215 20.4117 20.1792 19.6188C21.0368 18.8258 22.1295 18.2858 23.3192 18.067C24.5088 17.8482 25.7419 17.9605 26.8625 18.3896C27.9831 18.8187 28.9409 19.5454 29.6148 20.4778C30.2886 21.4102 30.6483 22.5064 30.6483 23.6278C30.6465 25.131 29.9998 26.572 28.8502 27.6349C27.7005 28.6978 26.1418 29.2958 24.516 29.2975V29.2976ZM8.73706 8.186C8.73743 8.00115 8.77722 7.81819 8.85414 7.64757C8.93106 7.47696 9.04361 7.32203 9.18535 7.19166C9.32708 7.06129 9.49523 6.95804 9.68016 6.88779C9.8651 6.81755 10.0632 6.7817 10.2631 6.7823H22.3269C22.7295 6.7823 23.1157 6.93019 23.4005 7.19343C23.6852 7.45668 23.8452 7.81371 23.8452 8.186C23.8452 8.55828 23.6852 8.91532 23.4005 9.17856C23.1157 9.4418 22.7295 9.58969 22.3269 9.58969H10.2632C10.0633 9.5903 9.86516 9.55446 9.68021 9.48422C9.49527 9.41398 9.32712 9.31072 9.18537 9.18035C9.04363 9.04998 8.93108 8.89506 8.85415 8.72443C8.77722 8.55381 8.73743 8.37085 8.73706 8.186V8.186ZM8.73706 11.8572C8.73743 11.6724 8.77722 11.4894 8.85414 11.3188C8.93106 11.1482 9.04361 10.9932 9.18535 10.8629C9.32708 10.7325 9.49523 10.6292 9.68016 10.559C9.8651 10.4888 10.0632 10.4529 10.2631 10.4535H22.3269C22.7295 10.4535 23.1157 10.6014 23.4005 10.8646C23.6852 11.1279 23.8452 11.4849 23.8452 11.8572C23.8452 12.2295 23.6852 12.5865 23.4005 12.8498C23.1157 13.113 22.7295 13.2609 22.3269 13.2609H10.2632C10.0633 13.2615 9.86516 13.2257 9.68021 13.1554C9.49527 13.0852 9.32712 12.9819 9.18537 12.8516C9.04363 12.7212 8.93108 12.5663 8.85415 12.3956C8.77722 12.225 8.73743 12.0421 8.73706 11.8572V11.8572ZM8.73706 15.5284C8.73743 15.3436 8.77722 15.1606 8.85414 14.99C8.93106 14.8194 9.04361 14.6645 9.18535 14.5341C9.32708 14.4037 9.49523 14.3005 9.68016 14.2302C9.8651 14.16 10.0632 14.1241 10.2631 14.1247H22.3269C22.6298 14.1244 22.926 14.2075 23.1778 14.3633C23.4295 14.5192 23.6253 14.7408 23.7404 14.9999C21.8494 15.1452 20.051 15.8192 18.5843 16.9321H10.2632C10.0633 16.9327 9.86516 16.8969 9.68021 16.8266C9.49527 16.7564 9.32712 16.6531 9.18537 16.5228C9.04363 16.3924 8.93108 16.2375 8.85415 16.0669C8.77722 15.8962 8.73743 15.7133 8.73706 15.5284V15.5284ZM8.73706 19.2356C8.73706 18.4576 9.42169 17.7959 10.2631 17.7959H17.6034C16.8027 18.6597 16.1679 19.5955 15.7483 20.6753H10.2632C9.42169 20.6753 8.73706 20.0136 8.73706 19.2356ZM8.73706 22.9428C8.73743 22.758 8.77722 22.575 8.85414 22.4044C8.93106 22.2338 9.04361 22.0789 9.18535 21.9485C9.32708 21.8181 9.49523 21.7149 9.68016 21.6446C9.8651 21.5744 10.0632 21.5385 10.2631 21.5391H15.4589C15.2676 22.2285 15.172 22.9376 15.1744 23.6493C15.1744 23.8869 15.1852 24.1306 15.2056 24.3465H10.2632C10.0633 24.3471 9.86516 24.3113 9.68021 24.241C9.49527 24.1708 9.32712 24.0675 9.18537 23.9372C9.04363 23.8068 8.93108 23.6519 8.85415 23.4813C8.77722 23.3106 8.73743 23.1277 8.73706 22.9428ZM8.73706 26.614C8.73743 26.4292 8.77722 26.2462 8.85414 26.0756C8.93106 25.905 9.04361 25.7501 9.18535 25.6197C9.32708 25.4893 9.49523 25.3861 9.68016 25.3158C9.8651 25.2456 10.0632 25.2097 10.2631 25.2103H15.3292C15.5302 26.2009 15.9179 27.1512 16.4745 28.0177H10.2632C10.0633 28.0183 9.86516 27.9825 9.68021 27.9122C9.49527 27.842 9.32712 27.7388 9.18537 27.6084C9.04363 27.478 8.93108 27.3231 8.85415 27.1525C8.77722 26.9818 8.73743 26.7989 8.73706 26.614V26.614ZM10.2631 31.6889C9.86045 31.6889 9.47427 31.541 9.18954 31.2778C8.9048 31.0146 8.74484 30.6575 8.74484 30.2852C8.74484 29.9129 8.9048 29.5559 9.18954 29.2927C9.47427 29.0294 9.86045 28.8815 10.2631 28.8815H17.1071C18.1558 30.1773 19.5718 31.1131 21.206 31.6889H10.2631ZM30.7426 28.8448L29.7938 27.9673C30.8045 26.9207 31.4224 25.6002 31.5552 24.2025H32.9001C32.7626 25.9294 32.003 27.5639 30.7427 28.8448H30.7426Z" fill="#FCFCFC"/>
</svg>
