<svg width="1142" height="593" viewBox="0 0 1142 593" fill="none" xmlns="http://www.w3.org/2000/svg">
<g filter="url(#filter0_d_1_21956)">
<path d="M4.01735 552.334C3.85473 545.764 4.8928 2.36545 4.8928 2.17544C4.8928 1.88752 5.02507 0.49972 5.02507 0.0774445C57.2196 0.0774334 986.57 0.109991 1137.97 0.0771484C1138.14 6.64783 1137.51 543.616 1137.67 550.186C1137.67 550.895 1137.72 551.653 1137.67 552.065C1137.48 553.816 1137.63 555.952 1137.67 557.705C1137.73 559.77 1137.62 561.396 1137.67 563.461C1137.71 564.962 1137.64 565.751 1137.67 567.252C1131.57 567.065 1122.81 567.398 1117.8 566.702C1111.81 565.87 1105.88 566.388 1101.07 566.53C1095.54 566.694 1091.03 566.592 1086.06 566.195C1084.03 566.034 1081.74 566.088 1079.57 566.044C1078.13 565.513 1075.94 565.029 1075.37 564.442C1073.85 562.885 1068.92 562.688 1064.2 562.468C1062.68 562.398 1059.63 562.704 1059.33 562.981C1057.86 564.352 1054.17 564.486 1049.62 564.418C1046.35 564.369 1043.05 564.416 1039.77 564.42C1038.4 564.234 1037.08 563.927 1035.64 563.884C1029.65 563.703 1023.64 563.549 1017.62 563.492C1014.23 563.459 1010.35 563.413 1007.55 563.789C1005.58 564.054 1000.38 564.048 1002.23 565.328C1004.8 567.039 1003.09 568.365 996.766 569.275C993.049 571.038 986.751 570.976 979.997 571.054C972.987 571.136 966.067 571.69 959.098 572.027C956.49 572.153 953.71 572.493 952.316 571.461C952.027 571.247 949.385 571.034 948.249 571.134C938.947 571.946 933.427 570.309 927.201 569.112C924.217 568.197 921.004 567.324 918.313 566.357C915.659 565.403 912.485 564.887 907.81 564.906C896.327 564.952 884.837 564.922 873.358 564.996C870.693 565.013 868.056 565.324 865.406 565.499C860.811 565.341 856.281 564.806 851.575 564.404C848.587 564.149 845.308 563.938 842.209 563.975C834.201 564.07 826.226 564.342 818.22 564.477C816.343 564.509 814.184 564.376 812.519 564.147C805.282 563.151 797.957 563.142 790.319 563.786C788.957 563.901 787.219 563.745 785.666 563.692C780.847 563.528 775.814 563.043 771.266 563.252C763.06 563.629 755.812 563.426 748.589 562.37C744.714 561.804 740.742 561.89 737.03 562.763C735.243 563.183 732.331 563.382 729.804 563.485C726.756 563.609 723.552 563.469 720.466 563.557C719.063 563.597 716.84 563.849 716.595 564.105C715.117 565.643 713.405 567.232 718.522 568.601C720.159 570.32 722.086 572.058 713.399 573.003C712.985 573.048 712.799 573.232 712.517 573.353C710.436 574.244 707.726 574.895 703.635 575.204C698.422 575.597 695.585 576.601 694.283 577.92C692.562 579.662 686.584 580.35 681.061 580.699C670.509 581.367 658.556 580.892 650.603 583.439C650.305 583.534 649.62 583.583 649.095 583.595C643.627 583.717 638.155 583.927 632.685 583.922C619.842 583.912 606.992 583.846 594.165 583.697C590.065 583.65 586.041 583.249 581.954 583.048C576.865 582.797 571.742 582.593 566.642 582.357C562.252 582.155 557.715 582.056 553.527 581.696C547.921 581.215 542.022 580.417 536.653 581.256C527.442 582.695 517.344 582.242 507.82 582.3C496.078 582.371 484.251 581.758 472.505 581.355C470.051 581.27 467.799 580.808 465.442 580.526C463.15 580.252 460.803 579.737 458.55 579.761C448.874 579.862 439.23 580.27 429.563 580.295C411.943 580.341 394.317 580.184 376.692 580.142C374.354 580.137 371.659 580.148 369.728 580.423C360.42 581.751 350.353 581.227 340.569 581.276C336.66 581.295 332.509 580.667 328.836 580.84C311.624 581.653 296.708 580.194 282.106 578.162C280.021 577.872 277.227 577.887 274.737 577.824C273.525 577.794 272.195 577.997 271.026 577.943C264.465 577.642 257.99 577.164 251.385 576.993C240.478 576.71 229.492 576.632 218.547 576.438C207.932 576.25 197.969 577.16 187.701 577.524C173.233 578.037 158.472 577.994 143.859 578.267C134.852 578.436 125.897 578.778 116.899 578.991C103.35 579.311 90.8341 581.273 76.675 580.627C75.8342 580.588 74.8892 580.708 73.9871 580.746C63.395 581.193 52.7889 581.621 42.2137 582.093C37.2076 582.317 31.6907 582.36 27.4179 582.957C20.7687 583.886 11.5104 584.122 4.01735 584.07C4.01735 574.033 4.01735 564.331 4.01735 554.007C3.99894 553.471 4.39937 552.869 4.01735 552.334Z" fill="white"/>
</g>
<defs>
<filter id="filter0_d_1_21956" x="6.10352e-05" y="0.0771484" width="1142" height="592" filterUnits="userSpaceOnUse" color-interpolation-filters="sRGB">
<feFlood flood-opacity="0" result="BackgroundImageFix"/>
<feColorMatrix in="SourceAlpha" type="matrix" values="0 0 0 0 0 0 0 0 0 0 0 0 0 0 0 0 0 0 127 0" result="hardAlpha"/>
<feOffset dy="4"/>
<feGaussianBlur stdDeviation="2"/>
<feComposite in2="hardAlpha" operator="out"/>
<feColorMatrix type="matrix" values="0 0 0 0 0 0 0 0 0 0 0 0 0 0 0 0 0 0 0.25 0"/>
<feBlend mode="normal" in2="BackgroundImageFix" result="effect1_dropShadow_1_21956"/>
<feBlend mode="normal" in="SourceGraphic" in2="effect1_dropShadow_1_21956" result="shape"/>
</filter>
</defs>
</svg>
