<svg width="63" height="25" viewBox="0 0 63 25" fill="none" xmlns="http://www.w3.org/2000/svg">
<path d="M29.6533 5.45795H33.9233V19.3899H29.6533V5.45795ZM11.5495 15.3291C11.5495 10.5171 5.04874 11.3835 5.04874 9.56195L5.05129 9.56675C5.05129 8.93795 5.6077 8.69315 6.49847 8.68355C7.9759 8.71305 9.42535 9.06817 10.7302 9.72035V5.91875C9.38654 5.42013 7.95316 5.16996 6.50868 5.18195C3.06047 5.18195 0.763367 6.89075 0.763367 9.74675C0.763367 14.2203 7.22588 13.4931 7.22588 15.4227C7.22588 16.1667 6.54696 16.4139 5.59749 16.4139C4.19116 16.4139 2.37134 15.8595 0.944583 15.1227V18.7611C2.40949 19.3612 3.98943 19.6732 5.58728 19.6779C9.11972 19.6755 11.5495 18.2379 11.5495 15.3291ZM29.6405 4.23395L33.9106 3.36995V0.0771484L29.6405 0.941149V4.23395ZM42.7952 5.18675C41.5517 5.18185 40.3557 5.636 39.4644 6.45155L39.2449 5.45075H35.5007V24.0771L39.7503 23.2203L39.7605 18.6555C40.3731 19.0827 41.2817 19.6756 42.7672 19.6756C45.8121 19.6756 48.5865 17.5659 48.5865 12.4371C48.5967 7.74275 45.784 5.18675 42.7952 5.18675ZM41.782 16.3252C40.784 16.3276 40.1944 15.9819 39.7809 15.5619L39.7529 9.55955C40.1944 9.09635 40.807 8.75795 41.782 8.75795C43.3312 8.75795 44.4032 10.4139 44.4032 12.5235C44.416 14.6979 43.3619 16.3252 41.782 16.3252ZM55.8734 5.18675C51.8331 5.18675 49.3726 8.45075 49.3726 12.5643C49.3726 17.4291 52.2721 19.6779 56.4094 19.6779C58.4385 19.6779 59.9597 19.2411 61.1185 18.6315V15.5931C59.9597 16.1475 58.6299 16.4836 56.9454 16.4836C55.2889 16.4836 53.8341 15.9291 53.6427 14.0379H61.9607C61.9786 13.8291 62.0169 12.9819 62.0169 12.5931C62.0169 8.45315 59.9138 5.18675 55.8734 5.18675ZM53.6044 11.0619C53.6044 9.24275 54.7836 8.47955 55.8453 8.47955C56.8892 8.47955 57.9995 9.24515 57.9995 11.0619H53.6044ZM19.7834 8.89715V5.45795H16.5572L16.547 1.95635L12.3995 2.79395L12.3816 15.7443C12.3816 18.1371 14.278 19.6827 16.7946 19.6827C18.1933 19.6827 19.2168 19.4355 19.7834 19.1451V16.0707C19.2372 16.2795 16.5572 17.0259 16.5572 14.6427V8.89475H19.7834V8.89715ZM28.6272 9.17075V5.46035C28.053 5.26835 26.0723 4.91555 25.0769 6.65075L24.8166 5.46035H21.1412V19.3924H25.3832V10.0155C26.3888 8.76035 28.0836 9.00755 28.6272 9.17075Z" fill="#646FDE"/>
</svg>
